<?xml version="1.0" encoding="utf-8"?>
<!-- Generator: Adobe Illustrator 27.5.0, SVG Export Plug-In . SVG Version: 6.00 Build 0)  -->
<svg version="1.1" xmlns="http://www.w3.org/2000/svg" xmlns:xlink="http://www.w3.org/1999/xlink" x="0px" y="0px"
	 viewBox="0 0 690.177 500" style="enable-background:new 0 0 690.177 500;" xml:space="preserve">
<g id="BACKGROUND">
	<rect style="fill:#FFFFFF;" width="690.177" height="500"/>
</g>
<g id="OBJECTS">
	<g>
		<path style="opacity:0.63;fill:#E0CCCC;" d="M194.03,455.599c-11.252,3.647-22.541,7.291-34.874,7.517
			c-27.281,0.5-57.093-1.988-80.937-16.348C60.672,436.2,45.827,417.065,48.949,396.82c3.078-19.965,23.22-32.167,26.802-51.288
			c3.626-19.349-10.641-36.927-11.912-55.694c-1.857-27.413,26.181-49.781,25.444-77.247c-0.434-16.169-10.825-30.261-14.928-45.906
			c-5.088-19.401,0.119-40.862,12.28-56.813c12.161-15.95,30.763-26.463,50.444-30.328c33.031-6.486,68.406,4.721,100.345-5.909
			c25.226-8.395,44.213-29.096,67.348-42.195C350.26,5.687,412.317,13.668,449.807,50.094c8.653,8.408,16.198,18.213,26.472,24.539
			c33.671,20.733,79.564-3.895,116.362,10.578c34.696,13.646,54.283,61.894,44.009,96.582
			c-6.657,22.477-23.913,41.596-25.985,64.946c-2.158,24.314,12.544,46.422,21.479,69.138c11.762,29.903,13.501,64.6,0.115,93.812
			c-13.386,29.212-43.269,51.448-75.401,51.323c-28.531-0.111-55.083-16.715-83.615-16.707
			c-35.998,0.01-66.489,25.947-101.226,35.393c-24.341,6.619-50.892,4.796-74.1-5.089c-18.295-7.793-34.652-20.433-54.018-24.949
			C225.503,445.369,209.804,450.486,194.03,455.599z"/>
		<g>
			
				<circle style="opacity:0.3;fill:none;stroke:#CC6868;stroke-width:3;stroke-miterlimit:10;" cx="107.527" cy="295.683" r="15.776"/>
			
				<circle style="opacity:0.3;fill:none;stroke:#CC6868;stroke-width:3;stroke-miterlimit:10;" cx="410.548" cy="281.698" r="15.776"/>
			
				<circle style="opacity:0.3;fill:none;stroke:#CC6868;stroke-width:3;stroke-miterlimit:10;" cx="620.97" cy="371.188" r="19.523"/>
			
				<circle style="opacity:0.3;fill:none;stroke:#CC6868;stroke-width:3;stroke-miterlimit:10;" cx="105.092" cy="380.422" r="10.863"/>
			
				<circle style="opacity:0.3;fill:none;stroke:#CC6868;stroke-width:3;stroke-miterlimit:10;" cx="555.723" cy="167.546" r="10.863"/>
			
				<ellipse transform="matrix(0.159 -0.9873 0.9873 0.159 -222.2842 431.9221)" style="opacity:0.3;fill:none;stroke:#CC6868;stroke-width:3;stroke-miterlimit:10;" cx="142.372" cy="346.429" rx="24.669" ry="24.669"/>
			
				<circle style="opacity:0.3;fill:none;stroke:#CC6868;stroke-width:3;stroke-miterlimit:10;" cx="468.144" cy="205.578" r="19.449"/>
		</g>
		<g>
			<g>
				<rect x="123.722" y="105.355" style="opacity:0.42;fill:#FFFFFF;" width="244.727" height="148.39"/>
				<rect x="123.722" y="98.668" style="opacity:0.63;fill:#D4B6B6;" width="244.727" height="9.365"/>
				<g>
					<path style="fill:#FFFFFF;" d="M135.124,103.5c0,1.964-1.592,3.556-3.556,3.556c-1.964,0-3.556-1.592-3.556-3.556
						c0-1.964,1.592-3.556,3.556-3.556C133.532,99.944,135.124,101.536,135.124,103.5z"/>
					<circle style="fill:#FFFFFF;" cx="144" cy="103.5" r="3.556"/>
					<circle style="fill:#FFFFFF;" cx="156.431" cy="103.5" r="3.556"/>
				</g>
			</g>
			<g style="opacity:0.63;">
				<g>
					<polygon style="fill:#D4B6B6;" points="159.911,138.45 148.001,122.984 136.092,138.45 					"/>
					<rect x="144.42" y="131.47" style="fill:#D4B6B6;" width="6.572" height="120.23"/>
				</g>
				<g>
					<polygon style="fill:#D4B6B6;" points="186.617,138.45 174.708,122.984 162.798,138.45 					"/>
					<rect x="171.127" y="131.47" style="fill:#D4B6B6;" width="6.572" height="120.23"/>
				</g>
				<g>
					<polygon style="fill:#D4B6B6;" points="213.324,205.422 201.414,189.956 189.505,205.422 					"/>
					<rect x="197.833" y="198.442" style="fill:#D4B6B6;" width="6.572" height="53.258"/>
				</g>
				<g>
					<polygon style="fill:#D4B6B6;" points="240.03,205.422 228.121,189.956 216.211,205.422 					"/>
					<rect x="224.54" y="198.442" style="fill:#D4B6B6;" width="6.572" height="53.258"/>
				</g>
				<g>
					<polygon style="fill:#D4B6B6;" points="266.737,188.679 254.827,173.213 242.918,188.679 					"/>
					<rect x="251.246" y="181.699" style="fill:#D4B6B6;" width="6.572" height="70.001"/>
				</g>
				<g>
					<polygon style="fill:#D4B6B6;" points="293.443,171.936 281.534,156.47 269.624,171.936 					"/>
					<rect x="277.953" y="164.956" style="fill:#D4B6B6;" width="6.572" height="86.744"/>
				</g>
				<rect x="136.156" y="245.228" style="fill:#D4B6B6;" width="170.935" height="7.77"/>
			</g>
		</g>
		<g>
			<g>
				<rect x="268.096" y="46.967" style="fill:#FFFFFF;" width="244.727" height="148.39"/>
				<rect x="268.096" y="40.281" style="fill:#D4B6B6;" width="244.727" height="9.365"/>
				<g>
					<path style="fill:#FFFFFF;" d="M279.498,45.113c0,1.964-1.592,3.556-3.556,3.556c-1.964,0-3.556-1.592-3.556-3.556
						c0-1.964,1.592-3.556,3.556-3.556C277.906,41.557,279.498,43.149,279.498,45.113z"/>
					<path style="fill:#FFFFFF;" d="M291.93,45.113c0,1.964-1.592,3.556-3.556,3.556c-1.964,0-3.556-1.592-3.556-3.556
						c0-1.964,1.592-3.556,3.556-3.556C290.338,41.557,291.93,43.149,291.93,45.113z"/>
					<path style="fill:#FFFFFF;" d="M304.361,45.113c0,1.964-1.592,3.556-3.556,3.556c-1.964,0-3.556-1.592-3.556-3.556
						c0-1.964,1.592-3.556,3.556-3.556C302.769,41.557,304.361,43.149,304.361,45.113z"/>
				</g>
			</g>
			<g>
				<g>
					<path style="fill:#86B4E3;" d="M317.261,65.077c-14.876,0-26.935,12.059-26.935,26.935c0,14.876,12.059,26.935,26.935,26.935
						c14.876,0,26.935-12.059,26.935-26.935C344.196,77.136,332.137,65.077,317.261,65.077z M317.261,102.11
						c-5.577,0-10.098-4.521-10.098-10.098s4.521-10.098,10.098-10.098c5.577,0,10.098,4.521,10.098,10.098
						S322.838,102.11,317.261,102.11z"/>
					<path style="fill:#43609C;" d="M299.68,112.408c2.014-2.368,4.022-4.741,6-7.14c1.595-1.935,3.174-3.887,4.722-5.861
						c-1.987-1.844-3.238-4.471-3.238-7.396c0-5.577,4.521-10.098,10.098-10.098c2.363,0,4.534,0.813,6.252,2.174
						c1.582-1.582,3.163-3.163,4.745-4.745c2.396-2.396,4.792-4.792,7.188-7.188c-4.791-4.393-11.172-7.078-18.185-7.078
						c-14.876,0-26.935,12.059-26.935,26.935C290.326,100.167,293.955,107.469,299.68,112.408z"/>
					<path style="fill:#CF7765;" d="M324.512,85.008c1.634,1.696,2.688,3.956,2.82,6.466c0.944,0,1.887,0,2.831-0.002
						c4.672-0.007,9.345-0.017,14.018-0.066c-0.158-7.133-3.092-13.578-7.758-18.309C332.453,77.068,328.482,81.038,324.512,85.008z
						"/>
				</g>
				<g>
					<g>
						<path style="fill:#86B4E3;" d="M384.528,65.077c-14.876,0-26.935,12.059-26.935,26.935s12.059,26.935,26.935,26.935
							c14.876,0,26.935-12.059,26.935-26.935S399.404,65.077,384.528,65.077z M384.528,102.11c-5.577,0-10.098-4.521-10.098-10.098
							s4.521-10.098,10.098-10.098c5.577,0,10.098,4.521,10.098,10.098S390.105,102.11,384.528,102.11z"/>
						<path style="fill:#43609C;" d="M378.979,83.579c-3.249-4.579-6.482-9.169-9.818-13.684
							c-6.99,4.866-11.569,12.955-11.569,22.117c0,8.154,3.629,15.457,9.353,20.396c2.014-2.368,4.022-4.741,6-7.14
							c1.595-1.935,3.174-3.887,4.722-5.861c-1.987-1.844-3.238-4.47-3.238-7.395C374.43,88.486,376.24,85.385,378.979,83.579z"/>
						<path style="fill:#43609C;" d="M384.528,65.077c-5.225,0-10.099,1.492-14.228,4.067c3.355,4.543,6.607,9.161,9.876,13.767
							c1.319-0.632,2.791-0.997,4.352-0.997c2.363,0,4.535,0.813,6.252,2.174c1.582-1.582,3.163-3.163,4.745-4.745
							c2.396-2.396,4.792-4.792,7.188-7.188C397.922,67.762,391.541,65.077,384.528,65.077z"/>
					</g>
					<path style="fill:#CF7765;" d="M384.528,65.077c-5.224,0-10.09,1.504-14.219,4.078c3.353,4.54,6.603,9.156,9.87,13.758
						c1.318-0.635,2.789-1,4.35-1c2.363,0,4.535,0.813,6.252,2.174c1.582-1.582,3.163-3.163,4.745-4.745
						c2.396-2.396,4.792-4.792,7.188-7.188C397.922,67.762,391.541,65.077,384.528,65.077z"/>
				</g>
				<g>
					<g>
						<path style="fill:#86B4E3;" d="M451.795,65.077c-14.876,0-26.935,12.059-26.935,26.935c0,14.876,12.059,26.935,26.935,26.935
							c14.876,0,26.935-12.059,26.935-26.935C478.73,77.136,466.671,65.077,451.795,65.077z M451.795,102.11
							c-5.577,0-10.098-4.521-10.098-10.098s4.521-10.098,10.098-10.098c5.577,0,10.098,4.521,10.098,10.098
							S457.372,102.11,451.795,102.11z"/>
						<path style="fill:#43609C;" d="M446.246,83.579c-3.249-4.578-6.482-9.169-9.818-13.684
							c-6.99,4.866-11.569,12.955-11.569,22.117c0,8.155,3.629,15.457,9.354,20.396c2.014-2.368,4.022-4.741,6-7.14
							c1.595-1.935,3.173-3.887,4.722-5.861c-1.987-1.844-3.238-4.47-3.238-7.396C441.697,88.486,443.507,85.385,446.246,83.579z"/>
					</g>
					<path style="fill:#CF7765;" d="M461.634,89.766h16.998c-0.495-5.982-2.943-11.409-6.707-15.642l-11.965,11.965
						C460.748,87.173,461.324,88.418,461.634,89.766z"/>
					<path style="fill:#A9D6BE;" d="M461.893,92.012c0,3.75-2.049,7.016-5.084,8.757c4.022,4.023,8.045,8.045,12.068,12.068
						c6.015-4.94,9.853-12.434,9.853-20.825c0-0.298-0.011-0.593-0.021-0.889h-16.858C461.877,91.416,461.893,91.712,461.893,92.012
						z"/>
				</g>
			</g>
			<g style="opacity:0.39;">
				
					<line style="fill:none;stroke:#86B4E3;stroke-width:4;stroke-miterlimit:10;" x1="294.141" y1="138.823" x2="381.035" y2="138.823"/>
				
					<line style="fill:none;stroke:#86B4E3;stroke-width:4;stroke-miterlimit:10;" x1="294.141" y1="146.489" x2="350.237" y2="146.489"/>
				
					<line style="fill:none;stroke:#86B4E3;stroke-width:4;stroke-miterlimit:10;" x1="294.141" y1="154.155" x2="350.237" y2="154.155"/>
				
					<line style="fill:none;stroke:#86B4E3;stroke-width:4;stroke-miterlimit:10;" x1="294.141" y1="161.821" x2="383.235" y2="161.821"/>
				
					<line style="fill:none;stroke:#86B4E3;stroke-width:4;stroke-miterlimit:10;" x1="294.141" y1="169.487" x2="350.237" y2="169.487"/>
				
					<line style="fill:none;stroke:#86B4E3;stroke-width:4;stroke-miterlimit:10;" x1="294.141" y1="177.153" x2="328.239" y2="177.153"/>
			</g>
			<g>
				
					<line style="fill:none;stroke:#000000;stroke-width:0.75;stroke-miterlimit:10;" x1="391.522" y1="138.492" x2="467.638" y2="138.492"/>
				
					<line style="fill:none;stroke:#000000;stroke-width:0.75;stroke-miterlimit:10;" x1="391.522" y1="146.158" x2="440.66" y2="146.158"/>
				
					<line style="fill:none;stroke:#000000;stroke-width:0.75;stroke-miterlimit:10;" x1="391.522" y1="153.824" x2="440.66" y2="153.824"/>
				
					<line style="fill:none;stroke:#000000;stroke-width:0.75;stroke-miterlimit:10;" x1="391.522" y1="161.49" x2="469.565" y2="161.49"/>
				
					<line style="fill:none;stroke:#000000;stroke-width:0.75;stroke-miterlimit:10;" x1="391.522" y1="169.156" x2="440.66" y2="169.156"/>
				
					<line style="fill:none;stroke:#000000;stroke-width:0.75;stroke-miterlimit:10;" x1="391.522" y1="176.822" x2="421.391" y2="176.822"/>
			</g>
		</g>
		<g>
			
				<rect x="472.184" y="284.24" transform="matrix(6.123234e-17 -1 1 6.123234e-17 316.0155 898.4188)" style="fill:#D4B6B6;" width="270.066" height="13.922"/>
			<rect x="463.783" y="279.638" style="fill:#D4B6B6;" width="13.959" height="146.596"/>
			<rect x="430.817" y="342.35" style="fill:#D4B6B6;" width="13.959" height="83.884"/>
			<polygon style="fill:#D4B6B6;" points="607.352,139.679 594.385,160.799 620.882,160.799 			"/>
			<g>
				<rect x="571.954" y="212.759" style="fill:#D4B6B6;" width="13.922" height="213.475"/>
				<polygon style="fill:#D4B6B6;" points="578.511,195.786 565.544,216.905 592.04,216.905 				"/>
			</g>
			<polygon style="fill:#D4B6B6;" points="438.06,326.74 425.094,347.86 451.59,347.86 			"/>
		</g>
		<g>
			<path style="fill:#D6906F;" d="M141.831,393.807c3.058-0.287,6.168-0.015,9.13,0.797c1.358-5.08,2.602-10.19,3.731-15.326
				c0.744-3.384,0.271-6.49-3.609-7.147c-2.354-0.399-4.47,0.4-5.762,2.363C142.192,379.25,142.013,388.391,141.831,393.807z"/>
			<path d="M146.117,401.197h17.823c0.807-0.357,1.477-0.975,1.88-1.961c0.068-0.166,0.128-0.342,0.18-0.53
				c0.527-1.902-0.843-3.604-2.687-3.874c-2.524-0.37-4.885-0.969-7.314-1.76c-0.837-0.273-1.72-0.57-2.417-1.128
				c-0.603-0.482-0.834-1.38-1.611-1.612c-0.322-0.096-0.665,0.024-0.98,0.14c-1.293,0.476-2.69,1.062-4.02,1.377
				c-1.412,0.334-2.972-0.278-4.358-0.497c-0.13-0.021-0.264-0.039-0.392-0.008c-0.364,0.091-0.505,0.523-0.585,0.889
				c-0.335,1.524-0.669,3.047-1.003,4.571C139.91,400.091,143.476,400.951,146.117,401.197z"/>
			<path style="fill:#D6906F;" d="M201.489,339.988c3.058-0.287,6.167-0.015,9.129,0.797c0.882,0.235,4.29-20.237,4.535-21.741
				c0.679-4.168,1.852-8.654,1.927-12.886c0.094-5.318-5.207-9.575-10.029-5.437c-2.27,1.948-3.239,4.992-3.863,7.918
				C202.618,311.31,201.505,339.987,201.489,339.988z"/>
			<path d="M204.094,347.452h19.666c0.847-0.531,1.333-1.424,1.401-2.325c0.08-1.055-0.395-2.147-1.476-2.768
				c-0.453-0.26-0.977-0.351-1.487-0.449c-1.599-0.307-3.18-0.719-4.728-1.233c-1.274-0.423-2.581-0.942-3.655-1.785
				c-0.782-0.614-1.388-2.109-2.419-2.038c-0.884,0.061-1.628,0.663-2.419,1.073c-2.315,1.2-4.329,0.013-6.705-0.374
				c-0.13-0.021-0.264-0.041-0.392-0.008c-0.364,0.093-0.505,0.539-0.585,0.917c-0.335,1.57-0.669,3.141-1.003,4.711
				C199.715,345.871,201.861,346.983,204.094,347.452z"/>
			<path d="M218.02,268.368c-1.676-3.312-7.423-4.322-10.599-5.335c-10.554-3.366-21.008-5.032-30.288-11.597
				c-6.299-4.456-19.654-15.109-27.187-6.691c-1.164,1.3-1.778,2.988-2.367,4.631c-5.924,15.47-2.964,35.936-3.306,52.297
				c-0.388,18.569-0.773,37.15-2.068,55.683c-0.371,5.313-4.618,21.041-1.068,25.147c2.333,2.698,7.981,2.116,11.112,2.074
				c5.689-0.078,6.625-0.472,7.753-6.163c3.044-15.349,6.088-30.699,9.131-46.048c3.118-15.724,2.625-31.945,4.023-47.92
				c0.009-0.103,0.043-0.183,0.078-0.261c0.002-0.057,0.005-0.115,0.007-0.172c0.03,0.008,0.06,0.014,0.089,0.021
				c0.363-0.427,1.189-0.252,1.401,0.336c6.771,1.612,13.731,2.31,20.663,2.99c7.588,0.745,15.647-1.993,20.065-8.611
				C217.27,276.041,219.678,271.644,218.02,268.368z"/>
			<path d="M222.525,296.23c0.34-4.178,0.522-8.368,0.544-12.559c0.048-9.15-6.097-25.368-18.514-17.65
				c-3.12,1.94-6.241,5.943-6.895,9.642c-0.746,4.215-0.325,8.62-0.248,12.882c0.209,11.552,2.163,23.018,1.747,34.81
				c6.172-0.896,12.549-0.347,18.476,1.591C220.097,315.543,221.737,305.921,222.525,296.23z"/>
			<path style="fill:#43609C;" d="M157.569,254.042c7.427,0.647,14.932,0.686,22.312-0.473c0.384-0.06,0.765-0.14,1.148-0.207
				c0.007-0.048,0.015-0.094,0.021-0.141c1.468-10.406,2.936-20.812,4.404-31.217c0.73-5.174,1.932-11.896-1.178-16.536
				c-5.87-8.755-17.142-6.879-23.477,0.165c-3.182,3.538-5.247,7.931-6.959,12.371c-0.734,1.902-1.412,3.828-1.957,5.793
				c-0.046,0.167-0.092,0.335-0.137,0.503c-0.549,2.075-0.942,4.188-1.334,6.298c-1.318,5.304-2.017,10.848-3.016,16.223
				c-0.376,2.02-0.84,3.966-1.117,5.873C150.032,253.234,153.793,253.714,157.569,254.042z"/>
			<path style="fill:#D6906F;" d="M177.84,261.234c0.686,0.395,1.376,0.776,2.062,1.148c4.61,2.503,9.359,4.739,14.183,6.795
				c3.816,1.626,7.44,4.043,11.589,4.753c3.684,0.63,8.34,0.228,11.029-2.704c0.716-0.781,1.275-1.827,1.074-2.867
				c-0.201-1.04-1.452-1.866-2.366-1.332c-0.254,0.148-0.45,0.375-0.671,0.567c-0.934,0.811-2.267,0.974-3.503,0.908
				c-1.235-0.066-2.468-0.323-3.7-0.205c-0.446,0.043-0.901,0.134-1.338,0.032c-0.458-0.107-0.839-0.414-1.203-0.712
				c-2.84-2.328-6.056-4.564-8.359-7.452c-0.984-1.234-1.696-2.659-2.577-3.969c-1.419-2.11-3.283-3.919-5.435-5.273
				c-4.216-2.653-5.717-6.39-7.782-10.782c-0.637-1.355-1.278-2.72-1.641-4.173c-0.466-1.867-0.459-3.818-0.756-5.72
				c-0.425-2.719-1.466-5.303-2.652-7.786c-1.076-2.252-2.309-4.488-4.142-6.182c-1.833-1.694-4.368-2.789-6.828-2.37
				c-3.054,0.519-5.352,3.267-6.233,6.236c-0.881,2.97-0.605,6.147-0.241,9.223c0.351,2.96,0.797,5.981,2.195,8.614
				c1.341,2.526,3.296,4.682,4.716,7.169c1.352,2.366,2.079,4.929,3.26,7.387C170.395,256.435,174.043,259.046,177.84,261.234z"/>
			<path style="fill:#D6906F;" d="M205.418,157.564c1.331-2.42,2.963-4.231,5.014-4.704c7.616-1.747,1.728,22.589,0.914,26.27
				c-0.67,3.03-1.47,6.052-2.785,8.863c-3.186,6.81-9.031,11.411-13.747,17.034c-3.162,3.77-5.09,7.855-10.604,8.361
				c-1.646,0.151-3.466,0.059-4.707-1.033c-2.16-1.9-2.283-5.734-1.728-8.304c1.381-6.391,8.15-13.85,12.911-18.118
				c2.502-2.243,5.403-4.165,7.171-7.023c0.873-1.412,1.429-2.993,1.978-4.561C201.081,170.793,202.555,162.77,205.418,157.564z"/>
			<path style="fill:#43609C;" d="M187.574,199.68c-0.115-0.127-0.23-0.254-0.345-0.38c-1.776-1.956-3.561-4.44-5.531-6.078
				c-1.832,3.058-3.483,6.243-5.216,9.361c-0.607,1.093-1.219,2.196-1.597,3.388c-1.573,4.954,0.809,11.294,3.505,15.475
				c6.128,9.532,12.685-6.98,15.786-11.767c0.181-0.279,0.367-0.575,0.384-0.906c0.022-0.432-0.246-0.819-0.502-1.168
				C191.967,204.751,189.949,202.295,187.574,199.68z"/>
			<path style="fill:#D6906F;" d="M168.34,195.619c0.623-1.923,1.031-3.915,1.207-5.928c0.205-2.342,0.114-4.764,0.955-6.96
				c0.869-2.268,2.744-4.13,5.018-4.982c8.827-3.31,10.165,6.868,9.258,13.087c-0.177,1.214-0.537,2.475-1.431,3.316
				c-0.706,0.665-1.659,0.988-2.493,1.482c-1.298,0.77-1.695,2.416-1.931,3.795c-0.13,0.761-0.226,1.536-0.117,2.3
				c0.054,0.376,0.696,1.702,0.65,1.897c-0.614,2.572-3.143,4.55-5.787,4.526c-3.591-0.032-6.279-3.17-8.441-6.038
				C166.551,200.102,167.598,197.91,168.34,195.619z"/>
			<path d="M181.71,171.927c-0.052-0.003-0.104-0.005-0.155-0.005c-1.783-0.019-3.436,1.106-4.442,2.578
				c-0.165,0.242-0.327,0.504-0.583,0.646c-0.24,0.133-0.527,0.142-0.801,0.16c-2.091,0.142-4.114,1.12-5.525,2.67
				c-1.38,1.517-2.002,3.385-2.14,5.398c-0.081,1.175-0.065,2.099,0.228,3.213c0.21,0.801,0.144,1.316,0.253,2.038
				c0.306,2.029,2.054,1.885,3.104,0.175c0.59-0.962,0.951-2.043,1.361-3.094c0.521-1.335,1.171-2.691,2.314-3.556
				c1.096-0.829,2.503-1.1,3.86-1.32c1.356-0.22,2.762-0.428,3.922-1.165C186.131,177.743,185.816,172.157,181.71,171.927z"/>
			<path style="fill:#D6906F;" d="M174.606,185.174c-0.539-1.064-1.802-1.459-2.864-0.906c-1.206,0.628-1.877,2.345-1.619,3.65
				c0.229,1.154,1.41,1.985,2.465,1.324c0.483-0.13,0.943-0.406,1.277-0.76C174.683,187.618,175.178,186.304,174.606,185.174z"/>
			<path style="fill:#43609C;" d="M155.469,220.769c-0.281,5.27,0.941,10.491,2.155,15.627c2.316-2.225,5.503-3.244,8.571-4.194
				c3.233-1.002,6.466-2.003,9.699-3.004c0.921-0.285,1.977-0.705,2.226-1.636c0.086-0.321,0.058-0.66,0.022-0.99
				c-0.76-7.063-4.909-13.619-10.791-17.553c-3.534-2.364-5.51-2.961-8.199,0.668C156.802,212.861,155.677,216.861,155.469,220.769z
				"/>
			<g>
				<polygon style="fill:#A9D6BE;" points="206.429,154.74 206.621,269.746 214.717,269.746 214.525,154.74 				"/>
				<g>
					
						<line style="fill:none;stroke:#161111;stroke-width:0.75;stroke-miterlimit:10;" x1="213.253" y1="251.045" x2="207.012" y2="251.054"/>
					
						<line style="fill:none;stroke:#161111;stroke-width:0.75;stroke-miterlimit:10;" x1="211.322" y1="245.402" x2="207.003" y2="245.408"/>
					
						<line style="fill:none;stroke:#161111;stroke-width:0.75;stroke-miterlimit:10;" x1="211.314" y1="239.757" x2="206.995" y2="239.763"/>
					
						<line style="fill:none;stroke:#161111;stroke-width:0.75;stroke-miterlimit:10;" x1="211.306" y1="234.111" x2="206.987" y2="234.118"/>
					
						<line style="fill:none;stroke:#161111;stroke-width:0.75;stroke-miterlimit:10;" x1="211.298" y1="228.466" x2="206.979" y2="228.473"/>
				</g>
				<g>
					
						<line style="fill:none;stroke:#161111;stroke-width:0.75;stroke-miterlimit:10;" x1="213.212" y1="222.847" x2="206.971" y2="222.856"/>
					
						<line style="fill:none;stroke:#161111;stroke-width:0.75;stroke-miterlimit:10;" x1="211.281" y1="217.205" x2="206.962" y2="217.211"/>
					
						<line style="fill:none;stroke:#161111;stroke-width:0.75;stroke-miterlimit:10;" x1="211.273" y1="211.559" x2="206.954" y2="211.566"/>
					
						<line style="fill:none;stroke:#161111;stroke-width:0.75;stroke-miterlimit:10;" x1="211.265" y1="205.914" x2="206.946" y2="205.921"/>
					
						<line style="fill:none;stroke:#161111;stroke-width:0.75;stroke-miterlimit:10;" x1="211.257" y1="200.269" x2="206.938" y2="200.275"/>
				</g>
				<g>
					
						<line style="fill:none;stroke:#161111;stroke-width:0.75;stroke-miterlimit:10;" x1="213.171" y1="194.65" x2="206.93" y2="194.659"/>
					
						<line style="fill:none;stroke:#161111;stroke-width:0.75;stroke-miterlimit:10;" x1="211.24" y1="189.007" x2="206.921" y2="189.014"/>
					
						<line style="fill:none;stroke:#161111;stroke-width:0.75;stroke-miterlimit:10;" x1="211.232" y1="183.362" x2="206.913" y2="183.368"/>
					
						<line style="fill:none;stroke:#161111;stroke-width:0.75;stroke-miterlimit:10;" x1="211.224" y1="177.717" x2="206.905" y2="177.723"/>
					
						<line style="fill:none;stroke:#161111;stroke-width:0.75;stroke-miterlimit:10;" x1="211.215" y1="172.072" x2="206.897" y2="172.078"/>
				</g>
				<g>
					
						<line style="fill:none;stroke:#161111;stroke-width:0.75;stroke-miterlimit:10;" x1="213.13" y1="166.452" x2="206.889" y2="166.462"/>
					
						<line style="fill:none;stroke:#161111;stroke-width:0.75;stroke-miterlimit:10;" x1="211.199" y1="160.81" x2="206.88" y2="160.816"/>
				</g>
			</g>
			<path style="fill:#D6906F;" d="M214.557,157.822c0.232,0.033,0.465,0.031,0.697-0.025c0.408-0.098,0.738-0.404,0.979-0.748
				c0.906-1.292,0.699-3.157-0.244-4.422c-0.943-1.265-2.486-1.978-4.045-2.218c-0.296-0.046-0.604-0.076-0.893,0.003
				c-2.367,0.64-4.054,5.071-1.372,6.336c0.776,0.366,1.504,0.083,2.306,0.206C212.817,157.083,213.686,157.699,214.557,157.822z"/>
			<path style="fill:none;stroke:#000000;stroke-width:0.5;stroke-miterlimit:10;" d="M178.478,227.957
				c-1.234-5.063-2.856-10.031-4.848-14.847"/>
			<g>
				<defs>
					<path id="SVGID_1_" d="M168.34,195.619c0.623-1.923,1.031-3.915,1.207-5.928c0.205-2.342,0.114-4.764,0.955-6.96
						c0.869-2.268,2.744-4.13,5.018-4.982c8.827-3.31,10.165,6.868,9.258,13.087c-0.177,1.214-0.537,2.475-1.431,3.316
						c-0.706,0.665-1.659,0.988-2.493,1.482c-1.298,0.77-1.695,2.416-1.931,3.795c-0.13,0.761-0.226,1.536-0.117,2.3
						c0.054,0.376,0.696,1.702,0.65,1.897c-0.614,2.572-3.143,4.55-5.787,4.526c-3.591-0.032-6.279-3.17-8.441-6.038
						C166.551,200.102,167.598,197.91,168.34,195.619z"/>
				</defs>
				<clipPath id="SVGID_00000052801076998253414370000001883931132874490517_">
					<use xlink:href="#SVGID_1_"  style="overflow:visible;"/>
				</clipPath>
				<path style="clip-path:url(#SVGID_00000052801076998253414370000001883931132874490517_);" d="M185.005,193.244
					c-1.158,1.158-2.729,1.834-4.333,2.16c-1.604,0.326-3.255,0.326-4.892,0.293c1.429,2.609,4.879,3.901,7.671,2.873"/>
			</g>
			<path style="fill:#FFFFFF;" d="M178.882,190.395c0.624,0.796,1.786,1.118,2.73,0.757c0.944-0.361,1.595-1.376,1.528-2.385"/>
			<path style="fill:none;stroke:#000000;stroke-width:0.5;stroke-miterlimit:10;" d="M173.281,185.388
				c-0.79-0.027-1.575,0.456-1.907,1.174c-0.332,0.718-0.192,1.628,0.341,2.213"/>
			<path style="fill:none;stroke:#43609C;stroke-width:0.5;stroke-miterlimit:10;" d="M173.242,284.013
				c0.37-6.496,0.188-11.561,0.003-18.065"/>
			<path style="fill:none;stroke:#000000;stroke-width:0.5;stroke-miterlimit:10;" d="M170.649,252.138
				c0.129,1.477,1.216,2.825,2.633,3.264"/>
			<path style="fill:#D6906F;" d="M206.578,154.892c0.13,2.709,2.984,0.388,3.185-1.123c0.159-1.198-1.49-2.236-2.505-1.383
				c-0.666,0.56-0.706,1.553-0.683,2.423C206.575,154.838,206.576,154.865,206.578,154.892z"/>
			<path style="fill:none;stroke:#000000;stroke-width:0.5;stroke-miterlimit:10;" d="M208.517,155.352
				c0.115-0.536,0.301-1.057,0.553-1.544"/>
			<path style="fill:#D6906F;" d="M211.511,268.601c0.585-0.057,1.176-0.145,1.711-0.39c0.69-0.317,1.343-0.902,2.093-0.781
				c1.03,0.166,1.352,1.647,0.775,2.516c-0.576,0.87-1.652,1.241-2.659,1.511c-1.807,0.484-9.287,2.45-9.105-1.018
				C204.478,267.543,209.752,268.773,211.511,268.601z"/>
			<path style="fill:none;stroke:#43609C;stroke-width:0.5;stroke-miterlimit:10;" d="M197.41,287.761
				c1.306-2.968,2.612-5.937,3.918-8.905"/>
		</g>
		<g>
			<rect x="140.818" y="401.197" style="fill:#A9D6BE;" width="16.806" height="23.563"/>
			<g>
				<rect x="264.272" y="256.831" style="fill:#86B4E3;" width="17.459" height="166.929"/>
			</g>
			<rect x="202.976" y="347.452" style="fill:#86B4E3;" width="17.387" height="76.308"/>
			<rect x="173.451" y="374.983" style="fill:#A9D6BE;" width="18.021" height="48.777"/>
			<rect x="234.235" y="134.918" style="fill:#CF7765;" width="17.784" height="288.842"/>
			<polygon style="fill:#CF7765;" points="244.129,123.329 227.824,139.128 259.474,139.128 			"/>
		</g>
		<g>
			<polyline style="fill:none;stroke:#CF7765;stroke-width:8;stroke-miterlimit:10;" points="410.889,203.789 408.076,357.818 
				305.486,357.818 304.408,422.638 126.961,422.638 			"/>
		</g>
		<g>
			<g>
				<g>
					<g>
						<path style="fill:#86B4E3;" d="M395.765,410.843c0.067-1.88,1.645-3.351,3.526-3.285c1.881,0.067,3.351,1.645,3.285,3.526
							c-0.004,0.118-0.031,0.229-0.047,0.344c1.337-0.176,2.636-0.479,3.883-0.9c-0.071-0.104-0.15-0.201-0.21-0.314
							c-0.883-1.662-0.251-3.725,1.411-4.608c1.662-0.883,3.725-0.251,4.607,1.411c0.059,0.111,0.095,0.228,0.14,0.343
							c1.062-0.813,2.043-1.728,2.929-2.73c-0.122-0.057-0.247-0.106-0.364-0.179c-1.595-0.998-2.08-3.101-1.082-4.696
							c0.998-1.595,3.1-2.08,4.696-1.082c0.119,0.075,0.22,0.167,0.326,0.253c0.514-1.229,0.912-2.519,1.182-3.857
							c-0.149,0.014-0.296,0.035-0.449,0.029c-1.88-0.066-3.351-1.645-3.285-3.526c0.067-1.881,1.645-3.351,3.526-3.285
							c0.157,0.005,0.306,0.036,0.456,0.062c-0.173-1.367-0.479-2.695-0.907-3.968c-0.134,0.099-0.267,0.199-0.419,0.28
							c-1.662,0.883-3.725,0.251-4.608-1.411c-0.883-1.662-0.251-3.725,1.411-4.608c0.152-0.081,0.311-0.135,0.469-0.191
							c-0.83-1.089-1.767-2.094-2.795-2.999c-0.07,0.165-0.142,0.329-0.24,0.486c-0.998,1.596-3.1,2.08-4.696,1.082
							c-1.595-0.998-2.08-3.1-1.082-4.696c0.097-0.156,0.213-0.291,0.33-0.426c-1.255-0.523-2.573-0.927-3.942-1.196
							c0.024,0.184,0.043,0.37,0.037,0.562c-0.067,1.881-1.645,3.351-3.526,3.285c-1.88-0.067-3.351-1.645-3.285-3.526
							c0.007-0.184,0.039-0.36,0.073-0.534c-1.383,0.181-2.724,0.498-4.009,0.94c0.112,0.146,0.221,0.296,0.31,0.464
							c0.883,1.662,0.251,3.725-1.411,4.607c-1.662,0.883-3.725,0.251-4.608-1.411c-0.083-0.156-0.14-0.319-0.196-0.481
							c-1.084,0.837-2.081,1.781-2.98,2.815c0.16,0.069,0.319,0.138,0.471,0.233c1.595,0.998,2.08,3.1,1.082,4.696
							c-0.998,1.596-3.1,2.08-4.696,1.082c-0.14-0.088-0.26-0.193-0.383-0.297c-0.509,1.243-0.9,2.549-1.16,3.903
							c0.159-0.017,0.319-0.037,0.483-0.031c1.881,0.066,3.351,1.645,3.285,3.526c-0.067,1.88-1.645,3.351-3.526,3.285
							c-0.145-0.005-0.282-0.035-0.422-0.058c0.184,1.353,0.498,2.665,0.932,3.924c0.117-0.083,0.23-0.171,0.36-0.24
							c1.662-0.883,3.725-0.251,4.607,1.411c0.883,1.662,0.251,3.725-1.411,4.608c-0.115,0.061-0.235,0.098-0.353,0.144
							c0.819,1.056,1.74,2.031,2.747,2.91c0.056-0.117,0.102-0.237,0.172-0.349c0.998-1.595,3.1-2.08,4.696-1.082
							c1.595,0.998,2.08,3.1,1.082,4.696c-0.065,0.104-0.146,0.189-0.22,0.283c1.217,0.5,2.495,0.885,3.819,1.147
							C395.78,411.09,395.76,410.969,395.765,410.843z M385.924,390.466c0.272-7.664,6.704-13.657,14.368-13.386
							c7.664,0.271,13.657,6.704,13.386,14.368s-6.704,13.657-14.368,13.386C391.645,404.563,385.652,398.13,385.924,390.466z"/>
					</g>
					<path style="fill:none;stroke:#161111;stroke-width:0.75;stroke-miterlimit:10;" d="M384.347,394.084
						c1.723,8.528,10.063,14.065,18.591,12.342c8.528-1.723,14.065-10.062,12.342-18.591c-1.723-8.529-10.063-14.066-18.591-12.344
						C388.161,377.215,382.624,385.556,384.347,394.084z M397.715,380.568c5.729-1.157,11.332,2.563,12.49,8.293
						c1.157,5.73-2.562,11.332-8.292,12.49c-5.73,1.157-11.333-2.562-12.49-8.292C388.265,387.329,391.985,381.725,397.715,380.568z
						"/>
				</g>
			</g>
			<g>
				<g>
					<path style="fill:none;stroke:#161111;stroke-width:0.75;stroke-miterlimit:10;" d="M325.356,402.142
						c2.55,12.625,14.896,20.82,27.521,18.27c12.625-2.55,20.82-14.895,18.27-27.519c-2.55-12.624-14.895-20.822-27.52-18.272
						C331.002,377.17,322.805,389.517,325.356,402.142z M345.144,382.134c8.481-1.713,16.775,3.794,18.488,12.275
						c1.713,8.482-3.793,16.775-12.274,18.488c-8.481,1.713-16.775-3.793-18.489-12.274
						C331.156,392.142,336.663,383.847,345.144,382.134z"/>
					<g>
						<path style="fill:#86B4E3;" d="M342.257,426.949c0.099-2.784,2.435-4.961,5.219-4.862c2.784,0.099,4.961,2.435,4.862,5.219
							c-0.006,0.175-0.046,0.34-0.07,0.509c1.98-0.26,3.902-0.709,5.748-1.331c-0.105-0.154-0.221-0.297-0.311-0.466
							c-1.307-2.46-0.372-5.514,2.089-6.82c2.46-1.307,5.514-0.372,6.82,2.089c0.088,0.165,0.14,0.338,0.207,0.508
							c1.572-1.204,3.024-2.558,4.336-4.041c-0.181-0.085-0.365-0.157-0.539-0.266c-2.362-1.477-3.079-4.59-1.601-6.951
							c1.478-2.362,4.59-3.079,6.951-1.601c0.177,0.11,0.325,0.247,0.483,0.374c0.761-1.819,1.35-3.728,1.75-5.71
							c-0.22,0.021-0.438,0.052-0.665,0.043c-2.784-0.099-4.961-2.435-4.862-5.219c0.099-2.784,2.435-4.961,5.219-4.862
							c0.232,0.008,0.453,0.054,0.676,0.092c-0.256-2.024-0.709-3.989-1.343-5.874c-0.198,0.147-0.396,0.295-0.62,0.414
							c-2.46,1.307-5.514,0.372-6.82-2.089c-1.307-2.46-0.371-5.514,2.089-6.82c0.225-0.12,0.46-0.201,0.694-0.283
							c-1.229-1.613-2.616-3.1-4.138-4.44c-0.103,0.244-0.21,0.487-0.355,0.719c-1.477,2.362-4.589,3.079-6.951,1.601
							c-2.362-1.477-3.079-4.589-1.601-6.951c0.144-0.23,0.315-0.431,0.488-0.63c-1.858-0.775-3.809-1.372-5.835-1.771
							c0.036,0.273,0.064,0.548,0.054,0.832c-0.099,2.784-2.435,4.961-5.219,4.862c-2.784-0.099-4.961-2.435-4.862-5.219
							c0.01-0.272,0.057-0.532,0.108-0.791c-2.047,0.267-4.032,0.738-5.935,1.392c0.165,0.217,0.327,0.439,0.459,0.688
							c1.306,2.46,0.371,5.514-2.089,6.82c-2.46,1.306-5.514,0.371-6.82-2.089c-0.123-0.231-0.207-0.472-0.291-0.712
							c-1.605,1.239-3.081,2.637-4.411,4.167c0.236,0.102,0.473,0.204,0.697,0.344c2.362,1.477,3.079,4.589,1.601,6.951
							c-1.477,2.362-4.589,3.079-6.951,1.601c-0.207-0.13-0.385-0.286-0.566-0.439c-0.753,1.841-1.333,3.773-1.718,5.778
							c0.236-0.025,0.471-0.055,0.716-0.047c2.784,0.099,4.961,2.435,4.862,5.219c-0.099,2.784-2.435,4.961-5.219,4.862
							c-0.215-0.008-0.418-0.052-0.625-0.085c0.272,2.003,0.738,3.945,1.38,5.809c0.174-0.123,0.34-0.254,0.533-0.356
							c2.46-1.307,5.514-0.371,6.82,2.089c1.307,2.46,0.371,5.514-2.089,6.82c-0.17,0.09-0.348,0.144-0.522,0.214
							c1.213,1.563,2.576,3.006,4.066,4.308c0.082-0.173,0.151-0.35,0.255-0.517c1.477-2.362,4.589-3.079,6.951-1.601
							c2.362,1.478,3.078,4.59,1.601,6.951c-0.096,0.153-0.216,0.28-0.325,0.419c1.802,0.74,3.693,1.311,5.653,1.698
							C342.279,427.315,342.251,427.136,342.257,426.949z M327.69,396.786c0.402-11.345,9.924-20.216,21.269-19.814
							c11.345,0.402,20.216,9.924,19.814,21.269c-0.402,11.345-9.924,20.216-21.269,19.814
							C336.159,417.653,327.288,408.131,327.69,396.786z"/>
					</g>
				</g>
			</g>
		</g>
		<g>
			<rect x="484.145" y="300.232" style="fill:#A9D6BE;" width="82.598" height="127.028"/>
			<rect x="484.145" y="239.109" style="fill:#86B4E3;" width="82.598" height="127.028"/>
			<ellipse style="fill:#43609C;" cx="525.403" cy="368.048" rx="41.258" ry="11.266"/>
			<rect x="484.145" y="307.386" style="fill:#43609C;" width="82.598" height="58.273"/>
			<ellipse style="fill:#CF7765;" cx="525.403" cy="334.537" rx="41.258" ry="11.266"/>
			<rect x="484.145" y="273.875" style="fill:#CF7765;" width="82.598" height="58.273"/>
			<ellipse style="fill:#86B4E3;" cx="525.403" cy="273.933" rx="41.258" ry="11.266"/>
		</g>
		<g id="XMLID_2_">
			<g id="XMLID_59_">
				<g id="XMLID_61_">
					<path style="fill:#D6906F;" d="M342.859,273.543c0.2,1.949,1.109,3.837,2.766,4.811c2.833,1.663,6.23,2.361,9.486,1.911
						c4.201-0.581,15.06-6.545,10.202-11.825c-0.884-0.961-2.064-1.587-3.115-2.362c-1.344-0.99-2.428-2.114-3.037-3.682
						c-0.41-1.056-0.616-2.179-0.793-3.298c-0.256-1.614-0.578-3.306-0.61-4.943c-0.021-1.087,0.752-2.32,1.434-3.188
						c0.503-0.639,0.904-1.374,1.06-2.173c0.056-0.289,0.079-0.594-0.012-0.873c-0.091-0.28-0.317-0.53-0.607-0.581
						c-0.142-0.025-0.29-0.003-0.432-0.025c-0.502-0.08-0.371-1.295-0.432-1.703c-0.098-0.655-0.253-1.301-0.471-1.926
						c-0.43-1.23-1.116-2.397-2.109-3.255c-0.428-0.369-0.909-0.676-1.426-0.904c-2.039-0.895-4.448-0.716-6.488,0.075
						c-0.98,0.38-1.781,1.022-2.686,1.49c-1.079,0.558-1.892,1.056-2.467,2.197c-0.56,1.11-0.738,2.37-0.833,3.609
						c-0.175,2.287-0.095,4.593,0.24,6.861c0.424,2.879,1.824,5.922,5.212,5.808c0.418-0.014,0.336,4.719,0.22,5.193
						c-0.274,1.124-0.842,2.83-2.007,3.308c-0.391,0.16-0.826,0.188-1.217,0.347c-0.84,0.341-1.331,1.222-1.598,2.088
						C342.847,271.447,342.752,272.504,342.859,273.543z"/>
				</g>
			</g>
			<path d="M356.596,252.876c0.244,1.554,0.811,3.109,2.154,3.842c1.528,0.834,3.427,0.249,4.995-0.507
				c2.206-1.064,4.428-2.678,4.967-5.067c0.706-3.133-1.736-3.443-3.306-5.258c-0.874-1.01-0.356-2.66-1.024-3.816
				c-0.456-0.789-1.379-1.189-2.276-1.351c-0.487-0.088-0.993-0.124-1.438-0.34c-1.561-0.759-1.839-2.779-3.124-3.803
				c-1.635-1.303-4.111-2.195-6.17-1.535c-0.87,0.279-1.633,0.813-2.454,1.216c-1.213,0.595-2.587,0.904-3.928,0.745
				c-1.048-0.124-2.058-0.528-3.113-0.541c-1.055-0.014-2.247,0.537-2.455,1.571c-0.162,0.803,0.315,1.612,0.246,2.428
				c-0.162,1.909-1.692,2.569-0.438,4.55c0.744,1.175,1.983,1.947,3.437,1.859c0.888-0.054,1.739-0.36,2.617-0.505
				c0.522-0.087,1.071-0.111,1.591,0.008c0.493,0.113,0.802,0.422,1.238,0.619c0.276,0.125,0.561,0.237,0.859,0.292
				c0.362,0.067,0.735,0.049,1.099,0c1.366-0.182,3.727-1.395,5.025-0.471c1.338,0.953,1.261,3.755,1.39,5.181
				C356.515,252.282,356.55,252.579,356.596,252.876z"/>
			<path style="fill:#FFFFFF;" d="M343.882,255.345c1.166,2.184,3.001,2.16,4.03-0.054"/>
			<path style="fill:none;stroke:#000000;stroke-width:0.5;stroke-miterlimit:10;" d="M352.894,249.847
				c0.052,1.462-1.091,2.69-2.554,2.742c-1.463,0.052-2.69-1.091-2.743-2.554c-0.052-1.463,1.091-2.69,2.554-2.742
				C351.614,247.241,352.842,248.385,352.894,249.847z"/>
			<path style="fill:none;stroke:#000000;stroke-width:0.5;stroke-miterlimit:10;" d="M344.862,250.133
				c0.052,1.463-1.091,2.69-2.554,2.742c-1.462,0.052-2.69-1.091-2.742-2.554c-0.052-1.462,1.091-2.69,2.554-2.742
				C343.582,247.527,344.81,248.671,344.862,250.133z"/>
			
				<line style="fill:none;stroke:#000000;stroke-width:0.5;stroke-miterlimit:10;" x1="344.867" y1="250.293" x2="347.603" y2="250.195"/>
			
				<line style="fill:none;stroke:#000000;stroke-width:0.5;stroke-miterlimit:10;" x1="352.736" y1="250.005" x2="357.674" y2="248.141"/>
			<path style="fill:#1E2652;" d="M350.437,250.181c-0.004,0.31-0.258,0.558-0.568,0.555c-0.31-0.004-0.558-0.258-0.555-0.568
				c0.004-0.31,0.258-0.558,0.568-0.555C350.192,249.617,350.44,249.871,350.437,250.181z"/>
			<path style="fill:#1E2652;" d="M342.91,249.855c-0.004,0.31-0.258,0.558-0.568,0.555c-0.31-0.003-0.558-0.258-0.555-0.568
				c0.004-0.31,0.258-0.558,0.568-0.555C342.665,249.291,342.914,249.545,342.91,249.855z"/>
			<path style="fill:#D6906F;" d="M268.213,381.049c2.631,0.014,5.063,1.031,7.656,1.431c0.218,0.034,0.453,0.065,0.649-0.035
				c0.163-0.083,0.271-0.242,0.371-0.395c2.914-4.456,5.519-9.114,7.79-13.93c0.499-1.058,0.99-2.158,1.034-3.326
				c0.115-3.041-2.986-5.584-5.894-5.229c-1.594,0.194-3.058,1.021-4.268,2.077c-2.719,2.372-4.245,5.823-5.325,9.266
				c-1.064,3.394-1.411,5.685-2.503,9.046C268.119,379.921,267.837,381.046,268.213,381.049z"/>
			<g id="XMLID_27_">
				<g id="XMLID_9_">
					<g id="XMLID_57_">
						<path style="fill:#43609C;" d="M375.448,320.544c-1.833-6.077-6.787-8.72-12.903-7.858
							c-9.252,1.304-15.144,7.745-22.51,12.728c-6.18-3.585-12.591-6.771-19.179-9.533c-5.881-2.466-12.696-5.928-19.235-5.358
							c-8.683,0.756-13.532,14.29-17.027,20.919c-4.798,9.1-8.961,18.535-12.447,28.214c-0.799,2.219-3.037,6.87-4.263,11.131
							c3.464,0.579,6.885,1.441,10.371,1.898c2.258,0.296,4.561,0.426,6.843,0.664c3.483-6.014,9.227-9.774,13.399-15.229
							c2.341-3.061,4.399-6.339,6.14-9.777c0.605-1.193,4.727-8.636,3.927-9.682c2.219,2.903,5.183,5.233,8.529,6.702
							c4.154,1.824,8.754,2.303,13.268,2.759c11.4,1.152,23.091,2.284,34.175-0.622c2.799-0.734,5.584-1.75,7.857-3.54
							C378.763,338.943,377.28,327.458,375.448,320.544z"/>
					</g>
				</g>
			</g>
			<path style="fill:#D6906F;" d="M291.791,402.109c0.069,0.775,0.337,1.461,1.056,2.085c0.421,0.366,5.019,2.598,5.158,2.31
				c2.917-6.048,6.086-12.318,8.026-18.743c0.673-2.229,1.169-4.706,0.206-6.825c-0.772-1.7-2.485-2.935-4.342-3.131
				c-3.199-0.338-6.015,2.438-6.847,5.344c-1.579,5.515-2.642,11.177-3.169,16.889C291.809,400.797,291.735,401.482,291.791,402.109
				z"/>
			<g id="XMLID_111_">
				<g id="XMLID_551_">
					<path style="fill:#A9D6BE;" d="M316.187,293.581c3.481-6.042,7.918-11.542,13.053-16.257
						c3.074-2.823,10.605-11.651,14.727-5.902c2.359,3.29,0.799,9.004-0.889,12.24c-4.286,8.22-10.377,16.659-19.683,19.344
						C316.104,305.109,312.722,299.598,316.187,293.581z"/>
				</g>
			</g>
			<g id="XMLID_58_">
				<g id="XMLID_60_">
					<g id="XMLID_537_">
						<path style="fill:#43609C;" d="M321.767,353.969h0.185c0.05-0.325,0.038-0.525-0.058-0.55c0.766,0.197,1.539,0.364,2.307,0.55
							h55.815c4.171-4.555,4.257-11.775,3.308-17.58c-0.577-3.527-1.893-6.532-3.278-9.485c-1.635-3.486-3.367-6.899-4.091-11.014
							c-0.3-1.705-0.677-3.466-1.726-4.843c-1.227-1.612-3.193-2.464-5.105-3.133c-4.445-1.553-9.618-2.413-13.674-0.021
							c-5.663,3.339-3.18,10.659-6.195,16.012c-0.768,1.364-1.716,2.661-2.982,3.582c-1.243,0.904-2.735,1.406-4.237,1.734
							c-5.603,1.227-11.409,0.135-17.088-0.662c-5.17-0.726-10.492-1.243-17.032,0.284c-11.034,2.576-10.955,15.625-12.105,25.087
							c-1.529,12.59-2.868,25.203-4.021,37.832c2.485,0.599,4.979,1.155,7.487,1.633c2.393,0.301,4.782,0.634,7.169,0.984
							c0.219,0.006,0.437,0.015,0.655,0.022c0.716-1.03,1.174-2.267,1.598-3.464c2.484-7.031,4.968-14.063,7.453-21.094
							c0.27-0.763,4.598-11.23,5.616-15.044V353.969z"/>
					</g>
				</g>
			</g>
			<g id="XMLID_7_">
				<g id="XMLID_8_">
					<g id="XMLID_19_">
						<path style="fill:#A9D6BE;" d="M339.797,298.931c0.922,4.329,1.239,8.312,1.142,12.771c-0.028,1.297-1.4,13.495-1.009,13.683
							c6.036,2.902,12.929,3.322,19.622,3.568c7.177,0.264,14.359,0.388,21.541,0.369c-2.923-10.347-3.928-21.284-5.385-31.911
							c-1.234-8.998-1.724-18.46-5.36-26.884c-0.634-1.468-1.364-3.044-2.777-3.791c-1.79-0.946-4.089-0.243-5.928-1.091
							c-0.136,2.165-0.351,4.521-1.842,6.098c-1.005,1.063-2.448,1.597-3.874,1.924c-0.921,0.212-1.866,0.352-2.81,0.313
							c-1.588-0.065-3.168-0.661-4.401-1.665c-1.408-1.147-1.783-3.208-2.183-4.878c-3.528,1.336-5.753,2.186-7.251,6.115
							c-1.907,5.004-2.49,10.506-1.674,15.799C338.107,292.591,339.114,295.727,339.797,298.931z"/>
					</g>
				</g>
			</g>
			<path style="fill:#A9D6BE;" d="M381.355,298.181c-0.468-2.558-0.47-4.81-0.798-7.368c-0.386-3.015-1.623-5.851-2.355-8.785
				c-0.52-2.085-0.789-4.233-1.435-6.282c-0.715-2.269-1.917-4.326-3.397-6.154c-0.034-0.04-0.072-0.078-0.108-0.119
				c-0.124-0.149-0.234-0.309-0.362-0.455c-0.285-0.327-0.619-0.599-0.972-0.848c-1.121-0.931-2.43-1.636-3.876-1.864
				c-2.7-0.425-5.094,0.314-6.663,2.703c-1.149,1.75-1.572,3.874-1.792,5.956c-0.271,2.577-0.26,5.231,0.526,7.7
				c0.642,2.016,1.777,3.841,2.49,5.833c2.038,5.694,2.968,11.723,3.917,17.671c0.426,2.67,0.807,6.529,2.753,8.828
				c0.545,0.644,1.213,1.165,2.039,1.505C379.642,319.919,382.28,303.234,381.355,298.181z"/>
			<path style="fill:#A9D6BE;" d="M327.574,276.664c-0.188,0.179-0.375,0.359-0.561,0.538c-4.769,4.604-18.226,17.198-13.036,24.759
				c4.11,5.986,12.219,1.986,16.092-1.859c4.745-4.711,9.12-10.542,9.246-17.227c0.063-3.362,3-7.704-1.774-9.789
				c-1.837-0.802-4.013-0.466-5.807,0.43C330.171,274.295,328.843,275.457,327.574,276.664z"/>
			<g id="XMLID_117_">
				<g id="XMLID_378_">
					<path style="fill:#D6906F;" d="M346.102,273.387c1.831,1.569,3.195,3.728,2.75,6.228c-0.213,1.194-2.092,0.968-1.878-0.233
						c0.327-1.833-0.68-3.341-2.021-4.491C344.032,274.102,345.174,272.591,346.102,273.387z"/>
				</g>
			</g>
			<g id="XMLID_22_">
				<g id="XMLID_5_">
					<path style="fill:#86B4E3;" d="M328.664,289.561l17.512-0.623c0.113-0.004,0.202-0.099,0.198-0.213l-0.956-26.859
						c-0.004-0.113-0.099-0.202-0.213-0.198l-17.512,0.624c-0.113,0.004-0.202,0.099-0.198,0.213l0.956,26.859
						C328.456,289.476,328.551,289.565,328.664,289.561z"/>
				</g>
			</g>
			<g id="XMLID_26_">
				<g id="XMLID_4_">
					<path style="fill:#D6906F;" d="M342.286,282.978c-0.91,1.275,1.091,2.78,1.964,3.389c0.909,0.634,1.891,1.19,2.647,2.001
						c1.076,1.155,1.589,2.708,2.277,4.129c0.503,1.038,1.553,2.941,2.864,3.108c1.229,0.157,2.551-1.382,2.652-2.502
						c0.096-1.056-0.443-2.052-0.929-2.994c-0.887-1.717-1.654-3.496-2.294-5.319c-0.959-2.73-1.706-5.685-3.734-7.749
						c-1.438-1.463-2.321-0.686-3.024,0.858C343.932,279.606,343.386,281.437,342.286,282.978z"/>
				</g>
			</g>
			<path style="fill:#D6906F;" d="M342.778,285.293c0.17,0.148,0.356,0.272,0.573,0.323c0.465,0.11,0.953-0.158,1.244-0.537
				c0.646-0.843,0.744-2.117,1.052-3.103c0.381-1.221,0.948-2.391,1.146-3.664c0.059-0.376,0.084-0.763,0.016-1.138
				c-0.244-1.351-1.31-1.725-2.439-2.261c-1.337-0.634-2.764-1.047-4.196-1.409c-0.229-0.058-0.471-0.023-0.704,0.019
				c-1.068,0.193-2.179,0.58-2.959,1.367c-0.916,0.925-1.029,2.302-0.943,3.541c0.031,0.45,0.087,0.904,0.255,1.323
				c0.344,0.859,1.121,1.471,1.933,1.916c0.812,0.445,1.692,0.768,2.465,1.277c0.869,0.572,1.57,1.358,2.3,2.099
				C342.604,285.13,342.689,285.215,342.778,285.293z"/>
			<g id="XMLID_3_">
				<g id="XMLID_702_">
					<g id="XMLID_17_">
						<path style="fill:#A9D6BE;" d="M377.201,306.205c-0.329-1.257-0.848-2.462-1.53-3.515c-2.678-4.134-7.572-5.771-11.07-8.997
							c-3.314-3.057-7.006-6.964-11.183-8.848c-0.203-0.092-0.423-0.179-0.643-0.142c-0.238,0.04-0.426,0.219-0.598,0.389
							c-2.113,2.086-4.227,4.173-6.339,6.26c3.318,6.24,8.318,11.578,12.78,17.017c2.894,3.528,8.679,10.427,14.017,8.721
							C377.193,315.633,378.351,310.597,377.201,306.205z"/>
					</g>
				</g>
			</g>
			<path d="M340.025,263.817l-7.191,0.256c-0.205,0.007-0.378-0.153-0.385-0.359l-0.069-1.927c-0.007-0.206,0.153-0.378,0.359-0.385
				l7.191-0.256c0.205-0.007,0.378,0.153,0.385,0.359l0.069,1.927C340.391,263.637,340.23,263.809,340.025,263.817z"/>
			<path d="M251.197,388.64c1.275,0.542,2.768,0.758,4.16,0.892c3.777,0.365,7.568,0.578,11.362,0.638
				c2.553,0.04,7.868,0.994,9.599-1.5c0.562-0.809,0.779-1.801,0.985-2.765c0.251-1.176,1.173-3.317,0.959-4.482
				c-0.251-1.367-0.378-1.035-1.859-1.399c-2.74-0.673-5.431-1.52-8.05-2.571c-2.175,2.67-5.725,3.758-9.111,4.39
				c-3.159,0.59-6.575,1.004-9.552,2.192c-0.669,0.267-1.254,0.882-1.258,1.603c-0.002,0.403,0.174,0.788,0.395,1.125
				C249.403,387.641,250.238,388.233,251.197,388.64z"/>
			<path d="M283.811,406.674c-2.483,1.389-5.062,2.682-7.341,4.347c-1.062,0.777-2.171,2.033-1.66,3.245
				c0.384,0.911,1.488,1.242,2.462,1.416c5.072,0.905,9.444-0.296,14.306-1.753c1.964-0.589,3.724-1.538,5.783-1.936
				c0.437-0.085,0.887-0.158,1.272-0.381c0.795-0.46,1.121-1.424,1.363-2.31c0.701-2.566,1.596-5.117,0.659-7.602
				c-3.136,0.257-6.315-0.023-9.363-0.798C289.307,403.406,286.621,405.102,283.811,406.674z"/>
			<path d="M347.912,264.945c1.54-2.413,3.896-5.015,5.331-7.49c-0.987,0.599-2.066,0.99-3.189,1.369
				c-0.736,0.248-1.499,0.565-2.276,0.729C348.259,261.201,348.032,263.309,347.912,264.945z"/>
			<path style="fill:none;stroke:#1E2652;stroke-width:0.5;stroke-miterlimit:10;" d="M295.553,361.167
				c9.339-9.318,14.339-20.318,18.339-32.318c1.237-3.711,13.769-1.327,16.206-1.165c7.089,0.473,14.178,0.946,21.267,1.419"/>
			<path style="fill:none;stroke:#1E2652;stroke-width:0.5;stroke-miterlimit:10;" d="M322.546,351.876
				c0.421-2.119,0.505-4.307,0.242-6.452"/>
			<path style="fill:none;stroke:#000000;stroke-width:0.5;stroke-miterlimit:10;" d="M377.511,314.362
				c-2,1.91-4.983,2.316-7.748,2.358c-1.777,0.027-3.605-0.066-5.233-0.78c-2.704-1.186-4.403-3.853-5.941-6.374
				c-3.93-6.443-7.859-12.886-11.789-19.328"/>
			<path style="fill:none;stroke:#000000;stroke-width:0.5;stroke-miterlimit:10;" d="M353.215,284.34
				c0.074-0.318,0.557-0.188,0.816,0.01c5.478,4.203,10.746,8.681,15.776,13.411"/>
			<path style="fill:none;stroke:#000000;stroke-width:0.5;stroke-miterlimit:10;" d="M328.115,287.009
				c-3.393,1.874-6.419,4.41-8.859,7.422"/>
			<path style="fill:none;stroke:#000000;stroke-width:0.5;stroke-miterlimit:10;" d="M362.167,280.21
				c0.966,4.834,2.26,9.603,3.869,14.263"/>
		</g>
		<g>
			<path d="M492.871,234.476c-2.16,3.948,1.213,6.795,4.023,9.445c0.769,0.725,1.597,1.414,2.568,1.829
				c1.681,0.719,3.592,0.548,5.409,0.347c13.049-1.448,26.35-3.208,39.186-5.966c3.019-0.649,6.007-1.442,9.015-2.122
				c3.914-0.885,7.997-2.593,11.73-4.082c3.798-1.515,7.35-3.649,10.463-6.301c0.054-0.046,0.107-0.095,0.161-0.142
				c0.537-0.326,1.005-0.714,1.384-1.377c1.613-1.84,2.725-4.131,1.798-6.274c-1.068-2.469-4.192-3.173-6.874-3.385
				c-8.004-0.634-16.025,0.228-23.937,1.417c-5.336,0.802-10.621,1.938-15.979,2.6c-5.45,0.673-10.645,0.068-16.064,0.192
				C506.379,220.874,497.381,226.234,492.871,234.476z"/>
			<path style="fill:#D6906F;" d="M516.112,214.993c-2.481-0.979-6.111-0.564-8.167-2.309c-2.327-1.976-3.84-5.463-5.105-8.163
				c-0.639-1.365-1.974-2.234-2.861-3.409c-1.03-1.363-1.875-2.919-2.798-4.356c-0.094-0.147-0.193-0.309-0.175-0.483
				c0.014-0.136,0.097-0.253,0.178-0.363c1.412-1.918,2.979-3.722,4.68-5.39c1.924-1.886,4.11-3.681,5.355-6.124
				c1.251-2.455,2.564-5.261,2.988-8.002c0.281-1.82,0.336-3.693-0.118-5.49c-0.373-1.48,0.126-3.017-1.429-4.026
				c-0.987-0.64-2.268-0.695-3.404-0.392c-1.137,0.303-2.158,0.93-3.135,1.585c-9.309,6.249-16.164,16.059-18.819,26.952
				c-0.75,3.075,0.01,5.423,2.146,7.716c3.633,3.899,7.38,7.634,11.768,10.685c1.236,0.859,2.509,1.678,3.886,2.285
				c2.725,1.202,3.777,3.419,6.505,4.643c2.272,1.02,4.698,1.758,7.185,1.879c1.845,0.09,4.845-0.339,5.021-2.563
				C519.982,217.574,517.85,215.679,516.112,214.993z"/>
			<path style="fill:#D6906F;" d="M568.104,203.557c-1.368,1.536-2.881,2.942-4.513,4.195c-2.255,1.731-4.701,3.621-7.27,4.848
				c-1.83,0.874-3.807,1.404-5.643,2.264c-2.188,1.025-4.132,2.498-6.247,3.665c-1.351,0.745-5.745,2.985-7.041,1.337
				c-1.199-1.524,1.487-4.005,2.593-4.7c3.13-1.968,5.57-5.155,7.352-8.382c0.627-1.135,1.176-2.313,1.854-3.418
				c0.966-1.574,2.193-2.985,3.61-4.168c0.663-0.554,1.373-1.118,2.154-1.492c0.27-0.129,1.932-0.956,2.048-0.885
				c-2.886-1.763-4.506-4.953-6.364-7.779c-1.389-2.113-2.98-4.094-4.253-6.279c-1.273-2.185-2.23-4.637-2.188-7.165
				c0.042-2.528,1.232-5.134,3.426-6.391c0.403-0.231,1.556-0.474,2.085-0.546c1.888-0.259,3.643,0.938,5.121,2.143
				c3.901,3.181,7.406,6.848,10.406,10.89c1.416,1.907,2.692,3.513,3.755,5.678c1.143,2.329,2.14,4.753,2.645,7.308
				c0.186,0.943,0.305,1.914,0.153,2.863c-0.223,1.396-1.01,2.633-1.852,3.768C569.358,202.085,568.747,202.836,568.104,203.557z"/>
			<path style="fill:#43609C;" d="M556.248,168.703c-1.739-1.483-3.556-2.868-5.518-4.037c-3.249-1.936-6.944-3.262-10.726-3.243
				c-2.058,0.01-4.393-0.359-6.401,0.022c-2.214,0.419-4.266,1.392-6.558,1.464c-3.844,0.121-7.607-1.085-11.326-1.726
				c-3.782-0.652-8.056,0.887-11.301,2.703c-3.547,1.985-10.794,6.736-13.464,9.81c3.383,5.525,10.495,8.802,13.327,14.684
				c0.599-0.313,1.166-0.687,1.69-1.115c-0.074,5.687-0.048,11.375,0.076,17.06c0.122,5.547-0.159,11.496,0.705,16.971
				c0.853-0.798,2.371-0.466,3.447-0.478c1.694-0.019,3.388-0.025,5.081-0.029c3.176-0.008,6.353-0.028,9.529-0.028
				c4.533-0.038,9.079-0.056,13.574-0.686c2.351-0.33,4.674-0.663,7.016-0.626c1.234-4.271,0.801-9.414,0.922-13.659
				c0.106-3.735,0.022-7.471-0.137-11.203c-0.081-1.914-0.148-3.835-0.288-5.746c-0.07-0.964-0.775-2.995-0.052-3.696
				c0.852,0.657,1.571,1.574,2.317,2.361c3.72-5.328,7.531-10.592,11.429-15.791C558.497,170.691,557.389,169.676,556.248,168.703z"
				/>
			<path style="fill:#D6906F;" d="M521.658,247.417c-0.84,0.84-18.531,4.723-18.531,4.723l-0.833-8.992l16.461-5.892
				L521.658,247.417z"/>
			<path d="M566.42,236.675c2.067-1.182,4.133-2.368,6.357-3.206c2.358-0.888,4.971-1.432,6.787-3.178
				c1.923-1.849,2.529-4.64,3.044-7.258c0.571-2.906,0.562-6.175-0.238-9.042c-1.139-4.086-4.445-7.517-8.617-8.463
				c-2.513-0.57-5.22-0.238-7.521,0.922c-1.696,0.855-3.15,2.128-4.826,3.022c-1.398,0.746-2.924,1.215-4.401,1.79
				c-4.488,1.748-8.618,4.361-12.705,6.833c-4.109,2.486-7.788,5.605-11.761,8.291c-1.569,1.06-18.051,9.061-18.049,9.066
				c2.137,4.759,4.004,9.654,5.959,14.506c10.659-1.443,20.93-4.796,31.295-7.581c2.056-0.552,3.966-1.379,6.025-1.848
				c2.324-0.529,4.5-1.555,6.582-2.691C565.045,237.46,565.732,237.068,566.42,236.675z"/>
			<path d="M502.527,253.084c-3.262,0.646-6.536-0.052-10.054-0.431c-2.743-0.296-5.556,0.209-8.281-0.211
				c-3.64-0.561-6.469-3.135-6.737-6.775c-0.151-2.047-0.226-4.336,1.124-5.883c1.106-1.266,2.934-1.687,4.608-1.534
				c1.674,0.153,3.258,0.794,4.847,1.341c2.719,0.935,5.518,1.605,8.327,2.203c2.276,0.484,4.233,1.615,6.49,0.497
				c0.121-0.06,0.258-0.126,0.385-0.081c0.137,0.048,0.201,0.2,0.25,0.337c0.804,2.26,1.528,4.549,2.17,6.861
				c0.333,1.201,0.887,1.897-0.1,2.642C504.779,252.637,503.464,252.899,502.527,253.084z"/>
			<path style="fill:#D6906F;" d="M537.783,247.417c0.841,0.84,18.531,4.723,18.531,4.723l0.833-8.992l-16.461-5.892
				L537.783,247.417z"/>
			<path d="M492.42,237.727c-3.408-1.286-6.715-2.797-9.839-4.68c-1.051-0.633-2.098-1.326-2.848-2.296
				c-1.063-1.375-1.417-3.152-1.742-4.859c-1.208-6.36-2.921-11.206,1.689-16.609c3.753-4.398,9.777-6.105,14.881-2.927
				c3.315,2.064,5.54,5.805,9.223,7.105c1.985,0.701,4.249,0.561,6.167,1.449c1.764,0.816,3.505,2.168,5.189,3.186
				c4.109,2.486,7.788,5.605,11.761,8.291c1.569,1.06,18.051,9.061,18.048,9.066c-2.137,4.759-4.004,9.654-5.959,14.506
				c-10.659-1.443-20.93-4.796-31.295-7.581C502.563,240.999,497.385,239.601,492.42,237.727z"/>
			<path d="M556.913,253.084c3.262,0.646,6.536-0.052,10.054-0.431c2.743-0.296,5.556,0.209,8.281-0.211
				c3.448-0.531,7.377-3.951,7.533-7.608c0.049-1.141-0.251-2.274-0.682-3.332c-0.227-0.557-0.494-1.104-0.866-1.576
				c-0.838-1.065-2.169-1.678-3.518-1.804c-2.065-0.192-4.137,0.476-6.093,1.048c-2.018,0.59-3.875,0.908-5.827,1.75
				c-2.507,1.082-5.31,1.468-8.016,1.104c-0.704-0.095-1.433-0.238-2.115-0.039c-1.531,0.447-1.377,2.755-1.495,4.018
				c-0.177,1.903-0.269,3.857-1.038,5.637C554.399,252.386,555.655,252.835,556.913,253.084z"/>
			<path style="fill:#D6906F;" d="M534.02,161.396c-0.504,0.004-1.012-0.041-1.466-0.253c-0.836-0.391-1.007-1.245-1.1-2.078
				c-0.119-1.059-0.132-2.131-0.037-3.193c0.027-0.303,0.065-0.607,0.067-0.911c0.018-1.896,0.176-4.047,0.699-5.87
				c1.928-0.051,2.012-1.457,2.14-3.091c0.039-0.5,0.041-1.054-0.282-1.437c-0.323-0.383-1.086-0.372-1.218,0.111
				c0.078-1.327,0.123-2.657,0.137-3.987c0.012-1.171,0.237-2.064-0.909-2.685c-1.843-0.998-4.077-1.072-6.122-0.611
				c-0.941,0.212-1.879,0.463-2.784,0.798c-0.453,0.167-0.878,0.425-1.322,0.593c-0.434,0.164-0.914,0.192-1.36,0.355
				c-0.425,0.155-0.824,0.427-1.043,0.823c-0.177,0.32-0.223,0.693-0.337,1.04c-0.111,0.34-0.287,0.661-0.348,1.014
				c-0.119,0.687,0.423,1.808-0.081,2.385c-0.526,0.601-1.313,0.409-1.576,1.411c-0.177,0.677-0.018,1.395,0.191,2.063
				c0.134,0.428,0.303,0.87,0.644,1.161c0.341,0.291,0.905,0.368,1.223,0.051c0.617,1.382,1.134,2.945,1.513,4.417
				c0.074,0.287,0.215,0.547,0.272,0.835c0.086,0.427,0.065,0.907,0.072,1.341c0.023,1.428-0.177,2.732-0.443,4.131
				c-0.079,0.415-0.166,0.848-0.432,1.177c-0.485,0.598-1.367,0.641-2.137,0.633c0.446,0.805,0.593,1.681,1.132,2.459
				c0.885,1.277,2.249,2.377,3.828,2.584c2.302,0.303,4.701,0.4,6.89-0.373c1.06-0.374,2.049-0.969,2.846-1.765
				c0.909-0.909,1.362-1.909,1.647-3.136C534.224,161.393,534.122,161.395,534.02,161.396z"/>
			<path style="fill:#FFFFFF;" d="M547.725,225.534h-44.898c-0.917,0-1.66-0.743-1.66-1.66V196.94c0-0.917,0.743-1.661,1.66-1.661
				h44.898c0.917,0,1.66,0.743,1.66,1.661v26.934C549.386,224.791,548.642,225.534,547.725,225.534z"/>
			<path style="fill:#D6906F;" d="M525.308,206.628c-0.736,0.363-1.442,0.906-1.676,1.632c-0.117,0.362-0.047,0.721,0.279,1.077
				c0.369,0.402,0.579,0.333,1.091,0.243c0.574-0.1,1.155-0.076,1.625,0.315c0.492,0.41,0.686,0.971,0.631,1.592
				c0.526-0.515,0.855-1.231,0.855-2.026C528.113,207.906,526.859,206.646,525.308,206.628z"/>
			<path d="M534.722,135.554c-0.188-0.875-0.756-1.677-1.565-2.056c-0.888-0.417-2.044-0.254-2.714,0.463
				c-0.131-1.376-0.901-2.891-2.265-3.109c-0.456-0.073-0.924,0.012-1.361,0.16c-0.719,0.245-1.373,0.67-1.897,1.218
				c-0.59,0.617-0.573,0.866-1.429,0.781c-1.492-0.149-2.894-0.009-4.094,1c-1.456,1.225-2.058,3.37-1.453,5.174
				c-0.92,0.511-1.501,1.576-1.433,2.626c0.074,1.148,0.855,2.268,2.054,2.239c-0.444,0.201-0.782,0.636-0.727,1.146
				c0.048,0.451,0.414,0.849,0.859,0.934c0.029,2.061,0.836,4.682,2.05,6.342c1.218,1.667,3.259,2.57,5.306,2.524
				c4.402-0.098,6.32-4.548,6.957-8.263c0.136-0.796,0.062-0.607,0.672-0.928c0.359-0.189,0.66-0.374,0.833-0.763
				c0.24-0.541,0.106-1.226-0.321-1.636c1.25,0.036,2.334-1.484,2.141-2.655c-0.186-1.125-1.22-2.005-2.347-2.17
				c0.579-0.792,0.901-1.793,0.779-2.767C534.755,135.727,534.74,135.64,534.722,135.554z M532.074,145.834
				c-0.197,1.106-0.522,2.18-0.969,3.309c-1.379-1.273-3.342-1.8-5.214-1.669c-1.908,0.133-3.599,0.91-5.239,1.835
				c0.051-0.897-0.674-1.794-0.891-2.667c-0.252-1.014-0.503-2.039-0.738-3.065c-0.021-0.091-0.042-0.185-0.03-0.278
				c0.016-0.123,0.089-0.23,0.155-0.335c0.331-0.519,0.525-1.068,0.701-1.653c0.202-0.673,0.107-0.576,0.739-0.658
				c0.513-0.067,0.921-0.023,1.391-0.315c0.102-0.063,0.943-0.768,0.795-0.909c1.071,1.018,2.489,1.747,3.967,1.713
				c1.477-0.034,2.972-0.954,3.412-2.364c0.167-0.535,0.554-0.904,1.043-0.385c0.41,0.435,0.389,1.463,0.658,2.037
				c0.387,0.827,0.432,1.715,0.442,2.627C532.308,144.033,532.233,144.944,532.074,145.834z"/>
			<path style="fill:#FFFFFF;" d="M524.227,149.357c0.384,0.541,1.051,0.868,1.713,0.84c0.662-0.027,1.3-0.408,1.638-0.979"/>
			<path style="fill:none;stroke:#222221;stroke-width:0.5;stroke-miterlimit:10;" d="M497.206,196.527
				c-0.394-0.574-0.867-1.093-1.401-1.538"/>
			<path style="fill:none;stroke:#222221;stroke-width:0.5;stroke-miterlimit:10;" d="M556.412,197.052
				c1.188-0.609,2.479-1.017,3.801-1.201"/>
		</g>
		<g>
			<g>
				<rect x="451.636" y="248.609" style="fill:#86B4E3;" width="4.598" height="62.935"/>
				<polygon style="fill:#86B4E3;" points="454.214,235.66 445.141,251.458 462.752,251.458 				"/>
			</g>
			<g>
				<rect x="451.636" y="283.149" style="fill:#CF7765;" width="4.598" height="62.935"/>
				<polygon style="fill:#CF7765;" points="454.214,270.199 445.141,285.998 462.752,285.998 				"/>
			</g>
			<g>
				<rect x="451.636" y="336.76" style="fill:#43609C;" width="4.598" height="62.935"/>
				<polygon style="fill:#43609C;" points="454.214,323.811 445.141,339.609 462.752,339.609 				"/>
			</g>
			<g>
				<rect x="451.636" y="376.911" style="fill:#86B4E3;" width="4.598" height="50.057"/>
				<polygon style="fill:#86B4E3;" points="454.214,363.962 445.141,379.76 462.752,379.76 				"/>
			</g>
		</g>
		<polygon style="fill:#CF7765;" points="411.239,193.948 396.229,209.746 425.364,209.746 		"/>
		
			<line style="fill:none;stroke:#161111;stroke-width:0.75;stroke-miterlimit:10;" x1="608.225" y1="426.523" x2="81.952" y2="426.523"/>
		<g>
			<g>
				<path style="fill:none;stroke:#000000;stroke-width:0.5;stroke-linecap:round;stroke-miterlimit:10;" d="M340.694,221.795
					c0,0-10.996,11.934-24.552,11.925c-13.556-0.008-24.537-11.956-24.537-11.956s10.996-11.934,24.552-11.926
					C329.712,209.848,340.694,221.795,340.694,221.795z"/>
				<path d="M326.1,221.786c-0.004,6.594-4.462,11.938-9.958,11.934c-5.496-0.003-9.947-5.352-9.943-11.947
					c0.004-6.595,4.462-11.938,9.958-11.935C321.652,209.843,326.104,215.192,326.1,221.786z"/>
			</g>
			<g>
				<path style="fill:none;stroke:#000000;stroke-width:0.5;stroke-linecap:round;stroke-miterlimit:10;" d="M372.867,197.242
					c0,0-10.996,11.934-24.552,11.926c-13.556-0.008-24.537-11.956-24.537-11.956s10.996-11.934,24.552-11.926
					C361.885,185.295,372.867,197.242,372.867,197.242z"/>
				<path d="M358.273,197.233c-0.004,6.594-4.462,11.938-9.958,11.934c-5.495-0.003-9.947-5.352-9.943-11.947
					c0.004-6.594,4.462-11.938,9.958-11.934C353.825,185.29,358.277,190.639,358.273,197.233z"/>
			</g>
		</g>
		<g>
			<g>
				
					<line style="fill:none;stroke:#D4B6B6;stroke-width:2;stroke-miterlimit:10;" x1="559.318" y1="88.66" x2="535.105" y2="112.874"/>
				<path style="fill:none;stroke:#D4B6B6;stroke-width:2;stroke-miterlimit:10;" d="M536.164,90.85
					c-1.998,2.68-2.094,6.327-0.213,8.146c1.88,1.819,5.025,1.121,7.023-1.559c1.998-2.68,2.094-6.327,0.213-8.146
					C541.307,87.473,538.163,88.17,536.164,90.85z"/>
				<path style="fill:none;stroke:#D4B6B6;stroke-width:2;stroke-miterlimit:10;" d="M549.784,104.47
					c-1.998,2.68-2.094,6.327-0.213,8.146c1.88,1.819,5.025,1.121,7.023-1.558c1.998-2.68,2.094-6.327,0.213-8.146
					C554.927,101.093,551.783,101.79,549.784,104.47z"/>
			</g>
			<g>
				
					<line style="fill:none;stroke:#D4B6B6;stroke-width:2;stroke-miterlimit:10;" x1="591.173" y1="88.66" x2="566.959" y2="112.874"/>
				<path style="fill:none;stroke:#D4B6B6;stroke-width:2;stroke-miterlimit:10;" d="M568.019,90.85
					c-1.998,2.68-2.094,6.327-0.213,8.146c1.88,1.819,5.025,1.121,7.023-1.559c1.998-2.68,2.094-6.327,0.213-8.146
					C573.162,87.473,570.017,88.17,568.019,90.85z"/>
				<path style="fill:none;stroke:#D4B6B6;stroke-width:2;stroke-miterlimit:10;" d="M581.639,104.47
					c-1.998,2.68-2.094,6.327-0.213,8.146c1.88,1.819,5.025,1.121,7.023-1.558c1.998-2.68,2.094-6.327,0.213-8.146
					C586.782,101.093,583.637,101.79,581.639,104.47z"/>
			</g>
		</g>
	</g>
</g>
</svg>
