<?xml version="1.0" encoding="utf-8"?>
<!-- Generator: Adobe Illustrator 27.5.0, SVG Export Plug-In . SVG Version: 6.00 Build 0)  -->
<svg version="1.1" xmlns="http://www.w3.org/2000/svg" xmlns:xlink="http://www.w3.org/1999/xlink" x="0px" y="0px"
	 viewBox="0 0 500 500" style="enable-background:new 0 0 500 500;" xml:space="preserve">
<g id="BACKGROUND">
	<rect style="fill:#FFFFFF;" width="500" height="500"/>
</g>
<g id="OBLECTS">
	<path style="opacity:0.37;fill:#DDDEE6;" d="M278.164,439.503c-14.833,1.046-30.159,0.674-45.959-0.965
		c-34.434-3.572-70.883-7.792-101.808-24.587c-144.312-78.375-72.709-279.092,49.229-337.178
		c18.775-8.943,39.055-14.896,59.842-16.401c99.66-7.215,206.014,71.149,218.256,172.848c6.862,57.009-16.522,112.849-57.466,152.19
		C364.538,419.73,323.667,436.293,278.164,439.503z"/>
	<path style="fill:none;stroke:#8E95A3;stroke-miterlimit:10;" d="M443.454,394.689H66.23V102.474c0-2.291,1.857-4.148,4.148-4.148
		h368.927c2.291,0,4.148,1.857,4.148,4.148V394.689z"/>
	<line style="fill:none;stroke:#A8A8A8;stroke-miterlimit:10;" x1="195.636" y1="426.371" x2="331.043" y2="426.371"/>
	<g>
		<g>
			<rect x="231.468" y="113.813" style="fill:none;stroke:#C9CED6;stroke-miterlimit:10;" width="46.623" height="34.388"/>
			<rect x="282.253" y="113.813" style="fill:none;stroke:#8E95A3;stroke-miterlimit:10;" width="46.623" height="34.388"/>
			<rect x="333.039" y="113.813" style="fill:none;stroke:#8E95A3;stroke-miterlimit:10;" width="46.623" height="34.388"/>
			<rect x="383.824" y="113.813" style="fill:none;stroke:#8E95A3;stroke-miterlimit:10;" width="46.623" height="34.388"/>
		</g>
		<g>
			<rect x="79.112" y="152.909" style="fill:none;stroke:#8E95A3;stroke-miterlimit:10;" width="46.623" height="34.388"/>
			<rect x="129.897" y="152.909" style="fill:none;stroke:#8E95A3;stroke-miterlimit:10;" width="46.623" height="34.388"/>
			<rect x="180.683" y="152.909" style="fill:none;stroke:#8E95A3;stroke-miterlimit:10;" width="46.623" height="34.388"/>
			<rect x="231.468" y="152.909" style="fill:none;stroke:#8E95A3;stroke-miterlimit:10;" width="46.623" height="34.388"/>
			<rect x="282.253" y="152.909" style="fill:none;stroke:#8E95A3;stroke-miterlimit:10;" width="46.623" height="34.388"/>
			<rect x="333.039" y="152.909" style="fill:#4C9C7E;" width="46.623" height="34.388"/>
			<rect x="383.824" y="152.909" style="fill:none;stroke:#8E95A3;stroke-miterlimit:10;" width="46.623" height="34.388"/>
		</g>
		<g>
			<rect x="79.112" y="192.006" style="fill:none;stroke:#8E95A3;stroke-miterlimit:10;" width="46.623" height="34.388"/>
			<rect x="129.897" y="192.006" style="fill:none;stroke:#8E95A3;stroke-miterlimit:10;" width="46.623" height="34.388"/>
			<rect x="180.683" y="192.006" style="fill:#396BC5;" width="46.623" height="34.388"/>
			<rect x="231.468" y="192.006" style="fill:none;stroke:#8E95A3;stroke-miterlimit:10;" width="46.623" height="34.388"/>
			<rect x="282.253" y="192.006" style="fill:none;stroke:#8E95A3;stroke-miterlimit:10;" width="46.623" height="34.388"/>
			<rect x="333.039" y="192.006" style="fill:#C93C72;" width="46.623" height="34.388"/>
			<rect x="383.824" y="192.006" style="fill:none;stroke:#8E95A3;stroke-miterlimit:10;" width="46.623" height="34.388"/>
		</g>
		<g>
			<rect x="79.112" y="231.102" style="fill:none;stroke:#8E95A3;stroke-miterlimit:10;" width="46.623" height="34.388"/>
			<rect x="129.897" y="231.102" style="fill:none;stroke:#8E95A3;stroke-miterlimit:10;" width="46.623" height="34.388"/>
			<rect x="180.683" y="231.102" style="fill:none;stroke:#8E95A3;stroke-miterlimit:10;" width="46.623" height="34.388"/>
			<rect x="231.468" y="231.102" style="fill:none;stroke:#8E95A3;stroke-miterlimit:10;" width="46.623" height="34.388"/>
			<rect x="282.253" y="231.102" style="fill:none;stroke:#8E95A3;stroke-miterlimit:10;" width="46.623" height="34.388"/>
			<rect x="333.039" y="231.102" style="fill:none;stroke:#8E95A3;stroke-miterlimit:10;" width="46.623" height="34.388"/>
			<rect x="383.824" y="231.102" style="fill:none;stroke:#8E95A3;stroke-miterlimit:10;" width="46.623" height="34.388"/>
		</g>
		<g>
			<rect x="79.112" y="270.198" style="fill:none;stroke:#8E95A3;stroke-miterlimit:10;" width="46.623" height="34.388"/>
			<rect x="129.897" y="270.198" style="fill:none;stroke:#8E95A3;stroke-miterlimit:10;" width="46.623" height="34.388"/>
			<rect x="180.683" y="270.198" style="fill:none;stroke:#8E95A3;stroke-miterlimit:10;" width="46.623" height="34.388"/>
			<rect x="231.468" y="270.198" style="fill:none;stroke:#8E95A3;stroke-miterlimit:10;" width="46.623" height="34.388"/>
			<rect x="282.253" y="270.198" style="fill:none;stroke:#8E95A3;stroke-miterlimit:10;" width="46.623" height="34.388"/>
			<rect x="333.039" y="270.198" style="fill:none;stroke:#8E95A3;stroke-miterlimit:10;" width="46.623" height="34.388"/>
		</g>
		<g>
			<circle style="fill:none;stroke:#8E95A3;stroke-miterlimit:10;" cx="88.592" cy="165.374" r="4.729"/>
			<circle style="fill:none;stroke:#8E95A3;stroke-miterlimit:10;" cx="139.552" cy="165.374" r="4.729"/>
			<path style="fill:none;stroke:#8E95A3;stroke-miterlimit:10;" d="M195.241,165.374c0,2.612-2.117,4.729-4.729,4.729
				c-2.612,0-4.729-2.117-4.729-4.729c0-2.612,2.117-4.729,4.729-4.729C193.124,160.646,195.241,162.763,195.241,165.374z"/>
			<path style="fill:none;stroke:#8E95A3;stroke-miterlimit:10;" d="M246.201,165.374c0,2.612-2.117,4.729-4.729,4.729
				c-2.612,0-4.729-2.117-4.729-4.729c0-2.612,2.117-4.729,4.729-4.729C244.084,160.646,246.201,162.763,246.201,165.374z"/>
			<circle style="fill:none;stroke:#8E95A3;stroke-miterlimit:10;" cx="292.433" cy="165.374" r="4.729"/>
			<circle style="fill:none;stroke:#FFFFFF;stroke-miterlimit:10;" cx="343.393" cy="165.374" r="4.729"/>
			<circle style="fill:none;stroke:#8E95A3;stroke-miterlimit:10;" cx="394.353" cy="165.374" r="4.729"/>
		</g>
		<g>
			<circle style="fill:none;stroke:#8E95A3;stroke-miterlimit:10;" cx="88.592" cy="203.727" r="4.729"/>
			<circle style="fill:none;stroke:#8E95A3;stroke-miterlimit:10;" cx="139.552" cy="203.727" r="4.729"/>
			<path style="fill:none;stroke:#FFFFFF;stroke-miterlimit:10;" d="M195.241,203.727c0,2.612-2.117,4.729-4.729,4.729
				c-2.612,0-4.729-2.117-4.729-4.729s2.117-4.729,4.729-4.729C193.124,198.998,195.241,201.115,195.241,203.727z"/>
			<path style="fill:none;stroke:#8E95A3;stroke-miterlimit:10;" d="M246.201,203.727c0,2.612-2.117,4.729-4.729,4.729
				c-2.612,0-4.729-2.117-4.729-4.729s2.117-4.729,4.729-4.729C244.084,198.998,246.201,201.115,246.201,203.727z"/>
			<circle style="fill:none;stroke:#8E95A3;stroke-miterlimit:10;" cx="292.433" cy="203.727" r="4.729"/>
			<circle style="fill:none;stroke:#FFFFFF;stroke-miterlimit:10;" cx="343.393" cy="203.727" r="4.729"/>
			<circle style="fill:none;stroke:#8E95A3;stroke-miterlimit:10;" cx="394.353" cy="203.727" r="4.729"/>
		</g>
		<g>
			<circle style="fill:none;stroke:#8E95A3;stroke-miterlimit:10;" cx="88.592" cy="242.078" r="4.729"/>
			<circle style="fill:none;stroke:#8E95A3;stroke-miterlimit:10;" cx="139.552" cy="242.078" r="4.729"/>
			<path style="fill:none;stroke:#8E95A3;stroke-miterlimit:10;" d="M195.241,242.078c0,2.612-2.117,4.729-4.729,4.729
				c-2.612,0-4.729-2.117-4.729-4.729s2.117-4.729,4.729-4.729C193.124,237.35,195.241,239.467,195.241,242.078z"/>
			<path style="fill:none;stroke:#8E95A3;stroke-miterlimit:10;" d="M246.201,242.078c0,2.612-2.117,4.729-4.729,4.729
				c-2.612,0-4.729-2.117-4.729-4.729s2.117-4.729,4.729-4.729C244.084,237.35,246.201,239.467,246.201,242.078z"/>
			<circle style="fill:none;stroke:#8E95A3;stroke-miterlimit:10;" cx="292.433" cy="242.078" r="4.729"/>
			<circle style="fill:none;stroke:#8E95A3;stroke-miterlimit:10;" cx="343.393" cy="242.078" r="4.729"/>
			<circle style="fill:none;stroke:#8E95A3;stroke-miterlimit:10;" cx="394.353" cy="242.078" r="4.729"/>
		</g>
		<g>
			<circle style="fill:none;stroke:#8E95A3;stroke-miterlimit:10;" cx="88.592" cy="281.514" r="4.729"/>
			<circle style="fill:none;stroke:#8E95A3;stroke-miterlimit:10;" cx="139.552" cy="281.514" r="4.729"/>
			<path style="fill:none;stroke:#8E95A3;stroke-miterlimit:10;" d="M195.241,281.514c0,2.612-2.117,4.729-4.729,4.729
				c-2.612,0-4.729-2.117-4.729-4.729s2.117-4.729,4.729-4.729C193.124,276.785,195.241,278.902,195.241,281.514z"/>
			<path style="fill:none;stroke:#8E95A3;stroke-miterlimit:10;" d="M246.201,281.514c0,2.612-2.117,4.729-4.729,4.729
				c-2.612,0-4.729-2.117-4.729-4.729s2.117-4.729,4.729-4.729C244.084,276.785,246.201,278.902,246.201,281.514z"/>
			<circle style="fill:none;stroke:#8E95A3;stroke-miterlimit:10;" cx="292.433" cy="281.514" r="4.729"/>
			<circle style="fill:none;stroke:#8E95A3;stroke-miterlimit:10;" cx="343.393" cy="281.514" r="4.729"/>
		</g>
		<g>
			<path style="fill:none;stroke:#8E95A3;stroke-miterlimit:10;" d="M246.201,123.269c0,2.612-2.117,4.729-4.729,4.729
				c-2.612,0-4.729-2.117-4.729-4.729c0-2.612,2.117-4.729,4.729-4.729C244.084,118.54,246.201,120.657,246.201,123.269z"/>
			<circle style="fill:none;stroke:#8E95A3;stroke-miterlimit:10;" cx="292.433" cy="123.269" r="4.729"/>
			<circle style="fill:none;stroke:#8E95A3;stroke-miterlimit:10;" cx="343.393" cy="123.269" r="4.729"/>
			<circle style="fill:none;stroke:#8E95A3;stroke-miterlimit:10;" cx="394.353" cy="123.269" r="4.729"/>
		</g>
	</g>
	<g>
		<path style="fill:#EB7CB8;" d="M268.718,210.71c14.536,3.886,29.786,8.102,37.048,14.539c5.829,5.167,5.66,11.221,1.808,16.687
			c-3.852,5.466-11.14,10.427-19.195,15.071"/>
		<path style="fill:#EB7CB8;" d="M279.762,397.114c0.144,2.419,1.225,20.558,1.225,20.558l14.558-1.407l-1.28-21.465
			L279.762,397.114z"/>
		<path style="fill:#1B2258;" d="M295.626,413.682c0.026-0.508-6.278-0.606-7.014-0.556c-1.507,0.103-3.031,0.05-4.517-0.234
			c-0.999-0.191-2.841-1.293-3.78-1.009c-0.708,0.215-1.813,1.831-2.597,2.286c-1.166,0.677-2.47,1.11-3.73,1.573
			c-4.738,1.742-10.586,4.604-13.03,9.36c-0.176,0.342,0.098,0.745,0.482,0.733c1.229-0.039,36.547,0.017,37.031,0
			C298.558,422.162,295.441,417.295,295.626,413.682z"/>
		<path style="fill:#396BC5;" d="M259.258,312.029c-0.74-7.838-1.426-15.716-1.326-23.579c0.092-7.272-0.941-14.931-0.143-22.148
			c0.607-5.486,2.635-10.933,6.435-14.142c3.173-2.68,7.275-3.558,11.257-3.458c4.281,0.108,8.98,1.583,11.49,5.72
			c2.066,3.406,2.188,7.812,2.182,11.917c-0.019,12.157-1.119,24.251-0.042,36.295c1.174,13.13,0.603,26.717,1.438,39.936
			c1.043,16.508,4.244,33.015,6.382,49.523c1.056,8.156-5.143,15.209-13.342,15.272c-0.102,0.001-0.203,0.002-0.304,0.003
			c-7.149,0.072-13.359-5.212-14.382-12.313C264.979,367.819,261.786,338.813,259.258,312.029z"/>
		<path style="fill:#EB7CB8;" d="M235.849,397.946c-0.101,2.438-0.854,20.724-0.854,20.724l14.692-0.921l0.891-21.638
			L235.849,397.946z"/>
		<rect x="252.634" y="194.635" style="fill:#EB7CB8;" width="12.725" height="16.014"/>
		<path style="fill:#4C9C7E;" d="M262.925,313.444c1.656-5.365,2.772-8.773,4.295-14.178c0.052-0.185,2.563-9.083,3.401-14.305
			c0-0.01,0.001-0.021,0-0.031c-0.034-0.919-0.078-1.987,0.619-2.586c0.14-0.12,0.301-0.209,0.467-0.289
			c0.631-1.37,1.37-2.687,2.077-4.026c0.542-1.028,0.969-2.059,1.276-3.122c0.113-7.563-1.696-15.593-8.045-20.367
			c-2.908-2.187-6.468-2.83-9.923-3.04c-6.07-0.369-15.943,0.663-20.758,6.439c-1.538,1.845-2.56,4.173-2.778,7.095
			c-0.72,9.658,1.225,19.154-0.581,28.642c-2.188,11.491-4.007,23.052-5.453,34.659c-0.98,7.862-1.79,15.775-1.527,23.693
			c0.421,12.707,1.98,25.059,1.895,37.784c-0.062,9.183,3.93,18.732,14.636,18.681c0.625-0.003,1.251,0.001,1.876,0.013
			c11.606,0.216,13.537-9.679,14.069-18.824c0.709-12.177-0.492-24.356-0.859-36.523c-0.192-6.357-0.537-13.158-0.115-19.462
			C257.927,327.294,261.031,319.579,262.925,313.444z"/>
		<path style="fill:#C93C72;" d="M291.246,260.839c-0.109-7.723-0.839-15.798-2.394-23.378c-2.237-10.905-7.21-21.062-15.985-28.164
			c-2-1.619-4.115-3.158-6.526-4.053c-6.198-2.299-19.547-1.046-24.514,2.685c-1.943,1.459-3.394,3.242-4.525,5.232
			c0.05,4.953,0.217,9.904,0.314,14.857c0.19,9.739,0.091,19.54-2.158,29.063c-0.986,4.173-2.18,8.323-3.205,12.503
			c0.302,0.085,0.623,0.127,0.936,0.16c10.1,1.049,20.272,0.771,30.399,0.34c4.164-0.177,8.326-0.384,12.491-0.535
			c3.836-0.139,8.77,0.663,12.469-0.215c0.288-0.068,0.547-0.167,0.779-0.292C291.785,267.722,291.283,263.46,291.246,260.839z"/>
		<path style="fill:#EB7CB8;" d="M248.744,219.563c-1.092-3.066-3.642-6.244-6.871-5.839c-1.369,0.172-2.567,0.974-3.683,1.785
			c-8.12,5.899-15.4,13.152-20.427,21.838c-5.426-8.269-10.852-16.538-16.279-24.806c-0.684-1.042-1.419-2.117-2.349-2.923
			c-0.489-0.569-0.992-1.126-1.522-1.656c-0.843-0.843-1.742-1.62-2.673-2.365c-0.88-0.704-1.78-1.414-2.329-2.418
			c-0.669-1.224-2.541-0.132-1.871,1.093c0.568,1.039,1.423,1.849,2.333,2.588c0.511,0.415,1.016,0.832,1.513,1.259
			c-1.142,0.211-2.157,0.883-2.98,1.681c-0.892,0.863-1.666,1.882-2.268,2.967c-0.628,1.133-1.306,2.532-1.196,3.859
			c0.117,1.414,1.171,2.777,1.841,3.983c0.428,0.771,0.855,1.543,1.283,2.314c4.999,13.605,13.537,25.894,24.552,35.317
			c1.223,1.046,2.554,2.094,4.141,2.362c2.15,0.362,4.243-0.779,6.079-1.953c5.837-3.734,11.175-8.248,15.828-13.383
			C247.933,238.566,251.778,228.076,248.744,219.563z"/>
		<g>
			<defs>
				<rect id="SVGID_1_" x="252.634" y="194.635" width="12.725" height="16.014"/>
			</defs>
			<clipPath id="SVGID_00000173148129209794955840000010155359066385305787_">
				<use xlink:href="#SVGID_1_"  style="overflow:visible;"/>
			</clipPath>
			<path style="clip-path:url(#SVGID_00000173148129209794955840000010155359066385305787_);fill:#1B2258;" d="M251.343,201.346
				c0.721,1.193,2.27,2.385,3.631,2.652c0.665,0.13,1.394,0.071,1.955-0.308c0.509-0.345,0.824-0.91,1.059-1.479
				c0.136-0.329,0.253-0.682,0.206-1.034c-0.133-0.993-1.024-0.975-1.625-1.488c-0.519-0.442-0.637-0.966-1.274-1.358
				c-1.032-0.635-2.882-1.526-4.005-0.648C250.386,198.388,250.854,200.536,251.343,201.346z"/>
		</g>
		<path style="fill:#C93C72;" d="M221.825,227.206c5.019-5.016,10.038-10.031,15.058-15.047c1.538-1.536,3.093-3.088,4.943-4.229
			c6.125-3.78,14.463-4.142,18.167,2.718c4.046,7.492-0.592,16.916-5.034,23.297c-4.106,5.899-9.455,10.804-14.756,15.656
			c0.605,0.081,1.244-0.25,1.528-0.791"/>
		<path style="fill:#EB7CB8;" d="M249.404,189.663c-0.778,2.102-1.409,4.364-0.987,6.565c0.443,2.313,2.095,4.347,4.246,5.304
			c2.152,0.957,4.742,0.83,6.816-0.285c1.256-0.675,2.309-1.676,3.236-2.76c2.155-2.521,3.746-5.729,2.344-8.988
			c-0.388-0.903-0.9-1.771-1.625-2.434c-0.933-0.853-2.151-1.311-3.336-1.75c-1.569-0.58-3.141-1.162-4.765-1.563
			c-1.994-0.492-2.835-0.659-3.943,1.156C250.489,186.384,250,188.053,249.404,189.663z"/>
		<path style="fill:#1B2258;" d="M265.929,185.667c-0.51-0.591-1.246-1.036-1.99-1.296c-1.311-0.457-2.736-0.531-4.031-1.031
			c-2.398-0.926-4.301-3.274-6.871-3.292c-1.61-0.011-3.176,1.042-3.773,2.538c-0.461,1.154-0.39,3.017,0.553,3.952
			c0.976,0.968,2.246,0.456,3.511,0.821c0.823,0.238,1.51,0.592,2.404,0.66c0.089,1.306,0.181,2.626,0.58,3.873
			c0.399,1.247,1.141,2.431,2.265,3.101c0.287,0.171,0.606,0.316,0.808,0.582c0.333,0.44,0.245,1.051,0.26,1.603
			c0.047,1.731,2.656,4.927,4.559,3.487c0.871-0.659,1.187-1.753,1.774-2.627c0.617-0.919,1.751-1.687,2.185-2.702
			c0.907-2.117-1.129-3.98-1.638-5.937c-0.182-0.699,0.116-1.432,0.079-2.153C266.573,186.649,266.317,186.116,265.929,185.667z"/>
		<path style="fill:#EB7CB8;" d="M257.742,189.273c-3.839,0-3.846,5.362,0,5.362C261.581,194.635,261.587,189.273,257.742,189.273z"
			/>
		<path style="fill:#EB7CB8;" d="M250.356,189.315c-1.003,1.071-2.445,1.718-3.912,1.756c0.242,0.924,1.176,1.518,2.11,1.718
			c0.327,0.07,0.723,0.151,0.835,0.466"/>
		<path style="fill:none;stroke:#1B2258;stroke-width:0.5;stroke-miterlimit:10;" d="M257.466,190.423
			c0.681-0.08,1.281,0.581,1.344,1.264c0.063,0.683-0.276,1.341-0.692,1.886"/>
		<path style="fill:none;stroke:#1B2258;stroke-width:0.5;stroke-miterlimit:10;" d="M249.121,195.918
			c0.685,0.213,1.484-0.002,1.969-0.53"/>
		<path style="fill:#1B2258;" d="M251.175,189.594c-0.697,0-0.698,1.083,0,1.083C251.872,190.677,251.874,189.594,251.175,189.594z"
			/>
		<path style="fill:none;stroke:#1B2258;stroke-width:0.5;stroke-miterlimit:10;" d="M240.823,248.003
			c6.119-4.72,11.382-10.543,15.475-17.097"/>
		<path style="fill:#1B2258;" d="M251.516,425.813c0.173-3.526-2.01-7.214-1.487-10.661c0.077-0.51-6.212-0.822-6.95-0.797
			c-1.134,0.039-2.274-0.006-3.396-0.18c-1.205-0.187-2.697-1.112-3.842-1.127c-1.799-0.023-3.008,2.766-4.895,3.495
			c-3.017,1.165-6.224,1.823-9.166,3.166c-2.551,1.164-5.575,3.266-6.456,6.104H251.516z"/>
		<path style="fill:#C93C72;" d="M269.086,223.409c1.625,2.41,3.251,4.82,4.875,7.231c1.147,1.703,2.205,3.873,4.396,4.32
			c1.862,0.384,3.103,4.028,4.421,5.202c3.12,2.778,4.941,0.111,7.633-2.266c5.461-4.824,10.499-10.124,15.036-15.825
			c-12.354-5.956-24.961-11.387-37.777-16.272C255.021,200.977,266.595,219.713,269.086,223.409z"/>
		<path style="fill:none;stroke:#1B2258;stroke-width:0.5;stroke-miterlimit:10;" d="M289.575,242.669
			c-0.399-6.938-2.547-13.767-6.191-19.684"/>
		<path style="fill:none;stroke:#1B2258;stroke-width:0.5;stroke-miterlimit:10;" d="M274.855,269.966
			c0.195,2.266,0.313,4.572-0.168,6.794c-0.48,2.223-1.625,4.383-3.507,5.66c-2.732,13.7-6.596,27.173-11.542,40.238"/>
		<path style="fill:#EB7CB8;" d="M199.274,207.856c-0.486-0.293-1.211-0.124-1.482,0.389c-0.277,0.525-0.13,1.17,0.389,1.482
			c0.096,0.058,0.19,0.117,0.283,0.181c0.031,0.021,0.062,0.044,0.093,0.066c0.156,0.133,0.311,0.265,0.454,0.413
			c0.07,0.072,0.138,0.146,0.204,0.222c0.032,0.037,0.063,0.075,0.095,0.113c0.119,0.168,0.235,0.335,0.338,0.513
			c0.101,0.175,0.176,0.362,0.272,0.538c-0.151-0.279,0.007,0.026,0.038,0.115c0.033,0.095,0.064,0.191,0.092,0.287
			c0.058,0.2,0.1,0.403,0.137,0.608c0.004,0.041,0.009,0.082,0.012,0.124c0.009,0.111,0.013,0.223,0.015,0.335
			c0.01,0.566,0.491,1.11,1.083,1.083c0.578-0.026,1.094-0.476,1.083-1.083C202.34,211.056,201.147,208.983,199.274,207.856z"/>
		<path style="fill:none;stroke:#1B2258;stroke-width:0.5;stroke-miterlimit:10;" d="M218.862,256.798
			c0.888,0.283,1.865,0.28,2.752-0.008"/>
		<path style="fill:#4C9C7E;" d="M225.169,417.06c-0.532,0.643-0.587,1.638-0.129,2.336c0.458,0.698,1.391,1.045,2.193,0.814"/>
		<path style="fill:#4C9C7E;" d="M227.627,416.063c-0.249,0.732-0.044,1.598,0.507,2.141s1.42,0.735,2.148,0.475"/>
		<path style="fill:#4C9C7E;" d="M230.453,414.864c-0.008,0.915,0.497,1.816,1.279,2.289c0.783,0.473,1.816,0.499,2.622,0.067"/>
		<path style="fill:#4C9C7E;" d="M269.334,416.228c-0.29,0.877-0.36,1.9,0.143,2.674s1.724,1.094,2.378,0.442"/>
		<path style="fill:#4C9C7E;" d="M272.03,414.854c-0.174,0.765,0.105,1.615,0.698,2.129c0.593,0.514,1.474,0.668,2.207,0.387"/>
		<path style="fill:#4C9C7E;" d="M275.603,413.192c-0.473,0.789-0.155,1.887,0.559,2.466c0.714,0.579,1.717,0.699,2.619,0.522"/>
	</g>
	<g>
		<g>
			<rect x="194.392" y="44.177" style="fill:#D5D9E0;" width="126.148" height="85.407"/>
			<circle style="fill:#FFFFFF;" cx="217.073" cy="71.406" r="10.758"/>
			<polyline style="fill:none;stroke:#1B2258;stroke-width:3;stroke-miterlimit:10;" points="206.314,64.464 217.073,75.436 
				232.813,55.262 			"/>
			<g>
				<path style="fill:#C93C72;" d="M227.057,99.5c0,5.415-9.805,21.17-9.805,21.17s-9.805-15.755-9.805-21.17
					c0-5.415,4.39-9.805,9.805-9.805C222.667,89.695,227.057,94.084,227.057,99.5z"/>
				<path style="fill:#FFFFFF;" d="M220.855,98.901c0,1.99-1.613,3.603-3.603,3.603c-1.99,0-3.603-1.613-3.603-3.603
					c0-1.99,1.613-3.603,3.603-3.603C219.242,95.298,220.855,96.911,220.855,98.901z"/>
			</g>
			<rect x="237.112" y="60.648" style="fill:none;stroke:#A8A8A8;stroke-miterlimit:10;" width="72.911" height="60.021"/>
			<rect x="242.012" y="68.309" style="fill:#396BC5;" width="48.961" height="6.195"/>
			<rect x="242.012" y="79.067" style="fill:#396BC5;" width="48.961" height="7.813"/>
		</g>
		<rect x="242.012" y="106.813" style="fill:#396BC5;" width="48.961" height="7.813"/>
	</g>
	<g>
		<rect x="41.905" y="130.1" style="fill:#D5D9E0;" width="115.779" height="110.958"/>
		<g>
			<g>
				<path style="fill:#396BC5;" d="M67.95,147.435c0,3.067-2.486,5.554-5.554,5.554c-3.067,0-5.554-2.486-5.554-5.554
					c0-3.067,2.487-5.554,5.554-5.554C65.463,141.881,67.95,144.368,67.95,147.435z"/>
				<path style="fill:#396BC5;" d="M73.369,162.5c-0.318-5.793-5.102-10.395-10.973-10.395c-5.872,0-10.656,4.603-10.974,10.395
					H73.369z"/>
			</g>
			<g>
				<path style="fill:#4C9C7E;" d="M67.95,179.783c0,3.067-2.486,5.554-5.554,5.554c-3.067,0-5.554-2.486-5.554-5.554
					c0-3.067,2.487-5.554,5.554-5.554C65.463,174.229,67.95,176.716,67.95,179.783z"/>
				<path style="fill:#4C9C7E;" d="M73.369,194.848c-0.318-5.793-5.102-10.396-10.973-10.396c-5.872,0-10.656,4.603-10.974,10.396
					H73.369z"/>
			</g>
			<g>
				<path style="fill:#C93C72;" d="M67.95,212.131c0,3.067-2.486,5.554-5.554,5.554c-3.067,0-5.554-2.487-5.554-5.554
					c0-3.067,2.487-5.554,5.554-5.554C65.463,206.577,67.95,209.064,67.95,212.131z"/>
				<path style="fill:#C93C72;" d="M73.369,227.196c-0.318-5.793-5.102-10.396-10.973-10.396c-5.872,0-10.656,4.603-10.974,10.396
					H73.369z"/>
			</g>
		</g>
		<rect x="86.187" y="147.435" style="fill:#396BC5;" width="57.925" height="9.867"/>
		<rect x="86.187" y="181.151" style="fill:#4C9C7E;" width="57.925" height="9.867"/>
		<rect x="86.187" y="214.866" style="fill:#C93C72;" width="57.925" height="9.867"/>
	</g>
	<g>
		<g>
			<g>
				<path style="fill:#AECCC0;" d="M150.716,359.619c-5.115,0.688-10.74,4.406-15.009,8.645c-1.965,1.951-3.642,4.013-4.851,5.94
					c-4.051,6.461-5.981,14.007-7.462,21.488c-0.23,1.163-1.161,9.277,0.344,12.124c0.357-0.034,0.715-0.06,1.073-0.074
					c0.467-0.019,0.935-0.028,1.402-0.048c0.216-0.009,0.432-0.022,0.648-0.038c5.207-16.957,12.513-23.129,20.945-26.311
					c4.911-1.853,10.965-2.478,13.749-6.926C165.689,367.813,157.826,358.663,150.716,359.619z"/>
				<path style="fill:#4C9C7E;" d="M124.228,407.747c0.046-2.797-0.548-5.614-0.785-8.394c-0.57-6.686-0.122-13.258,0.299-19.939
					c0.408-6.469,0.977-13.326-0.531-19.696c-1.852-7.827-9.603-13.886-15.571-5.12c-4.991,7.331-3.863,18.191,0.576,25.548
					c5.4,8.95,10.835,18.349,15.088,27.879C123.613,407.938,123.923,407.853,124.228,407.747z"/>
				<path style="fill:#4C9C7E;" d="M104.17,385.798c-7.765-3.278-17.616-1.51-23.174,4.827c-2.024,2.308-3.497,5.494-2.569,8.42
					c0.961,3.03,4.247,4.809,7.413,5.089c3.166,0.28,6.301-0.613,9.405-1.296c5.667-1.247,11.732-1.784,17.156,0.278
					c3.211,1.221,5.957,4.107,9.047,5.018C120.474,399.919,111.549,388.914,104.17,385.798z"/>
			</g>
			<path style="opacity:0.35;fill:none;stroke:#000000;stroke-width:0.5;stroke-miterlimit:10;" d="M146.129,369.892
				c-6.93,4.099-12.161,10.721-15.448,18.071c-3.286,7.351-5.081,12.254-5.545,20.292"/>
			<path style="opacity:0.35;fill:none;stroke:#000000;stroke-width:0.5;stroke-miterlimit:10;" d="M95.92,394.689
				c10.973,0.202,20.345,2.664,24.208,12.937"/>
			<path style="opacity:0.35;fill:none;stroke:#000000;stroke-width:0.5;stroke-miterlimit:10;" d="M115.958,375.482
				c3.244,11.899,5.149,20.407,7.347,32.543"/>
		</g>
		<line style="fill:none;stroke:#A8A8A8;stroke-miterlimit:10;" x1="97.365" y1="408.025" x2="148.282" y2="408.025"/>
		<line style="fill:none;stroke:#A8A8A8;stroke-miterlimit:10;" x1="128.689" y1="413.626" x2="157.939" y2="413.626"/>
	</g>
	<g>
		<g>
			<g>
				<path style="fill:#4C9C7E;" d="M376.218,386.907c0.152-0.158,0.307-0.314,0.465-0.469c1.073-1.047,2.266-2.009,3.638-2.704
					c2.568-1.301,5.649-1.591,8.546-1.167c4.75,0.695,8.01,3.185,11.986,5.342c4.46,2.42,8.845,4.957,13.145,7.609
					c1.854,1.143,3.825,2.475,4.382,4.459c0.726,2.589-1.454,5.313-4.204,6.198c-2.75,0.886-5.818,0.316-8.518-0.692
					c-5.053-1.886-9.329-5.214-14.323-7.227c-2.815-1.134-8.56-2.701-11.546-1.464c-0.809,0.335-1.465,0.915-2.056,1.522
					c-1.773,1.821-3.113,3.995-3.9,6.327c-0.597,1.769-0.879,3.618-1.489,5.383c-0.61,1.765-1.613,3.504-3.285,4.542
					c-0.918-0.726-0.856-1.657-0.774-2.654C368.973,403.471,369.877,393.513,376.218,386.907z"/>
				<path style="fill:#AECCC0;" d="M366.827,384.663c-0.445,3.476-0.038,7.017,0.208,10.494c0.456,6.456,0.972,12.403-0.22,18.841
					c-0.097,0.524-0.286,1.14-0.838,1.302c-0.767,0.225-1.386-0.627-1.532-1.353c-0.271-1.345,0.009-2.725,0.031-4.092
					c0.097-6.214-4.911-10.757-8.478-15.529c-3.887-5.201-5.603-12.087-3.068-17.948c0.766-1.771,1.892-3.407,2.531-5.221
					c0.668-1.896,0.779-3.915,0.801-5.907c0.041-3.636-0.196-7.274-0.709-10.88c-0.519-3.649-1.01-8.061,2.154-10.323
					c3.427-2.449,8.554-0.344,11.494,2.589c5.074,5.062,7.116,12.535,5.244,19.195C372.527,372.647,367.704,377.81,366.827,384.663z
					"/>
				<path style="fill:#AECCC0;" d="M355.648,401.387c-1.125-1.117-2.242-2.242-3.169-3.546c-1.668-2.345-2.963-4.921-3.802-7.614
					c-0.804-2.58-1.082-5.426-2.872-7.647c-2.654-3.292-5.933-0.832-6.567,2.328c-0.818,4.075,0.174,8.373,2.396,11.982
					c2.222,3.608,5.617,6.547,9.49,8.695c3.947,2.189,5.881,5.403,7.861,9.173c0.263,0.5,0.386,0.211,0.96,0.035
					c0.458-0.141,0.922,0.213,0.96-0.228c0.326-3.741,0.042-7.18-2.496-10.26C357.554,403.269,356.598,402.331,355.648,401.387z"/>
				<path style="opacity:0.3;fill:none;stroke:#000000;stroke-width:0.5;stroke-miterlimit:10;" d="M364.587,359.861
					c2.163,3.865,0.914,8.565-0.824,12.606c-1.738,4.041-3.97,8.135-3.651,12.469c0.275,3.749,2.431,7.131,3.713,10.7
					c1.621,4.513,3.361,14.541,2.133,19.157"/>
				<path style="opacity:0.3;fill:none;stroke:#000000;stroke-width:0.5;stroke-miterlimit:10;" d="M369.059,414.444
					c0.95-3.999,2.793-12.654,4.547-16.417c0.831-1.783,1.772-3.561,3.214-4.979c2.725-2.68,7.201-3.731,10.996-2.582"/>
				<path style="opacity:0.3;fill:none;stroke:#000000;stroke-width:0.5;stroke-miterlimit:10;" d="M345.939,394.998
					c1.76,6.903,11.796,10.055,13.253,17.017c0.319,1.526,0.381,1.263,0.752,2.778"/>
			</g>
		</g>
		<line style="fill:none;stroke:#A8A8A8;stroke-miterlimit:10;" x1="330.404" y1="415.104" x2="391.621" y2="415.104"/>
	</g>
	<g>
		<circle style="fill:none;stroke:#8E95A3;stroke-miterlimit:10;" cx="91.117" cy="334.732" r="10.179"/>
		<circle style="fill:none;stroke:#8E95A3;stroke-miterlimit:10;" cx="122.632" cy="334.732" r="10.179"/>
		<circle style="fill:none;stroke:#8E95A3;stroke-miterlimit:10;" cx="420.687" cy="334.732" r="10.179"/>
		<circle style="fill:none;stroke:#8E95A3;stroke-miterlimit:10;" cx="154.148" cy="334.732" r="10.179"/>
	</g>
</g>
</svg>
