<?xml version="1.0" encoding="utf-8"?>
<!-- Generator: Adobe Illustrator 27.5.0, SVG Export Plug-In . SVG Version: 6.00 Build 0)  -->
<svg version="1.1" xmlns="http://www.w3.org/2000/svg" xmlns:xlink="http://www.w3.org/1999/xlink" x="0px" y="0px"
	 viewBox="0 0 3710 3710" style="enable-background:new 0 0 3710 3710;" xml:space="preserve">
<g id="Background">
	<g>
		<g>
			<rect style="fill:#FFFFFF;" width="3710" height="3710"/>
		</g>
	</g>
</g>
<g id="Illustration">
	<g id="Electronic_contract">
		<path style="fill:#F4F7FA;" d="M3135.531,2385.624c-204.266,231.785-545.211,208.927-544.457,318.189
			c0.834,120.649,416.496,140.989,424.252,254.551c10.51,153.871-729.832,449.811-1502.727,328.635
			c-266.276-41.747-518.385-82.08-735.871-278.57c-596.012-538.474-159.516-1678.346-88.375-1867.014
			c140.601-372.882,314.723-493.103,368.602-530.579c280.33-194.988,602.892-162.953,890.929-134.347
			c218.104,21.661,544.73,58.512,842.888,304.366c50.848,41.927,162.998,141.56,264.072,299.62
			C3300.409,1464.49,3408.936,2075.386,3135.531,2385.624z"/>
		<g>
			<g>
				
					<linearGradient id="SVGID_1_" gradientUnits="userSpaceOnUse" x1="1094.442" y1="1670.2498" x2="504.6365" y2="2338.1172" gradientTransform="matrix(-0.9579 -0.2871 -0.2871 0.9579 3878.8669 434.6634)">
					<stop  offset="0" style="stop-color:#FFC444"/>
					<stop  offset="0.9964" style="stop-color:#F36F56"/>
				</linearGradient>
				<path style="fill:url(#SVGID_1_);" d="M1676.918,2619.597c471.509,154.179,629.725,111.666,685.01,40.832
					c32.143-41.183,45.271-112.156,131.362-191.531c72.558-66.897,107.188-57.012,142.043-111.36
					c60.459-94.271-18.199-163.826,31.635-256.406c54.562-101.364,173.924-64.559,245.666-184.643
					c39.244-65.686,6.983-82.48,43.01-148.396c73.437-134.365,226.435-99.26,296.709-219.853
					c40.911-70.205,39.692-168.994-1.21-233.088c-82.039-128.558-325.042-119.607-474.399-33.541
					c-19.24,11.087-164.483,97.516-200.013,251.899c-21.437,93.148,12.707,143.071-29.189,195.543
					c-59.105,74.025-159.709,15.558-217.229,80.584c-77.938,88.11,51.186,258.289-37.637,357.283
					c-34.379,38.316-62.446,22.543-97.742,67.16c-58.049,73.379-15.434,158.135-35.888,223.309
					C2137.083,2527.374,2033.97,2601.625,1676.918,2619.597z"/>
				<path style="opacity:0.28;fill:#FFFFFF;" d="M2754.778,1505.934c-84.063,135.609,4.798,242.19-85.495,345.635
					c-73.33,84.011-164.664,51.206-203.102,133.806c-36.839,79.163,37.009,130.881,1.296,222.241
					c-29.437,75.303-90.018,66.799-165.295,158.721c-75.773,92.53-60.113,156.981-100.479,214.371
					c-43.334,61.61-147.702,110.013-404.438,75.993c-37.669-10.85-77.709-23.162-120.346-37.103
					c357.052-17.972,460.165-92.223,482.128-162.208c20.454-65.174-22.161-149.93,35.888-223.309
					c35.296-44.617,63.363-28.844,97.742-67.16c88.823-98.995-40.302-269.174,37.636-357.283
					c57.52-65.026,158.124-6.56,217.229-80.584c41.896-52.472,7.752-102.395,29.189-195.543
					c35.529-154.382,180.773-240.812,200.013-251.899c149.357-86.067,392.36-95.017,474.399,33.541
					c0.395,0.618,0.76,1.26,1.147,1.884c-66.418-7.367-149.408-5.816-239.168,21.848
					C2943.416,1360.366,2821.773,1397.858,2754.778,1505.934z"/>
			</g>
			<g>
				<g>
					<defs>
						<path id="SVGID_00000040572793797415589110000005151880937427660478_" d="M1782.679,2690.162
							c206.601-21.375,272.185-74.47,288.506-124.725c26.712-82.251-80.414-151.114-50.918-244.984
							c33.982-108.145,204.385-106.559,209.943-180.119c6.007-79.51-191.46-102.792-215.387-222.05
							c-21.69-108.11,128.94-147.022,149.782-296.359c24.884-178.295-172.088-249.959-177.974-457.964
							c-4.019-142.034,83.84-249.349,152.786-333.564c155.134-189.49,440.793-353.912,727.42-290.849
							c39.095,8.602,267.282,58.807,304.516,202.405c37.746,145.567-132.367,342.254-290.67,436.471
							c-114.74,68.29-202.822,70.572-217,135.536c-19.114,87.578,128.123,142.267,123.594,273.316
							c-2.394,69.286-45.915,122.378-88.724,174.6c-97.033,118.372-172.333,102.354-194.063,172.656
							c-29.733,96.196,101.846,156.623,110.714,308.392c6.318,108.133-53.741,192.728-87.583,240.397
							C2395.702,2669.136,2103.024,2743.635,1782.679,2690.162z"/>
					</defs>
					
						<linearGradient id="SVGID_00000068639355972363933090000000656307389247544246_" gradientUnits="userSpaceOnUse" x1="2342.5117" y1="593.2039" x2="2492.7727" y2="1840.8269">
						<stop  offset="0" style="stop-color:#FF9085"/>
						<stop  offset="1" style="stop-color:#FB6FBB"/>
					</linearGradient>
					
						<use xlink:href="#SVGID_00000040572793797415589110000005151880937427660478_"  style="overflow:visible;fill:url(#SVGID_00000068639355972363933090000000656307389247544246_);"/>
					<clipPath id="SVGID_00000044170201112887886170000011329381054545599624_">
						<use xlink:href="#SVGID_00000040572793797415589110000005151880937427660478_"  style="overflow:visible;"/>
					</clipPath>
					<path style="opacity:0.7;clip-path:url(#SVGID_00000044170201112887886170000011329381054545599624_);fill:#FFFFFF;" d="
						M3254.843,684.505c-132.776,42.379-265.703,84.161-398.746,125.543c-33.222,10.467-66.574,20.521-99.676,31.371l-99.37,32.261
						c-33.081,10.86-66.094,21.904-98.904,33.452c-32.794,11.571-65.442,23.579-97.28,37.227
						c-15.899,6.847-31.596,14.128-46.656,22.387c-7.58,4.056-14.836,8.579-21.96,13.247c-6.993,4.827-13.731,9.961-19.915,15.626
						c-12.341,11.364-21.836,25.21-27.579,40.915c-5.648,15.747-8.654,32.421-7.991,49.163c0.556,16.742,4.4,33.363,10.175,49.343
						c5.769,16.015,13.62,31.347,22.076,46.337c17.026,29.981,37.217,58.367,56.465,87.488
						c19.288,29.087,37.989,58.954,52.507,91.183c7.09,16.164,13.346,32.783,17.694,50.018c4.173,17.257,6.886,34.931,7.301,52.763
						c0.371,35.614-7.109,71.329-22.928,103.36c-7.957,15.976-18.107,30.774-29.445,44.387
						c-11.371,13.613-24.009,25.939-36.722,37.933c-25.4,23.844-51.668,46.813-69.466,75.964
						c-18.28,28.743-26.574,62.928-27.631,96.971c-0.459,17.03,1.129,34.097,5.042,50.679c3.96,16.572,9.881,32.681,17.261,48.208
						c7.332,15.558,15.835,30.647,24.28,45.927c8.388,15.292,16.812,30.833,23.103,47.5c6.427,16.563,10.389,34.399,10.627,52.387
						c0.08,17.988-3.14,35.86-9.175,52.646c-6.047,16.815-14.919,32.601-25.896,46.605c-11.09,13.923-23.895,26.301-37.473,37.452
						c-27.041,22.472-56.738,41.019-81.614,64.799c-12.429,11.819-23.405,25.108-31.733,39.94
						c-8.195,14.895-13.636,31.239-16.21,48.113c-2.465,16.884-2.208,34.12,1.519,50.754c3.725,16.662,10.689,32.45,17.879,48.312
						c3.504,8.013,7.171,16.013,9.861,24.541c2.624,8.487,4.796,17.373,4.704,26.474c0.181,9.038-1.183,18.156-4.233,26.654
						c-2.974,8.532-7.376,16.467-12.567,23.747c-10.68,14.386-24.277,26.139-38.916,35.895c-14.632,9.826-30.2,18.05-46.133,25.319
						c-31.988,14.317-65.262,25.291-98.93,34.461c-33.671,9.211-67.753,16.749-101.993,23.326
						c-34.248,6.542-68.651,12.23-103.166,17.061c-69.01,9.836-138.357,17.007-207.778,22.952l-0.04-0.453
						c69.362-6.529,138.626-14.284,207.494-24.693c34.446-5.118,68.76-11.089,102.892-17.908
						c34.122-6.853,68.059-14.662,101.52-24.12c33.455-9.414,66.455-20.619,97.972-35.046c15.69-7.317,30.958-15.559,45.173-25.281
						c14.225-9.665,27.251-21.158,37.326-34.825c9.811-13.714,16.168-30.165,15.481-46.977
						c-0.142-16.843-7.188-32.851-14.268-48.592c-7.24-15.784-14.541-32.04-18.518-49.446c-3.99-17.386-4.347-35.539-1.852-53.128
						c2.589-17.582,8.217-34.805,16.754-50.477c8.659-15.609,20.082-29.526,32.812-41.747
						c25.511-24.575,55.265-43.317,81.674-65.519c13.281-11.009,25.589-23.059,36.152-36.443
						c10.442-13.462,18.765-28.463,24.441-44.46c5.676-16.016,8.614-32.967,8.464-49.812c-0.316-16.872-4.073-33.57-10.308-49.427
						c-12.388-31.864-32.572-60.671-47.516-92.652c-7.596-15.916-13.805-32.667-17.966-49.979
						c-4.119-17.327-5.818-35.231-5.364-53.006c0.509-17.773,2.929-35.469,7.603-52.695c2.258-8.631,5.374-17.027,8.801-25.276
						c3.682-8.137,7.686-16.155,12.466-23.695c4.587-7.668,9.962-14.788,15.424-21.789c5.652-6.837,11.464-13.54,17.637-19.828
						c12.215-12.737,25.221-24.437,37.839-36.363c12.597-11.919,24.926-24,35.877-37.157c10.921-13.159,20.577-27.3,28.14-42.538
						c15.024-30.509,22.162-64.862,21.75-98.82c-0.427-17.032-3.051-33.943-7.08-50.528c-4.207-16.567-10.283-32.644-17.202-48.354
						c-14.175-31.347-32.61-60.747-51.847-89.649c-19.196-28.959-39.521-57.404-56.979-88.012
						c-8.664-15.313-16.795-31.092-22.877-47.876c-6.08-16.737-10.252-34.453-10.884-52.55c-0.737-18.099,2.46-36.267,8.605-53.283
						c3.204-8.473,7.363-16.703,12.533-24.252c5.16-7.557,11.254-14.424,17.896-20.556c6.688-6.085,13.855-11.496,21.216-16.532
						c7.458-4.854,15.02-9.519,22.816-13.657c15.523-8.435,31.498-15.766,47.615-22.637c32.259-13.687,65.093-25.619,98.039-37.108
						c32.957-11.463,66.063-22.402,99.222-33.152c66.289-21.591,132.912-42.024,199.719-61.862
						c133.475-40.12,267.067-79.84,400.811-118.964L3254.843,684.505z"/>
				</g>
			</g>
			<g>
				<g>
					<defs>
						<path id="SVGID_00000070802649692803082290000014820923038040730290_" d="M1857.955,2518.865
							c29.497,34.048,78.758,86.382,148.192,139.715c142.996,109.839,407.637,251.638,552.232,164.767
							c17.773-10.678,64.738-38.894,80.408-90.504c16.293-53.657-15.73-84.88,2.837-115.109
							c25.386-41.333,100.466-7.734,196.606-28.672c81.648-17.781,195.494-78.599,230.592-189.237
							c38.485-121.315-40.637-230.253-49.343-241.851c-59.155-78.813-172.672-143.764-271.874-113.019
							c-87.778,27.205-131.345,119.107-160.096,179.755c-65.054,137.227-31.189,223.924-93.164,256.471
							c-56.437,29.64-108.897-29.457-179.611,11.903c-30.219,17.674-30.028,33.957-81.252,71.674
							c-38.757,28.537-75.367,46.091-89.802,51.746C2031.964,2660.266,1872.054,2530.547,1857.955,2518.865z"/>
					</defs>
					
						<linearGradient id="SVGID_00000001629967015686596700000016792406331289114775_" gradientUnits="userSpaceOnUse" x1="2481.1042" y1="2317.2429" x2="2383.1174" y2="3214.8059">
						<stop  offset="0.0036" style="stop-color:#E38DDD"/>
						<stop  offset="1" style="stop-color:#9571F6"/>
					</linearGradient>
					
						<use xlink:href="#SVGID_00000070802649692803082290000014820923038040730290_"  style="overflow:visible;fill:url(#SVGID_00000001629967015686596700000016792406331289114775_);"/>
					<clipPath id="SVGID_00000039843844494865292740000001474613426054147515_">
						<use xlink:href="#SVGID_00000070802649692803082290000014820923038040730290_"  style="overflow:visible;"/>
					</clipPath>
					<path style="opacity:0.5;clip-path:url(#SVGID_00000039843844494865292740000001474613426054147515_);fill:#FFFFFF;" d="
						M2376.471,2712.139c-43.955,0-108.086-7.768-202.555-31.255c-117.084-29.108-233.087-70.559-344.793-123.202l1.509-3.198
						c111.492,52.545,227.278,93.918,344.14,122.97c236.125,58.704,280.677,19.093,295.319,6.076
						c22.528-20.027,28.629-42.233,35.092-65.744c7.178-26.118,15.312-55.72,47.594-86.747
						c29.43-28.287,56.194-36.146,82.078-43.746c25.615-7.521,49.807-14.625,76.309-40.258
						c34.177-33.057,41.631-68.181,49.524-105.369c4.419-20.811,8.984-42.331,18.337-64.907
						c36.891-89.048,134.661-156.263,290.589-199.78l0.953,3.406c-154.831,43.208-251.82,109.733-288.276,197.727
						c-9.229,22.274-13.759,43.632-18.143,64.287c-8.007,37.731-15.571,73.37-50.525,107.176
						c-27.127,26.239-52.873,33.798-77.773,41.109c-25.473,7.48-51.816,15.215-80.621,42.903
						c-31.581,30.354-39.235,58.203-46.637,85.135c-6.605,24.03-12.84,46.728-36.152,67.45
						C2463.403,2694.205,2443.219,2712.139,2376.471,2712.139z"/>
				</g>
			</g>
		</g>
		<g>
			<g>
				<path style="fill:#BFC8D6;" d="M3266.856,2940.94l-2783.137-23.723v70.193c0,19.052,12.139,35.252,28.579,38.139
					l786.988,138.223c9.34,1.64,18.811,2.075,28.235,1.297l1909.09-157.596c17.044-1.407,30.244-17.657,30.244-37.232V2940.94z"/>
				<g>
					<path style="fill:#BFC8D6;" d="M2256.867,2828.452l-1744.367,128.41c-31.214,2.297-56.594-22.118-56.594-54.541V1603.341
						c0-32.423,25.38-58.707,56.594-58.707h1744.367c25.716,0,46.508,23.76,46.508,53.07v1174.255
						C2303.375,2801.268,2282.583,2826.559,2256.867,2828.452z"/>
					<path style="fill:#BFC8D6;" d="M2284.681,2828.452l-1744.367,128.41c-31.215,2.297-56.594-22.118-56.594-54.541V1603.341
						c0-32.423,25.379-58.707,56.594-58.707h1744.367c25.717,0,46.508,23.76,46.508,53.07v1174.255
						C2331.189,2801.268,2310.397,2826.559,2284.681,2828.452z"/>
					
						<linearGradient id="SVGID_00000066502478333301624080000005966671947655089311_" gradientUnits="userSpaceOnUse" x1="559.5989" y1="2238.6824" x2="2268.7119" y2="2238.6824">
						<stop  offset="0.0036" style="stop-color:#E38DDD"/>
						<stop  offset="1" style="stop-color:#9571F6"/>
					</linearGradient>
					<path style="fill:url(#SVGID_00000066502478333301624080000005966671947655089311_);" d="M2230.339,2745.665L605.643,2857.207
						c-25.401,1.744-46.044-18.296-46.044-44.765V1675.182c0-26.469,20.642-48.016,46.044-48.125l1624.696-7.004
						c21.214-0.092,38.373,19.378,38.373,43.487v1035.84C2268.712,2723.487,2251.552,2744.21,2230.339,2745.665z"/>
					<path style="fill:#FFFFFF;" d="M1474.103,1580.164c0,12.07-8.978,21.883-20.065,21.918
						c-11.101,0.035-20.109-9.743-20.109-21.84s9.008-21.91,20.109-21.919C1465.125,1558.315,1474.103,1568.093,1474.103,1580.164z"
						/>
					<path style="opacity:0.48;fill:#FFFFFF;" d="M540.307,2956.863l1735.542-127.76l8.832-0.65
						c11.799-0.869,22.528-6.701,30.723-15.549c-124.892-6.835-202.464-51.156-252.504-96.951
						c-100.491-91.968-83.06-182.663-191.428-243.13c-135.163-75.421-241.442,20.146-344.009-74.145
						c-62.181-57.167-31.653-99.795-108.167-185.223c-84.745-94.618-139.919-62.813-225.087-147.969
						c-107.688-107.675-53.829-191.449-146.589-268.757c-112.531-93.786-233.891-6.981-341.012-96.924
						c-46.202-38.793-71.555-95.19-84.792-155.17h-81.501c-31.215,0-56.595,26.284-56.595,58.707v1298.981
						C483.719,2934.742,509.094,2959.156,540.307,2956.863z"/>
				</g>
				<path style="fill:#D8DEE8;" d="M2354.207,2821.33L483.719,2956.493l815.567,143.242c9.34,1.64,18.811,2.076,28.235,1.298
					l1939.334-160.093l-882.896-118.692C2374.087,2820.921,2364.129,2820.613,2354.207,2821.33z"/>
				<polygon style="fill:#BFC8D6;" points="756.653,2957.656 2313.889,2843.452 2795.84,2907.72 1252.018,3029.8 				"/>
			</g>
		</g>
		<g>
			
				<linearGradient id="SVGID_00000048493802387118073530000006909234991026185098_" gradientUnits="userSpaceOnUse" x1="1991.8042" y1="1086.4309" x2="952.3875" y2="3235.9741">
				<stop  offset="0" style="stop-color:#FFFFFF"/>
				<stop  offset="0.9964" style="stop-color:#EBEFF2"/>
			</linearGradient>
			<path style="fill:url(#SVGID_00000048493802387118073530000006909234991026185098_);" d="M2511.228,2479.358
				c0,143.714-117.23,267.661-263.869,276.971L613.906,2860.037c172.723-10.966,310.641-146.056,310.641-301.896V765.442
				l1586.68,60.701V2479.358z"/>
			<g>
				<polygon style="fill:#D8DEE8;" points="2398.607,1807.646 1171.052,1824.659 1171.052,1775.4 2398.607,1761.39 				"/>
				<polygon style="fill:#D8DEE8;" points="1070.915,1826.047 1126.508,1825.276 1126.508,1775.909 1070.915,1776.543 				"/>
			</g>
			<g>
				<polygon style="fill:#D8DEE8;" points="2398.607,1884.022 1171.052,1905.993 1171.052,1856.734 2398.607,1837.766 				"/>
				
					<linearGradient id="SVGID_00000101076816345936498430000004908422689534788002_" gradientUnits="userSpaceOnUse" x1="1056.0366" y1="1766.9948" x2="1155.4735" y2="2036.3782">
					<stop  offset="0" style="stop-color:#FF9085"/>
					<stop  offset="1" style="stop-color:#FB6FBB"/>
				</linearGradient>
				<polygon style="fill:url(#SVGID_00000101076816345936498430000004908422689534788002_);" points="1070.915,1907.786 
					1126.508,1906.791 1126.508,1857.423 1070.915,1858.282 				"/>
			</g>
			<g>
				<polygon style="fill:#D8DEE8;" points="2398.607,1960.398 1171.052,1987.328 1171.052,1938.069 2398.607,1914.142 				"/>
				
					<linearGradient id="SVGID_00000150820930482478102470000001421385874026910601_" gradientUnits="userSpaceOnUse" x1="1082.7982" y1="1921.1208" x2="1181.9117" y2="2189.6282">
					<stop  offset="0" style="stop-color:#FF9085"/>
					<stop  offset="1" style="stop-color:#FB6FBB"/>
				</linearGradient>
				<polygon style="fill:url(#SVGID_00000150820930482478102470000001421385874026910601_);" points="1070.915,1989.524 
					1126.508,1988.305 1126.508,1938.937 1070.915,1940.021 				"/>
			</g>
			<g>
				<polygon style="fill:#D8DEE8;" points="2398.607,2036.774 1171.052,2068.662 1171.052,2019.403 2398.607,1990.518 				"/>
				<polygon style="fill:#D8DEE8;" points="1070.915,2071.263 1126.508,2069.819 1126.508,2020.451 1070.915,2021.76 				"/>
			</g>
			<g>
				<polygon style="fill:#D8DEE8;" points="2398.607,2189.526 1070.915,2234.741 1070.915,2185.237 2398.607,2143.27 				"/>
			</g>
			<g>
				<polygon style="fill:#D8DEE8;" points="2398.607,2265.902 1070.915,2316.479 1070.915,2266.976 2398.607,2219.646 				"/>
			</g>
			<g>
				<polygon style="fill:#D8DEE8;" points="2398.607,2342.278 1070.915,2398.219 1070.915,2348.715 2398.607,2296.022 				"/>
			</g>
			<g>
				<polygon style="fill:#D8DEE8;" points="2398.607,2418.654 1070.915,2479.957 1070.915,2430.453 2398.607,2372.398 				"/>
			</g>
			<g>
				<polygon style="fill:#D8DEE8;" points="1070.915,1323.554 2397.687,1328.759 2397.687,1380.048 1070.915,1380.048 				"/>
				<polygon style="fill:#D8DEE8;" points="1070.915,1236.771 2397.687,1249.971 2397.687,1301.261 1070.915,1293.266 				"/>
				<polygon style="fill:#BFC8D6;" points="1070.915,1097.64 2397.687,1123.658 2397.687,1222.473 1070.915,1206.483 				"/>
			</g>
			<g>
				<polygon style="fill:#D8DEE8;" points="1070.915,1480.056 2397.687,1476.924 2397.687,1501.359 1070.915,1505.464 				"/>
				<polygon style="fill:#D8DEE8;" points="1070.915,1528.547 2397.687,1523.559 2397.687,1547.995 1070.915,1553.954 				"/>
				<polygon style="fill:#D8DEE8;" points="1070.915,1577.037 2397.687,1570.194 2397.687,1594.63 1070.915,1602.445 				"/>
				<polygon style="fill:#D8DEE8;" points="1070.915,1625.528 2397.687,1616.83 2397.687,1641.265 1070.915,1650.935 				"/>
				<polygon style="fill:#D8DEE8;" points="1931.126,2643.754 2398.607,2616.502 2398.607,2642.625 1931.126,2669.877 				"/>
			</g>
			<polygon style="fill:#D8DEE8;" points="1704.729,2686.474 1237.249,2714.675 1237.249,2688.552 1704.729,2660.351 			"/>
		</g>
		<g>
			
				<linearGradient id="SVGID_00000100365697745559382530000009335726862921472173_" gradientUnits="userSpaceOnUse" x1="3074.0161" y1="2892.8052" x2="3221.1301" y2="3423.6948" gradientTransform="matrix(1 0 0 1 -485.091 0)">
				<stop  offset="0" style="stop-color:#311944"/>
				<stop  offset="1" style="stop-color:#893976"/>
			</linearGradient>
			<path style="fill:url(#SVGID_00000100365697745559382530000009335726862921472173_);" d="M2731.641,3194.379
				c0,0,6.702,28.377,6.914,38.657c0.214,10.281-108.087,24.612-109.773,17.037c-1.686-7.574,16.445-21.36,29.533-26.785
				c13.09-5.426,51.485-20.196,51.485-20.196L2731.641,3194.379z"/>
			
				<linearGradient id="SVGID_00000065054252504031949350000004159282789596667320_" gradientUnits="userSpaceOnUse" x1="3203.2737" y1="3268.6106" x2="3205.4011" y2="3089.9119" gradientTransform="matrix(1 0 0 1 -485.091 0)">
				<stop  offset="0" style="stop-color:#AB316D"/>
				<stop  offset="1" style="stop-color:#792D3D"/>
			</linearGradient>
			<path style="fill:url(#SVGID_00000065054252504031949350000004159282789596667320_);" d="M2703.057,3167.923l6.209,35.462
				c0,0,13.296,7.66,23.905,0l2.582-39.382L2703.057,3167.923z"/>
			
				<linearGradient id="SVGID_00000094603432329764060620000016213323739607574661_" gradientUnits="userSpaceOnUse" x1="3248.9563" y1="2841.7017" x2="3396.0715" y2="3372.595" gradientTransform="matrix(1 0 0 1 -485.091 0)">
				<stop  offset="0" style="stop-color:#311944"/>
				<stop  offset="1" style="stop-color:#893976"/>
			</linearGradient>
			<path style="fill:url(#SVGID_00000094603432329764060620000016213323739607574661_);" d="M2929.159,3224.755
				c0,0,6.703,28.376,6.916,38.657c0.213,10.281-108.089,24.612-109.774,17.038c-1.686-7.573,16.445-21.36,29.533-26.786
				c13.089-5.425,51.484-20.196,51.484-20.196L2929.159,3224.755z"/>
			
				<linearGradient id="SVGID_00000041986121278619470820000014336898593338656644_" gradientUnits="userSpaceOnUse" x1="3401.1243" y1="3271.0767" x2="3403.2517" y2="3092.376" gradientTransform="matrix(1 0 0 1 -485.091 0)">
				<stop  offset="0" style="stop-color:#AB316D"/>
				<stop  offset="1" style="stop-color:#792D3D"/>
			</linearGradient>
			<path style="fill:url(#SVGID_00000041986121278619470820000014336898593338656644_);" d="M2900.575,3198.299l6.21,35.462
				c0,0,13.295,7.661,23.905,0l2.581-39.382L2900.575,3198.299z"/>
			
				<linearGradient id="SVGID_00000069388099268053446280000013156959972859942326_" gradientUnits="userSpaceOnUse" x1="3104.7063" y1="2693.8057" x2="3286.8677" y2="2693.8057" gradientTransform="matrix(1 0 0 1 -485.091 0)">
				<stop  offset="0" style="stop-color:#444B8C"/>
				<stop  offset="0.9964" style="stop-color:#26264F"/>
			</linearGradient>
			<path style="fill:url(#SVGID_00000069388099268053446280000013156959972859942326_);" d="M2651.187,2232.914
				c-10.523,27.663-21.047,55.325-31.572,82.987c1.544,152.709,9.189,318.263,25.961,494.593
				c12.478,131.189,28.748,255.092,47.365,371.117c16.973-2.241,33.946-4.488,50.92-6.728
				c20.717-53.137,43.862-132.95,39.211-228.692c-4.85-99.868-34.781-110.676-40.264-206.226
				c-7.107-123.844,39.994-160.987,55.028-311.928c5.749-57.724,6.859-132.584-8.147-222.036
				C2743.521,2214.969,2697.355,2223.946,2651.187,2232.914z"/>
			
				<linearGradient id="SVGID_00000101807877691591086710000008480089386711724953_" gradientUnits="userSpaceOnUse" x1="3104.7075" y1="2693.8057" x2="3286.8679" y2="2693.8057" gradientTransform="matrix(1 0 0 1 -485.091 0)">
				<stop  offset="0" style="stop-color:#444B8C"/>
				<stop  offset="0.9964" style="stop-color:#26264F"/>
			</linearGradient>
			<path style="opacity:0.3;fill:url(#SVGID_00000101807877691591086710000008480089386711724953_);" d="M2789.689,2206
				c-24.933,4.843-49.866,9.688-74.8,14.537c-38.949,86.068-45.016,172.766-34.168,209.981
				c15.347,52.655,46.388,67.335,48.882,121.282c2.468,53.379-26.502,69.699-40.737,134.048
				c-9.853,44.553-3.309,84.21,10.185,161.708c27.179,156.103,67.247,201.184,40.735,255.33
				c-7.534,15.385-21.794,34.149-51.336,50.038c1.488,9.588,2.967,19.207,4.49,28.688c16.973-2.238,33.946-4.488,50.92-6.726
				c20.717-53.143,43.862-132.951,39.211-228.694c-4.85-99.869-34.781-110.679-40.264-206.228
				c-7.107-123.844,39.994-160.984,55.028-311.925C2803.585,2370.313,2804.695,2295.454,2789.689,2206z"/>
			
				<linearGradient id="SVGID_00000137131867382982939090000013340365111312973473_" gradientUnits="userSpaceOnUse" x1="3255.9148" y1="3375.7676" x2="3331.9587" y2="2751.5759" gradientTransform="matrix(1 0 0 1 -485.091 0)">
				<stop  offset="0" style="stop-color:#444B8C"/>
				<stop  offset="0.9964" style="stop-color:#26264F"/>
			</linearGradient>
			<path style="fill:url(#SVGID_00000137131867382982939090000013340365111312973473_);" d="M2722.459,2275.163
				c33.892,132.384,65.755,274.437,93.708,425.577c33.75,182.491,57.541,355.206,74.022,516.035
				c18.741-1.009,37.482-2.026,56.223-3.036c62.002-158.44,58.584-262.056,42.805-328.382
				c-6.081-25.558-21.095-75.415-29.456-151.104c-5.827-52.761-5.685-93.298-5.362-142.04
				c0.707-106.869,9.669-130.936,4.985-212.243c-4.394-76.306-7.052-114.879-29.596-135.638
				C2870.395,2189.644,2732.881,2269.01,2722.459,2275.163z"/>
			
				<linearGradient id="SVGID_00000020387912504011473130000011874370634999352452_" gradientUnits="userSpaceOnUse" x1="2561.9204" y1="1922.854" x2="2734.4663" y2="2098.481" gradientTransform="matrix(1 0 0 1 -485.091 0)">
				<stop  offset="0" style="stop-color:#AB316D"/>
				<stop  offset="1" style="stop-color:#792D3D"/>
			</linearGradient>
			<path style="fill:url(#SVGID_00000020387912504011473130000011874370634999352452_);" d="M2178.341,1967.612
				c0,0-41.173-3.687-47.13-10.661c-5.956-6.972-15.004-18.14-15.897-24.533c-0.893-6.394-8.847,3.156-1.636,17.02
				s-13.249,10.928-16.441,10.592c-7.342-0.771-35.347-1.627-34.54,0.183c0.809,1.813-3.325,9.815,16.564,19.23
				c17.412,8.242,38.139,2.877,49.458,3.444c11.318,0.566,11.318,0.566,11.318,0.566l30.019,2.391L2178.341,1967.612z"/>
			
				<linearGradient id="SVGID_00000183232129787758599800000003533010721040263306_" gradientUnits="userSpaceOnUse" x1="3392.4846" y1="1399.0946" x2="2559.2578" y2="2250.9744" gradientTransform="matrix(1 0 0 1 -485.091 0)">
				<stop  offset="0.0036" style="stop-color:#6165D7"/>
				<stop  offset="1" style="stop-color:#AA80F9"/>
			</linearGradient>
			<path style="fill:url(#SVGID_00000183232129787758599800000003533010721040263306_);" d="M2154.206,1947.516
				c-1.813,14.338-3.626,28.675-5.44,43.012c27.27,23.762,87.561,69.313,171.44,76.144
				c147.872,12.05,294.514-102.275,321.815-230.862c13.519-63.683,2.476-153.031-35.41-167.399
				c-10.516-3.99-26.315-3.423-58.886,19.436c-86.923,60.997-94.316,141.106-142.336,195.294
				C2370.829,1922.139,2302.878,1961.647,2154.206,1947.516z"/>
			
				<linearGradient id="SVGID_00000128458847380138083600000016036090421619241650_" gradientUnits="userSpaceOnUse" x1="3778.8796" y1="2747.0288" x2="3141.8311" y2="1832.454" gradientTransform="matrix(1 0 0 1 -485.091 0)">
				<stop  offset="0.0036" style="stop-color:#6165D7"/>
				<stop  offset="1" style="stop-color:#AA80F9"/>
			</linearGradient>
			<path style="fill:url(#SVGID_00000128458847380138083600000016036090421619241650_);" d="M2607.395,2344.345
				c-20.298-29.554-0.093-61.389,0.516-120.653c0.69-67.168-24.751-76.213-57.547-184.685
				c-21.809-72.141-42.747-141.398-30.552-225.539c5.844-40.326,15.756-108.721,66.455-145.601
				c26.163-19.031,63.766-20.495,137.905-22.639c91.681-2.656,137.52-3.984,173.001,11.894
				c5.193,2.325,113.278,52.506,127.765,147.837c14.746,97.026-86.031,118.67-89.618,250.006
				c-1.611,58.958,16.148,147.944,27.665,205.66c11.059,55.418,16.813,69.363,7.537,87.198
				c-22.356,42.988-101.287,37.875-259.15,27.659C2649.45,2371.473,2622.541,2366.399,2607.395,2344.345z"/>
			
				<linearGradient id="SVGID_00000094599844242271839770000002554396335743611278_" gradientUnits="userSpaceOnUse" x1="3782.4028" y1="2752.2212" x2="3137.4675" y2="1826.3235" gradientTransform="matrix(1 0 0 1 -485.091 0)">
				<stop  offset="0" style="stop-color:#AA80F9"/>
				<stop  offset="0.9964" style="stop-color:#6165D7"/>
			</linearGradient>
			<path style="opacity:0.3;fill:url(#SVGID_00000094599844242271839770000002554396335743611278_);" d="M2823.296,2043.264
				c8.546,24.824,33.735,41.791,54.993,102.132c4.589,13.03,37.276,105.805,6.111,131.924c-18.002,15.084-37.052-9.046-83.508-8.517
				c-80.503,0.917-113.249,74.399-167.018,59.583c-9.329-2.576-21.853-8.672-35.064-23.987c-1.253,14.903,0.135,27.638,8.585,39.945
				c15.146,22.054,42.055,27.128,103.978,31.137c157.863,10.216,236.793,15.329,259.15-27.659
				c9.276-17.834,3.521-31.779-7.537-87.198c-11.517-57.717-29.275-146.702-27.665-205.66
				c3.588-131.336,104.365-152.98,89.618-250.006c-3.942-25.939-14.916-48.411-28.757-67.61
				C2871.25,1802.739,2796.435,1965.258,2823.296,2043.264z"/>
			
				<linearGradient id="SVGID_00000119813596438783798270000018187567769881514402_" gradientUnits="userSpaceOnUse" x1="3952.2043" y1="2626.6704" x2="3311.863" y2="1707.3683" gradientTransform="matrix(1 0 0 1 -485.091 0)">
				<stop  offset="0.0036" style="stop-color:#6165D7"/>
				<stop  offset="1" style="stop-color:#AA80F9"/>
			</linearGradient>
			<path style="fill:url(#SVGID_00000119813596438783798270000018187567769881514402_);" d="M2897.639,1874.108
				c-22.274-45.192-40.712-115.696-19.351-224.48c200.631,63.777,314.379,245.263,287.189,398.955
				c-22.413,126.699-133.935,196.834-158.87,211.712c-7.128-13.832-14.258-27.658-21.386-41.49
				c27.348-37.445,57.223-91.928,47.916-150.467C3020.237,1987.181,2942.735,1965.601,2897.639,1874.108z"/>
			
				<linearGradient id="SVGID_00000126324066657284393880000015147547512733464229_" gradientUnits="userSpaceOnUse" x1="643.6238" y1="1295.2656" x2="643.6238" y2="1113.5801" gradientTransform="matrix(0.827 0.5622 -0.5622 0.827 2872.8628 289.0357)">
				<stop  offset="0" style="stop-color:#AB316D"/>
				<stop  offset="1" style="stop-color:#792D3D"/>
			</linearGradient>
			<path style="fill:url(#SVGID_00000126324066657284393880000015147547512733464229_);" d="M2721.574,1548.64
				c0,0,4.262,35.413,16.865,61.145c11.389,23.256,62.748,34.176,73.334,38.693c10.588,4.517-17.448,22.661-46.575,28.203
				c-29.125,5.542-113.516,5.597-129.524-4.767c-16.008-10.362,11.322-11.77,31.665-21.563c20.341-9.791,29.175-53.625,23.985-72.75
				C2686.136,1558.475,2721.574,1548.64,2721.574,1548.64z"/>
			<path style="fill:#26264F;" d="M2674.145,1539.642c-16.436-14.363-18.702-16.011-20.777-21.277
				c-8.323-21.138,5.505-52.197,26.072-61.28c1.07-0.471,14.875-6.396,20.776-0.426c5.012,5.068-1.168,13.166,2.851,23.407
				c3.764,9.588,11.986,9.641,28.108,21.277c13.281,9.582,21.535,15.54,24.035,24.683c5.154,18.85-14.916,48.473-34.627,49.363
				C2713.495,1575.708,2711.284,1572.098,2674.145,1539.642z"/>
			<g>
				
					<linearGradient id="SVGID_00000012449044143042761530000000966022307991006614_" gradientUnits="userSpaceOnUse" x1="517.2241" y1="1240.7949" x2="600.2918" y2="1079.2742" gradientTransform="matrix(0.827 0.5622 -0.5622 0.827 2872.8628 289.0357)">
					<stop  offset="0" style="stop-color:#AB316D"/>
					<stop  offset="1" style="stop-color:#792D3D"/>
				</linearGradient>
				<path style="fill:url(#SVGID_00000012449044143042761530000000966022307991006614_);" d="M2718.888,1578.509
					c0,0-14.726,20.512-39.883,16.245c-22.524-3.82-20.95-57.254-5.434-67.069c5.176-3.273,14.993-3.86,22.647-0.767
					c4.522,1.828,5.906,4.003,13.349,6.839c6.864,2.614,8.93,1.999,10.881,4.083c2.443,2.603,3.862,8.528-2.008,23.607
					c4.747-4.141,10.099-5.373,13.609-3.19c0.56,0.349,2.016,1.612,2.736,3.376
					C2737.394,1568.017,2731.378,1575.229,2718.888,1578.509z"/>
			</g>
			<g>
				
					<linearGradient id="SVGID_00000039135377832540444710000014036533052987748520_" gradientUnits="userSpaceOnUse" x1="3524.1182" y1="2398.4185" x2="3533.1367" y2="2264.1453" gradientTransform="matrix(1 0 0 1 -485.091 0)">
					<stop  offset="0" style="stop-color:#FFC444"/>
					<stop  offset="0.9964" style="stop-color:#F36F56"/>
				</linearGradient>
				<path style="fill:url(#SVGID_00000039135377832540444710000014036533052987748520_);" d="M3033.083,2275.218
					c0,0,24.079,7.03,26.638,43.369c-3.938-0.284-13.118,0-13.118,0s1.7-26.427-15.428-31.561
					C3032.554,2283.946,3033.083,2275.218,3033.083,2275.218z"/>
				
					<linearGradient id="SVGID_00000078744329386819974600000006261051304842769596_" gradientUnits="userSpaceOnUse" x1="3471.4707" y1="2352.6797" x2="3477.8826" y2="2257.2156" gradientTransform="matrix(1 0 0 1 -485.091 0)">
					<stop  offset="0.1" style="stop-color:#311944"/>
					<stop  offset="0.267" style="stop-color:#371B47"/>
					<stop  offset="0.4803" style="stop-color:#462150"/>
					<stop  offset="0.7186" style="stop-color:#612A5F"/>
					<stop  offset="0.9736" style="stop-color:#853774"/>
					<stop  offset="1" style="stop-color:#893976"/>
				</linearGradient>
				<path style="fill:url(#SVGID_00000078744329386819974600000006261051304842769596_);" d="M2944.735,2273.036
					c0.601,6.616,1.201,13.232,1.801,19.848c11.899-2.971,24.913-6.418,38.902-7.052c18.189-0.824,34.861,1.01,49.709,4.198
					c0.66-0.835,2.059-2.844,2.705-6.115c1.04-5.271-0.701-9.646-1.024-10.425c-7.563-2.429-15.765-4.466-24.554-5.853
					C2987.073,2263.661,2964.301,2267.606,2944.735,2273.036z"/>
				
					<linearGradient id="SVGID_00000114757082592492139340000001534587536000725665_" gradientUnits="userSpaceOnUse" x1="3432.9985" y1="2284.0996" x2="3504.7813" y2="2322.5845" gradientTransform="matrix(1 0 0 1 -485.091 0)">
					<stop  offset="0.1" style="stop-color:#311944"/>
					<stop  offset="0.267" style="stop-color:#371B47"/>
					<stop  offset="0.4803" style="stop-color:#462150"/>
					<stop  offset="0.7186" style="stop-color:#612A5F"/>
					<stop  offset="0.9736" style="stop-color:#853774"/>
					<stop  offset="1" style="stop-color:#893976"/>
				</linearGradient>
				<path style="fill:url(#SVGID_00000114757082592492139340000001534587536000725665_);" d="M2943.614,2278.768
					c0.035-2.393,0.234-5.381,1.121-5.733c0.835-0.331,1.959,1.833,2.442,3.035c0.201,0.5,0.645,1.713,0.922,5.575
					c0.357,4.978-0.059,7.418-0.441,8.925c-0.229,0.906-0.588,2.279-1.122,2.313c-0.428,0.028-0.801-0.839-1.356-2.517
					C2944.433,2288.106,2943.531,2284.336,2943.614,2278.768z"/>
				
					<linearGradient id="SVGID_00000144332654289823399040000011037406703557479835_" gradientUnits="userSpaceOnUse" x1="3411.6174" y1="2414.6155" x2="3421.8828" y2="2261.7769" gradientTransform="matrix(1 0 0 1 -485.091 0)">
					<stop  offset="0" style="stop-color:#FFC444"/>
					<stop  offset="0.9964" style="stop-color:#F36F56"/>
				</linearGradient>
				<path style="fill:url(#SVGID_00000144332654289823399040000011037406703557479835_);" d="M2921.682,2320.575
					c4.989,0.856,17.119,3.416,17.119,3.416s-7.909-23.242,7.003-33.971c0.386-1.756,0.778-4.543,0.307-7.894
					c-0.365-2.592-1.125-4.662-1.782-6.097C2938,2279.306,2924.218,2290.325,2921.682,2320.575z"/>
				
					<linearGradient id="SVGID_00000025417526973454712100000009032706220028041139_" gradientUnits="userSpaceOnUse" x1="3324.3794" y1="2402.5168" x2="3284.4609" y2="2037.6244" gradientTransform="matrix(1 0 0 1 -485.091 0)">
					<stop  offset="0.1" style="stop-color:#311944"/>
					<stop  offset="0.6853" style="stop-color:#6D2F66"/>
					<stop  offset="1" style="stop-color:#893976"/>
				</linearGradient>
				<path style="fill:url(#SVGID_00000025417526973454712100000009032706220028041139_);" d="M2818.499,2326.699
					c0,0,0.611-12.206,21.416-12.206c3.277,2.225,3.44,12.206,3.44,12.206H2818.499z"/>
				
					<linearGradient id="SVGID_00000155124995921845935260000015137888369102516130_" gradientUnits="userSpaceOnUse" x1="3501.5579" y1="2555.5879" x2="3232.906" y2="2405.9973" gradientTransform="matrix(1 0 0 1 -485.091 0)">
					<stop  offset="0" style="stop-color:#311944"/>
					<stop  offset="1" style="stop-color:#893976"/>
				</linearGradient>
				<path style="fill:url(#SVGID_00000155124995921845935260000015137888369102516130_);" d="M2800.025,2566.646l56.938,32.169
					l34.499-118.141l-56.844-158.386l-16.119,4.41l-24.457,227.47C2793.489,2559.318,2795.879,2564.303,2800.025,2566.646z"/>
				
					<linearGradient id="SVGID_00000112617724770842317750000017927063485548030857_" gradientUnits="userSpaceOnUse" x1="3259.3916" y1="2348.7881" x2="3339.6936" y2="2483.4485" gradientTransform="matrix(1 0 0 1 -485.091 0)">
					<stop  offset="0" style="stop-color:#311944"/>
					<stop  offset="1" style="stop-color:#893976"/>
				</linearGradient>
				<path style="opacity:0.3;fill:url(#SVGID_00000112617724770842317750000017927063485548030857_);" d="M2891.462,2480.674
					l-56.844-158.385l-16.119,4.411c3.969,13.978,5.872,36.742,6.768,49.414c3.811,53.925,16.466,68.932,10.335,106.551
					c-5.098,31.28-16.23,35.525-15.257,56.571c1.06,22.92,15.385,42.114,32.417,57.207l4.201,2.374L2891.462,2480.674z"/>
				
					<linearGradient id="SVGID_00000136406297161887161360000012887447678641114027_" gradientUnits="userSpaceOnUse" x1="3481.2717" y1="2187.9297" x2="3510.4277" y2="2579.2375" gradientTransform="matrix(1 0 0 1 -485.091 0)">
					<stop  offset="0.1" style="stop-color:#311944"/>
					<stop  offset="0.6853" style="stop-color:#6D2F66"/>
					<stop  offset="1" style="stop-color:#893976"/>
				</linearGradient>
				<polygon style="fill:url(#SVGID_00000136406297161887161360000012887447678641114027_);" points="2834.618,2322.288 
					3147.252,2322.289 3196.472,2573.345 2856.963,2598.815 				"/>
				<g style="opacity:0.2;">
					
						<linearGradient id="SVGID_00000003102260954956100520000010533382256904901504_" gradientUnits="userSpaceOnUse" x1="3421.3884" y1="2404.3682" x2="3657.4321" y2="2586.238" gradientTransform="matrix(1 0 0 1 -485.091 0)">
						<stop  offset="0" style="stop-color:#311944"/>
						<stop  offset="1" style="stop-color:#893976"/>
					</linearGradient>
					<path style="fill:url(#SVGID_00000003102260954956100520000010533382256904901504_);" d="M3147.252,2322.288h-105.32
						c-1.939,5.144-4.905,12.261-9.232,20.314c-47.1,87.634-154.924,98.677-152.976,113.078
						c2.912,21.527,243.018-9.028,249.148,20.551c2.959,14.279-47.744,46.738-100.726,59.028
						c-63.438,14.715-110.055-3.831-141.06,29.232c-10.498,11.195-15.132,24.309-17.39,33.178l326.776-24.324L3147.252,2322.288z"/>
				</g>
				
					<linearGradient id="SVGID_00000090998228866928661100000009040427772099373187_" gradientUnits="userSpaceOnUse" x1="3360.293" y1="2388.1648" x2="3460.6025" y2="2384.2693" gradientTransform="matrix(1 0 0 1 -485.091 0)">
					<stop  offset="0.1" style="stop-color:#311944"/>
					<stop  offset="0.6853" style="stop-color:#6D2F66"/>
					<stop  offset="1" style="stop-color:#893976"/>
				</linearGradient>
				<path style="fill:url(#SVGID_00000090998228866928661100000009040427772099373187_);" d="M2839.915,2314.493
					c-3.522,0-8.446-0.41-13.802,2.524c-1.144,0.626-2.153,1.316-3.039,2.016l2.465-0.818c3.966-1.085,9.435,0.359,11.478,4.073
					c2.51,4.564,3.414,15.125,3.962,20.357c1.561,14.881,11.156,107.474,11.156,107.474c0.719,7.807,7.07,13.719,14.577,13.569
					l290.813-14.117c2.208-0.044,4.391-0.687,6.213-1.991c3.802-2.72,5.52-7.439,4.638-11.922l-14.733-110.277
					c-1.246-6.338-6.586-10.887-12.781-10.887H2839.915z"/>
				
					<linearGradient id="SVGID_00000087374573013786110360000002700473066029824385_" gradientUnits="userSpaceOnUse" x1="3514.1194" y1="2698.948" x2="3482.0183" y2="2338.1951" gradientTransform="matrix(1 0 0 1 -485.091 0)">
					<stop  offset="0.1" style="stop-color:#311944"/>
					<stop  offset="0.267" style="stop-color:#371B47"/>
					<stop  offset="0.4803" style="stop-color:#462150"/>
					<stop  offset="0.7186" style="stop-color:#612A5F"/>
					<stop  offset="0.9736" style="stop-color:#853774"/>
					<stop  offset="1" style="stop-color:#893976"/>
				</linearGradient>
				<path style="fill:url(#SVGID_00000087374573013786110360000002700473066029824385_);" d="M2843.028,2314.493
					c-3.522,0-7.7-0.449-12.356,0.717c-1.255,0.314-3.264,0.891-4.15,1.592c0,0,9.871-2.202,13.608,5.486
					c2.281,4.693,3.414,15.125,3.962,20.357c1.561,14.881,11.156,107.474,11.156,107.474c0.719,7.807,7.07,13.719,14.577,13.569
					l294.089-5.902c2.208-0.044,4.391-0.687,6.213-1.991c3.802-2.72,5.52-7.439,4.638-11.922l-18.009-118.492
					c-1.246-6.338-6.586-10.887-12.781-10.887H2843.028z"/>
				
					<linearGradient id="SVGID_00000160886448208886237250000017285571240296304281_" gradientUnits="userSpaceOnUse" x1="3529.8933" y1="2783.79" x2="3475.2878" y2="2284.6431" gradientTransform="matrix(1 0 0 1 -485.091 0)">
					<stop  offset="0" style="stop-color:#311944"/>
					<stop  offset="1" style="stop-color:#893976"/>
				</linearGradient>
				<path style="opacity:0.1;fill:url(#SVGID_00000160886448208886237250000017285571240296304281_);" d="M3174.765,2443.873
					l-18.009-118.492c-1.246-6.338-6.586-10.887-12.781-10.887h-300.948c-3.522,0-7.7-0.449-12.356,0.717
					c-1.255,0.314-3.264,0.891-4.15,1.592c0,0,9.871-2.202,13.608,5.486c0.36,0.74,0.688,1.634,0.992,2.615
					c28.581,1.055,57.161,0.296,85.741,2.018c56.498,3.316,113.63,3.316,166.954,24.537c17.057,6.788,28.75,31.175,24.123,42.442
					c-3.336,8.123-14.723,7.48-18.696,18.141c-4.179,11.211,5.841,18.829,1.638,26.697c-4.405,8.246-17.783,4.318-39.44,10.204
					c-11.932,3.243-21.085,8.027-26.801,11.438l129.273-2.594c2.208-0.044,4.391-0.687,6.213-1.991
					C3173.929,2453.075,3175.647,2448.356,3174.765,2443.873z"/>
				<g>
					
						<linearGradient id="SVGID_00000020392290847518340830000008996088169077308544_" gradientUnits="userSpaceOnUse" x1="3611.4753" y1="2522.0564" x2="3437.3491" y2="2431.0359" gradientTransform="matrix(1 0 0 1 -485.091 0)">
						<stop  offset="0" style="stop-color:#FFC444"/>
						<stop  offset="0.9964" style="stop-color:#F36F56"/>
					</linearGradient>
					<path style="fill:url(#SVGID_00000020392290847518340830000008996088169077308544_);" d="M3034.024,2479.845l-36.826,8.239
						l-3.889,0.296c-3.919,0.298-7.291-2.85-7.462-6.998l-1.616-39.214c-0.171-4.148,2.93-7.587,6.859-7.642l3.909-0.054
						l37.019,4.377c3.537-0.049,6.515-1.8,6.676,2.091l1.516,36.777C3040.369,2481.607,3037.552,2479.577,3034.024,2479.845z"/>
					
						<linearGradient id="SVGID_00000029756462085422595530000011352424315498063021_" gradientUnits="userSpaceOnUse" x1="3455.0334" y1="2445.0237" x2="3633.8987" y2="2509.0293" gradientTransform="matrix(1 0 0 1 -485.091 0)">
						<stop  offset="0" style="stop-color:#FFC444"/>
						<stop  offset="0.9964" style="stop-color:#F36F56"/>
					</linearGradient>
					<path style="fill:url(#SVGID_00000029756462085422595530000011352424315498063021_);" d="M3036.824,2485.276l-40.8,3.104
						c-3.919,0.298-7.291-2.85-7.462-6.998l-1.616-39.214c-0.171-4.148,2.93-7.587,6.859-7.642l40.905-0.57
						c3.537-0.049,6.539,3.094,6.699,6.984l1.516,36.777C3043.084,2481.607,3040.352,2485.008,3036.824,2485.276z"/>
				</g>
			</g>
			
				<linearGradient id="SVGID_00000072246615511056880550000016411031494852146317_" gradientUnits="userSpaceOnUse" x1="3456.5767" y1="2253.876" x2="3524.2019" y2="2315.0608" gradientTransform="matrix(1 0 0 1 -485.091 0)">
				<stop  offset="0" style="stop-color:#AB316D"/>
				<stop  offset="1" style="stop-color:#792D3D"/>
			</linearGradient>
			<path style="fill:url(#SVGID_00000072246615511056880550000016411031494852146317_);" d="M2979.273,2244.784
				c0,0-15.789,14.138-17.319,24.191c0,0,22.274-0.309,23.484,16.857c0,0-20.316-1.926-23.484,3.34
				c-3.168,5.266,20.131,16.412,38.803,10.839c18.671-5.573,16.546-44.098,11.462-55.227
				C3007.136,2233.655,2979.273,2244.784,2979.273,2244.784z"/>
		</g>
		<g>
			
				<linearGradient id="SVGID_00000088819892208752692990000004021930339610683284_" gradientUnits="userSpaceOnUse" x1="4786.3145" y1="3759.7844" x2="4838.3408" y2="3806.062" gradientTransform="matrix(-0.9902 -0.14 -0.14 0.9902 6537.4121 206.9384)">
				<stop  offset="0" style="stop-color:#444B8C"/>
				<stop  offset="0.9964" style="stop-color:#26264F"/>
			</linearGradient>
			<path style="fill:url(#SVGID_00000088819892208752692990000004021930339610683284_);" d="M1257.005,3283.332
				c-1.481-8.156-27.819-15.539-40.861-4.614c-6.477,5.424-10.936,16.419-7.189,21.386c1.364,1.806-4.22,4.984,1.13,5.046
				C1227.828,3305.356,1258.478,3291.437,1257.005,3283.332z"/>
			
				<linearGradient id="SVGID_00000130610272525468766810000014198636989116479104_" gradientUnits="userSpaceOnUse" x1="4628.9204" y1="3600.76" x2="4628.9204" y2="3510.1257" gradientTransform="matrix(-0.9988 0.0498 0.0498 0.9988 5660.9658 -528.7908)">
				<stop  offset="0" style="stop-color:#FFC444"/>
				<stop  offset="0.9964" style="stop-color:#F36F56"/>
			</linearGradient>
			<path style="fill:url(#SVGID_00000130610272525468766810000014198636989116479104_);" d="M1228.203,3283.375l-27.324,1.362
				c9.466-17.21-1.915-64.02-1.915-64.02l29.504,0.866c0,0-0.726,13.59-2.524,33.776
				C1225.328,3262.271,1226.463,3272.681,1228.203,3283.375z"/>
			
				<linearGradient id="SVGID_00000110462980625381495360000008600495591476491430_" gradientUnits="userSpaceOnUse" x1="4791.5454" y1="3753.9063" x2="4843.5708" y2="3800.1829" gradientTransform="matrix(-0.9902 -0.14 -0.14 0.9902 6537.4121 206.9384)">
				<stop  offset="0" style="stop-color:#444B8C"/>
				<stop  offset="0.9964" style="stop-color:#26264F"/>
			</linearGradient>
			<path style="fill:url(#SVGID_00000110462980625381495360000008600495591476491430_);" d="M1231.8,3282.963
				c0,0-32.612-7.514-36.139-1.046c-3.529,6.47-6.267,23.791,14.424,23.232C1230.776,3304.591,1233.638,3288.449,1231.8,3282.963z"
				/>
			
				<linearGradient id="SVGID_00000031183557807220048020000017034394250540442534_" gradientUnits="userSpaceOnUse" x1="4820.5059" y1="3317.1338" x2="4872.5342" y2="3363.4128" gradientTransform="matrix(-1 0 0 1 6434.5693 0)">
				<stop  offset="0" style="stop-color:#444B8C"/>
				<stop  offset="0.9964" style="stop-color:#26264F"/>
			</linearGradient>
			<path style="fill:url(#SVGID_00000031183557807220048020000017034394250540442534_);" d="M1602.875,3342.49
				c-2.608-7.867-29.721-11.491-41.106,1.151c-5.651,6.276-8.529,17.787-4.124,22.179c1.603,1.599-3.48,5.527,1.825,4.84
				C1577.067,3368.381,1605.467,3350.307,1602.875,3342.49z"/>
			
				<linearGradient id="SVGID_00000029753762165200186960000008377372892185213579_" gradientUnits="userSpaceOnUse" x1="4658.5132" y1="3109.2524" x2="4658.5132" y2="3018.616" gradientTransform="matrix(-0.9813 0.1926 0.1926 0.9813 5534.3477 -582.0115)">
				<stop  offset="0" style="stop-color:#FFC444"/>
				<stop  offset="0.9964" style="stop-color:#F36F56"/>
			</linearGradient>
			<path style="fill:url(#SVGID_00000029753762165200186960000008377372892185213579_);" d="M1570.834,3350.068l-26.844,5.268
				c6.899-18.39-11.08-63.082-11.08-63.082l29.323-3.376c0,0,1.232,13.554,2.346,33.79
				C1564.962,3329.594,1567.579,3339.734,1570.834,3350.068z"/>
			
				<linearGradient id="SVGID_00000042000041114243076540000008209727708554209951_" gradientUnits="userSpaceOnUse" x1="4825.7363" y1="3311.2549" x2="4877.7642" y2="3357.5337" gradientTransform="matrix(-1 0 0 1 6434.5693 0)">
				<stop  offset="0" style="stop-color:#444B8C"/>
				<stop  offset="0.9964" style="stop-color:#26264F"/>
			</linearGradient>
			<path style="fill:url(#SVGID_00000042000041114243076540000008209727708554209951_);" d="M1577.867,3345.652
				c0,0-33.344-2.875-35.931,4.025c-2.587,6.897-2.875,24.431,17.535,20.982C1579.88,3367.211,1580.455,3350.826,1577.867,3345.652z
				"/>
			
				<linearGradient id="SVGID_00000049939872152858963410000015693977013841002121_" gradientUnits="userSpaceOnUse" x1="2212.0439" y1="2317.8804" x2="2816.5754" y2="3028.4688" gradientTransform="matrix(-1 0 0 1 3825.49 0)">
				<stop  offset="0" style="stop-color:#444B8C"/>
				<stop  offset="0.9964" style="stop-color:#26264F"/>
			</linearGradient>
			<path style="fill:url(#SVGID_00000049939872152858963410000015693977013841002121_);" d="M1331.235,2405.167
				c-7.313,125.013-17.55,255.013-31.34,389.547c-15.976,155.858-35.385,304.78-57.148,446.315c-26.827,9.2-51.619,0-51.619,0
				s-31.367-51.376-55.305-187.922c-15.359-87.614-16.419-86.509-16.592-101.791c-0.868-77.107,26.182-99.429,31.34-168.347
				c4.771-63.764-15.525-82.861-27.653-154.644c-9.325-55.199-12.822-135.641,16.591-240.775
				C1203.417,2393.421,1267.326,2399.295,1331.235,2405.167z"/>
			
				<linearGradient id="SVGID_00000091705873758577015220000018162174068372838574_" gradientUnits="userSpaceOnUse" x1="2494.2556" y1="2816.3337" x2="2691.7273" y2="2816.3337" gradientTransform="matrix(-1 0 0 1 3825.49 0)">
				<stop  offset="0" style="stop-color:#311944"/>
				<stop  offset="1" style="stop-color:#6B3976"/>
			</linearGradient>
			<path style="opacity:0.3;fill:url(#SVGID_00000091705873758577015220000018162174068372838574_);" d="M1331.235,2405.167
				c-7.312,125.013-17.55,255.012-31.34,389.547c-15.976,155.858-35.385,304.78-57.149,446.315c-26.827,9.2-51.618,0-51.618,0
				c0.34-13.102,1.254-32.842,3.99-56.688c7.257-63.251,18.823-81.248,20.01-120.062c1.518-49.64-16.454-51.167-20.01-100.051
				c-5.512-75.77,36.093-93.738,40.02-160.083c4.15-70.1-39.743-93.168-73.371-180.093c-19.85-51.312-37.47-128.352-22.259-236.504
				C1203.417,2393.421,1267.325,2399.295,1331.235,2405.167z"/>
			
				<linearGradient id="SVGID_00000015352693649366598220000000273439204999317394_" gradientUnits="userSpaceOnUse" x1="2054.3972" y1="2451.998" x2="2658.9248" y2="3162.5823" gradientTransform="matrix(-1 0 0 1 3825.49 0)">
				<stop  offset="0" style="stop-color:#444B8C"/>
				<stop  offset="0.9964" style="stop-color:#26264F"/>
			</linearGradient>
			<path style="fill:url(#SVGID_00000015352693649366598220000000273439204999317394_);" d="M1465.811,2401.252
				c36.732,123.736,72.331,277.431,92.175,456.103c19.259,173.404,18.909,327.398,11.061,454.146
				c-11.676,3.263-23.351,6.525-35.027,9.788c-67.891-71.034-92.131-136.322-101.394-184.007
				c-13.702-70.538,6.944-94.456-11.061-174.22c-4.142-18.349-9.969-38.057-77.427-170.304
				c-64.384-126.22-77.585-144.552-88.488-189.88c-15.565-64.701-11.459-122.081-5.531-160.518
				C1322.016,2428.658,1393.913,2414.955,1465.811,2401.252z"/>
			
				<linearGradient id="SVGID_00000139973606517834592200000004355033584144250503_" gradientUnits="userSpaceOnUse" x1="522.587" y1="1189.0326" x2="488.23" y2="1345.8794" gradientTransform="matrix(-0.66 -0.7513 -0.7513 0.66 3327.7686 1549.7289)">
				<stop  offset="0" style="stop-color:#FFC444"/>
				<stop  offset="0.9964" style="stop-color:#F36F56"/>
			</linearGradient>
			<path style="fill:url(#SVGID_00000139973606517834592200000004355033584144250503_);" d="M2017.114,2016.819l26.173-18.391
				l38.333-9.287c5.222-1.264,10.056-3.777,14.092-7.323c0,0,14.324-37.254,12.75-43.234c-1.573-5.98-50.439,13.77-50.818,19.624
				c-0.378,5.854-29.934,23.536-29.794,28.933l-16.494,12.649L2017.114,2016.819z"/>
			
				<linearGradient id="SVGID_00000145025075647148028930000005728480198474159264_" gradientUnits="userSpaceOnUse" x1="2927.9929" y1="2943.0051" x2="2365.8855" y2="1845.3069" gradientTransform="matrix(-1 0 0 1 3825.49 0)">
				<stop  offset="0" style="stop-color:#FFC444"/>
				<stop  offset="0.9964" style="stop-color:#F36F56"/>
			</linearGradient>
			<path style="fill:url(#SVGID_00000145025075647148028930000005728480198474159264_);" d="M1640.944,1844.174
				c-17.204-42.069-54.131-66.263-73.279-78.81c-45.307-29.685-74.314-24.266-178.36-40.096
				c-138.664-21.098-155.261-41.09-201.865-24.888c-61.217,21.282-93.193,76.851-107.845,102.315
				c-73.872,128.378,12.496,193.629-9.679,449.356c-9.055,104.44-32.275,195.198,23.505,248.873
				c11.745,11.302,24.882,17.212,51.157,29.035c104.204,46.886,197.632,38.804,254.405,33.183
				c62.471-6.186,94.046-9.728,110.61-31.801c26.46-35.257-0.778-80.068-5.531-157.62c-3.412-55.678,9.247-99.799,34.566-188.038
				C1597.489,1980.546,1673.905,1924.773,1640.944,1844.174z"/>
			<g>
				<g>
					
						<linearGradient id="SVGID_00000019677465443930425790000010384258141620489129_" gradientUnits="userSpaceOnUse" x1="5639.5869" y1="1122.6969" x2="5869.0088" y2="1411.3389" gradientTransform="matrix(-0.9663 0.2576 0.2576 0.9663 6569.8311 -923.8408)">
						<stop  offset="0" style="stop-color:#FFC444"/>
						<stop  offset="0.9964" style="stop-color:#F36F56"/>
					</linearGradient>
					<path style="fill:url(#SVGID_00000019677465443930425790000010384258141620489129_);" d="M1408.844,1649.594
						c6.313-22.49-4.724-43.318-7.156-47.806c-10.185-18.789-12.794-21.356-17.653-24.61l-6.755-4.167c0,0-0.391-0.157-0.803-0.304
						c-4.335-1.543-19.109-1.992-22.102-1.352c-9.561,2.041-19.741,40.993-16.837,96.063c-0.397,2.098-0.779,4.215-1.149,6.349
						c-1.506,8.698-2.702,17.222-3.627,25.556c-0.885,7.972-12.189,7.789-20.194,7.279c-32.492-2.074-48.392,0.691-49.775,5.53
						c-2.591,9.068,35.949,38.715,83.537,45.383c63.866,0.475,115.82-6.325,110.236-16.382c-2.48-4.465-51.964-17.396-65.881-30.211
						c-12.742-11.736-11.704-23.851-12.753-32.525C1381.796,1676.393,1404.197,1666.163,1408.844,1649.594z"/>
					
						<linearGradient id="SVGID_00000012468132179279343240000010066217251715174558_" gradientUnits="userSpaceOnUse" x1="1565.0443" y1="1561.5354" x2="820.2463" y2="1655.8141">
						<stop  offset="0" style="stop-color:#311944"/>
						<stop  offset="1" style="stop-color:#893976"/>
					</linearGradient>
					<path style="fill:url(#SVGID_00000012468132179279343240000010066217251715174558_);" d="M1397.097,1557.367
						c-0.057,17.06-8.096,35.282-12.192,38.209c-0.528,0.378-3.505,2.73-6.179,6.75c-0.364,0.547-0.686,1.188-0.972,2.016
						c-3.738,10.751,13.357,23.403,10.058,28.218c-2.393,3.492-14.012-1.178-15.393,1.838c-1.301,2.837,8.354,8.715,6.875,12.113
						c-1.115,2.566-7.057,0.219-10.805,4.15c-1.868,1.958-1.32,3.509-3.299,9.496c-1.119,3.385-2.684,7.088-3.897,9.149
						c-5.897,10.017-22.596,13.677-25.81,9.668c-0.894-1.118-0.126-2.057-1.04-5.806c0,0-0.847-3.474-3.265-7.491
						c-3.454-5.74-11.793-9.845-20.207-15.903c-15.581-11.221-19.817-20.786-21.087-24.016c-0.452-1.151-0.733-2.02-0.936-2.646
						c-4.052-12.575-4.07-31.046,1.584-42.406c9.471-19.028,30.836-9.994,48.322-28.849c20.177-21.753,8.16-51.487,19.109-54.771
						C1370.03,1493.465,1397.202,1525.821,1397.097,1557.367z"/>
					
						<linearGradient id="SVGID_00000017499245336832547720000002441604034936599455_" gradientUnits="userSpaceOnUse" x1="5611.0703" y1="1058.4761" x2="5867.2271" y2="1380.7535" gradientTransform="matrix(-0.9663 0.2576 0.2576 0.9663 6569.8311 -923.8408)">
						<stop  offset="0" style="stop-color:#FFC444"/>
						<stop  offset="0.9964" style="stop-color:#F36F56"/>
					</linearGradient>
					<path style="fill:url(#SVGID_00000017499245336832547720000002441604034936599455_);" d="M1381.679,1628.551
						c-4.182-5.746-11.529-0.346-11.572,7.088c-0.044,7.433,7.159,15.162,14.148,13.694
						C1391.243,1647.864,1387.306,1636.285,1381.679,1628.551z"/>
				</g>
				
					<linearGradient id="SVGID_00000062877206871788209410000012782977238649083035_" gradientUnits="userSpaceOnUse" x1="1572.8458" y1="1623.1664" x2="828.0485" y2="1717.4451">
					<stop  offset="0" style="stop-color:#311944"/>
					<stop  offset="1" style="stop-color:#893976"/>
				</linearGradient>
				<path style="fill:url(#SVGID_00000062877206871788209410000012782977238649083035_);" d="M1378.288,1616.114l9.701,12.62
					c0,0,10.458,15.461,16.564,6.991c4.988-6.921,6.28-6.767,6.586-6.477c0.057,0.055,0.073,0.138,0.087,0.134
					c0.088-0.023-0.731-3.445-1.467-6.452c2.582,3.707,6.141,9.721,8.297,17.812c2.093,7.858,4.338,16.273-0.097,24.357
					c-0.256,0.466-5.141,9.071-14.261,11.152c0,0-3.587,0.818-18.741-1.845c0,0,16.564-12.02,16.818-14.875
					c0.687-7.764-10.082-11.96-18.077-27.878C1380.613,1625.512,1379.094,1619.945,1378.288,1616.114z"/>
			</g>
			
				<linearGradient id="SVGID_00000114059728425861849000000009451869002841352886_" gradientUnits="userSpaceOnUse" x1="2163.7649" y1="2079.2656" x2="2531.5457" y2="2430.4546" gradientTransform="matrix(-1 0 0 1 3825.49 0)">
				<stop  offset="0" style="stop-color:#311944"/>
				<stop  offset="1" style="stop-color:#893976"/>
			</linearGradient>
			<path style="opacity:0.1;fill:url(#SVGID_00000114059728425861849000000009451869002841352886_);" d="M1345.06,2489.864
				c18.379-36.595-26.657-85.24,2.766-141.028c24.989-47.382,70.382-36.767,91.253-80.193
				c25.209-52.451-29.616-91.652-27.652-171.447c2.347-95.392,84.427-190.882,132.732-182.507
				c31.254,5.417,35.269,52.044,57.259,103.089c-19.458,42.667-42.192,96.122-62.789,167.907
				c-25.319,88.239-37.978,132.36-34.566,188.038c4.752,77.552,31.99,122.363,5.531,157.62
				c-16.565,22.073-48.139,25.615-110.61,31.801c-56.773,5.621-150.201,13.703-254.405-33.183
				c-13.19-5.935-23.064-10.38-31.119-14.766C1276.259,2539.643,1330.483,2518.89,1345.06,2489.864z"/>
			
				<linearGradient id="SVGID_00000116918302155029269130000013299661917260938121_" gradientUnits="userSpaceOnUse" x1="2658.4111" y1="3094.873" x2="2089.4656" y2="1983.8212" gradientTransform="matrix(-1 0 0 1 3825.49 0)">
				<stop  offset="0" style="stop-color:#FFC444"/>
				<stop  offset="0.9964" style="stop-color:#F36F56"/>
			</linearGradient>
			<path style="fill:url(#SVGID_00000116918302155029269130000013299661917260938121_);" d="M2032.783,2016.925
				c-6.677-8.642-13.356-17.285-20.034-25.926c-167.969,50.224-242.476,26.044-278.945-8.585
				c-17.316-16.442-33.388-42.202-52.764-73.257c-43.209-69.252-54.656-114.92-102.315-135.498
				c-12.068-5.211-20.401-8.67-30.417-6.222c-46.087,11.266-61.323,131.361-48.393,221.222
				c7.133,49.57,23.383,149.75,103.006,197.025c110.786,65.779,257.526-23.214,299.464-48.649
				C1966.428,2098.195,2008.118,2050.459,2032.783,2016.925z"/>
		</g>
		<g>
			
				<linearGradient id="SVGID_00000157291934662774730910000017648362156170068148_" gradientUnits="userSpaceOnUse" x1="1987.4412" y1="2529.1394" x2="2373.8586" y2="2529.1394">
				<stop  offset="0" style="stop-color:#FF9085"/>
				<stop  offset="1" style="stop-color:#FB6FBB"/>
			</linearGradient>
			<path style="fill:url(#SVGID_00000157291934662774730910000017648362156170068148_);" d="M2099.498,2503.467
				c9.844-5.827,18.938-11.5,28.304-16.679c10.75-5.944,22.382-9.436,34.663-10.163c23.215-1.374,38.568,10.265,43.362,33.929
				c2.225,10.981,2.369,22.384,3.458,33.596c0.063,0.653,0.136,1.304,0.242,2.309c3.423-1.719,6.437-3.49,9.64-4.795
				c10.668-4.347,16.804-0.986,19.143,10.218c3.059,14.652-0.237,28.592-4.697,42.395c-2.458,7.606-5.052,15.169-6.819,23.21
				c0.796-1.03,1.685-2.002,2.374-3.099c6.384-10.163,12.712-20.361,19.112-30.513c1.424-2.259,2.835-4.604,4.669-6.507
				c2.51-2.606,4.234-2.137,5.698,1.186c2.774,6.297,1.806,12.688,0.463,19.112c-2.596,12.417-5.198,24.833-7.585,37.291
				c-0.578,3.016-0.563,6.203-0.396,9.288c0.187,3.487,1.871,4.482,4.689,2.533c3.459-2.392,6.687-5.204,9.679-8.173
				c20.146-19.985,37.197-42.557,53.823-65.424c15.29-21.028,30.027-42.458,45.049-63.682c1.464-2.069,3.077-4.079,4.897-5.829
				c0.886-0.852,2.411-1.039,3.647-1.526c0.334,1.396,1.152,2.888,0.899,4.168c-0.488,2.465-1.488,4.847-2.438,7.198
				c-7.198,17.809-17.002,34.085-28.873,49.16c-20.986,26.648-41.772,53.456-62.992,79.916c-4.891,6.098-10.7,11.737-16.986,16.366
				c-7.443,5.482-13.239,3.17-14.585-6.006c-1.381-9.408-1.194-19.096-1.088-28.655c0.065-5.856,1.268-11.699,2.114-18.848
				c-1.478,1.934-2.254,2.826-2.895,3.806c-7.036,10.76-14.045,21.537-21.08,32.297c-0.772,1.181-1.436,2.637-2.546,3.348
				c-2.101,1.346-5.174,3.67-6.595,2.987c-2.013-0.967-3.683-4.151-4.109-6.627c-1.174-6.819,0.627-13.354,2.834-19.873
				c5.741-16.96,11.208-34.014,16.645-51.074c1.107-3.474,1.51-7.166,2.413-10.713c0.923-3.627-0.906-5.293-4.068-5.085
				c-8.791,0.578-15.754,5.302-21.607,11.321c-1.719,1.767-1.376,5.611-1.829,8.527c-6.54,42.097-22.483,80.287-47.889,114.454
				c-3.583,4.818-7.884,9.325-12.599,13.024c-6.403,5.023-12.036,2.802-13.745-5.213c-2.361-11.082-1.53-22.256,1.136-33.175
				c10.527-43.111,31.674-79.8,66.077-108.406c1.291-1.073,2.724-2.89,2.77-4.401c0.332-10.982,1.331-22.08,0.189-32.938
				c-1.699-16.157-14.276-26.414-30.725-27.165c-13.556-0.619-26.115,3.021-37.729,9.465c-10.351,5.744-20.199,12.413-30.087,18.95
				c-1.381,0.913-2.547,3.466-2.418,5.154c1.976,25.904,4.537,51.766,6.233,77.687c1.559,23.822,2.711,47.732,0.141,71.552
				c-2.046,18.963-7.152,37.01-21.026,51.105c-15.501,15.748-34.062,23.155-56.144,17.575c-13.695-3.461-21.743-13.49-26.725-26.279
				c-5.962-15.302-7.022-31.273-4.491-47.151c10.259-64.362,42.212-116.308,91.967-157.726c2.55-2.123,3.537-4.173,3.404-7.475
				c-0.782-19.33-1.339-38.669-1.989-58.005c-0.008-0.244-0.235-0.481-0.645-1.272c-1.249,0.873-2.487,1.635-3.611,2.539
				c-28.746,23.131-57.459,46.304-86.264,69.361c-1.988,1.591-4.551,2.867-7.029,3.343c-3.231,0.621-5.757-1.282-7.011-4.315
				c-1.276-3.086,0.157-5.21,2.653-7.208c33.331-26.675,66.588-53.443,99.915-80.122c2.013-1.612,2.994-3.213,3.268-5.909
				c2.796-27.486,8.482-54.197,24.166-77.583c5.477-8.167,12.004-15.723,18.723-22.932c4.568-4.901,10.667-9.076,17.695-5.597
				c3.911,1.936,7.844,5.634,9.747,9.525c11.531,23.579,12.189,45.292-6.781,63.967c-12.54,12.344-26.677,23.073-40.187,34.421
				c-5.41,4.543-11.109,8.741-16.55,13.248c-1.06,0.878-2.185,2.463-2.184,3.721c0.017,17.789,0.195,35.577,0.413,53.365
				C2098.83,2496.992,2099.234,2500.042,2099.498,2503.467z M2096.026,2524.861c-1.88,1.383-2.92,2.063-3.864,2.854
				c-36.703,30.778-62.948,68.818-78.386,114.127c-5.865,17.214-10.931,34.705-9.739,53.332
				c1.353,21.15,18.695,36.546,39.676,34.429c23.652-2.386,39.869-15.521,49.769-36.526c10.053-21.328,10.614-44.304,9.625-67.246
				c-1.039-24.111-2.829-48.192-4.449-72.275C2098.034,2544.286,2096.974,2535.045,2096.026,2524.861z M2100.12,2417.857
				c0.483,0.213,0.966,0.427,1.448,0.64c0.673-0.449,1.388-0.847,2.012-1.356c13.03-10.612,26.14-21.128,39.038-31.898
				c7.818-6.528,15.159-13.584,20.051-22.739c4.697-8.792,4.789-17.5-0.524-26.097c-5.574-9.019-11.433-9.842-19.172-2.748
				c-17.03,15.611-29.184,34.376-35.901,56.476C2104.306,2399.238,2102.412,2408.608,2100.12,2417.857z M2137.585,2689.711
				c20.672-8.962,62.731-89.94,59.85-114.757C2171.571,2590.199,2133.403,2663.101,2137.585,2689.711z"/>
		</g>
	</g>
</g>
</svg>
