<?xml version="1.0" encoding="utf-8"?>
<!-- Generator: Adobe Illustrator 27.5.0, SVG Export Plug-In . SVG Version: 6.00 Build 0)  -->
<svg version="1.1" xmlns="http://www.w3.org/2000/svg" xmlns:xlink="http://www.w3.org/1999/xlink" x="0px" y="0px"
	 viewBox="0 0 750 500" style="enable-background:new 0 0 750 500;" xml:space="preserve">
<g id="BACKGROUND">
</g>
<g id="OBJECTS">
	<ellipse style="fill:#F0F9FF;" cx="375" cy="250" rx="335.911" ry="225.638"/>
	<g>
		<path style="fill:#FFFFFF;" d="M628.31,172.705c-1.72-2.52-3.69-4.83-5.68-7.14c-6.09-7.08-12.37-14.01-18.25-21.27
			c-9.95-12.26-19.59-24.77-29.57-37c-0.92-1.13-1.83-2.25-2.88-3.25c-0.47-0.45-0.96-0.84-1.48-1.16c-0.33-0.2-0.68-0.37-1.04-0.52
			c-0.21-0.08-0.42-0.15-0.64-0.22c-0.4-0.12-0.81-0.21-1.24-0.26c-1.08-0.13-2.15-0.32-3.23-0.42c-6.5-0.6-13.02-0.76-19.53-0.91
			c-0.63-0.01-1.07-0.02-1.37-0.09c-0.04-0.01-0.07-0.02-0.1-0.03c-0.07-0.02-0.13-0.05-0.18-0.08c-0.38-0.21-0.38-0.69-0.4-1.82
			c-0.07-5.14-0.1-10.29-0.24-15.43c-0.09-3.38-0.52-5.01-2.22-5.79c-0.18-0.08-0.39-0.16-0.6-0.22c-0.27-0.08-0.56-0.14-0.88-0.2
			c-0.71-0.14-1.56-0.21-2.56-0.25c-8.11-0.32-16.22,0.14-24.33,0.43c-2.52,0.08-3.5,1.07-3.85,3.55
			c-0.56,4.02-0.83,8.06-0.88,12.12c-0.02,1.89-0.16,3.77-0.21,5.65c-0.03,0.8-0.33,1.22-1.18,1.16c-0.36-0.03-0.72-0.04-1.08-0.05
			c-11.23-0.31-22.44-0.87-33.65-1.42c-10.2-0.51-20.41-0.86-30.62-1.22c-3.54-0.12-7.1-0.06-10.65-0.08
			c-2.18-0.02-4.09,0.66-5.78,2.09c-3.37,2.86-6.89,5.55-10.16,8.52c-19.7,17.86-39.82,35.22-60.14,52.37
			c-7.19,6.07-14.5,12.02-21.11,18.75c-1.03,1.05-1.5,2.12-1.58,3.62c-0.31,5.8-0.08,11.59-0.21,17.38
			c-0.3,12.89-0.54,25.78-0.84,40.2c-0.2,16.58-0.41,34.68-0.61,52.79c-0.01,0.87,0,1.74,0.08,2.6c0.21,2.09,1.07,3.41,2.73,4.18
			c0.12,0.06,0.25,0.11,0.39,0.17c0.26,0.1,0.55,0.2,0.85,0.28c1.25,0.33,2.52,0.43,3.81,0.4c4.78-0.14,9.56-0.4,14.34-0.41
			c6.59-0.02,13.18,0.11,19.77,0.22c14.27,0.25,28.54,0.49,42.81,0.8c10.72,0.23,21.44,0.15,32.16-0.3
			c14.26-0.6,28.53-0.69,42.8-0.19c7.16,0.25,14.32,0.87,21.46,1.05c24.04,0.57,48.09,1.13,72.15,0.98
			c9.77-0.06,19.55,0.19,29.33,0.25c2.61,0.01,5.22-0.11,7.82-0.29c3.01-0.21,4.41-1.55,4.9-4.54c0.15-0.93,0.18-1.87,0.24-2.81
			c0.17-2.69-0.28-5.35-0.31-8.03c-0.16-12.24,0.06-24.48,0.11-36.72c0.06-12.54,0.53-25.05,1.25-37.56
			c0.53-9.26,1.21-18.51,1.19-27.78c0-1.74-0.04-3.48-0.06-5.22c0-0.58,0.05-1.07,0.57-1.53
			C629.93,176.055,630,175.175,628.31,172.705z M416.59,157.065c0.9,0.01,1.33,0.3,1.3,1.25c-0.05,1.59-0.05,3.19-0.02,4.78
			c0.03,1.02-0.34,1.4-1.4,1.35c-2.89-0.13-5.78-0.24-8.68-0.22c-5.35,0.03-10.71,0.16-16.06,0.24c-0.71,0.01-1.42,0-2.69,0
			c2.79-2.56,5.19-4.74,7.56-6.95c0.77-0.72,1.69-0.8,2.63-0.79C405.02,156.835,410.81,156.965,416.59,157.065z M403.16,151.665
			c1.68-2.03,3.46-3.43,5.05-5.01c1.69-1.69,3.42-3.34,5.12-5.02c1.64-1.6,3.26-3.22,4.9-4.83c0.15,0.08,0.3,0.15,0.44,0.23
			c-0.15,3.1-0.31,6.2-0.45,9.3c-0.07,1.52-0.1,3.04-0.11,4.56c-0.01,0.72-0.33,1.05-1.06,1.05
			C412.58,151.925,408.11,152.005,403.16,151.665z M423.01,162.145c-0.02-0.94,0-1.88,0-2.82c0.02-2.17,0.03-2.18,2.09-2.18
			c5.43,0.01,10.85,0.05,16.27,0.3c1.52,0.07,3.04,0.08,4.56,0.09c0.74,0.01,1.44,0.03,2,0.62c1.96,2.11,3.93,4.21,5.97,6.37
			c-0.72,0.29-1.6,0.28-2.46,0.3c-8.61,0.2-17.22,0.23-25.82-0.06C422.59,164.665,423.04,164.795,423.01,162.145z M423.11,150.745
			c0.35-4.66,0.26-9.35,0.79-14.04c2.22,1,15.25,12.82,17.11,15.5c-1.91,0-3.75,0.02-5.6-0.01c-3.61-0.05-7.21-0.14-10.82-0.19
			C423.71,151.995,423.02,151.925,423.11,150.745z M446.82,230.535c0,1.15-0.75,1.26-1.58,1.32c-2.46,0.16-4.92,0.36-7.37,0.48
			c-5.29,0.24-10.57,0.45-15.85,0.67c-1.57,0.07-1.63,0.06-1.62-1.48c0.03-4.71,0.09-9.42,0.17-14.12c0.02-1.47,0.06-1.5,1.64-1.59
			c3.76-0.22,7.52-0.4,11.8-0.63c2.95-0.23,6.42-0.37,9.9-0.34c2.23,0.03,2.28,0.09,2.62,2.25
			C447.22,221.555,446.79,226.055,446.82,230.535z M422.02,238.065c3.91-0.2,7.81-0.35,11.72-0.52c0,0.03,0.01,0.07,0.01,0.1
			c3.68-0.21,7.37-0.43,11.06-0.65c1.65-0.09,1.7-0.09,1.61,1.6c-0.18,3.33-0.38,6.66-1.06,9.93c-0.61,2.97-1.12,3.46-4.09,3.88
			c-1.86,0.26-3.74,0.49-5.61,0.59c-4.56,0.23-9.12,0.38-13.68,0.53c-1.8,0.06-1.85,0.02-1.85-1.76c0.02-3.98,0.07-7.97,0.14-11.95
			C420.3,238.195,420.34,238.155,422.02,238.065z M388.62,241.105c0.03-1.72,0.06-1.77,1.65-1.78c7.75-0.04,15.49-0.38,23.23-0.82
			c1.6-0.09,1.62-0.05,1.62,1.69c0,3.91-0.01,7.82-0.04,11.73c-0.02,1.67-0.04,1.71-1.67,1.72c-3.62,0.03-7.24,0.01-10.86,0.01v0.26
			c-3.62,0-7.24,0.05-10.86-0.02c-3.08-0.06-3.15-0.19-3.14-3.24C388.56,247.475,388.57,244.285,388.62,241.105z M415.37,226.975
			c-0.03,1.59-0.15,3.18-0.1,4.77c0.05,1.22-0.45,1.65-1.61,1.69c-3.62,0.14-7.23,0.34-10.84,0.51c-0.44,0.02-0.87,0-1.31,0v0.29
			h-11.28c-1.4-0.01-1.53-0.08-1.5-1.45c0.11-4.56,0.31-9.11,0.41-13.67c0.03-1.14,0.56-1.5,1.6-1.53c2.17-0.07,4.34-0.18,6.51-0.3
			c5.27-0.31,10.54-0.64,15.82-0.96c0.36-0.02,0.72,0,1.08-0.05c1.06-0.14,1.4,0.35,1.38,1.37
			C415.44,220.755,415.42,223.865,415.37,226.975z M594.31,211.955c1.77,0.03,1.86,0.14,1.8,1.89c-0.14,4.12-0.36,8.24-0.5,12.36
			c-0.03,1.01-0.39,1.38-1.42,1.38c-6.44-0.05-12.88-0.08-19.32-0.06c-1.18,0.01-1.46-0.51-1.45-1.57
			c0.04-4.34,0.06-8.68,0.01-13.02c-0.01-1.19,0.48-1.44,1.56-1.42c3.18,0.06,6.37,0.02,9.55,0.02v0.41
			C587.79,211.945,591.05,211.905,594.31,211.955z M593.6,232.685c1.63,0.01,1.65,0.04,1.62,1.72c-0.1,5.06-0.74,10.08-1.09,15.13
			c-0.08,1.21-0.66,1.51-1.8,1.53c-6.22,0.08-12.43-0.09-18.64-0.39c-0.81-0.04-1.19-0.31-1.14-1.15c0.05-1.08,0.01-2.17,0.07-3.25
			c0.22-4.04,0.45-8.08,0.69-12.12c0.09-1.51,0.11-1.55,1.64-1.56c3.18-0.02,6.36,0,9.54,0v0.08
			C587.53,232.675,590.56,232.655,593.6,232.685z M545.64,234.975c0-1.24,0.59-1.59,1.7-1.69c3.54-0.34,7.07-0.56,10.62-0.56
			c2.9,0,5.8-0.11,8.69-0.11c1.52-0.01,1.58,0.05,1.51,1.62c-0.22,5.06-0.53,10.11-0.72,15.18c-0.04,1.2-0.58,1.45-1.61,1.44
			c-3.18-0.03-6.37-0.01-9.55-0.01v0.03c-3.04,0-6.09,0.01-9.13-0.01c-1.57-0.01-1.64-0.05-1.63-1.56
			C545.53,244.535,545.63,239.755,545.64,234.975z M566.66,227.515c-5.64,0.11-11.28-0.07-16.91,0.46
			c-0.28,0.02-0.57,0.03-0.86,0.05c-2.89,0.24-2.88,0.24-2.85-2.57c0.02-1.81,0-3.62,0-5.42h0.38c0-2.39-0.03-4.77,0.01-7.15
			c0.03-1.51,0.09-1.59,1.64-1.59c6.22,0,12.43,0.04,18.65,0.1c1.57,0.01,1.63,0.08,1.63,1.56c0.02,4.34,0,8.67-0.05,13.01
			C568.28,227.455,568.23,227.485,566.66,227.515z"/>
		<g>
			<g>
				<path style="fill:#7299DB;" d="M628.38,172.725c-1.72-2.51-3.7-4.83-5.68-7.13c-6.1-7.09-12.37-14.02-18.26-21.28
					c-9.94-12.26-19.58-24.77-29.57-37c-0.91-1.12-1.82-2.24-2.87-3.25c-0.48-0.46-1-0.86-1.55-1.18c-0.33-0.2-0.68-0.37-1.04-0.52
					c-0.21-0.08-0.42-0.15-0.64-0.22c-0.38-0.1-0.77-0.18-1.18-0.23c-1.07-0.13-2.14-0.33-3.23-0.43
					c-6.49-0.6-13.01-0.76-19.53-0.91c-0.68-0.01-1.13-0.02-1.43-0.11c-0.04-0.01-0.07-0.02-0.1-0.03
					c-0.07-0.02-0.13-0.05-0.18-0.08c-0.32-0.24-0.32-0.74-0.33-1.8c-0.07-5.14-0.1-10.28-0.24-15.42c-0.1-3.43-0.54-5.06-2.29-5.82
					c-0.18-0.08-0.39-0.16-0.6-0.22c-0.27-0.08-0.56-0.14-0.88-0.2c-0.7-0.12-1.52-0.18-2.49-0.22c-8.11-0.33-16.22,0.14-24.33,0.42
					c-2.53,0.09-3.5,1.07-3.85,3.55c-0.56,4.02-0.84,8.07-0.88,12.13c-0.03,1.88-0.17,3.76-0.22,5.64c-0.02,0.8-0.33,1.23-1.17,1.16
					c-0.36-0.02-0.72-0.04-1.08-0.05c-11.23-0.31-22.44-0.86-33.66-1.42c-10.2-0.51-20.4-0.86-30.61-1.21
					c-3.55-0.13-7.1-0.07-10.65-0.09c-2.19-0.01-4.1,0.67-5.78,2.1c-3.37,2.86-6.89,5.54-10.16,8.51
					c-19.7,17.86-39.83,35.22-60.14,52.37c-7.19,6.07-14.5,12.03-21.11,18.76c-1.03,1.04-1.5,2.11-1.58,3.62
					c-0.31,5.79-0.08,11.58-0.21,17.38c-0.3,12.88-0.55,25.77-0.85,40.19c-0.19,16.58-0.4,34.69-0.6,52.79
					c-0.01,0.87-0.01,1.75,0.08,2.61c0.2,2.06,1.05,3.37,2.66,4.15c0.12,0.06,0.25,0.11,0.39,0.17c0.26,0.1,0.55,0.2,0.85,0.28
					c1.27,0.35,2.57,0.46,3.88,0.42c4.78-0.14,9.56-0.39,14.33-0.41c6.6-0.02,13.19,0.11,19.78,0.23
					c14.27,0.24,28.54,0.48,42.81,0.79c10.72,0.23,21.44,0.16,32.15-0.3c14.27-0.6,28.54-0.69,42.81-0.19
					c7.16,0.25,14.32,0.88,21.46,1.05c24.04,0.57,48.09,1.13,72.14,0.99c9.78-0.06,19.56,0.19,29.34,0.24
					c2.61,0.02,5.22-0.1,7.82-0.28c3.01-0.21,4.41-1.55,4.89-4.55c0.15-0.92,0.19-1.87,0.25-2.81c0.17-2.68-0.28-5.34-0.31-8.02
					c-0.16-12.25,0.06-24.49,0.11-36.73c0.05-12.53,0.53-25.05,1.25-37.56c0.53-9.26,1.2-18.5,1.19-27.78
					c-0.01-1.74-0.04-3.48-0.06-5.22c0-0.57,0.05-1.06,0.56-1.53C630,176.085,630.06,175.195,628.38,172.725z M512.89,83.355
					c0.09-1.03,0.52-1.35,1.5-1.34c6.73,0.07,13.45-0.54,20.19-0.38c0.36,0.01,0.72,0.01,1.08,0.05c1.64,0.15,1.63,0.15,1.79,1.76
					c0.36,3.69,0.18,7.38,0.24,11.07c0.01,1.23,0.01,2.46,0,3.69c-0.02,2.2-0.03,2.18-2.12,2.17c-3.55-0.02-7.09-0.01-10.64-0.01
					v-0.23c-3.76-0.12-7.52-0.27-11.28-0.34c-1.06-0.02-1.55-0.3-1.53-1.48C512.23,93.315,512.41,88.335,512.89,83.355z
					 M436.6,102.075c0.6-0.28,1.32-0.12,2.01-0.11c9.78,0.16,19.54,0.65,29.31,1.11c14.47,0.69,28.94,1.38,43.42,1.73
					c13.9,0.33,27.8,0.69,41.7,1.1c3.98,0.12,7.95,0.36,11.92,0.73c2.21,0.2,3.78,1.09,5.13,2.78c5,6.3,10.09,12.52,15.1,18.8
					c3.88,4.87,7.7,9.8,11.54,14.7c6.98,8.89,14.75,17.11,21.97,25.8c1.37,1.65,2.84,3.22,4.16,5.17c-3.35,0.86-6.52,1.06-9.65,1.49
					c-12.87,1.78-25.81,2.31-38.79,2.19c-9.19-0.08-18.4-0.08-27.59,0.06c-7.39,0.11-14.77,0.5-22.15,0.72
					c-2.97,0.09-5.94-0.01-8.91,0.09c-1.27,0.05-2.12-0.35-2.99-1.29c-8.99-9.63-18.03-19.23-27.24-28.65
					c-12.06-12.33-24.7-24.05-37.76-35.31c-3.85-3.31-7.32-7.01-11.03-10.47C436.6,102.575,436.42,102.425,436.6,102.075z
					 M615.48,297.395c-7.6,0.31-15.21,0.11-22.81-0.12c-7.82-0.24-15.64-0.18-23.46-0.12c-18.04,0.12-36.06-0.64-54.09-0.68
					c-0.29,0-0.58-0.02-0.87-0.02c-0.88,0.01-1.06-0.43-0.98-1.25c0.3-3.39,0.51-6.78,0.7-10.18c0.42-7.38,0.51-14.76,0.62-22.15
					c0.15-11.44,0.1-22.88,0.21-34.32c0.06-6.37,0.27-12.74,0.42-19.11c0.17-7.38,0.11-14.77-0.42-22.14
					c-0.03-0.29-0.03-0.58-0.04-0.87c-0.09-2.89-0.05-2.96,2.81-2.94c10.29,0.06,20.56-0.71,30.84-0.79
					c8.91-0.07,17.82-0.13,26.72-0.06c11.53,0.08,23.03-0.34,34.48-1.65c3.67-0.42,7.32-0.97,10.98-1.47
					c0.42-0.06,0.84-0.21,1.3-0.02c0.41,0.71,0.23,1.53,0.25,2.31c0.16,8.62-0.31,17.22-0.85,25.82
					c-1.03,16.41-1.51,32.83-1.54,49.27c-0.03,11.95-0.34,23.89,0.14,35.83C620.1,297.915,620.6,297.195,615.48,297.395z
					 M334.46,290.755c0.11-5.07,0.34-10.13,0.31-15.2c-0.12-22.6,0.61-45.19,0.97-67.78c0.13-7.82,0.25-15.64,0.32-23.46
					c0.01-1.41,0.43-2.42,1.44-3.43c5.44-5.43,11.38-10.31,17.24-15.26c20.95-17.74,41.82-35.57,62.12-54.06
					c3.1-2.82,6.41-5.42,9.65-8.1c1.35-1.11,1.83-1.12,3.25-0.08c0.76,0.55,1.5,1.15,2.16,1.81c8.25,8.26,17.17,15.78,25.82,23.59
					c14.53,13.12,28.18,27.12,41.54,41.41c3.02,3.23,6.05,6.44,9.11,9.63c0.68,0.71,1.06,1.45,1.11,2.47
					c0.35,7.82,0.99,15.63,0.75,23.45c-0.68,22.15-0.48,44.32-0.89,66.48c-0.13,7.16-0.33,14.33-1.08,21.47
					c-0.23,2.14-0.23,2.17-2.28,2.1c-6.3-0.2-12.6-0.42-18.9-0.65c-10.64-0.4-21.29-0.38-31.93-0.07
					c-11.23,0.32-22.44,0.93-33.67,0.77c-12.03-0.26-24.05-0.62-36.07-0.75c-15.13-0.16-30.27-0.93-45.4-0.08
					c-1.37,0.07-2.76-0.06-4.13-0.03c-1.15,0.02-1.53-0.59-1.5-1.62C334.43,292.495,334.44,291.625,334.46,290.755z"/>
				<path style="fill:#7299DB;" d="M451.07,213.885c-0.54-2.11-1.83-3.36-3.97-3.83c-1.15-0.25-2.29-0.33-3.45-0.31
					c-9.92,0.14-19.81,0.95-29.71,1.45c-2.75,0.14-5.5,0.24-8.24,0.45c-6.21,0.49-12.42,0.75-18.64,1.03
					c-1.77,0.08-2.67,0.82-2.8,2.61c-0.1,1.3-0.07,2.6-0.13,3.91c-0.45,10.85-0.73,21.7-0.71,32.57c0.01,0.57,0.04,1.15,0.1,1.73
					c0.27,2.5,1.67,4.08,4.01,4.9c1.53,0.53,3.13,0.52,4.72,0.57c7.17,0.25,14.34-0.21,19.45-0.17c9.73-0.17,17.4-0.32,25.07-0.8
					c2.45-0.15,4.91-0.34,7.31-0.95c3-0.76,4.91-2.67,5.79-5.6c0.48-1.59,0.78-3.23,0.97-4.89c0.92-8.29,1.18-16.61,1.16-24.93
					C452,219.015,451.72,216.425,451.07,213.885z M415.08,251.925c-0.02,1.67-0.04,1.71-1.67,1.72c-3.62,0.03-7.24,0.01-10.86,0.01
					v0.26c-3.62,0-7.24,0.05-10.86-0.02c-3.08-0.06-3.15-0.19-3.14-3.24c0.01-3.18,0.02-6.37,0.07-9.55
					c0.03-1.72,0.06-1.77,1.65-1.78c7.75-0.04,15.49-0.38,23.23-0.82c1.6-0.09,1.62-0.05,1.62,1.69
					C415.12,244.105,415.11,248.015,415.08,251.925z M415.37,226.975c-0.03,1.59-0.15,3.18-0.1,4.77c0.05,1.22-0.45,1.65-1.61,1.69
					c-3.62,0.14-7.23,0.34-10.84,0.51c-0.44,0.02-0.87,0-1.31,0v0.29h-11.28c-1.4-0.01-1.53-0.08-1.5-1.45
					c0.11-4.56,0.31-9.11,0.41-13.67c0.03-1.14,0.56-1.5,1.6-1.53c2.17-0.07,4.34-0.18,6.51-0.3c5.27-0.31,10.54-0.64,15.82-0.96
					c0.36-0.02,0.72,0,1.08-0.05c1.06-0.14,1.4,0.35,1.38,1.37C415.44,220.755,415.42,223.865,415.37,226.975z M446.42,238.595
					c-0.18,3.33-0.38,6.66-1.06,9.93c-0.61,2.97-1.12,3.46-4.09,3.88c-1.86,0.26-3.74,0.49-5.61,0.59
					c-4.56,0.23-9.12,0.38-13.68,0.53c-1.8,0.06-1.85,0.02-1.85-1.76c0.02-3.98,0.07-7.97,0.14-11.95c0.03-1.62,0.07-1.66,1.75-1.75
					c3.91-0.2,7.81-0.35,11.72-0.52c0,0.03,0.01,0.07,0.01,0.1c3.68-0.21,7.37-0.43,11.06-0.65
					C446.46,236.905,446.51,236.905,446.42,238.595z M446.82,230.535c0,1.15-0.75,1.26-1.58,1.32c-2.46,0.16-4.92,0.36-7.37,0.48
					c-5.29,0.24-10.57,0.45-15.85,0.67c-1.57,0.07-1.63,0.06-1.62-1.48c0.03-4.71,0.09-9.42,0.17-14.12
					c0.02-1.47,0.06-1.5,1.64-1.59c3.76-0.22,7.52-0.4,11.8-0.63c2.95-0.23,6.42-0.37,9.9-0.34c2.23,0.03,2.28,0.09,2.62,2.25
					C447.22,221.555,446.79,226.055,446.82,230.535z"/>
				<path style="fill:#FFFFFF;" d="M415.12,240.195c0,3.91-0.01,7.82-0.04,11.73c-0.02,1.67-0.04,1.71-1.67,1.72
					c-3.62,0.03-7.24,0.01-10.86,0.01v0.26c-3.62,0-7.24,0.05-10.86-0.02c-3.08-0.06-3.15-0.19-3.14-3.24
					c0.01-3.18,0.02-6.37,0.07-9.55c0.03-1.72,0.06-1.77,1.65-1.78c7.75-0.04,15.49-0.38,23.23-0.82
					C415.1,238.415,415.12,238.455,415.12,240.195z"/>
				<path style="fill:#FFFFFF;" d="M446.42,238.595c-0.18,3.33-0.38,6.66-1.06,9.93c-0.61,2.97-1.12,3.46-4.09,3.88
					c-1.86,0.26-3.74,0.49-5.61,0.59c-4.56,0.23-9.12,0.38-13.68,0.53c-1.8,0.06-1.85,0.02-1.85-1.76
					c0.02-3.98,0.07-7.97,0.14-11.95c0.03-1.62,0.07-1.66,1.75-1.75c3.91-0.2,7.81-0.35,11.72-0.52c0,0.03,0.01,0.07,0.01,0.1
					c3.68-0.21,7.37-0.43,11.06-0.65C446.46,236.905,446.51,236.905,446.42,238.595z"/>
				<path style="fill:#FFFFFF;" d="M446.82,230.535c0,1.15-0.75,1.26-1.58,1.32c-2.46,0.16-4.92,0.36-7.37,0.48
					c-5.29,0.24-10.57,0.45-15.85,0.67c-1.57,0.07-1.63,0.06-1.62-1.48c0.03-4.71,0.09-9.42,0.17-14.12
					c0.02-1.47,0.06-1.5,1.64-1.59c3.76-0.22,7.52-0.4,11.8-0.63c2.95-0.23,6.42-0.37,9.9-0.34c2.23,0.03,2.28,0.09,2.62,2.25
					C447.22,221.555,446.79,226.055,446.82,230.535z"/>
				<path style="fill:#FFFFFF;" d="M415.37,226.975c-0.03,1.59-0.15,3.18-0.1,4.77c0.05,1.22-0.45,1.65-1.61,1.69
					c-3.62,0.14-7.23,0.34-10.84,0.51c-0.44,0.02-0.87,0-1.31,0v0.29h-11.28c-1.4-0.01-1.53-0.08-1.5-1.45
					c0.11-4.56,0.31-9.11,0.41-13.67c0.03-1.14,0.56-1.5,1.6-1.53c2.17-0.07,4.34-0.18,6.51-0.3c5.27-0.31,10.54-0.64,15.82-0.96
					c0.36-0.02,0.72,0,1.08-0.05c1.06-0.14,1.4,0.35,1.38,1.37C415.44,220.755,415.42,223.865,415.37,226.975z"/>
				<path style="fill:#7299DB;" d="M462.04,164.905c-0.35-0.53-0.84-0.99-1.3-1.44c-10.82-10.47-21.73-20.83-33.08-30.73
					c-1.09-0.95-2.15-1.95-3.33-2.77c-2.22-1.55-4-1.48-6.19,0.13c-1.58,1.16-2.98,2.53-4.35,3.92
					c-9.84,9.92-20.09,19.4-30.49,28.73c-1.03,0.92-2.03,1.85-3.04,2.78c-0.84,0.77-1.05,1.73-0.67,2.77
					c0.35,0.98,1.13,1.47,2.15,1.56c0.43,0.03,0.87,0.02,1.3,0c12.44-0.46,24.89-0.86,37.33-0.02c1.96,0,3.91-0.05,5.86,0.01
					c10.28,0.34,20.56,0.23,30.83-0.16c1.08-0.04,2.18-0.08,3.23-0.33C462.3,168.895,463.17,166.615,462.04,164.905z
					 M417.87,163.095c0.03,1.02-0.34,1.4-1.4,1.35c-2.89-0.13-5.78-0.24-8.68-0.22c-5.35,0.03-10.71,0.16-16.06,0.24
					c-0.71,0.01-1.42,0-2.69,0c2.79-2.56,5.19-4.74,7.56-6.95c0.77-0.72,1.69-0.8,2.63-0.79c5.79,0.11,11.58,0.24,17.36,0.34
					c0.9,0.01,1.33,0.3,1.3,1.25C417.84,159.905,417.84,161.505,417.87,163.095z M418.22,146.335c-0.07,1.52-0.1,3.04-0.11,4.56
					c-0.01,0.72-0.33,1.05-1.06,1.05c-4.47-0.02-8.94,0.06-13.89-0.28c1.68-2.03,3.46-3.43,5.05-5.01c1.69-1.69,3.42-3.34,5.12-5.02
					c1.64-1.6,3.26-3.22,4.9-4.83c0.15,0.08,0.3,0.15,0.44,0.23C418.52,140.135,418.36,143.235,418.22,146.335z M423.9,136.705
					c2.22,1,15.25,12.82,17.11,15.5c-1.91,0-3.75,0.02-5.6-0.01c-3.61-0.05-7.21-0.14-10.82-0.19c-0.88-0.01-1.57-0.08-1.48-1.26
					C423.46,146.085,423.37,141.395,423.9,136.705z M451.44,164.825c-8.61,0.2-17.22,0.23-25.82-0.06c-3.03-0.1-2.58,0.03-2.61-2.62
					c-0.02-0.94,0-1.88,0-2.82c0.02-2.17,0.03-2.18,2.09-2.18c5.43,0.01,10.85,0.05,16.27,0.3c1.52,0.07,3.04,0.08,4.56,0.09
					c0.74,0.01,1.44,0.03,2,0.62c1.96,2.11,3.93,4.21,5.97,6.37C453.18,164.815,452.3,164.805,451.44,164.825z"/>
				<path style="fill:#EDBF4A;" d="M418.67,137.035c-0.15,3.1-0.31,6.2-0.45,9.3c-0.07,1.52-0.1,3.04-0.11,4.56
					c-0.01,0.72-0.33,1.05-1.06,1.05c-4.47-0.02-8.94,0.06-13.89-0.28c1.68-2.03,3.46-3.43,5.05-5.01c1.69-1.69,3.42-3.34,5.12-5.02
					c1.64-1.6,3.26-3.22,4.9-4.83C418.38,136.885,418.53,136.955,418.67,137.035z"/>
				<path style="fill:#EDBF4A;" d="M453.9,164.525c-0.72,0.29-1.6,0.28-2.46,0.3c-8.61,0.2-17.22,0.23-25.82-0.06
					c-3.03-0.1-2.58,0.03-2.61-2.62c-0.02-0.94,0-1.88,0-2.82c0.02-2.17,0.03-2.18,2.09-2.18c5.43,0.01,10.85,0.05,16.27,0.3
					c1.52,0.07,3.04,0.08,4.56,0.09c0.74,0.01,1.44,0.03,2,0.62C449.89,160.265,451.86,162.365,453.9,164.525z"/>
				<path style="fill:#EDBF4A;" d="M441.01,152.205c-1.91,0-3.75,0.02-5.6-0.01c-3.61-0.05-7.21-0.14-10.82-0.19
					c-0.88-0.01-1.57-0.08-1.48-1.26c0.35-4.66,0.26-9.35,0.79-14.04C426.12,137.705,439.15,149.525,441.01,152.205z"/>
				<path style="fill:#EDBF4A;" d="M417.87,163.095c0.03,1.02-0.34,1.4-1.4,1.35c-2.89-0.13-5.78-0.24-8.68-0.22
					c-5.35,0.03-10.71,0.16-16.06,0.24c-0.71,0.01-1.42,0-2.69,0c2.79-2.56,5.19-4.74,7.56-6.95c0.77-0.72,1.69-0.8,2.63-0.79
					c5.79,0.11,11.58,0.24,17.36,0.34c0.9,0.01,1.33,0.3,1.3,1.25C417.84,159.905,417.84,161.505,417.87,163.095z"/>
				<path style="fill:#7299DB;" d="M425.417,190.139c-18.827,0.445-37.214-0.134-55.602-0.591
					c-7.094-0.176-14.193-0.164-21.29-0.241c-0.721-0.008-1.451,0.069-2.152-0.184c-1.047-0.378-1.702-1.087-1.806-2.218
					c-0.102-1.109,0.547-2.034,1.68-2.523c0.623-0.269,1.266-0.253,1.92-0.244c16.583,0.215,33.162,0.569,49.74,1.007
					c7.31,0.193,14.629,0.135,21.942,0.054c12.966-0.143,25.924,0.165,38.881,0.55c10.568,0.314,21.134,0.65,31.701,0.999
					c3.835,0.126,7.668,0.322,11.502,0.478c0.655,0.027,1.304,0.065,1.92,0.31c1.054,0.418,1.638,1.211,1.627,2.331
					c-0.011,1.128-0.652,1.881-1.691,2.296c-0.696,0.278-1.43,0.214-2.147,0.186c-4.341-0.169-8.682-0.359-13.022-0.542
					C467.418,190.912,446.206,190.438,425.417,190.139z"/>
				<path style="fill:#7299DB;" d="M418.568,281.08c12.097,0.031,24.181-0.503,36.27-0.828c7.827-0.211,15.64-0.009,23.436,0.747
					c0.579,0.056,1.148,0.111,1.677,0.392c1.008,0.537,1.466,1.37,1.355,2.496c-0.103,1.048-0.71,1.7-1.689,2.045
					c-0.637,0.225-1.281,0.189-1.932,0.12c-8.085-0.861-16.202-0.92-24.307-0.627c-25.411,0.92-50.833,0.776-76.253,0.921
					c-4.852,0.028-9.704-0.056-14.556-0.1c-0.649-0.006-1.318,0.005-1.943-0.14c-1.252-0.292-2.022-1.33-1.985-2.511
					c0.035-1.127,0.732-2.003,1.938-2.316c0.481-0.125,1.002-0.147,1.503-0.133c13.76,0.39,27.519,0.046,41.278-0.061
					C408.428,281.047,413.498,281.08,418.568,281.08z"/>
				<path style="fill:#7299DB;" d="M342.878,239.08c-0.116-12.56,0.774-26.804,1.015-41.064c0.037-2.205,0.914-3.392,2.482-3.429
					c1.63-0.038,2.662,1.237,2.611,3.543c-0.14,6.297-0.361,12.591-0.548,18.887c-0.412,13.823-0.886,27.645-0.419,41.476
					c0.274,8.107,0.268,16.216,0.251,24.325c-0.002,0.871-0.027,1.738-0.463,2.534c-0.594,1.084-1.543,1.576-2.697,1.358
					c-1.142-0.215-1.73-0.984-1.957-2.06c-0.073-0.348-0.047-0.72-0.038-1.08c0.24-9.703-0.098-19.402-0.256-29.101
					C342.783,249.908,342.697,245.349,342.878,239.08z"/>
				<path style="fill:#7299DB;" d="M500.313,231.064c-0.181,9.618-0.364,19.237-0.543,28.855c-0.017,0.941,0.002,1.89-0.301,2.794
					c-0.494,1.472-1.875,2.36-3.146,2.063c-1.395-0.326-2.118-1.498-1.827-3.181c0.15-0.867,0.151-1.725,0.168-2.59
					c0.232-11.86,0.399-23.721,0.707-35.579c0.19-7.306,0.181-14.609,0.129-21.914c-0.004-0.578-0.049-1.163,0.021-1.733
					c0.163-1.329,1.021-2.16,2.235-2.246c1.314-0.093,2.345,0.682,2.603,2.085c0.156,0.848,0.176,1.726,0.206,2.592
					c0.164,4.845,0.163,9.691,0.049,14.537c-0.112,4.772-0.233,9.545-0.35,14.317C500.281,231.063,500.297,231.064,500.313,231.064z
					"/>
				<path style="fill:#7299DB;" d="M596.84,207.105c-2.52-0.3-5.05-0.38-7.59-0.41c-5.21-0.06-10.42-0.07-15.64-0.26
					c-9.12-0.34-18.25-0.16-27.37-0.17c-1.03,0-2.03,0.17-2.97,0.57c-1.48,0.63-2.06,1.6-2.02,3.23c0.11,4.27-0.09,8.54-0.21,12.81
					c-0.27,9.26-0.84,18.52-0.62,27.79c0.09,3.94,1.36,5.2,5.25,5.27c0.22,0,0.43-0.01,0.65-0.01h21.31
					c8.61-0.34,15.26,0.46,21.92,0.3c1.89-0.05,3.77-0.08,5.64-0.25c2.12-0.2,3.08-1.1,3.6-3.17c0.15-0.63,0.21-1.28,0.28-1.93
					c0.79-7.42,1.26-14.86,1.55-22.31c0.21-5.5,0.66-10.99,0.64-16.5C601.24,208.715,600.15,207.495,596.84,207.105z
					 M568.16,234.235c-0.22,5.06-0.53,10.11-0.72,15.18c-0.04,1.2-0.58,1.45-1.61,1.44c-3.18-0.03-6.37-0.01-9.55-0.01v0.03
					c-3.04,0-6.09,0.01-9.13-0.01c-1.57-0.01-1.64-0.05-1.63-1.56c0.01-4.77,0.11-9.55,0.12-14.33c0-1.24,0.59-1.59,1.7-1.69
					c3.54-0.34,7.07-0.56,10.62-0.56c2.9,0,5.8-0.11,8.69-0.11C568.17,232.605,568.23,232.665,568.16,234.235z M568.3,225.965
					c-0.02,1.49-0.07,1.52-1.64,1.55c-5.64,0.11-11.28-0.07-16.91,0.46c-0.28,0.02-0.57,0.03-0.86,0.05
					c-2.89,0.24-2.88,0.24-2.85-2.57c0.02-1.81,0-3.62,0-5.42h0.38c0-2.39-0.03-4.77,0.01-7.15c0.03-1.51,0.09-1.59,1.64-1.59
					c6.22,0,12.43,0.04,18.65,0.1c1.57,0.01,1.63,0.08,1.63,1.56C568.37,217.295,568.35,221.625,568.3,225.965z M595.22,234.405
					c-0.1,5.06-0.74,10.08-1.09,15.13c-0.08,1.21-0.66,1.51-1.8,1.53c-6.22,0.08-12.43-0.09-18.64-0.39
					c-0.81-0.04-1.19-0.31-1.14-1.15c0.05-1.08,0.01-2.17,0.07-3.25c0.22-4.04,0.45-8.08,0.69-12.12c0.09-1.51,0.11-1.55,1.64-1.56
					c3.18-0.02,6.36,0,9.54,0v0.08c3.04,0,6.07-0.02,9.11,0.01C595.23,232.695,595.25,232.725,595.22,234.405z M596.11,213.845
					c-0.14,4.12-0.36,8.24-0.5,12.36c-0.03,1.01-0.39,1.38-1.42,1.38c-6.44-0.05-12.88-0.08-19.32-0.06
					c-1.18,0.01-1.46-0.51-1.45-1.57c0.04-4.34,0.06-8.68,0.01-13.02c-0.01-1.19,0.48-1.44,1.56-1.42c3.18,0.06,6.37,0.02,9.55,0.02
					v0.41c3.25,0,6.51-0.04,9.77,0.01C596.08,211.985,596.17,212.095,596.11,213.845z"/>
				<path style="fill:#EDBF4A;" d="M595.22,234.405c-0.1,5.06-0.74,10.08-1.09,15.13c-0.08,1.21-0.66,1.51-1.8,1.53
					c-6.22,0.08-12.43-0.09-18.64-0.39c-0.81-0.04-1.19-0.31-1.14-1.15c0.05-1.08,0.01-2.17,0.07-3.25
					c0.22-4.04,0.45-8.08,0.69-12.12c0.09-1.51,0.11-1.55,1.64-1.56c3.18-0.02,6.36,0,9.54,0v0.08c3.04,0,6.07-0.02,9.11,0.01
					C595.23,232.695,595.25,232.725,595.22,234.405z"/>
				<path style="fill:#EDBF4A;" d="M596.11,213.845c-0.14,4.12-0.36,8.24-0.5,12.36c-0.03,1.01-0.39,1.38-1.42,1.38
					c-6.44-0.05-12.88-0.08-19.32-0.06c-1.18,0.01-1.46-0.51-1.45-1.57c0.04-4.34,0.06-8.68,0.01-13.02
					c-0.01-1.19,0.48-1.44,1.56-1.42c3.18,0.06,6.37,0.02,9.55,0.02v0.41c3.25,0,6.51-0.04,9.77,0.01
					C596.08,211.985,596.17,212.095,596.11,213.845z"/>
				<path style="fill:#EDBF4A;" d="M568.16,234.235c-0.22,5.06-0.53,10.11-0.72,15.18c-0.04,1.2-0.58,1.45-1.61,1.44
					c-3.18-0.03-6.37-0.01-9.55-0.01v0.03c-3.04,0-6.09,0.01-9.13-0.01c-1.57-0.01-1.64-0.05-1.63-1.56
					c0.01-4.77,0.11-9.55,0.12-14.33c0-1.24,0.59-1.59,1.7-1.69c3.54-0.34,7.07-0.56,10.62-0.56c2.9,0,5.8-0.11,8.69-0.11
					C568.17,232.605,568.23,232.665,568.16,234.235z"/>
				<path style="fill:#EDBF4A;" d="M568.3,225.965c-0.02,1.49-0.07,1.52-1.64,1.55c-5.64,0.11-11.28-0.07-16.91,0.46
					c-0.28,0.02-0.57,0.03-0.86,0.05c-2.89,0.24-2.88,0.24-2.85-2.57c0.02-1.81,0-3.62,0-5.42h0.38c0-2.39-0.03-4.77,0.01-7.15
					c0.03-1.51,0.09-1.59,1.64-1.59c6.22,0,12.43,0.04,18.65,0.1c1.57,0.01,1.63,0.08,1.63,1.56
					C568.37,217.295,568.35,221.625,568.3,225.965z"/>
				<path style="fill:#7299DB;" d="M569.698,196.667c-12.744,0.077-25.488,0.065-38.229-0.289c-1.88-0.052-3.764,0.026-5.643-0.038
					c-1.132-0.039-1.867-0.73-2.191-1.803c-0.306-1.013,0.066-1.845,0.813-2.531c0.51-0.468,1.153-0.586,1.814-0.609
					c1.013-0.037,2.027-0.091,3.039-0.072c19.694,0.382,39.391,0.04,59.084,0.247c7.96,0.084,15.929,0.151,23.879,0.687
					c0.721,0.049,1.461,0.049,2.154,0.224c1.133,0.284,1.878,1.305,1.883,2.376c0.005,1.189-0.796,2.138-2.096,2.398
					c-0.49,0.098-1.008,0.118-1.51,0.092C598.372,196.613,584.036,196.601,569.698,196.667z"/>
				<path style="fill:#7299DB;" d="M522.573,168.938c-0.013,1.848-1.857,2.986-3.524,2.179c-0.603-0.292-1.029-0.788-1.488-1.249
					c-18.453-18.506-36.907-37.012-55.358-55.521c-0.561-0.563-1.16-1.108-1.62-1.748c-0.78-1.086-0.673-2.289,0.162-3.181
					c0.823-0.878,2.072-1.072,3.162-0.341c0.712,0.477,1.323,1.12,1.934,1.733c13.596,13.638,27.161,27.306,40.79,40.91
					c4.816,4.807,9.678,9.569,14.412,14.458C521.8,166.959,522.603,167.719,522.573,168.938z"/>
				<path style="fill:#7299DB;" d="M487.299,108.468c0.866-0.047,1.54,0.354,2.108,0.947c0.701,0.731,1.368,1.495,2.058,2.236
					c17.059,18.33,33.961,36.809,51.722,54.474c0.51,0.507,1.043,1.025,1.414,1.63c0.612,0.999,0.401,2.224-0.38,2.993
					c-0.81,0.797-1.957,0.985-2.987,0.323c-0.72-0.463-1.341-1.093-1.959-1.697c-9.318-9.111-18.244-18.599-27.121-28.135
					c-8.432-9.058-17.092-17.904-25.325-27.147c-0.576-0.646-1.21-1.282-1.61-2.033
					C484.342,110.409,485.485,108.515,487.299,108.468z"/>
				<path style="fill:#7299DB;" d="M565.657,169.777c-1.244,0.017-1.933-0.85-2.657-1.665c-3.557-4.005-7.115-8.007-10.671-12.013
					c-10.811-12.179-21.628-24.353-32.425-36.545c-1.391-1.57-2.684-3.227-3.998-4.863c-0.359-0.447-0.701-0.935-0.925-1.457
					c-0.475-1.104-0.15-2.217,0.758-2.91c0.909-0.695,2.043-0.703,3.013,0.03c0.341,0.257,0.626,0.599,0.903,0.93
					c11.917,14.289,24.507,27.986,36.867,41.885c3.318,3.732,6.646,7.456,9.952,11.2c0.523,0.592,1.069,1.211,1.407,1.912
					C568.693,167.965,567.488,169.795,565.657,169.777z"/>
				<path style="fill:#7299DB;" d="M589.59,170.292c-0.069,2.134-2.135,3.225-3.782,2.13c-0.648-0.431-1.169-1.071-1.698-1.66
					c-13.675-15.259-26.692-31.077-39.748-46.862c-1.845-2.231-3.725-4.434-5.581-6.656c-0.371-0.443-0.757-0.885-1.053-1.377
					c-0.732-1.219-0.543-2.52,0.428-3.338c0.966-0.814,2.285-0.774,3.351,0.181c0.535,0.479,0.982,1.061,1.446,1.616
					c10.77,12.884,21.503,25.799,32.32,38.644c4.195,4.982,8.576,9.808,12.87,14.708
					C588.857,168.492,589.648,169.275,589.59,170.292z"/>
				<path style="fill:#7299DB;" d="M607.3,168.65c-0.006,1.279-0.89,2.505-2.015,2.796c-1.18,0.305-2.278-0.13-2.843-1.399
					c-0.637-1.431-1.682-2.527-2.663-3.67c-12.022-14.007-23.567-28.408-35.327-42.632c-1.983-2.398-3.902-4.849-5.832-7.29
					c-1.523-1.927-1.619-3.306-0.351-4.372c1.301-1.093,2.808-0.693,4.373,1.293c6.541,8.301,13.381,16.357,20.048,24.555
					c7.079,8.704,14.277,17.307,21.544,25.854c0.797,0.937,1.566,1.898,2.315,2.873C606.993,167.238,607.329,167.881,607.3,168.65z"
					/>
			</g>
			<path style="fill:#7299DB;" d="M567.319,282.347c13.961,0.664,27.914,1.371,41.887,1.314c2.204-0.009,3.393,0.878,3.461,2.443
				c0.072,1.654-1.16,2.677-3.461,2.678c-9.482,0.003-18.959-0.308-28.434-0.64c-14.755-0.517-29.508-1.107-44.278-1.067
				c-3.616,0.01-7.234-0.196-10.85-0.317c-0.576-0.019-1.171-0.041-1.721-0.192c-1.233-0.339-1.943-1.394-1.846-2.601
				c0.092-1.147,0.827-1.962,2.053-2.184c0.492-0.089,1.008-0.071,1.512-0.063c11.723,0.207,23.446,0.424,35.169,0.624
				C562.98,282.379,565.149,282.347,567.319,282.347z"/>
		</g>
	</g>
	<g>
		<g>
			<g>
				<path style="fill:#3588CE;" d="M677.56,500c-1.651-2.785-3.743-5.253-5.672-7.836c-16.176-21.657-31.577-43.842-45.642-66.935
					c-4.753-7.803-9.262-15.748-12.812-24.193c-0.825-1.962-1.545-3.963-1.854-6.084c-0.091-0.622-0.188-1.249-0.197-1.875
					c-0.104-6.973,5.808-10.823,12.146-7.902c2.238,1.031,4.162,2.545,6.02,4.135c9.25,7.916,17.477,16.824,25.146,26.246
					c20.249,24.878,39.282,50.667,57.508,77.057c1.7,2.462,3.4,4.925,5.099,7.387C704.054,500,690.807,500,677.56,500z"/>
			</g>
			<g>
				<g>
					<path style="fill:#3588CE;" d="M580.75,251.655c-41.2-0.11-74.57,33.05-74.64,74.27c-0.08,41.36,33.6,74.56,74.49,74.35
						c10.98,0.02,21.41-2.37,30.8-6.68c4.7-2.16,9.14-4.79,13.25-7.84c18.23-13.53,30.1-35.24,30.15-59.69
						C654.89,285.215,621.61,251.765,580.75,251.655z M580.42,386.085c-33.34-0.06-60.1-26.88-60.08-60.23
						c0.02-33.22,26.99-60.02,60.35-59.97c33.04,0.05,59.94,27.12,59.87,60.25C640.49,359.275,613.54,386.135,580.42,386.085z"/>
				</g>
			</g>
			<path style="opacity:0.32;fill:#3588CE;" d="M640.56,326.135c-0.07,33.14-27.02,60-60.14,59.95
				c-33.34-0.06-60.1-26.88-60.08-60.23c0.02-33.22,26.99-60.02,60.35-59.97C613.73,265.935,640.63,293.005,640.56,326.135z"/>
		</g>
	</g>
	<g>
		<path style="fill:#C9DFF6;" d="M602.604,50.166c2.698-1.904,5.465-3.519,8.398-4.827c8.866-3.953,17.997-4.656,27.36-2.099
			c2.972,0.812,5.624,2.273,7.952,4.301c1.855,1.617,3.288,3.54,4.183,5.845c1.73,4.451,0.41,8.855-3.489,11.624
			c-1.436,1.02-3.041,1.692-4.707,2.234c-3.941,1.283-8.024,1.725-12.128,1.969c-14.004,0.831-28.022,0.662-42.039,0.515
			c-7.937-0.083-15.876-0.078-23.804-0.53c-7.981-0.455-15.949-1.053-23.739-3.014c-2.403-0.605-4.763-1.349-7.019-2.385
			c-4.01-1.841-7.194-4.58-9.217-8.563c-2.656-5.228-1.527-11.152,2.842-15.054c2.789-2.49,6.113-3.806,9.753-4.248
			c6.821-0.829,13.23,0.329,18.965,4.343c1.153,0.807,2.156,1.79,3.128,2.707c0.451-0.075,0.486-0.374,0.578-0.633
			c2.533-7.177,7.829-11.19,15.091-12.465c8.094-1.421,15.176,0.96,20.851,6.957c3.11,3.287,4.801,7.438,6.303,11.648
			C602.05,49.008,602.05,49.606,602.604,50.166z"/>
		<path style="fill:#C9DFF6;" d="M203.353,48.263c3.261-1.005,6.124-2.109,9.106-2.846c10.818-2.676,21.406-2.062,31.762,2.099
			c3.4,1.366,6.488,3.229,9.025,5.913c4.935,5.222,4.517,11.479-1.064,16.039c-2.604,2.127-5.61,3.475-8.781,4.499
			c-5.21,1.683-10.593,2.412-16.021,2.828c-14.173,1.086-28.359,0.901-42.538,0.195c-15.744-0.784-31.483-1.661-47.221-2.563
			c-4.007-0.23-8.019-0.561-11.96-1.405c-2.251-0.482-4.389-1.246-6.303-2.571c-6.999-4.847-7.361-14.232-0.722-19.568
			c2.688-2.161,5.827-3.448,9.126-4.303c7.165-1.858,14.454-2.297,21.817-1.699c0.471,0.038,0.939,0.119,1.41,0.154
			c1.749,0.129,1.764,0.13,2.26-1.537c0.496-1.667,1.12-3.279,1.932-4.817c2.944-5.577,7.439-9.117,13.7-10.182
			c10.413-1.771,19.727,0.643,27.665,7.708C200.088,39.36,202.719,43.147,203.353,48.263z"/>
		<path style="fill:#C9DFF6;" d="M338.36,122.664c-11.969-0.461-23.96-0.019-35.919-0.832c-7.153-0.487-14.295-1.171-21.29-2.825
			c-4.454-1.053-8.715-2.709-12.856-4.654c-2.702-1.269-4.849-3.211-6.528-5.665c-3.169-4.632-2.781-9.734,1.119-13.79
			c2.325-2.417,5.089-4.179,8.284-5.291c6.552-2.279,13.175-1.937,19.826-0.633c1.696,0.332,3.378,0.775,5.026,1.297
			c0.883,0.28,1.397,0.237,1.943-0.61c4.936-7.657,12.235-12.107,20.663-14.895c5.481-1.813,11.044-1.529,16.522,0.118
			c6.588,1.981,12.16,5.535,16.324,11.091c0.658,0.879,1.282,1.144,2.374,0.991c6.79-0.954,13.515-0.651,20.128,1.278
			c4.962,1.447,9.6,3.571,13.634,6.842c3.428,2.781,6.087,6.155,7.403,10.449c1.235,4.029,0.102,7.463-2.771,10.381
			c-1.909,1.939-4.216,3.242-6.82,4.09c-4.931,1.605-10.03,2.015-15.15,2.181c-5.355,0.174-10.716,0.161-16.074,0.25
			C348.919,122.527,343.642,122.755,338.36,122.664z"/>
	</g>
	<g>
		<g>
			<path style="fill:#EDBF4A;" d="M697.908,233.405c-0.027,8.548-0.656,15.994-2.591,23.278c-1.587,5.972-4.37,11.299-8.838,15.657
				c-2.965,2.893-6.446,4.768-10.603,5.234c-5.231,0.586-9.81-0.893-13.704-4.447c-2.959-2.701-5.168-5.91-6.659-9.638
				c-2.771-6.928-3.611-14.152-3.476-21.547c0.207-11.324,2.827-22.182,6.655-32.74c4.032-11.119,8.992-21.846,14.763-32.183
				c0.844-1.512,1.741-3,2.7-4.442c1.805-2.713,3.331-2.624,4.743,0.248c0.695,1.413,1.345,2.849,1.985,4.288
				c3.426,7.698,7.042,15.319,9.483,23.415C695.703,211.589,698.086,222.806,697.908,233.405z"/>
			<path style="fill:#606060;" d="M674.176,256.933c0-5.59-0.22-11.193,0.076-16.767c0.205-3.871-0.813-6.961-3.35-9.869
				c-2.901-3.325-5.123-7.173-7.416-10.946c-0.94-1.547-2.005-3.018-2.953-4.56c-1.071-1.743-0.845-3.402,0.52-4.432
				c1.414-1.066,3.195-0.713,4.525,0.965c1.472,1.857,2.622,3.928,3.866,5.938c1.343,2.169,2.768,4.287,4.265,6.592
				c0.572-0.975,0.39-1.686,0.379-2.358c-0.138-8.431-0.297-16.862-0.449-25.293c-0.01-0.551-0.066-1.108-0.005-1.652
				c0.178-1.602,1.234-2.664,2.714-2.796c1.496-0.133,2.798,0.696,3.21,2.219c0.222,0.821,0.216,1.713,0.247,2.575
				c0.309,8.507,0.428,17.017,0.478,25.529c0.003,0.432-0.202,0.93,0.235,1.327c0.716-0.159,0.876-0.839,1.197-1.329
				c1.814-2.768,3.589-5.56,5.396-8.332c0.385-0.591,0.78-1.203,1.288-1.679c1.064-0.998,2.552-1.079,3.7-0.309
				c1.168,0.783,1.647,2.161,1.162,3.533c-0.181,0.513-0.475,0.996-0.771,1.457c-3.109,4.838-6.23,9.67-9.348,14.503
				c-0.085,0.132-0.153,0.287-0.266,0.389c-2.395,2.145-2.68,4.866-2.559,7.912c0.193,4.878,0.015,9.77,0.016,14.657
				c0,0.762-0.198,1.547,0.135,2.297c0.76,0.132,0.926-0.533,1.236-0.92c2.466-3.072,4.902-6.169,7.351-9.255
				c0.44-0.555,0.846-1.149,1.351-1.64c1.187-1.152,2.891-1.25,4.084-0.3c1.121,0.893,1.434,2.435,0.739,3.851
				c-0.206,0.42-0.509,0.795-0.791,1.173c-4.055,5.435-8.299,10.721-12.802,15.788c-1.032,1.161-1.385,2.306-1.401,3.799
				c-0.187,18.444,0.279,36.881,0.512,55.32c0.079,6.225-0.025,12.452-0.056,18.678c-0.005,0.943,0.026,1.893-0.293,2.808
				c-0.541,1.553-1.706,2.358-3.219,2.21c-1.478-0.144-2.487-1.209-2.667-2.832c-0.034-0.312-0.03-0.63-0.022-0.945
				c0.51-19.233-0.476-38.454-0.443-57.683c0.009-5.438-0.004-10.876,0.037-16.314c0.008-1.075-0.085-1.998-1.049-2.698
				c-0.427-0.31-0.734-0.823-1.01-1.294c-3.71-6.325-8.102-12.211-11.883-18.489c-0.812-1.348-1.645-2.695-2.322-4.111
				c-0.994-2.08-0.469-3.853,1.228-4.647c1.605-0.751,3.179-0.089,4.25,1.868c2.841,5.192,6.191,10.061,9.466,14.977
				c0.292,0.438,0.636,0.841,0.956,1.26C673.873,257.05,674.025,256.991,674.176,256.933z"/>
		</g>
		<g>
			<path style="fill:#EDBF4A;" d="M666.745,114.218c-0.028,8.548-0.656,15.995-2.591,23.278c-1.587,5.972-4.37,11.299-8.838,15.657
				c-2.965,2.893-6.446,4.768-10.603,5.234c-5.231,0.586-9.81-0.893-13.704-4.447c-2.959-2.701-5.168-5.91-6.659-9.638
				c-2.771-6.928-3.611-14.152-3.476-21.547c0.207-11.325,2.827-22.182,6.655-32.74c4.032-11.119,8.992-21.846,14.763-32.183
				c0.844-1.512,1.741-3,2.7-4.442c1.805-2.713,3.331-2.623,4.743,0.248c0.695,1.413,1.345,2.849,1.985,4.288
				c3.426,7.698,7.042,15.319,9.483,23.415C664.54,92.402,666.923,103.619,666.745,114.218z"/>
			<path style="fill:#606060;" d="M643.013,137.746c0-5.59-0.22-11.193,0.076-16.767c0.205-3.871-0.813-6.961-3.35-9.869
				c-2.901-3.325-5.123-7.173-7.416-10.946c-0.94-1.547-2.005-3.018-2.953-4.56c-1.071-1.743-0.845-3.402,0.521-4.432
				c1.414-1.066,3.195-0.713,4.525,0.965c1.472,1.857,2.622,3.928,3.867,5.938c1.343,2.169,2.768,4.287,4.265,6.592
				c0.572-0.975,0.39-1.686,0.379-2.358c-0.138-8.431-0.297-16.862-0.45-25.293c-0.01-0.551-0.066-1.108-0.005-1.652
				c0.178-1.602,1.234-2.664,2.714-2.796c1.496-0.133,2.798,0.696,3.211,2.219c0.222,0.821,0.216,1.713,0.247,2.575
				c0.309,8.507,0.428,17.017,0.478,25.529c0.003,0.432-0.202,0.93,0.235,1.327c0.716-0.159,0.876-0.839,1.197-1.329
				c1.814-2.768,3.589-5.56,5.396-8.332c0.385-0.591,0.78-1.203,1.288-1.679c1.064-0.998,2.552-1.079,3.7-0.309
				c1.168,0.783,1.647,2.161,1.162,3.533c-0.181,0.513-0.475,0.996-0.771,1.457c-3.109,4.839-6.23,9.67-9.348,14.503
				c-0.085,0.132-0.153,0.287-0.266,0.389c-2.395,2.145-2.68,4.866-2.559,7.912c0.193,4.878,0.015,9.77,0.016,14.657
				c0,0.762-0.198,1.547,0.135,2.297c0.76,0.132,0.926-0.534,1.236-0.92c2.466-3.072,4.902-6.169,7.351-9.255
				c0.44-0.555,0.846-1.15,1.351-1.64c1.187-1.152,2.891-1.25,4.084-0.3c1.121,0.893,1.434,2.435,0.739,3.851
				c-0.206,0.42-0.509,0.795-0.791,1.173c-4.055,5.435-8.299,10.721-12.802,15.788c-1.032,1.161-1.385,2.306-1.401,3.799
				c-0.187,18.444,0.279,36.881,0.512,55.321c0.079,6.225-0.025,12.452-0.057,18.678c-0.005,0.943,0.026,1.893-0.293,2.808
				c-0.541,1.553-1.706,2.358-3.219,2.21c-1.478-0.144-2.487-1.21-2.667-2.832c-0.035-0.312-0.03-0.63-0.022-0.945
				c0.51-19.233-0.476-38.454-0.443-57.683c0.009-5.438-0.004-10.876,0.037-16.314c0.008-1.075-0.085-1.998-1.049-2.698
				c-0.427-0.31-0.734-0.823-1.01-1.294c-3.71-6.325-8.102-12.211-11.883-18.489c-0.812-1.348-1.645-2.695-2.322-4.112
				c-0.994-2.08-0.469-3.853,1.228-4.647c1.605-0.751,3.179-0.089,4.25,1.868c2.841,5.192,6.191,10.06,9.466,14.977
				c0.292,0.438,0.636,0.841,0.956,1.26C642.71,137.863,642.862,137.805,643.013,137.746z"/>
		</g>
		<g>
			<path style="fill:#EDBF4A;" d="M107.296,155.582c-0.387,12.226-1.834,22.233-6.215,31.629c-2.363,5.067-5.47,9.559-9.974,12.997
				c-3.987,3.044-8.365,4.239-13.328,3.13c-3.4-0.759-6.01-2.721-8.168-5.312c-3.854-4.627-6.219-10.035-7.735-15.796
				c-2.187-8.309-2.496-16.817-2.228-25.348c0.588-18.646,4.188-36.753,9.971-54.448c3.571-10.926,6.731-21.995,11.165-32.626
				c0.362-0.868,0.714-1.773,1.256-2.528c0.928-1.292,2.46-1.195,3.318,0.134c0.253,0.392,0.402,0.854,0.577,1.293
				c5.173,12.955,9.92,26.072,13.663,39.505c3.086,11.076,5.422,22.346,6.78,33.792C106.991,147.177,107.44,152.354,107.296,155.582
				z"/>
			<path style="fill:#606060;" d="M78.323,179.003c0-2.423,0.062-4.389-0.012-6.35c-0.213-5.669-0.514-11.334-0.702-17.004
				c-0.041-1.242-0.426-2.227-1.088-3.263c-2.847-4.455-5.981-8.697-9.256-12.84c-0.388-0.492-0.781-1.007-1.036-1.572
				c-0.641-1.417-0.204-2.939,1.004-3.776c1.114-0.773,2.618-0.732,3.707,0.258c1.405,1.277,2.445,2.878,3.598,4.374
				c0.7,0.908,1.373,1.838,2.11,2.828c0.688-0.725,0.458-1.382,0.451-1.962c-0.068-5.358-0.169-10.716-0.252-16.075
				c-0.011-0.708-0.037-1.426,0.061-2.123c0.222-1.574,1.351-2.663,2.774-2.776c1.483-0.118,2.824,0.93,3.174,2.598
				c0.16,0.761,0.153,1.563,0.171,2.348c0.148,6.302,0.282,12.605,0.425,18.907c0.011,0.467,0.055,0.933,0.09,1.491
				c0.845-0.01,1.095-0.65,1.427-1.088c3-3.951,6.35-7.639,8.92-11.913c0.279-0.464,0.655-0.898,1.067-1.251
				c1.207-1.032,2.749-1.077,3.904-0.175c1.149,0.897,1.573,2.461,0.773,3.815c-1.12,1.895-2.32,3.763-3.673,5.497
				c-3.731,4.783-7.331,9.675-11.442,14.15c-0.507,0.552-0.817,1.085-0.784,1.872c0.344,8.188,0.659,16.376,0.989,24.564
				c0.015,0.382,0,0.793,0.394,1.125c0.902-0.174,1.383-0.949,1.979-1.52c2.732-2.617,5.424-5.275,8.143-7.905
				c0.565-0.546,1.137-1.106,1.788-1.536c1.318-0.871,2.876-0.686,3.883,0.365c0.995,1.039,1.103,2.626,0.225,3.911
				c-0.264,0.386-0.605,0.726-0.946,1.05c-4.69,4.443-9.083,9.207-14.137,13.253c-1.002,0.802-0.981,1.702-0.933,2.717
				c0.452,9.531,0.246,19.068,0.262,28.603c0.003,1.967-0.157,3.935-0.261,5.901c-0.057,1.08-0.492,1.987-1.394,2.617
				c-1.695,1.183-3.889,0.384-4.571-1.634c-0.262-0.775-0.168-1.56-0.135-2.343c0.468-11.19,0.079-22.378-0.051-33.567
				c-0.017-1.443-0.448-2.474-1.495-3.507c-3.476-3.431-6.831-6.985-10.222-10.502c-0.82-0.851-1.635-1.717-2.198-2.769
				c-0.873-1.632-0.582-3.304,0.707-4.243c1.394-1.016,3.142-0.738,4.359,0.829C72.488,173.432,75.381,175.961,78.323,179.003z"/>
		</g>
	</g>
	<g>
		<path style="fill:#EDBF4A;" d="M286.758,276.428c-0.149,7.072-0.473,14.145-0.4,21.214c0.079,7.723-0.262,15.432-0.395,23.147
			c-0.025,1.472-0.161,2.943-0.272,4.412c-0.045,0.594,0.143,0.944,0.692,1.256c1.276,0.725,2.524,1.509,3.728,2.349
			c3.959,2.763,6.813,6.424,8.692,10.86c2.943,6.946,2.786,13.903-0.238,20.731c-1.233,2.785-2.998,5.307-5.213,7.499
			c-4.163,4.121-9.148,6.544-14.883,7.42c-4.098,0.626-8.104,0.009-12.011-1.308c-4.829-1.628-8.756-4.572-11.835-8.558
			c-2.388-3.091-3.968-6.598-4.773-10.492c-1.368-6.618-0.212-12.773,3.105-18.535c1.193-2.072,2.744-3.934,4.53-5.592
			c2.81-2.608,6.061-4.419,9.639-5.694c1.618-0.576,3.308-0.868,5.015-0.974c0.861-0.053,1.322-0.346,1.35-1.24
			c0.025-0.765,0.207-1.54,0.122-2.289c-0.24-2.118-0.152-4.238-0.175-6.358c-0.017-1.636-0.008-1.64-1.678-2.006
			c-0.92-0.202-1.853-0.35-2.762-0.593c-1.371-0.367-2.031-1.249-2.137-2.799c-0.187-2.745,0.486-4.619,3.156-5.917
			c2.926-1.423,2.765-3.586,0.568-6.014c-0.625-0.691-1.483-1.168-2.142-1.834c-1.288-1.304-1.004-2.342,0.787-2.729
			c1.558-0.336,3.166-0.237,4.756-0.25c1.296-0.01,2.593-0.025,3.888-0.001c0.751,0.014,1.044-0.326,1.073-1.053
			c0.147-3.686,0.538-3.586-3.199-3.468c-1.879,0.059-3.727,0.543-5.632,0.396c-2.062-0.159-2.415-0.484-2.502-2.551
			c-0.057-1.35-0.307-2.689-0.185-4.051c0.13-1.451,0.437-1.839,1.879-2.108c2.035-0.38,4.088-0.362,6.153-0.367
			c4.683-0.012,3.615,0.171,3.707-3.775c0.008-0.351-0.075-0.703-0.094-1.056c-0.032-0.59-0.343-0.807-0.916-0.793
			c-1.765,0.045-3.529,0.073-5.261,0.486c-1.039,0.248-2.096,0.32-3.157,0.15c-1.742-0.279-2.288-1.314-1.537-2.918
			c0.71-1.516,1.853-2.715,2.956-3.932c1.975-2.178,3.928-4.382,6.002-6.462c1.66-1.664,3.214-3.425,4.869-5.091
			c0.583-0.587,1.15-1.174,1.657-1.828c0.324-0.418,0.701-0.811,1.2-1.022c1.145-0.484,2.086,0.12,2.161,1.471
			c0.085,1.527,0.115,3.063,0.064,4.592c-0.14,4.183-0.344,8.364-0.503,12.547c-0.065,1.706-0.077,3.413-0.113,5.12
			C286.584,276.425,286.671,276.426,286.758,276.428z M282.655,348.67c0.06-3.863-3.105-6.974-7.115-6.992
			c-3.876-0.018-6.85,2.994-7.012,6.932c-0.145,3.526,3.09,7.31,7.132,7.188C279.31,355.687,282.715,352.832,282.655,348.67z"/>
		<g>
			<path style="fill:#EDBF4A;" d="M357.645,273.322c12.207-0.088,24.406-0.248,36.616-0.027
				c31.198,0.564,56.812,13.031,77.697,35.839c1.925,2.103,3.833,4.215,5.907,6.179c6.11,5.785,11.298,12.345,16.055,19.261
				c0.807,1.174,1.613,2.342,1.553,3.89c-0.117,3.03-2.461,4.567-5.124,3.156c-2.515-1.333-4.965-2.809-7.336-4.386
				c-8.362-5.563-17.634-8.302-27.552-9.265c-11.301-1.097-22.605-0.769-33.913-0.352c-21.372,0.788-42.752,1.249-64.137,1.012
				c-7.922-0.088-15.838-0.687-23.759-1.013c-6.049-0.249-12.114-0.228-18.112-1.238c-2.466-0.415-4.882-0.985-7.197-1.957
				c-3.961-1.662-6.79-4.489-7.576-8.708c-1.483-7.966-2.69-15.986-1.221-24.129c1.331-7.376,5.522-12.161,12.709-14.333
				c4.28-1.293,8.657-2.074,13.092-2.541c9.049-0.952,18.125-1.296,27.222-1.226C354.261,273.497,355.954,273.38,357.645,273.322z"
				/>
			<g>
				<path style="fill:#606060;" d="M322.418,295.042c1.914,0.071,3.526,0.038,5.114,0.218c1.356,0.154,2.158-0.233,2.671-1.54
					c0.682-1.737,1.525-3.412,2.314-5.105c0.3-0.644,0.582-1.311,0.983-1.891c1.308-1.895,3.273-1.926,4.521,0.049
					c0.897,1.418,1.551,2.999,2.23,4.543c1.799,4.092,1.781,4.098,6.31,4.066c2.048-0.015,4.097-0.052,6.145-0.015
					c1.102,0.02,2.228,0.248,2.531,1.523c0.289,1.216-0.464,2.012-1.437,2.601c-2.207,1.337-4.392,2.715-6.645,3.971
					c-1.177,0.656-1.421,1.417-0.898,2.613c0.856,1.956,1.64,3.943,2.453,5.918c0.271,0.658,0.616,1.297,0.795,1.979
					c0.544,2.073-0.75,3.355-2.825,2.75c-0.838-0.245-1.611-0.74-2.382-1.179c-2.32-1.321-4.657-2.618-6.92-4.031
					c-1.143-0.714-2.023-0.599-3.136,0.097c-3.092,1.935-6.252,3.764-9.41,5.592c-1.217,0.704-2.597,1.725-3.921,0.578
					c-1.471-1.275-0.462-2.782,0.159-4.148c1.142-2.511,2.254-5.038,3.467-7.514c0.54-1.102,0.346-1.716-0.695-2.382
					c-2.098-1.342-4.1-2.832-6.139-4.265c-1.001-0.704-1.805-1.529-1.322-2.889c0.433-1.222,1.481-1.401,2.606-1.424
					C320.236,295.13,321.481,295.074,322.418,295.042z M335.298,299.024c-0.001-0.032-0.002-0.065-0.003-0.097
					c-0.801,0.027-1.604,0.028-2.402,0.088c-0.984,0.074-3.043,3.132-2.721,4.051c0.079,0.225,0.318,0.444,0.538,0.563
					c1.645,0.884,3.232,2.171,4.983,2.47c1.351,0.23,2.588-1.369,3.913-2.088c0.234-0.127,0.444-0.298,0.671-0.437
					c0.626-0.385,0.7-0.845,0.484-1.572c-0.822-2.769-1.144-3.047-4.128-3.021C336.188,298.984,335.743,299.009,335.298,299.024z
					 M331.937,308.589c-1.128-0.63-1.907-1.038-2.659-1.491c-0.73-0.439-1.113-0.162-1.409,0.541
					c-0.564,1.34-1.167,2.664-1.753,3.994C328.258,310.984,329.971,309.998,331.937,308.589z M337.809,295.09
					c-0.704-1.604-0.956-3.061-2.198-4.289c-0.687,1.562-1.592,2.761-1.716,4.417C335.18,295.342,336.308,295.367,337.809,295.09z
					 M339.785,308.527c1.363,0.903,2.607,1.651,4.258,2.32c-0.433-1.581-0.896-2.844-1.652-4.108
					C341.388,307.237,340.537,307.627,339.785,308.527z M323.843,298.926c0.49,1.058,1.402,1.277,2.078,1.771
					c0.426,0.311,0.865,0.195,1.116-0.233c0.207-0.353,0.508-0.741,0.321-1.201c-0.155-0.384-0.543-0.419-0.883-0.418
					C325.643,298.847,324.812,298.893,323.843,298.926z M346.417,299.101c-0.877,0.03-1.478,0.03-2.075,0.077
					c-0.445,0.035-0.566,0.325-0.429,0.726c0.113,0.333,0.316,0.737,0.663,0.676C345.256,300.461,345.851,300.106,346.417,299.101z"
					/>
				<path style="fill:#606060;" d="M362.343,315.535c-0.134-0.862,0.227-1.734,0.715-2.618c1.372-2.491,2.635-5.044,4.033-7.52
					c0.661-1.171,0.5-1.898-0.639-2.628c-1.345-0.861-2.577-1.898-3.869-2.843c-0.918-0.671-1.586-1.464-1.292-2.69
					c0.293-1.221,1.285-1.724,2.365-1.853c2.206-0.262,4.429-0.482,6.648-0.51c1.558-0.02,2.474-0.578,3.027-2.03
					c0.441-1.156,0.994-2.3,1.682-3.325c1.233-1.835,3.136-1.736,4.248,0.179c0.442,0.762,0.721,1.622,1.046,2.448
					c0.837,2.122,0.831,2.121,2.976,2.17c1.957,0.044,3.913,0.084,5.869,0.15c0.799,0.027,1.613,0.035,2.389,0.198
					c2.415,0.506,3.012,2.346,1.204,4.054c-1.611,1.522-3.43,2.826-5.183,4.193c-3.256,2.538-3.055,1.374-1.667,5.541
					c0.477,1.432,1.094,2.816,1.63,4.229c0.36,0.948,0.582,1.915-0.298,2.711c-0.875,0.793-1.805,0.506-2.725,0.043
					c-2.075-1.043-4.008-2.325-5.834-3.736c-1.351-1.044-2.409-0.97-3.779,0.001c-2.463,1.746-5.056,3.312-7.615,4.921
					c-0.673,0.424-1.388,0.825-2.137,1.075C363.377,318.281,362.444,317.577,362.343,315.535z M380.075,302.867
					c-0.255-0.756-0.571-1.681-0.88-2.609c-0.328-0.986-0.386-2.181-1.93-2.085c-1.326,0.082-2.727-0.132-3.281,1.584
					c-0.216,0.67-0.577,1.304-0.941,1.913c-0.469,0.787-0.225,1.329,0.46,1.8c0.366,0.252,0.711,0.535,1.066,0.804
					c2.363,1.788,2.867,1.769,4.959-0.139C379.861,303.831,380.218,303.569,380.075,302.867z M370.826,306.388
					c-0.864,1.519-1.806,2.986-2.428,5.24c1.969-1.372,3.626-2.144,4.915-3.515C372.563,307.349,371.897,306.666,370.826,306.388z
					 M383.664,301.216c1.19-1.009,2.487-1.531,3.298-2.937c-0.712-0.081-1.225-0.159-1.741-0.195
					C382.24,297.88,382.187,297.969,383.664,301.216z M367.829,298.967c0.615,0.704,0.978,1.409,1.828,0.966
					c0.305-0.159,0.54-0.626,0.323-0.914C369.442,298.303,368.744,298.668,367.829,298.967z M382.023,308.553
					c-0.238-0.293-0.165-0.962-0.892-0.878c-0.193,0.022-0.482,0.283-0.511,0.468c-0.104,0.668,0.497,0.757,0.926,0.942
					C381.929,309.248,381.901,308.888,382.023,308.553z"/>
				<path style="fill:#606060;" d="M430.846,300.686c-0.126,0.955-0.666,1.617-1.458,2.124c-1.199,0.769-2.362,1.597-3.583,2.33
					c-0.922,0.553-1.207,1.151-0.677,2.18c0.61,1.184,1.064,2.448,1.595,3.673c0.49,1.133,0.661,2.276-0.272,3.24
					c-0.878,0.907-1.975,0.642-3.004,0.27c-2.092-0.757-4.204-1.477-6.242-2.362c-1.197-0.52-2.148-0.458-3.227,0.265
					c-1.997,1.337-4.054,2.586-6.116,3.82c-1.067,0.638-2.182,1.231-3.452,1.366c-0.747,0.079-1.407-0.11-1.826-0.828
					c-0.415-0.711-0.37-1.466,0.167-1.982c1.775-1.707,1.981-4.124,2.973-6.181c0.61-1.265,0.171-1.968-0.906-2.603
					c-0.995-0.587-1.933-1.275-2.886-1.932c-1.11-0.766-2.355-1.516-1.964-3.15c0.398-1.66,1.932-1.67,3.216-1.876
					c1.138-0.183,2.306-0.181,3.462-0.24c2.304-0.117,2.313-0.108,3.121-2.4c0.592-1.679,1.124-3.38,1.745-5.048
					c0.437-1.173,0.923-2.367,2.395-2.606c1.576-0.257,2.51,0.722,3.295,1.84c1.387,1.975,2.475,4.132,3.382,6.356
					c0.519,1.274,1.222,1.768,2.594,1.682c1.775-0.111,3.566-0.089,5.343,0.005C430.02,298.709,430.888,299.572,430.846,300.686z
					 M419.678,304.061c-0.357-0.733-0.466-1.795-1.611-1.816c-1.863-0.034-3.73,0.003-5.592,0.09
					c-1.044,0.048-1.088,1.014-1.344,1.745c-0.176,0.503-0.426,1.064,0.184,1.416c1.223,0.706,2.482,1.806,3.861,1.586
					c1.636-0.26,2.994-1.462,4.335-2.485C419.619,304.515,419.614,304.282,419.678,304.061z M416.922,298.232
					c-0.366-1.572-1.077-2.885-2.229-4.406c-0.707,1.709-1.404,2.98-1.383,4.605C414.581,298.583,415.704,298.651,416.922,298.232z
					 M421.988,309.741c-0.233-0.726-0.127-1.546-1.153-1.398c-0.349,0.05-0.764,0.283-0.728,0.617c0.081,0.764,0.876,0.61,1.36,0.86
					C421.528,309.85,421.633,309.798,421.988,309.741z M409.041,310.877c0.911-0.297,1.649-0.402,1.671-1.281
					c0.003-0.128-0.374-0.37-0.585-0.38C409.125,309.166,409.199,309.944,409.041,310.877z"/>
			</g>
		</g>
	</g>
	<g>
		<path style="fill:#DE8676;" d="M191.887,276.952c-2.479,2.629-4.352,5.356-6.429,7.917c-5.492,6.771-9.389,14.382-12.083,22.631
			c-0.379,1.16-0.935,1.672-2.176,1.879c-6.665,1.111-13.306,0.911-19.969,0.009c-5.648-0.764-11.211-1.842-16.656-3.575
			c-6.76-2.151-12.903-5.409-18.557-9.672c-9.575-7.219-17.552-15.871-23.724-26.163c-0.713-1.189-1.356-2.427-1.942-3.683
			c-0.578-1.24-0.453-2.335,0.598-3.417c17.305-17.802,34.934-35.269,53.355-51.925c5.891-5.327,11.719-10.723,17.606-16.055
			c1.42-1.286,2.945-2.46,4.451-3.648c0.461-0.364,0.99-0.68,1.538-0.886c1.105-0.415,1.988,0.186,2.069,1.363
			c0.022,0.322-0.068,0.653-0.12,0.978c-0.126,0.793-0.441,1.522-0.777,2.242c-5.593,11.989-8.51,24.718-10.315,37.734
			c-0.528,3.804-0.492,7.665-0.011,11.49c0.719,5.717,3.41,10.553,7.066,14.849c3.656,4.297,7.914,7.986,12.369,11.441
			c3.564,2.764,7.786,4.178,11.901,5.811C190.569,276.469,191.066,276.645,191.887,276.952z"/>
		<path style="fill:#6BB0EB;" d="M166.161,500c-1.479-2.728-1.679-5.802-2.331-8.747c-3.029-13.699-5.369-27.532-8.024-41.304
			c-0.964-5-2.179-9.952-3.293-14.923c-0.421-1.877-0.437-1.862-2.36-1.649c-7.829,0.866-15.617,1.997-23.365,3.434
			c-11.449,2.124-22.919,4.134-34.369,6.246c-11.646,2.148-23.244,4.531-34.778,7.223c-0.451,0.105-0.906,0.194-1.361,0.276
			c-1.28,0.232-1.345,0.185-1.411-1.114c-0.027-0.529-0.009-1.059-0.009-1.589c0-53.767-17.201-54.341-17.257-108.108
			C37.6,337.82,51.322,299.9,82.844,265.204c1.967-1.721,3.763-2.595,4.982-2.943c1.664-0.475,2.189-0.234,2.912,1.403
			c0.588,1.331,1.142,2.679,1.783,3.985c2.471,5.032,5.83,9.443,9.508,13.645c7.281,8.315,15.797,15.056,25.594,20.154
			c6.769,3.523,13.997,5.521,21.587,6.306c6.084,0.629,12.147,0.6,18.234,0.007c2.803-0.273,4.765-1.278,5.54-4.143
			c0.256-0.947,0.921-1.794,1.12-2.745c0.292-1.397,1.154-1.822,2.396-1.875c3.045-0.128,6.088-0.162,9.13,0.119
			c11.753,1.084,21.109,6.752,29.108,15.097c14.091,14.7,22.43,32.419,27.296,51.943c2.306,9.254,3.684,18.691,5.189,28.1
			c1.58,9.88,2.439,19.835,3.208,29.802c0.234,3.031,0.84,6.022,0.809,9.087c-0.011,1.126-0.367,1.863-1.139,2.576
			c-3.555,3.283-7.373,6.25-11.082,9.349c-9.967,8.325-20.443,15.989-30.909,23.658c-7.964,5.836-15.615,12.058-23.276,18.272
			c-4.837,3.923-10.015,7.389-14.931,11.205c-0.655,0.509-1.506,0.871-1.755,1.794C167.486,500,166.823,500,166.161,500z"/>
		<path style="fill:#E39686;" d="M168.324,192.238c-0.402-0.189-0.568-0.298-0.75-0.347c-3.596-0.968-5.439-3.556-5.167-7.354
			c0.262-3.656,2.205-6.467,4.73-8.909c1.835-1.773,3.996-3.032,6.565-3.492c3.337-0.598,5.856,0.556,7.508,3.479
			c0.782,1.384,0.79,1.408,2.395,0.902c6.874-2.171,13.734-4.383,20.448-7.02c9.295-3.65,18.65-7.152,27.82-11.116
			c1.82-0.787,3.594-1.682,5.392-2.52c0.719-0.335,1.427-0.709,2.173-0.968c1.844-0.64,2.73-0.113,3.086,1.824
			c1.397,7.606,4.294,14.551,8.926,20.779c1.538,2.067,2.816,4.325,4.268,6.458c3.002,4.411,6.803,8.1,10.699,11.697
			c3,2.77,3.411,4.492,1.946,8.292c-0.931,2.415-2.196,4.667-3.42,6.939c-3.201,5.941-6.588,11.782-9.547,17.854
			c-2.683,5.508-4.333,11.218-3.843,17.421c0.12,1.522-0.042,3.04-0.309,4.547c-0.187,1.056-0.516,2.054-1.08,2.964
			c-1.328,2.139-3.437,2.857-5.833,2.023c-1.4-0.487-2.553-1.387-3.745-2.217c-1.673-1.165-1.667-1.189-3.129,0.346
			c-3.014,3.163-5.975,6.378-9.042,9.488c-5.113,5.185-10.192,10.414-16.282,14.508c-3.379,2.271-6.941,4.12-10.992,4.857
			c-5.272,0.959-10.26-0.047-15.07-2.232c-4.316-1.961-8.164-4.634-11.73-7.731c-4.764-4.137-9.051-8.719-12.902-13.721
			c-6.007-7.803-8.165-16.57-7.062-26.316c1.146-10.12,4.373-19.594,8.445-28.832c1.361-3.086,2.884-6.101,4.333-9.148
			C167.525,193.916,167.893,193.144,168.324,192.238z"/>
		<path style="fill:#FFFFFF;" d="M238.069,209.123c4.817-0.056,7.832,2.064,9.775,5.844c0.48,0.933,0.868,1.927,1.178,2.931
			c0.434,1.402-0.072,2.289-1.467,2.744c-1.498,0.489-3.012,0.449-4.46-0.13c-3.682-1.472-6.282-4.032-7.598-7.816
			c-0.129-0.37-0.21-0.766-0.248-1.156c-0.161-1.617,0.437-2.303,2.088-2.412C237.731,209.101,238.128,209.123,238.069,209.123z"/>
		<path style="fill:#E39686;" d="M54.895,500c-3.77-9.693-16.321-42.886-16.31-48.051c0.006-2.729,16.136-3.893,18.583-4.29
			c7.773-1.26,15.55-2.486,23.273-4.031c10.446-2.089,20.901-4.128,31.427-5.778c9.871-1.548,19.746-3.072,29.619-4.609
			c3.072-0.478,6.156-0.886,9.197-1.558c1.943-0.429,2.306-0.269,2.759,1.737c0.86,3.807,1.662,7.628,2.382,11.464
			c3.268,17.43,6.94,34.775,10.73,52.097c0.153,0.699,0.374,1.384,0.558,2.053c0.715,0.105,1.021-0.411,1.403-0.732
			c22.187-18.684,44.906-36.707,67.77-54.549c15.088-11.774,30.601-22.972,46.136-34.144c7.471-5.372,14.941-10.742,22.518-15.966
			c7.121-4.91,14.876-8.315,23.31-10.195c2.978-0.664,6.002-0.999,9.042-1.216c9.704-0.694,19.384-1.84,29.133-1.73
			c8.012,0.091,16.023,0.244,24.034,0.408c1.85,0.038,3.701,0.182,5.511,0.639c0.714,0.18,1.391,0.437,2.009,0.828
			c2.081,1.316,2.241,3.5,0.354,5.107c-0.863,0.736-1.896,1.203-2.926,1.662c-3.53,1.572-7.254,2.489-11.035,3.176
			c-6.912,1.257-13.909,1.796-20.898,2.404c-3.363,0.293-6.726,0.579-10.089,0.879c-0.383,0.034-0.806,0.022-1.104,0.461
			c2.76,0.613,5.5,1.187,8.223,1.838c2.642,0.631,5.191,1.549,7.692,2.617c3.926,1.675,6.645,4.467,8.167,8.461
			c1.65,4.331,3.002,8.761,4.417,13.169c0.768,2.392,1.426,4.82,2.128,7.233c0.243,0.835,0.333,1.694,0.236,2.556
			c-0.256,2.293-2.345,3.373-4.374,2.254c-0.877-0.484-1.594-1.172-2.233-1.946c-1.146-1.388-2.02-2.947-2.849-4.531
			c-1.504-2.875-3.15-5.666-4.821-8.447c-1.9-3.164-4.552-5.247-8.069-6.342c-2.714-0.845-5.42-1.672-8.365-2.001
			c0.065,0.645,0.519,0.765,0.869,0.966c2.642,1.516,5.264,3.064,7.72,4.874c1.946,1.433,3.507,3.193,4.694,5.315
			c1.484,2.653,1.774,5.412,0.721,8.228c-1.668,4.46-3.326,8.931-5.67,13.101c-0.681,1.212-1.381,2.421-2.315,3.46
			c-1.111,1.236-2.37,1.605-3.535,1.052c-1.337-0.635-1.625-1.832-1.568-3.161c0.054-1.269,0.419-2.478,0.861-3.656
			c0.629-1.681,1.081-3.412,1.386-5.169c0.223-1.282,0.466-2.632-0.436-3.806c-0.645,0.04-0.493,0.548-0.563,0.886
			c-0.559,2.712-2.009,5.031-3.344,7.38c-1.537,2.705-3.304,5.272-5.221,7.729c-0.694,0.89-1.444,1.736-2.35,2.411
			c-0.732,0.545-1.552,0.771-2.399,0.212c-0.884-0.583-1.155-1.415-0.885-2.418c0.275-1.022,0.588-2.034,0.867-3.055
			c0.1-0.368,0.283-0.744-0.009-1.259c-1.013-0.132-1.997,0.318-2.986,0.586c-6.128,1.665-12.23,3.426-18.45,4.729
			c-5.179,1.086-10.34,2.268-15.538,3.252c-1.421,0.269-2.378,0.898-3.286,1.93c-5.123,5.816-10.012,11.826-14.784,17.929
			c-6.896,8.82-14.234,17.267-21.486,25.789c-0.461,0.542-1.098,0.983-1.207,1.771C193.977,500,124.436,500,54.895,500z"/>
		<path style="fill:#4C4D4A;" d="M462.192,348.984c2.26,0.402,4.662,0.767,7.034,1.262c13.402,2.794,26.794,5.635,40.104,8.822
			c1.822,0.436,3.646,0.914,5.404,1.539c2.046,0.727,2.469,1.72,1.705,3.628c-0.38,0.948-0.87,1.861-1.367,2.762
			c-9.171,16.626-18.505,33.172-28.486,49.379c-8.863,14.392-17.041,29.123-25.075,43.931c-4.561,8.407-7.971,14.064-12.962,22.253
			c-1.114,1.827-6.743,3.121-8.128,4.781c-2.21,2.65-4.202-0.353-6.24,0.866c-3.836-2.587-4.329-2.077-8.165-4.664
			c-4.028-2.716-8.115-5.354-12.186-8.014c-4.469-2.92-9.197-5.415-14.121-7.583c-2.692-1.185-3.465-1.93-2.319-4.512
			c3.748-8.448,7.609-17.155,11.953-25.341c7.618-14.353,15.81-28.312,23.602-42.58c7.581-13.882,15.66-27.519,24.119-40.949
			c0.826-1.311,1.631-2.634,2.42-3.966C460.048,349.643,460.839,349.035,462.192,348.984z"/>
		<path d="M242.973,211.973c-1.86-1.188-3.721-1.598-5.586-1.999c-0.58-0.125-1.171-0.227-1.728-0.42
			c-0.698-0.243-1.091-0.762-0.922-1.529c0.17-0.77,0.769-1.103,1.484-1.01c1.175,0.154,2.346,0.377,3.499,0.654
			c5.299,1.273,8.82,4.541,10.684,9.63c0.18,0.491,0.342,1.007,0.388,1.522c0.066,0.734-0.267,1.306-1.035,1.458
			c-0.661,0.131-1.168-0.17-1.436-0.786c-0.368-0.845-0.7-1.706-1.05-2.559c-0.125-0.305-0.27-0.596-0.647-0.703
			c-0.527,0.658-1.039,1.342-1.599,1.983c-0.478,0.547-1.034,1.018-1.687,1.36c-0.879,0.461-1.782,0.578-2.619-0.02
			c-0.904-0.647-1.112-1.573-0.856-2.639c0.333-1.385,1.086-2.539,1.954-3.63C242.14,212.88,242.502,212.505,242.973,211.973z"/>
		<path style="fill:#3588CE;" d="M29.242,382.365c0-23.766,11.802-64.912,27.618-78.372c5.858-4.483,12.461-7.207,19.666-8.505
			c8.175-1.473,16.221-1.038,24.004,2.076c7.054,2.822,13.074,7.174,18.407,12.545c6.124,6.168,10.93,13.21,14.753,21.021
			c7.37,15.055,11.825,30.974,14.639,47.422c2.078,12.145,3.171,24.404,4.354,36.654c0.56,5.8,0.859,11.616,1.182,17.431
			c0.119,2.15-0.122,2.594-2.223,3.043c-4.462,0.953-8.944,1.812-13.43,2.647c-11.185,2.082-22.381,4.101-33.563,6.196
			c-15.994,2.996-53.428,10.557-69.505,13.082C33.514,457.861,29.242,403.815,29.242,382.365z"/>
		<path d="M229.841,165.39c-3.147,2.366-6.221,4.658-9.274,6.977c-8.277,6.288-16.44,12.721-24.585,19.178
			c-1.296,1.027-2.637,2-3.985,2.96c-2.316,1.65-4.747,3.13-6.903,5.014c-1.392,1.216-2.134,1.121-3.432-0.157
			c-1.986-1.956-3.687-4.159-5.412-6.341c-0.827-1.046-0.725-2.041,0.054-3.073c1.199-1.588,2.226-3.285,3.109-5.071
			c0.619-1.251,1.142-2.538,1.423-3.905c0.852-4.147-1.833-6.818-5.947-5.792c-4.58,1.142-7.649,4.02-9.195,8.503
			c-0.308,0.893-0.404,1.803-0.411,2.734c-0.011,1.417,0.447,2.514,1.747,3.314c1.478,0.909,1.517,1.813,0.318,3.033
			c-0.556,0.566-1.168,1.077-1.767,1.599c-4.542,3.959-9.086,7.915-13.631,11.869c-0.399,0.347-0.803,0.692-1.224,1.012
			c-1.64,1.247-2.519,1.128-3.54-0.592c-3.703-6.239-6.579-12.801-8.125-19.94c-3.51-16.214,0.098-30.871,9.692-44.14
			c3.698-5.114,8.482-9.265,13.321-13.302c5.669-4.731,11.713-8.87,18.568-11.715c9.368-3.887,19.059-5.513,29.129-3.723
			c8.667,1.541,16.58,4.957,23.656,10.223c2.814,2.095,5.632,4.194,8.329,6.433c7.88,6.541,16.366,12.14,25.552,16.666
			c9.463,4.663,17.445,11.235,24.486,19c5.452,6.013,9.659,12.728,11.63,20.73c1.136,4.612,0.889,9.077-0.932,13.414
			c-2.347,5.59-6.963,8.605-12.565,10.017c-7.577,1.91-14.971,0.789-22.139-2.163c-5.708-2.351-10.659-5.78-15.103-10.06
			c-9.363-9.018-16.953-19.252-22.006-31.287c-0.128-0.305-0.262-0.607-0.411-0.902C230.208,165.79,230.102,165.701,229.841,165.39z
			"/>
		<path style="fill:#FFFFFF;" d="M407.052,458.695c-0.019-0.801,0.329-1.505,0.626-2.212c1.222-2.915,2.525-5.798,4.088-8.546
			c6.355-11.173,11.998-22.723,18.077-34.042c10.298-19.175,20.522-38.389,30.778-57.587c0.198-0.371,0.396-0.745,0.619-1.101
			c0.676-1.079,1.564-1.44,2.866-1.115c4.901,1.222,9.863,2.186,14.738,3.536c7.845,2.172,15.721,4.231,23.583,6.345
			c0.539,0.145,1.102,0.277,1.583,0.542c0.856,0.472,1.112,1.23,0.718,2.148c-0.138,0.321-0.336,0.616-0.512,0.92
			c-7.651,13.257-15.198,26.576-22.99,39.751c-5.575,9.426-11.609,18.578-17.105,28.058c-2.113,3.645-4.254,7.275-6.221,11
			c-4.527,8.575-9.536,16.87-14.527,25.177c-1.086,1.808-2.255,3.563-3.573,5.208c-1.711,2.136-2.791,2.421-5.048,1.028
			c-8.244-5.088-16.675-9.876-24.709-15.303c-0.757-0.511-1.495-1.046-2.112-1.732C407.396,460.175,407.02,459.524,407.052,458.695z
			"/>
		<path style="fill:#4C4D4A;" d="M465.254,388.258c-0.636,2.153-0.566,4.16-0.843,6.111c-0.68,4.801-1.34,9.604-2.171,14.383
			c-0.339,1.945-0.322,1.953,1.438,2.881c3.185,1.68,6.375,3.348,9.557,5.032c0.516,0.273,1.053,0.549,1.484,0.932
			c0.601,0.533,0.795,1.252,0.392,1.996c-0.429,0.791-1.133,1.197-2.022,0.927c-0.696-0.211-1.355-0.563-2.006-0.901
			c-2.998-1.56-6.004-3.106-8.971-4.724c-0.935-0.51-1.372-0.338-1.877,0.589c-3.862,7.1-7.953,14.075-11.552,21.317
			c-0.793,1.596-0.767,1.616,0.809,2.382c2.378,1.155,4.763,2.297,7.141,3.454c1.792,0.872,2.373,1.85,1.78,2.961
			c-0.523,0.979-1.582,1.137-3.321,0.296c-7.404-3.583-14.913-6.964-21.832-11.479c-2.703-1.764-5.516-3.359-8.294-5.006
			c-1.405-0.833-1.819-1.583-1.223-3.096c0.67-1.704,1.49-3.358,2.347-4.979c3.194-6.041,6.589-11.983,9.578-18.123
			c1.386-2.849,3.228-4.893,5.908-6.498c6.619-3.965,13.146-8.083,19.68-12.188c1.299-0.816,2.462-0.976,3.918-0.354
			c7.094,3.033,14.135,6.176,21.048,9.605c0.263,0.13,0.537,0.248,0.777,0.413c0.813,0.56,1.216,1.298,0.774,2.266
			c-0.445,0.974-1.301,1.16-2.228,0.891c-0.698-0.202-1.359-0.547-2.018-0.866c-5.489-2.655-11.015-5.231-16.638-7.592
			C466.419,388.69,465.938,388.52,465.254,388.258z M457.602,412.672c-0.069-0.62-0.525-0.742-0.906-0.946
			c-5.051-2.7-10.018-5.56-15.198-8.014c-1.512-0.716-1.536-0.727-2.281,0.719c-3.265,6.333-6.601,12.628-10.067,18.853
			c-0.393,0.705-0.689,1.466-1.104,2.157c-0.494,0.823-0.231,1.286,0.526,1.767c4.833,3.076,9.667,6.15,14.723,8.855
			c1.312,0.702,1.375,0.676,2.073-0.79c1.327-2.789,2.844-5.474,4.337-8.173c2.418-4.37,4.823-8.748,7.23-13.124
			C457.18,413.527,457.401,413.064,457.602,412.672z M461.326,388.698c-6.369,3.965-12.298,7.657-18.58,11.568
			c5.563,2.667,10.502,5.519,15.803,8.314C459.729,401.984,460.699,395.648,461.326,388.698z"/>
		<path style="fill:#E38B78;" d="M204.883,244.6c-10.204-0.012-18.985-7.635-20.329-17.691c-0.424-3.175,0.169-6.218,1.629-9.048
			c2.922-5.665,7.576-9.045,13.829-10.245c2.835-0.544,5.651-0.527,8.467,0.156c8.232,1.995,12.556,7.637,14.363,15.523
			c0.69,3.012-0.216,5.927-1.283,8.72c-1.246,3.262-3.221,6.078-5.828,8.41C212.653,243.179,209.059,244.661,204.883,244.6z"/>
		<path d="M236.036,195.436c9.692,0.036,18.873,5.806,22.326,14.931c0.426,1.126,0.971,2.309-0.147,3.302
			c-1.18,1.048-2.224,0.159-3.227-0.449c-6.002-3.64-11.658-7.788-17.381-11.839c-1.188-0.841-2.388-1.665-3.564-2.522
			c-0.739-0.538-1.68-1.04-1.336-2.18c0.338-1.119,1.403-1.042,2.311-1.153C235.413,195.478,235.81,195.456,236.036,195.436z"/>
		<path style="fill:#CF6B58;" d="M218.975,250.435c0.523-0.021,1.11,0.297,1.683,0.624c3.281,1.87,6.391,3.999,9.295,6.409
			c2.163,1.796,2.051,3.942-0.267,5.549c-0.58,0.402-0.905,0.898-1.27,1.45c-1.345,2.036-3.282,2.036-4.553,0
			c-2.064-3.308-4.098-6.635-6.128-9.964c-0.307-0.503-0.618-1.038-0.758-1.6C216.649,251.568,217.513,250.455,218.975,250.435z"/>
		<path style="fill:#DE8676;" d="M262.724,500c-0.076-0.454,0.222-0.741,0.479-1.037c7.298-8.399,13.926-17.34,20.97-25.945
			c2.013-2.458,4.054-4.894,6.029-7.383c0.7-0.882,1.522-1.351,2.62-1.595c15.496-3.442,31.013-6.788,46.611-9.741
			c6.763-1.281,13.393-3.126,20.078-4.738c6.878-1.659,13.792-3.173,20.677-4.802c2.638-0.624,5.239-1.39,7.65-2.695
			c1.427-0.772,2.595-1.766,3.504-3.134c1.466-2.207,2.882-4.441,4.169-6.755c7.434-13.363,15.468-26.368,23.526-39.358
			c1.78-2.869,3.678-5.662,5.858-8.25c1.03-1.223,2.163-2.324,3.649-3.001c3.656-1.664,7.294,0.582,7.451,4.596
			c0.067,1.695-0.381,3.278-1.007,4.82c-2.017,4.973-4.431,9.764-6.988,14.469c-6.793,12.499-13.777,24.894-20.425,37.472
			c-2.937,5.557-5.791,11.157-8.44,16.858c-0.713,1.534-0.697,1.569,0.713,2.487c8.986,5.855,17.841,11.897,26.328,18.463
			c2.976,2.303,6.395,3.689,9.9,4.928c1.456,0.515,2.84,0.428,4.253-0.116c1.548-0.597,3.157-1.606,4.496-2.92
			c-0.757-1.177-1.867-2.025-2.899-2.939c-3.176-2.811-6.185-5.79-9.048-8.917c-1.353-1.478-2.496-3.079-3.016-5.064
			c-0.432-1.65-0.309-3.176,0.972-4.408c1.232-1.185,2.682-1.234,4.251-0.7c2.977,1.012,5.599,2.685,8.236,4.328
			c2.488,1.55,2.471,1.573,4.054-0.849c0.761-1.163,1.53-2.321,2.299-3.478c1.366-2.057,1.154-1.497,0.014-3.228
			c-1.565-2.376-3.174-4.723-4.74-7.099c-0.766-1.161-1.446-2.377-1.923-3.689c-0.248-0.681-0.514-1.372-0.632-2.081
			c-0.768-4.619,2.675-5.804,5.551-5.187c1.504,0.323,2.832,1.073,4.107,1.928c1.81,1.214,3.338,2.751,4.985,4.515
			c1.334-2.563,2.55-4.889,3.754-7.221c0.357-0.691-0.213-1.115-0.536-1.574c-1.751-2.49-3.558-4.941-4.998-7.636
			c-0.721-1.349-1.363-2.722-1.636-4.24c-0.521-2.904,0.993-4.964,3.918-5.294c2.145-0.242,4.054,0.398,5.78,1.646
			c2.055,1.485,3.782,3.318,5.402,5.244c3.342,3.973,6.013,8.379,8.233,13.063c0.511,1.079,0.94,2.191,1.138,3.375
			c0.703,4.209-1.064,7.813-4.906,9.979c-1.912,1.078-3.964,1.816-6.073,2.405c-0.564,0.157-1.12,0.342-1.763,0.54
			c0.936,1.856,1.869,3.595,2.233,5.582c0.42,2.297-0.248,4.174-1.881,5.762c-1.818,1.769-4.052,2.724-6.503,3.177
			c-2.007,0.372-4.034,0.641-6.088,0.962c0.031,0.777,0.725,1.077,1.111,1.57c1.896,2.419,1.955,4.836-0.004,7.232
			c-1.85,2.262-3.907,4.352-6.403,5.897c-5.293,3.277-10.484,6.689-15.37,10.558c-1.085,0.859-2.32,1.527-3.487,2.281
			c-0.377,0.244-0.871,0.37-0.923,0.934C372.93,500,317.827,500,262.724,500z"/>
		<path style="fill:#3588CE;" d="M168.586,320.904c-9.418,0.179-21.647-1.645-33.473-5.997c-5.551-2.042-10.717-4.855-15.849-7.749
			c-10.928-6.161-20.611-13.915-29.283-22.942c-2.984-3.106-5.507-6.61-8.052-10.08c-0.506-0.69-0.907-1.46-1.321-2.212
			c-0.359-0.653-0.477-1.374-0.404-2.115c0.121-1.223,0.887-2.117,2.036-2.407c1.115-0.281,2.256,0.166,2.875,1.257
			c3.462,6.103,8.034,11.296,13.085,16.109c9.422,8.98,20.077,16.18,31.711,21.96c8.317,4.131,17.135,6.581,26.326,7.793
			c12.337,1.626,24.569,0.987,36.71-1.633c3.624-0.782,7.154-1.913,10.645-3.157c0.81-0.288,1.62-0.596,2.501-0.574
			c1.235,0.031,2.218,0.752,2.546,1.849c0.359,1.201-0.096,2.409-1.221,3.07c-0.451,0.265-0.965,0.427-1.46,0.609
			C194.914,318.755,183.469,320.597,168.586,320.904z"/>
		<path style="fill:#4C4D4A;" d="M213.888,121.301c0.512-0.027,1.123,0.231,1.752,0.443c3.701,1.247,6.839,3.431,9.837,5.859
			c3.09,2.503,6.009,5.199,8.912,7.908c7.473,6.971,15.923,12.398,25.143,16.807c10.463,5.003,19.948,11.474,27.76,20.2
			c4.223,4.717,7.678,9.943,10.695,15.482c0.126,0.232,0.254,0.467,0.348,0.713c0.605,1.602,0.091,3.119-1.257,3.739
			c-1.288,0.592-2.671,0.105-3.549-1.295c-0.492-0.784-0.93-1.602-1.376-2.414c-6.213-11.31-15.105-19.988-26.083-26.644
			c-4.192-2.542-8.519-4.819-12.935-6.94c-6.966-3.346-13.267-7.683-19.108-12.731c-4.408-3.809-8.538-7.931-13.137-11.521
			c-2.206-1.723-4.545-3.189-7.21-4.105c-0.555-0.191-1.112-0.458-1.58-0.808c-0.965-0.722-1.272-1.952-0.854-3.022
			C211.649,121.948,212.57,121.326,213.888,121.301z"/>
		<path style="fill:#4C4D4A;" d="M196.845,120.509c2.121-0.081,3.289,0.732,3.498,2.226c0.219,1.565-0.706,2.765-2.629,3.089
			c-6.299,1.062-12.092,3.396-17.396,6.908c-12.471,8.258-20.571,19.603-24.1,34.192c-1.021,4.22-1.56,8.449-1.256,12.785
			c0.093,1.319,0.134,2.649,0.088,3.969c-0.064,1.865-1.172,3.055-2.716,3.057c-1.553,0.003-2.529-1.151-2.717-3.061
			c-1.083-10.994,1.246-21.361,6.06-31.164c6.921-14.095,17.863-23.943,32.437-29.736
			C191.003,121.627,194.012,120.806,196.845,120.509z"/>
		<path style="fill:#4C4D4A;" d="M163.906,164.558c0.402-2.652,1.556-5.171,2.97-7.575c4.77-8.107,11.779-13.456,20.584-16.544
			c10.863-3.81,21.684-3.467,32.44,0.447c1.986,0.723,3.923,1.581,5.875,2.394c0.486,0.202,0.974,0.428,1.411,0.719
			c1.203,0.802,1.62,2.061,1.132,3.265c-0.527,1.3-1.762,1.93-3.26,1.521c-0.949-0.259-1.854-0.692-2.764-1.08
			c-3.96-1.689-7.975-3.182-12.255-3.874c-10.275-1.662-19.892,0.065-28.722,5.633c-4.877,3.076-8.43,7.379-10.932,12.555
			c-0.517,1.071-0.902,2.183-1.07,3.385c-0.259,1.862-1.507,2.903-3.036,2.676C164.753,167.853,163.786,166.483,163.906,164.558z"/>
		<path style="fill:#3588CE;" d="M230.475,434.017c-0.014,1.699-0.958,2.859-2.392,3.035c-1.389,0.171-2.689-0.744-2.97-2.333
			c-0.368-2.081-0.598-4.19-0.815-6.294c-0.651-6.318-1.745-12.573-2.622-18.859c-1.288-9.232-2.631-18.458-4.239-27.641
			c-0.844-4.818-1.75-9.625-2.616-14.44c-0.14-0.78-0.286-1.57-0.303-2.358c-0.033-1.517,0.872-2.609,2.242-2.836
			c1.311-0.217,2.634,0.589,2.975,2.05c0.48,2.058,0.777,4.158,1.167,6.237c1.877,10.008,3.566,20.047,4.988,30.131
			c1.533,10.868,3.28,21.706,4.512,32.616C230.431,433.587,230.457,433.85,230.475,434.017z"/>
		<path style="fill:#4C4D4A;" d="M281.613,202.161c-2.934-0.062-5.664-0.602-8.411-0.998c-2.052-0.296-3.949-1.039-5.788-1.975
			c-8.674-4.414-15.651-10.755-21.256-18.661c-3.988-5.626-7.412-11.577-10.276-17.848c-0.327-0.717-0.615-1.475-0.761-2.245
			c-0.255-1.344,0.504-2.545,1.746-2.97c1.183-0.405,2.392,0.005,3.1,1.117c0.281,0.44,0.439,0.958,0.661,1.437
			c3.796,8.197,8.278,15.975,14.297,22.763c5.63,6.35,12.379,11.102,20.488,13.793c2.33,0.773,4.736,1.207,7.183,1.404
			c1.196,0.096,2.366,0.3,3.397,0.96c0.638,0.408,1.147,0.935,1.006,1.781c-0.129,0.771-0.773,1.055-1.403,1.246
			C284.244,202.374,282.855,202.363,281.613,202.161z"/>
		<path style="fill:#4C4D4A;" d="M193.08,180.057c-1.089,0.003-2.192-0.697-2.544-1.661c-0.366-1.002-0.238-1.951,0.489-2.779
			c0.447-0.509,1.054-0.786,1.62-1.125c5.276-3.151,10.766-5.937,15.863-9.396c3.669-2.49,7.25-5.091,10.68-7.9
			c0.459-0.376,0.923-0.769,1.444-1.039c1.136-0.589,2.471-0.318,3.257,0.583c0.867,0.994,0.925,2.37,0.018,3.446
			c-0.548,0.65-1.235,1.192-1.902,1.729c-5.934,4.776-12.184,9.09-18.83,12.824c-2.593,1.457-5.17,2.941-7.75,4.421
			C194.674,179.592,193.92,179.995,193.08,180.057z"/>
		<path style="fill:#4C4D4A;" d="M276.804,185.723c0.004,1.995-1.866,3.293-3.604,2.574c-0.537-0.222-1.028-0.602-1.474-0.986
			c-3.662-3.151-7.332-6.293-10.952-9.491c-3.925-3.468-7.496-7.288-10.881-11.28c-1.361-1.605-1.408-3.114-0.219-4.22
			c1.276-1.187,2.876-1.037,4.303,0.678c6.175,7.419,13.53,13.586,20.842,19.803c0.752,0.64,1.572,1.238,1.857,2.264
			C276.747,185.318,276.777,185.582,276.804,185.723z"/>
		<path style="fill:#DE7562;" d="M333.046,398.178c-1.052-0.025-1.77,0.2-2.496-0.049c-1.202-0.412-1.959-1.342-1.813-2.293
			c0.156-1.011,1.042-1.592,2.437-1.465c2.436,0.222,4.867,0.503,7.299,0.77c6.836,0.75,13.67,1.508,20.438,2.756
			c2.932,0.541,5.786,1.366,8.58,2.405c1.877,0.698,3.567,1.721,5.16,2.918c0.533,0.401,1.053,0.827,1.287,1.472
			c0.291,0.802,0.264,1.601-0.461,2.166c-0.713,0.555-1.538,0.539-2.182-0.074c-3.541-3.371-8.099-4.363-12.627-5.285
			c-6.807-1.385-13.719-2.096-20.624-2.811C336.27,398.504,334.493,398.326,333.046,398.178z"/>
		<path style="fill:#DE7562;" d="M343.743,440.57c0.059,1.005-0.086,1.992-0.397,2.937c-0.405,1.229-1.449,1.856-2.403,1.533
			c-0.944-0.319-1.345-1.14-1.013-2.457c0.281-1.118,0.296-2.22,0.193-3.346c-0.068-0.751-0.468-1.066-1.198-0.928
			c-0.779,0.147-1.564,0.283-2.324,0.5c-3.943,1.124-7.878,2.273-11.817,3.411c-0.827,0.239-1.615,0.551-2.391,0.938
			c-1.101,0.549-2.146,0.096-2.598-0.986c-0.408-0.979-0.049-1.967,1.094-2.403c1.542-0.588,3.14-1.032,4.728-1.492
			c3.684-1.067,7.377-2.104,11.065-3.16c1.155-0.331,2.333-0.518,3.529-0.435c1.759,0.122,2.798,1.017,3.192,2.739
			C343.64,438.452,343.816,439.501,343.743,440.57z"/>
		<path style="fill:#DE7562;" d="M335.708,414.689c0.664,0.109,1.124,0.356,1.572,0.649c6.415,4.205,12.885,8.335,18.638,13.456
			c0.492,0.438,1.006,0.873,1.398,1.394c0.609,0.81,0.534,1.755-0.109,2.332c-0.684,0.614-1.438,0.57-2.198,0.141
			c-0.17-0.096-0.32-0.235-0.467-0.367c-5.374-4.844-11.325-8.902-17.398-12.796c-0.888-0.57-1.772-1.165-2.572-1.849
			c-0.598-0.511-0.724-1.242-0.354-1.991C334.55,414.988,335.151,414.774,335.708,414.689z"/>
		<path style="fill:#4C4D4A;" d="M439.449,455.098c-0.035,1.043-0.946,1.759-1.954,1.529c-0.504-0.115-0.975-0.397-1.444-0.637
			c-3.832-1.952-7.563-4.084-11.245-6.305c-3.058-1.844-6.133-3.66-9.197-5.493c-0.453-0.271-0.932-0.521-1.323-0.867
			c-0.68-0.6-0.807-1.508-0.32-2.132c0.496-0.638,1.151-0.889,1.927-0.525c0.538,0.252,1.058,0.542,1.576,0.833
			c5.88,3.306,11.482,7.086,17.464,10.217c1.113,0.582,2.219,1.178,3.327,1.769C438.942,453.851,439.418,454.36,439.449,455.098z"/>
		<path style="fill:#4C4D4A;" d="M442.15,448.28c0.038,0.953-0.867,1.755-1.843,1.556c-0.44-0.09-0.866-0.322-1.259-0.556
			c-6.418-3.814-12.83-7.637-19.24-11.464c-0.453-0.27-0.906-0.554-1.308-0.892c-0.679-0.572-0.948-1.292-0.439-2.104
			c0.498-0.794,1.241-0.918,2.077-0.585c0.244,0.097,0.472,0.238,0.699,0.373c6.58,3.928,13.159,7.858,19.739,11.786
			C441.321,446.839,442.095,447.256,442.15,448.28z"/>
		<path style="fill:#DE7562;" d="M333.446,404.203c0.188,0.035,0.584,0.078,0.963,0.182c4.964,1.355,9.874,2.888,14.761,4.495
			c0.812,0.267,1.618,0.587,2.373,0.984c1.025,0.539,1.376,1.404,1.046,2.276c-0.352,0.93-1.299,1.346-2.478,0.872
			c-3.067-1.233-6.253-2.091-9.393-3.091c-2.324-0.74-4.683-1.372-7.038-2.011c-0.58-0.157-1.154-0.285-1.622-0.677
			c-0.628-0.526-0.804-1.213-0.532-1.962C331.807,404.499,332.433,404.178,333.446,404.203z"/>
		<path style="fill:#4C4D4A;" d="M412.762,446.468c0.345,0.134,0.795,0.259,1.196,0.475c4.904,2.631,9.529,5.726,14.257,8.65
			c1.037,0.641,1.305,1.546,0.888,2.34c-0.45,0.856-1.417,1.03-2.602,0.391c-0.873-0.47-1.707-1.013-2.546-1.543
			c-3.694-2.332-7.377-4.681-11.205-6.791c-0.521-0.287-1.071-0.546-1.403-1.073c-0.299-0.475-0.378-0.977-0.116-1.507
			C411.524,446.813,412.033,446.564,412.762,446.468z"/>
		<path style="fill:#4C4D4A;" d="M423.621,461.254c-0.027,0.946-0.808,1.593-1.761,1.521c-0.62-0.047-1.111-0.395-1.617-0.697
			c-3.394-2.029-6.786-4.06-10.17-6.105c-0.447-0.27-0.913-0.565-1.246-0.954c-0.522-0.613-0.552-1.348-0.038-1.994
			c0.447-0.563,1.06-0.767,1.766-0.485c0.244,0.097,0.484,0.211,0.71,0.346c3.675,2.2,7.348,4.404,11.021,6.608
			C422.984,459.912,423.584,460.407,423.621,461.254z"/>
		<path style="fill:#4C4D4A;" d="M433.633,418.875c0.012-0.821,0.321-1.55,0.727-2.24c1.135-1.929,2.249-3.871,3.435-5.768
			c0.968-1.548,2.028-1.826,3.676-0.928c2.534,1.382,5.049,2.802,7.525,4.285c1.841,1.103,2.141,2.098,1.198,3.969
			c-1.07,2.126-2.16,4.254-3.699,6.098c-1.428,1.71-2.362,1.993-4.332,0.959c-2.49-1.307-4.896-2.774-7.317-4.209
			C434.053,420.574,433.634,419.823,433.633,418.875z M440.775,413.754c-0.411-0.049-0.624,0.149-0.775,0.393
			c-0.717,1.16-1.418,2.33-2.127,3.495c-0.324,0.533-0.213,0.928,0.333,1.244c1.552,0.9,3.102,1.804,4.635,2.736
			c0.61,0.371,1.072,0.311,1.442-0.302c0.667-1.105,1.313-2.224,1.999-3.317c0.451-0.718,0.251-1.165-0.459-1.542
			c-1.521-0.807-3.023-1.651-4.535-2.476C441.101,413.884,440.899,413.81,440.775,413.754z"/>
	</g>
</g>
</svg>
