<?xml version="1.0" encoding="utf-8"?>
<!-- Generator: Adobe Illustrator 27.5.0, SVG Export Plug-In . SVG Version: 6.00 Build 0)  -->
<svg version="1.1" xmlns="http://www.w3.org/2000/svg" xmlns:xlink="http://www.w3.org/1999/xlink" x="0px" y="0px"
	 viewBox="0 0 2475 1650" style="enable-background:new 0 0 2475 1650;" xml:space="preserve">
<g id="Background">
	<rect style="fill:#FFFFFF;" width="2475" height="1650"/>
</g>
<g id="Illustration">
	<g>
		
			<linearGradient id="SVGID_1_" gradientUnits="userSpaceOnUse" x1="-1395.689" y1="850.47" x2="599.5721" y2="850.47" gradientTransform="matrix(-0.9956 0.0942 0.0899 0.9496 750.5531 -28.6467)">
			<stop  offset="0" style="stop-color:#DAE3FE"/>
			<stop  offset="1" style="stop-color:#E9EFFD"/>
		</linearGradient>
		<path style="fill:url(#SVGID_1_);" d="M1207.982,1421.387c0,0,741.763-61.718,930.253-270.402s92.956-389.904-70.132-428.368
			c-163.088-38.464-195.301-91.466-117.359-174.451c77.942-82.985,171.381-247.028-22.566-384.639
			c-193.948-137.61-377.544,103.786-540.603,89.47c-163.059-14.316-108.98-119.622-313.256-31.098
			C870.044,310.423,897.618,106.36,726.464,104.299c-171.154-2.061-144.87,196.901-331.65,252.473
			c-319.455,95.045-50.365,501.896-101.695,614.463c-51.33,112.567-73.194,468.837,211.226,492.509
			C788.764,1487.415,1207.982,1421.387,1207.982,1421.387z"/>
		<path style="fill:#91B3FA;" d="M244.423,353.875c2.189,228.094,65.254,832.218,660.568,962.909
			c33.257,7.301,65.586-15.69,69.688-49.492c20.688-170.449,15.745-661.487-648.421-966.645
			C287.754,282.956,244.017,311.503,244.423,353.875z"/>
		<path style="fill:#BDD0FB;" d="M175.281,830.582c30.102,176.944,154.325,638.466,633.127,665.878
			c26.749,1.531,49.003-20.357,47.982-47.13c-5.151-135.006-70.135-515.902-624.155-670.293
			C200.116,770.086,169.689,797.712,175.281,830.582z"/>
		<g>
			<path style="fill:#BDD0FB;" d="M1824.429,1460.612c84.916,16.978,193.357-75.6,228.291-176.741
				c35.951-104.083-29.966-147.685-29.457-292.114c0.578-164.067,85.923-188.793,142.375-409.942
				c12.737-49.895,86.443-338.636-4.909-392.758c-84.465-50.041-321.719,93.572-363.302,277.386
				c-29.651,131.068,62.009,186.099,27.002,338.754c-30.717,133.945-111.445,135.883-142.375,265.112
				C1644.399,1227.634,1712.934,1438.32,1824.429,1460.612z"/>
			<path style="fill:#7D97F4;" d="M1830.596,1500.36c-22.891-176.769,21.765-449.481,63.258-647.132
				c44.923-213.99,95.909-388.538,96.418-390.277l7.067,2.074c-0.509,1.736-51.426,176.052-96.29,389.769
				c-41.37,197.076-85.908,468.887-63.15,644.622L1830.596,1500.36z"/>
		</g>
		<g>
			<path style="fill:#91B3FA;" d="M1874.076,1457.724c-104.675-54.541-140.505-241.828-81.003-302.697
				c40.204-41.128,97.859,2.132,153.48-40.501c71.016-54.433,18.775-156.95,74.608-289.906
				c47.515-113.147,161.487-220.213,228.088-198.245c69.717,22.996,106.437,193.617,46.896,296.301
				c-38.719,66.777-97.989,70.056-110.846,132.163c-14.92,72.065,57.162,104.93,57.555,174.796
				C2243.56,1355.137,2012.554,1529.878,1874.076,1457.724z"/>
			<path style="fill:#7D97F4;" d="M1930.562,1505.688c-0.624,0-1.258-0.137-1.858-0.429c-2.119-1.028-3.003-3.578-1.974-5.697
				c138.771-285.953,179.464-617.684,179.859-621.001c0.278-2.339,2.402-4.01,4.737-3.729c2.338,0.278,4.009,2.399,3.729,4.737
				c-0.397,3.332-41.264,336.488-180.655,623.716C1933.664,1504.803,1932.144,1505.688,1930.562,1505.688z"/>
			<path style="fill:#BDD0FB;" d="M2215.272,964.385c-0.42,0-0.843-0.135-1.2-0.412c-0.851-0.664-1.003-1.89-0.341-2.742
				c79.378-101.889,84.539-177.991,74.889-223.89c-10.413-49.533-39.729-75.371-40.024-75.626c-0.815-0.706-0.905-1.94-0.199-2.755
				c0.707-0.816,1.941-0.905,2.755-0.199c1.245,1.078,30.61,26.967,41.292,77.777c9.82,46.708,4.669,124.023-75.63,227.094
				C2216.429,964.127,2215.853,964.385,2215.272,964.385z"/>
			<path style="fill:#BDD0FB;" d="M1864.639,1432.668c-0.623,0-1.235-0.297-1.613-0.849
				c-67.299-98.218-90.251-174.102-68.22-225.542c19.581-45.718,69.021-54.227,69.518-54.308c1.071-0.176,2.067,0.551,2.24,1.615
				c0.173,1.064-0.549,2.068-1.614,2.241c-0.477,0.078-47.868,8.292-66.573,52.038c-21.436,50.13,1.399,124.737,67.87,221.748
				c0.61,0.89,0.383,2.106-0.506,2.715C1865.404,1432.557,1865.02,1432.668,1864.639,1432.668z"/>
		</g>
		<g>
			<path style="fill:#7D97F4;" d="M851.618,698.964H405.659c-14.221,0-25.749-11.528-25.749-25.749V242.619
				c0-14.194,11.486-25.711,25.68-25.749l449.525-1.207c14.301-0.038,25.894,11.585,25.818,25.886l-3.567,431.802
				C877.291,687.519,865.785,698.964,851.618,698.964z"/>
			<path style="fill:#BDD0FB;" d="M829.765,248.622l-398.759,2.455c-14.414,0.089-26.033,11.834-25.966,26.248l2.783,362.155
				c0.066,14.196,11.456,25.742,25.65,26.001l387.444,7.069c14.471,0.264,26.398-11.285,26.601-25.757l8.533-371.679
				C856.255,260.48,844.4,248.532,829.765,248.622z"/>
			
				<linearGradient id="SVGID_00000157292857167712740640000016549969930394335141_" gradientUnits="userSpaceOnUse" x1="490.6777" y1="283.5833" x2="813.5515" y2="283.5833">
				<stop  offset="0" style="stop-color:#DAE3FE"/>
				<stop  offset="1" style="stop-color:#E9EFFD"/>
			</linearGradient>
			<path style="fill:url(#SVGID_00000157292857167712740640000016549969930394335141_);" d="M813.552,282.209v2.749
				c0,4.317-3.499,7.816-7.816,7.816H498.494c-4.317,0-7.816-3.499-7.816-7.816v-2.749c0-4.317,3.499-7.816,7.816-7.816h307.242
				C810.052,274.393,813.552,277.892,813.552,282.209z"/>
			
				<linearGradient id="SVGID_00000085944647479177824160000012791059636597781923_" gradientUnits="userSpaceOnUse" x1="494.952" y1="318.813" x2="779.2827" y2="318.813">
				<stop  offset="0" style="stop-color:#DAE3FE"/>
				<stop  offset="1" style="stop-color:#E9EFFD"/>
			</linearGradient>
			<path style="fill:url(#SVGID_00000085944647479177824160000012791059636597781923_);" d="M779.271,316.787L779.271,316.787
				c-0.222,4.092-3.565,7.317-7.662,7.392l-268.698,4.897c-4.372,0.08-7.958-3.443-7.958-7.815v-0.638
				c0-4.268,3.424-7.747,7.692-7.815l268.698-4.259C775.874,308.478,779.516,312.262,779.271,316.787z"/>
			
				<linearGradient id="SVGID_00000093168660970932878660000014679345736231673219_" gradientUnits="userSpaceOnUse" x1="420.7979" y1="499.7813" x2="837.885" y2="499.7813">
				<stop  offset="0" style="stop-color:#DAE3FE"/>
				<stop  offset="1" style="stop-color:#E9EFFD"/>
			</linearGradient>
			<path style="fill:url(#SVGID_00000093168660970932878660000014679345736231673219_);" d="M806.698,652.269
				c-0.091,0-0.18,0-0.271-0.001l-363.428-4.362c-6.032-0.073-11.666-2.498-15.865-6.828c-4.198-4.331-6.447-10.037-6.332-16.068
				l9.352-255.74c0.112-5.934,2.558-11.533,6.884-15.696c4.326-4.164,10-6.414,16.018-6.275l362.796,7.062
				c12.367,0.24,22.249,10.498,22.029,22.865c0,0.022-0.001,0.043-0.001,0.065l-8.719,252.972
				C828.946,642.424,818.894,652.269,806.698,652.269z M452.612,355.107c-3.809,0-7.405,1.449-10.157,4.097
				c-2.823,2.716-4.418,6.367-4.492,10.284l-9.352,255.74c-0.073,3.865,1.394,7.587,4.133,10.412
				c2.739,2.826,6.414,4.408,10.349,4.454l363.428,4.362c8.049,0.17,14.689-6.362,14.832-14.397l8.719-253.001
				c0.128-8.054-6.313-14.729-14.371-14.886l-362.796-7.062C452.807,355.108,452.71,355.107,452.612,355.107z"/>
			
				<linearGradient id="SVGID_00000099641320856448905860000009774814018348532617_" gradientUnits="userSpaceOnUse" x1="429.5621" y1="400.5342" x2="833.1743" y2="400.5342">
				<stop  offset="0" style="stop-color:#DAE3FE"/>
				<stop  offset="1" style="stop-color:#E9EFFD"/>
			</linearGradient>
			<path style="fill:url(#SVGID_00000099641320856448905860000009774814018348532617_);" d="M829.268,404.44h-395.8
				c-2.157,0-3.906-1.749-3.906-3.906s1.749-3.906,3.906-3.906h395.8c2.157,0,3.906,1.749,3.906,3.906
				S831.425,404.44,829.268,404.44z"/>
		</g>
		<g>
			
				<linearGradient id="SVGID_00000150087901180008346120000009270704567968113541_" gradientUnits="userSpaceOnUse" x1="1203.6118" y1="946.1931" x2="1215.6116" y2="1654.1942">
				<stop  offset="0" style="stop-color:#09005D"/>
				<stop  offset="1" style="stop-color:#1A0F91"/>
			</linearGradient>
			<polygon style="fill:url(#SVGID_00000150087901180008346120000009270704567968113541_);" points="1057.75,1174.63 
				1025.543,1463.49 1399.216,1463.49 1350.545,1174.63 			"/>
			
				<linearGradient id="SVGID_00000018931881450331479260000007988739807772313513_" gradientUnits="userSpaceOnUse" x1="1548.8811" y1="1063.7003" x2="1424.881" y2="1219.7004">
				<stop  offset="0" style="stop-color:#09005D"/>
				<stop  offset="1" style="stop-color:#1A0F91"/>
			</linearGradient>
			<path style="fill:url(#SVGID_00000018931881450331479260000007988739807772313513_);" d="M1479.705,1522.59H932.808
				c-14.858,0-26.015-10.577-23.142-21.938l7.018-27.753c2.11-8.346,11.293-14.474,22.199-14.814l527.228-16.452
				c11.394-0.355,21.483,5.693,23.965,14.367l12.651,44.205C1506.014,1511.689,1494.803,1522.59,1479.705,1522.59z"/>
			
				<linearGradient id="SVGID_00000112628769872944878310000008574819313041910146_" gradientUnits="userSpaceOnUse" x1="1549.0591" y1="-129.7961" x2="1193.0598" y2="878.2033">
				<stop  offset="0" style="stop-color:#09005D"/>
				<stop  offset="1" style="stop-color:#1A0F91"/>
			</linearGradient>
			<path style="fill:url(#SVGID_00000112628769872944878310000008574819313041910146_);" d="M501.127,436.305v741.136
				c0,60.968,48.584,110.826,109.532,112.397c270.699,6.98,967.918,23.906,1225.605,20.107c44.29-0.653,80.168-36.095,81.446-80.371
				c4.969-172.176,13.039-586.202-16.826-778.418c-6.289-40.479-40.457-70.748-81.4-72.057
				c-226.812-7.256-980.899-30.296-1238.466-24.511C536.597,355.587,501.127,391.873,501.127,436.305z"/>
			
				<linearGradient id="SVGID_00000134940071537316904570000008168714600320723372_" gradientUnits="userSpaceOnUse" x1="1923.6735" y1="-274.7351" x2="1679.6737" y2="89.2647">
				<stop  offset="0" style="stop-color:#4042E2"/>
				<stop  offset="1" style="stop-color:#4F52FF"/>
			</linearGradient>
			<path style="fill:url(#SVGID_00000134940071537316904570000008168714600320723372_);" d="M547.631,432.698v704.131
				c0,35.597,28.575,64.602,64.167,65.134l1187.394,17.753c35.287,0.527,64.213-27.863,64.344-63.154l2.404-697.84
				c0.094-25.234-20.01-45.91-45.237-46.524L599.089,382.476C570.874,381.79,547.631,404.475,547.631,432.698z"/>
			<path style="fill:#91B3FA;" d="M1874.355,1248.534c-0.013,0-0.027,0-0.04-0.001l-1326.723-26.857
				c-1.078-0.022-1.935-0.914-1.913-1.992c0.022-1.079,0.959-1.976,1.991-1.913l1326.723,26.857
				c1.078,0.022,1.935,0.915,1.913,1.992C1876.285,1247.685,1875.415,1248.534,1874.355,1248.534z"/>
			<path style="fill:#91B3FA;" d="M1227.213,1465.773c-1.065,0-1.936-0.855-1.952-1.924c-0.015-1.078,0.846-1.965,1.924-1.982
				l22.593-0.33c0.01,0,0.019,0,0.03,0c1.065,0,1.936,0.855,1.952,1.925c0.015,1.078-0.846,1.965-1.924,1.982l-22.593,0.33
				C1227.233,1465.773,1227.223,1465.773,1227.213,1465.773z"/>
			<path style="fill:#91B3FA;" d="M929.914,1507.46c-0.102,0-0.206-0.008-0.31-0.025c-1.065-0.17-1.791-1.171-1.62-2.236
				l3.223-20.187c1.745-10.929,11.044-18.979,22.11-19.141l239.627-3.504c1.074-0.014,1.965,0.846,1.982,1.924
				c0.015,1.078-0.846,1.965-1.924,1.982l-239.627,3.504c-9.164,0.134-16.865,6.8-18.311,15.851l-3.223,20.186
				C931.686,1506.775,930.857,1507.46,929.914,1507.46z"/>
		</g>
		<g>
			<path style="fill:#7D97F4;" d="M692.867,1522.752c-2.659,0-4.813-2.155-4.813-4.813V942.597c0-2.659,2.155-4.813,4.813-4.813
				c2.659,0,4.813,2.155,4.813,4.813v575.342C697.68,1520.598,695.526,1522.752,692.867,1522.752z"/>
			<path style="fill:#7D97F4;" d="M504.879,1522.752c-2.659,0-4.813-2.155-4.813-4.813V942.597c0-2.659,2.155-4.813,4.813-4.813
				c2.659,0,4.813,2.155,4.813,4.813v575.342C509.693,1520.598,507.538,1522.752,504.879,1522.752z"/>
			<path style="fill:#7D97F4;" d="M184.405,1526.402c-0.629,0-1.266-0.124-1.881-0.386c-2.446-1.04-3.587-3.866-2.547-6.313
				l246.143-578.99c1.04-2.446,3.87-3.584,6.313-2.546c2.446,1.04,3.587,3.866,2.547,6.314L188.837,1523.47
				C188.059,1525.302,186.277,1526.402,184.405,1526.402z"/>
			<path style="fill:#7D97F4;" d="M336.445,1526.402c-0.629,0-1.266-0.124-1.881-0.386c-2.446-1.04-3.586-3.866-2.547-6.313
				l246.143-578.99c1.041-2.446,3.869-3.584,6.313-2.546c2.446,1.04,3.586,3.866,2.547,6.314L340.877,1523.47
				C340.098,1525.302,338.317,1526.402,336.445,1526.402z"/>
			<path style="fill:#7D97F4;" d="M704.776,947.892H412.884c-1.297,0-2.348-1.051-2.348-2.348v-8.872
				c0-1.297,1.051-2.348,2.348-2.348h291.893c1.297,0,2.348,1.051,2.348,2.348v8.872
				C707.124,946.841,706.073,947.892,704.776,947.892z"/>
			<path style="fill:#7D97F4;" d="M545.404,1035.942h-152.49c-2.659,0-4.813-2.155-4.813-4.814s2.155-4.813,4.813-4.813h152.49
				c2.659,0,4.813,2.155,4.813,4.813S548.062,1035.942,545.404,1035.942z"/>
			<rect x="346.125" y="1135.817" style="fill:#7D97F4;" width="152.49" height="9.627"/>
			<rect x="300.828" y="1245.319" style="fill:#7D97F4;" width="152.49" height="9.627"/>
			<path style="fill:#7D97F4;" d="M405.816,1364.448h-152.49c-2.659,0-4.814-2.155-4.814-4.813c0-2.659,2.155-4.813,4.814-4.813
				h152.49c2.659,0,4.814,2.155,4.814,4.813C410.63,1362.293,408.475,1364.448,405.816,1364.448z"/>
			<path style="fill:#7D97F4;" d="M359.891,1473.951h-152.49c-2.659,0-4.813-2.155-4.813-4.813s2.154-4.813,4.813-4.813h152.49
				c2.659,0,4.813,2.155,4.813,4.813S362.55,1473.951,359.891,1473.951z"/>
		</g>
		<g>
			<g>
				
					<linearGradient id="SVGID_00000039828427110761715970000015266047761828293023_" gradientUnits="userSpaceOnUse" x1="985.1204" y1="-784.7133" x2="913.1202" y2="-68.7143">
					<stop  offset="0" style="stop-color:#FE7062"/>
					<stop  offset="1" style="stop-color:#FF928E"/>
				</linearGradient>
				<path style="fill:url(#SVGID_00000039828427110761715970000015266047761828293023_);" d="M812.131,954.764
					c-2.111,0-4.058-1.38-4.683-3.508c-0.741-2.524-1.458-5.057-2.153-7.599c-0.71-2.602,0.822-5.287,3.423-5.997
					c2.601-0.71,5.286,0.821,5.997,3.423c0.678,2.483,1.38,4.959,2.104,7.424c0.759,2.587-0.723,5.3-3.31,6.06
					C813.05,954.7,812.586,954.764,812.131,954.764z"/>
				
					<linearGradient id="SVGID_00000137129903330844286270000016108354782203546815_" gradientUnits="userSpaceOnUse" x1="1248.5291" y1="-758.2266" x2="1176.5288" y2="-42.2268">
					<stop  offset="0" style="stop-color:#FE7062"/>
					<stop  offset="1" style="stop-color:#FF928E"/>
				</linearGradient>
				<path style="fill:url(#SVGID_00000137129903330844286270000016108354782203546815_);" d="M804.078,922.608
					c-2.265,0-4.296-1.584-4.776-3.889c-1.068-5.136-2.051-10.354-2.921-15.509c-0.448-2.66,1.344-5.178,4.002-5.627
					c2.672-0.438,5.179,1.343,5.627,4.002c0.849,5.034,1.808,10.13,2.852,15.145c0.549,2.64-1.146,5.226-3.786,5.775
					C804.742,922.575,804.407,922.608,804.078,922.608z M797.739,882.178c-2.465,0-4.583-1.86-4.849-4.366
					c-0.553-5.198-1.016-10.487-1.374-15.72c-0.184-2.69,1.847-5.021,4.537-5.205c2.703-0.17,5.021,1.848,5.205,4.537
					c0.35,5.112,0.802,10.277,1.342,15.354c0.285,2.682-1.656,5.087-4.338,5.372C798.086,882.17,797.912,882.178,797.739,882.178z
					 M795.425,841.321c-2.68,0-4.863-2.163-4.882-4.847c-0.008-1.067-0.011-2.136-0.011-3.205c0-4.169,0.063-8.399,0.186-12.571
					c0.08-2.695,2.349-4.76,5.026-4.736c2.695,0.08,4.815,2.33,4.736,5.026c-0.121,4.076-0.182,8.208-0.182,12.281
					c0,1.046,0.004,2.09,0.011,3.135c0.019,2.697-2.15,4.898-4.847,4.918C795.449,841.321,795.437,841.321,795.425,841.321z
					 M797.112,800.431c-0.146,0-0.294-0.007-0.443-0.02c-2.685-0.24-4.667-2.613-4.426-5.299c0.467-5.216,1.039-10.492,1.699-15.679
					c0.341-2.675,2.785-4.567,5.46-4.227c2.675,0.34,4.568,2.785,4.227,5.459c-0.645,5.068-1.204,10.222-1.66,15.32
					C801.742,798.522,799.611,800.431,797.112,800.431z M802.746,759.912c-0.301,0-0.607-0.028-0.914-0.086
					c-2.65-0.502-4.392-3.056-3.89-5.706c0.973-5.137,2.058-10.333,3.225-15.441c0.6-2.63,3.22-4.276,5.847-3.672
					c2.629,0.6,4.273,3.219,3.672,5.847c-1.14,4.99-2.199,10.065-3.149,15.083C807.094,758.279,805.045,759.912,802.746,759.912z
					 M812.326,720.139c-0.456,0-0.919-0.064-1.379-0.199c-2.587-0.76-4.068-3.474-3.307-6.061
					c1.476-5.023,3.069-10.086,4.734-15.048c0.858-2.557,3.63-3.934,6.182-3.076c2.557,0.857,3.935,3.626,3.076,6.181
					c-1.626,4.847-3.181,9.792-4.623,14.697C816.384,718.76,814.436,720.139,812.326,720.139z M825.792,681.506
					c-0.61,0-1.231-0.115-1.832-0.359c-2.5-1.013-3.704-3.86-2.691-6.359c1.974-4.87,4.066-9.764,6.221-14.546
					c1.106-2.458,3.999-3.556,6.456-2.447c2.46,1.107,3.555,3.998,2.447,6.456c-2.103,4.67-4.146,9.449-6.074,14.204
					C829.549,680.355,827.722,681.506,825.792,681.506z M843.059,644.329c-0.767,0-1.545-0.181-2.27-0.563
					c-2.387-1.256-3.303-4.208-2.047-6.594c2.443-4.643,5.009-9.303,7.626-13.848c1.345-2.335,4.33-3.141,6.668-1.795
					c2.336,1.346,3.14,4.33,1.795,6.668c-2.556,4.438-5.061,8.988-7.447,13.521C846.509,643.38,844.813,644.329,843.059,644.329z
					 M863.912,609.064c-0.923,0-1.857-0.262-2.685-0.809c-2.251-1.486-2.87-4.515-1.385-6.765c2.884-4.368,5.894-8.747,8.949-13.016
					c1.568-2.194,4.617-2.699,6.812-1.13c2.193,1.569,2.699,4.618,1.13,6.812c-2.984,4.171-5.925,8.449-8.741,12.715
					C867.052,608.292,865.498,609.064,863.912,609.064z M888.131,576.04c-1.081,0-2.169-0.358-3.075-1.092
					c-2.093-1.699-2.413-4.775-0.713-6.868c3.299-4.063,6.723-8.123,10.18-12.068c1.777-2.029,4.86-2.232,6.89-0.455
					c2.028,1.777,2.231,4.862,0.455,6.89c-3.376,3.854-6.722,7.82-9.943,11.788C890.96,575.423,889.551,576.04,888.131,576.04z
					 M915.468,545.565c-1.242,0-2.482-0.47-3.435-1.412c-1.916-1.897-1.932-4.989-0.035-6.905
					c3.693-3.731,7.496-7.433,11.306-11.006c1.966-1.844,5.056-1.745,6.901,0.222c1.844,1.967,1.745,5.057-0.222,6.901
					c-3.721,3.489-7.437,7.107-11.045,10.752C917.984,545.082,916.726,545.565,915.468,545.565z M945.642,517.921
					c-1.403,0-2.794-0.601-3.76-1.764c-1.722-2.075-1.436-5.153,0.639-6.876c4.034-3.348,8.18-6.66,12.323-9.844
					c2.139-1.641,5.204-1.24,6.847,0.896c1.643,2.138,1.242,5.203-0.896,6.847c-4.046,3.11-8.096,6.345-12.037,9.616
					C947.846,517.552,946.74,517.921,945.642,517.921z M978.363,493.368c-1.567,0-3.105-0.752-4.049-2.148
					c-1.51-2.234-0.925-5.27,1.308-6.78c4.337-2.933,8.784-5.823,13.218-8.587c2.291-1.426,5.299-0.729,6.727,1.56
					c1.427,2.289,0.728,5.3-1.56,6.727c-4.332,2.701-8.677,5.523-12.913,8.389C980.255,493.096,979.304,493.368,978.363,493.368z
					 M1419.864,478.382c-0.834,0-1.679-0.215-2.453-0.665c-4.418-2.573-8.949-5.098-13.463-7.504
					c-2.379-1.267-3.281-4.225-2.012-6.605c1.268-2.38,4.226-3.279,6.605-2.013c4.622,2.464,9.261,5.048,13.786,7.684
					c2.33,1.357,3.118,4.346,1.761,6.676C1423.18,477.513,1421.545,478.382,1419.864,478.382z M1013.312,472.145
					c-1.735,0-3.413-0.926-4.298-2.557c-1.285-2.372-0.404-5.335,1.966-6.619c4.609-2.498,9.315-4.935,13.989-7.246
					c2.419-1.193,5.346-0.203,6.541,2.213c1.195,2.417,0.204,5.346-2.213,6.541c-4.565,2.256-9.163,4.638-13.663,7.077
					C1014.894,471.956,1014.097,472.145,1013.312,472.145z M1383.522,459.565c-0.679,0-1.368-0.142-2.026-0.443
					c-4.635-2.116-9.392-4.18-14.139-6.134c-2.494-1.026-3.684-3.88-2.658-6.373c1.026-2.495,3.88-3.682,6.373-2.658
					c4.863,2.001,9.734,4.115,14.481,6.283c2.453,1.12,3.533,4.017,2.413,6.469C1387.146,458.505,1385.375,459.565,1383.522,459.565
					z M1050.155,454.464c-1.906,0-3.717-1.123-4.503-2.991c-1.045-2.485,0.122-5.348,2.608-6.394
					c4.804-2.021,9.725-3.982,14.623-5.829c2.522-0.952,5.339,0.324,6.291,2.847c0.951,2.523-0.323,5.339-2.847,6.291
					c-4.783,1.803-9.589,3.719-14.282,5.693C1051.428,454.341,1050.786,454.464,1050.155,454.464z M1345.497,444.438
					c-0.524,0-1.055-0.084-1.577-0.262c-4.845-1.654-9.784-3.236-14.681-4.702c-2.583-0.774-4.05-3.496-3.277-6.078
					c0.774-2.584,3.496-4.046,6.078-3.277c5.014,1.503,10.072,3.122,15.033,4.815c2.552,0.872,3.915,3.646,3.044,6.198
					C1349.424,443.161,1347.527,444.438,1345.497,444.438z M1088.538,440.509c-2.086,0-4.017-1.347-4.663-3.445
					c-0.795-2.577,0.65-5.31,3.226-6.104c5.02-1.55,10.121-3.018,15.162-4.365c2.611-0.699,5.282,0.853,5.977,3.456
					c0.697,2.605-0.851,5.281-3.456,5.977c-4.921,1.316-9.902,2.749-14.805,4.262C1089.5,440.438,1089.015,440.509,1088.538,440.509
					z M1306.158,433.156c-0.368,0-0.742-0.042-1.117-0.13c-4.977-1.164-10.049-2.251-15.075-3.229
					c-2.646-0.515-4.375-3.078-3.86-5.726c0.515-2.647,3.076-4.376,5.726-3.86c5.146,1.001,10.339,2.114,15.436,3.307
					c2.625,0.614,4.256,3.241,3.641,5.867C1310.382,431.637,1308.375,433.156,1306.158,433.156z M1128.181,430.401
					c-2.276,0-4.311-1.598-4.781-3.914c-0.536-2.643,1.173-5.219,3.815-5.755c5.131-1.039,10.352-1.996,15.519-2.841
					c2.666-0.441,5.172,1.37,5.607,4.031c0.435,2.661-1.369,5.171-4.03,5.606c-5.047,0.825-10.146,1.759-15.156,2.774
					C1128.829,430.37,1128.502,430.401,1128.181,430.401z M1265.894,425.803c-0.214,0-0.429-0.014-0.646-0.043
					c-5.06-0.67-10.215-1.255-15.322-1.738c-2.685-0.254-4.655-2.636-4.4-5.32c0.254-2.685,2.616-4.66,5.321-4.401
					c5.226,0.495,10.502,1.093,15.682,1.779c2.673,0.354,4.554,2.808,4.2,5.481C1270.404,424.016,1268.306,425.803,1265.894,425.803
					z M1168.629,424.271c-2.476,0-4.598-1.875-4.852-4.392c-0.272-2.682,1.683-5.077,4.367-5.349
					c5.191-0.525,10.479-0.96,15.721-1.294c2.712-0.175,5.011,1.873,5.183,4.563c0.171,2.691-1.872,5.011-4.563,5.183
					c-5.12,0.325-10.288,0.75-15.358,1.263C1168.959,424.263,1168.793,424.271,1168.629,424.271z M1225.094,422.409
					c-0.057,0-0.114-0.001-0.172-0.003c-4.779-0.165-9.61-0.249-14.358-0.249l-1.053,0.001c-0.005,0-0.01,0-0.013,0
					c-2.691,0-4.875-2.177-4.883-4.869c-0.008-2.697,2.173-4.888,4.869-4.896l1.08-0.001c4.86,0,9.804,0.086,14.695,0.255
					c2.695,0.094,4.804,2.354,4.711,5.049C1229.879,420.332,1227.713,422.409,1225.094,422.409z"/>
				
					<linearGradient id="SVGID_00000064348791596956806900000009728622098879091593_" gradientUnits="userSpaceOnUse" x1="1566.9741" y1="-726.2035" x2="1494.9738" y2="-10.203">
					<stop  offset="0" style="stop-color:#FE7062"/>
					<stop  offset="1" style="stop-color:#FF928E"/>
				</linearGradient>
				<path style="fill:url(#SVGID_00000064348791596956806900000009728622098879091593_);" d="M1447.973,496.3
					c-0.961,0-1.933-0.283-2.783-0.874c-2.11-1.468-4.236-2.917-6.376-4.347c-2.242-1.498-2.845-4.531-1.347-6.773
					c1.498-2.242,4.532-2.844,6.773-1.346c2.19,1.464,4.365,2.946,6.525,4.448c2.214,1.54,2.761,4.583,1.222,6.796
					C1451.038,495.569,1449.518,496.3,1447.973,496.3z"/>
			</g>
			<g>
				
					<linearGradient id="SVGID_00000090253289443011616570000010458448279333076107_" gradientUnits="userSpaceOnUse" x1="1765.8483" y1="-706.205" x2="1693.8481" y2="9.7941">
					<stop  offset="0" style="stop-color:#FE7062"/>
					<stop  offset="1" style="stop-color:#FF928E"/>
				</linearGradient>
				<path style="fill:url(#SVGID_00000090253289443011616570000010458448279333076107_);" d="M1619.77,762.487
					c-2.312,0-4.365-1.648-4.797-4.003c-0.464-2.533-0.952-5.058-1.463-7.576c-0.538-2.643,1.169-5.22,3.812-5.757
					c2.64-0.535,5.22,1.169,5.757,3.812c0.524,2.579,1.023,5.165,1.499,7.761c0.486,2.652-1.269,5.196-3.922,5.683
					C1620.358,762.46,1620.061,762.487,1619.77,762.487z"/>
				
					<linearGradient id="SVGID_00000132085225561192077580000018163729538663000246_" gradientUnits="userSpaceOnUse" x1="1482.1744" y1="-734.7314" x2="1410.1743" y2="-18.7321">
					<stop  offset="0" style="stop-color:#FE7062"/>
					<stop  offset="1" style="stop-color:#FF928E"/>
				</linearGradient>
				<path style="fill:url(#SVGID_00000132085225561192077580000018163729538663000246_);" d="M1214.286,1253.293
					c-2.682,0-4.864-2.165-4.882-4.85c-0.018-2.696,2.153-4.897,4.85-4.915c5.022-0.033,10.121-0.162,15.153-0.381
					c2.724-0.101,4.973,1.971,5.09,4.665s-1.971,4.973-4.665,5.09c-5.151,0.225-10.372,0.357-15.514,0.391
					C1214.308,1253.293,1214.297,1253.293,1214.286,1253.293z M1189.355,1252.725c-0.086,0-0.173-0.002-0.259-0.007
					c-2.371-0.125-4.745-0.268-7.122-0.433c-2.802-0.194-5.596-0.415-8.381-0.663c-2.686-0.239-4.67-2.61-4.431-5.297
					c0.239-2.686,2.604-4.679,5.296-4.43c2.722,0.242,5.451,0.458,8.189,0.647c2.324,0.161,4.643,0.302,6.959,0.423
					c2.693,0.141,4.761,2.439,4.62,5.131C1194.09,1250.704,1191.934,1252.725,1189.355,1252.725z M1254.478,1251.073
					c-2.47,0-4.59-1.866-4.851-4.377c-0.278-2.682,1.669-5.083,4.352-5.361c5.023-0.524,10.086-1.145,15.051-1.849
					c2.68-0.389,5.141,1.478,5.52,4.148c0.379,2.67-1.478,5.141-4.148,5.52c-5.084,0.721-10.269,1.358-15.412,1.893
					C1254.818,1251.065,1254.647,1251.073,1254.478,1251.073z M1149.256,1248.699c-0.239,0-0.482-0.018-0.726-0.054
					c-5.12-0.763-10.274-1.629-15.318-2.573c-2.651-0.497-4.397-3.048-3.901-5.698c0.497-2.651,3.049-4.391,5.698-3.901
					c4.926,0.923,9.96,1.768,14.961,2.514c2.667,0.398,4.507,2.882,4.109,5.549
					C1153.718,1246.958,1151.635,1248.699,1149.256,1248.699z M1294.28,1244.96c-2.272,0-4.308-1.594-4.78-3.907
					c-0.539-2.642,1.166-5.221,3.808-5.761c4.94-1.008,9.919-2.12,14.8-3.306c2.617-0.639,5.261,0.97,5.897,3.591
					c0.637,2.62-0.971,5.26-3.591,5.897c-4.998,1.215-10.096,2.354-15.153,3.386
					C1294.931,1244.928,1294.603,1244.96,1294.28,1244.96z M1109.741,1240.836c-0.392,0-0.791-0.048-1.188-0.147
					c-5.012-1.253-10.059-2.614-14.998-4.045c-2.589-0.751-4.081-3.46-3.33-6.05c0.752-2.588,3.459-4.082,6.049-3.33
					c4.823,1.399,9.751,2.727,14.648,3.952c2.616,0.654,4.207,3.304,3.552,5.921
					C1113.92,1239.355,1111.928,1240.836,1109.741,1240.836z M1333.301,1234.996c-2.087,0-4.018-1.348-4.664-3.445
					c-0.794-2.578,0.651-5.31,3.228-6.104c4.802-1.479,9.635-3.068,14.368-4.72c2.547-0.888,5.331,0.455,6.219,3
					c0.889,2.546-0.454,5.331-3,6.22c-4.846,1.692-9.796,3.319-14.712,4.833C1334.262,1234.926,1333.777,1234.996,1333.301,1234.996
					z M1071.176,1229.176c-0.545,0-1.098-0.092-1.639-0.284c-4.852-1.73-9.741-3.577-14.532-5.489
					c-2.504-0.999-3.724-3.84-2.724-6.345c0.998-2.504,3.832-3.731,6.344-2.724c4.679,1.867,9.453,3.67,14.191,5.359
					c2.54,0.906,3.865,3.699,2.96,6.239C1075.063,1227.93,1073.182,1229.176,1071.176,1229.176z M1371.096,1221.305
					c-1.91,0-3.723-1.127-4.506-2.999c-1.041-2.488,0.133-5.348,2.62-6.388c4.632-1.938,9.293-3.99,13.854-6.099
					c2.446-1.133,5.351-0.065,6.481,2.382c1.132,2.447,0.066,5.349-2.382,6.481c-4.67,2.16-9.442,4.261-14.184,6.244
					C1372.362,1221.183,1371.724,1221.305,1371.096,1221.305z M1033.934,1213.807c-0.698,0-1.406-0.15-2.078-0.466
					c-4.675-2.202-9.36-4.517-13.927-6.88c-2.395-1.239-3.332-4.185-2.092-6.58c1.24-2.395,4.186-3.333,6.58-2.092
					c4.46,2.308,9.036,4.568,13.601,6.718c2.439,1.149,3.485,4.059,2.336,6.498
					C1037.521,1212.772,1035.765,1213.807,1033.934,1213.807z M1407.405,1204.001c-1.74,0-3.423-0.932-4.305-2.572
					c-1.277-2.375-0.386-5.336,1.989-6.613c4.429-2.38,8.873-4.876,13.21-7.417c2.324-1.363,5.318-0.583,6.681,1.745
					c1.363,2.326,0.582,5.317-1.745,6.681c-4.439,2.601-8.988,5.155-13.522,7.593
					C1408.978,1203.813,1408.186,1204.001,1407.405,1204.001z M998.371,1194.884c-0.851,0-1.713-0.223-2.497-0.69
					c-4.422-2.638-8.86-5.397-13.189-8.201c-2.264-1.466-2.911-4.489-1.444-6.752c1.467-2.265,4.49-2.908,6.752-1.444
					c4.229,2.739,8.564,5.434,12.883,8.01c2.315,1.381,3.074,4.378,1.692,6.694
					C1001.655,1194.034,1000.034,1194.884,998.371,1194.884z M1441.891,1183.259c-1.575,0-3.121-0.761-4.062-2.169
					c-1.5-2.241-0.898-5.274,1.343-6.773c4.168-2.789,8.354-5.704,12.439-8.661c2.182-1.579,5.236-1.092,6.819,1.093
					c1.581,2.185,1.092,5.237-1.093,6.818c-4.183,3.027-8.466,6.01-12.735,8.865
					C1443.768,1182.991,1442.824,1183.259,1441.891,1183.259z M1474.227,1159.28c-1.413,0-2.816-0.61-3.781-1.79
					c-1.708-2.087-1.401-5.163,0.686-6.871c3.883-3.178,7.77-6.483,11.553-9.821c2.022-1.784,5.107-1.591,6.892,0.43
					c1.784,2.023,1.592,5.108-0.43,6.892c-3.874,3.418-7.854,6.801-11.83,10.056
					C1476.41,1158.918,1475.315,1159.28,1474.227,1159.28z M1504.118,1132.292c-1.254,0-2.508-0.48-3.462-1.44
					c-1.901-1.912-1.893-5.003,0.019-6.904c3.573-3.554,7.126-7.22,10.561-10.895c1.84-1.97,4.929-2.077,6.901-0.234
					c1.971,1.841,2.076,4.93,0.234,6.9c-3.515,3.763-7.152,7.516-10.81,11.153
					C1506.608,1131.819,1505.363,1132.292,1504.118,1132.292z M1531.278,1102.54c-1.097,0-2.201-0.368-3.112-1.122
					c-2.077-1.719-2.366-4.798-0.646-6.875c3.22-3.888,6.406-7.881,9.466-11.868c1.64-2.139,4.705-2.542,6.846-0.899
					c2.139,1.642,2.542,4.707,0.899,6.846c-3.134,4.081-6.394,8.169-9.691,12.15
					C1534.076,1101.937,1532.682,1102.54,1531.278,1102.54z M1555.452,1070.292c-0.941,0-1.892-0.272-2.73-0.839
					c-2.234-1.51-2.82-4.546-1.309-6.779c2.83-4.184,5.614-8.47,8.276-12.737c1.427-2.287,4.44-2.985,6.727-1.558
					c2.288,1.427,2.986,4.438,1.558,6.727c-2.725,4.368-5.575,8.754-8.472,13.038
					C1558.558,1069.538,1557.019,1070.292,1555.452,1070.292z M1576.394,1035.837c-0.787,0-1.585-0.191-2.325-0.593
					c-2.37-1.286-3.248-4.25-1.961-6.62c2.402-4.426,4.759-8.963,7.002-13.489c1.197-2.416,4.124-3.406,6.543-2.206
					c2.416,1.197,3.404,4.126,2.206,6.543c-2.296,4.634-4.708,9.281-7.169,13.811
					C1579.805,1034.913,1578.126,1035.837,1576.394,1035.837z M1593.891,999.486c-0.634,0-1.278-0.124-1.898-0.385
					c-2.484-1.05-3.648-3.914-2.599-6.398c1.964-4.648,3.866-9.398,5.655-14.12c0.956-2.521,3.773-3.788,6.297-2.835
					c2.521,0.957,3.791,3.774,2.835,6.297c-1.833,4.834-3.781,9.698-5.791,14.457
					C1597.603,998.367,1595.794,999.486,1593.891,999.486z M1607.745,961.626c-0.482,0-0.97-0.071-1.453-0.221
					c-2.575-0.802-4.012-3.539-3.211-6.114c1.497-4.81,2.924-9.709,4.238-14.56c0.705-2.602,3.388-4.136,5.99-3.436
					c2.603,0.706,4.141,3.387,3.436,5.99c-1.347,4.967-2.807,9.984-4.339,14.909
					C1611.754,960.285,1609.826,961.626,1607.745,961.626z M1617.832,922.643c-0.328,0-0.662-0.033-0.996-0.102
					c-2.641-0.547-4.337-3.132-3.79-5.772c1.022-4.933,1.965-9.947,2.805-14.904c0.451-2.659,2.972-4.447,5.628-4
					c2.659,0.449,4.45,2.97,4,5.628c-0.858,5.074-1.824,10.208-2.871,15.257C1622.13,921.056,1620.098,922.643,1617.832,922.643z
					 M1624.096,882.865c-0.176,0-0.354-0.009-0.533-0.029c-2.681-0.291-4.618-2.701-4.327-5.381
					c0.541-4.981,0.999-10.064,1.363-15.106c0.193-2.688,2.514-4.714,5.221-4.519c2.689,0.194,4.713,2.532,4.519,5.221
					c-0.372,5.16-0.841,10.361-1.395,15.459C1628.673,881.011,1626.557,882.865,1624.096,882.865z M1626.527,842.664
					c-0.021,0-0.042,0-0.063,0c-2.697-0.035-4.855-2.249-4.821-4.946c0.023-1.767,0.034-3.531,0.034-5.294
					c0-3.301-0.039-6.594-0.118-9.878c-0.064-2.696,2.069-4.933,4.765-4.998c2.758-0.045,4.933,2.069,4.998,4.765
					c0.079,3.362,0.12,6.731,0.12,10.11c0,1.804-0.011,3.61-0.034,5.419C1631.374,840.519,1629.194,842.664,1626.527,842.664z
					 M1625.093,802.409c-2.511,0-4.645-1.925-4.86-4.474c-0.422-5.016-0.943-10.093-1.551-15.09
					c-0.325-2.677,1.582-5.11,4.259-5.436c2.678-0.325,5.11,1.582,5.436,4.259c0.621,5.116,1.155,10.314,1.587,15.449
					c0.226,2.687-1.769,5.048-4.456,5.274C1625.368,802.403,1625.23,802.409,1625.093,802.409z"/>
				
					<linearGradient id="SVGID_00000114752439624666045410000001667548984900132247_" gradientUnits="userSpaceOnUse" x1="1155.9227" y1="-767.5334" x2="1083.9227" y2="-51.5361">
					<stop  offset="0" style="stop-color:#FE7062"/>
					<stop  offset="1" style="stop-color:#FF928E"/>
				</linearGradient>
				<path style="fill:url(#SVGID_00000114752439624666045410000001667548984900132247_);" d="M964.679,1172.491
					c-1.006,0-2.021-0.31-2.893-0.952c-2.121-1.564-4.226-3.145-6.314-4.747c-2.14-1.64-2.545-4.705-0.904-6.845
					c1.639-2.14,4.706-2.546,6.845-0.904c2.041,1.564,4.096,3.109,6.167,4.635c2.17,1.6,2.633,4.656,1.034,6.828
					C967.656,1171.804,966.177,1172.491,964.679,1172.491z"/>
			</g>
			<g>
				
					<linearGradient id="SVGID_00000085964368644328634360000002333514938281602969_" gradientUnits="userSpaceOnUse" x1="1110.9565" y1="701.0516" x2="1494.9565" y2="1193.0515">
					<stop  offset="0" style="stop-color:#FE7062"/>
					<stop  offset="1" style="stop-color:#FF928E"/>
				</linearGradient>
				<path style="fill:url(#SVGID_00000085964368644328634360000002333514938281602969_);" d="M986.585,1059.91
					c1.345,1.648,3.589,2.262,5.586,1.528l56.974-20.952c22.46,17.297,47.84,31.139,75.43,40.622l13.896,59.052
					c0.487,2.072,2.235,3.605,4.352,3.82l72.443,7.339c2.118,0.214,4.137-0.939,5.03-2.869l25.456-55.067
					c28.932-3.758,56.571-12.227,82.044-24.67l51.615,31.952c1.809,1.12,4.13,0.969,5.778-0.376l56.415-46.036
					c1.649-1.346,2.263-3.589,1.528-5.586l-20.952-56.973c17.298-22.46,31.139-47.841,40.621-75.431l59.053-13.896
					c2.071-0.487,3.605-2.235,3.819-4.352l7.339-72.444c0.215-2.117-0.938-4.137-2.87-5.029l-55.067-25.456
					c-3.757-28.932-12.226-56.572-24.67-82.043l31.952-51.616c1.119-1.808,0.968-4.13-0.377-5.778l-46.036-56.414
					c-1.345-1.65-3.589-2.262-5.585-1.528l-56.974,20.952c-22.459-17.299-47.84-31.139-75.43-40.622l-13.896-59.053
					c-0.488-2.071-2.235-3.605-4.352-3.82l-72.445-7.338c-2.117-0.215-4.137,0.938-5.029,2.869l-25.456,55.066
					c-28.932,3.756-56.572,12.227-82.044,24.67l-51.615-31.951c-1.809-1.121-4.131-0.969-5.779,0.376l-56.414,46.036
					c-1.648,1.345-2.262,3.588-1.528,5.586l20.951,56.973c-17.298,22.46-31.139,47.841-40.621,75.431l-59.053,13.896
					c-2.07,0.486-3.605,2.235-3.819,4.352l-7.339,72.443c-0.214,2.117,0.938,4.137,2.869,5.031l55.066,25.456
					c3.758,28.93,12.227,56.57,24.67,82.043l-31.951,51.615c-1.12,1.809-0.969,4.129,0.376,5.779L986.585,1059.91z"/>
				
					<linearGradient id="SVGID_00000083795555673321651870000016397605067509385346_" gradientUnits="userSpaceOnUse" x1="1574.2141" y1="-134.8975" x2="1434.2144" y2="237.1024">
					<stop  offset="0" style="stop-color:#FF928E"/>
					<stop  offset="1" style="stop-color:#FEB3B1"/>
				</linearGradient>
				<path style="fill:url(#SVGID_00000083795555673321651870000016397605067509385346_);" d="M1211.121,898.147
					c-14.621,0-28.8-4.664-40.75-13.544c-14.699-10.923-24.265-26.916-26.934-45.034c-2.67-18.117,1.875-36.19,12.798-50.89
					c10.923-14.699,26.916-24.264,45.034-26.934c18.119-2.669,36.191,1.874,50.89,12.798c14.699,10.923,24.265,26.916,26.934,45.034
					c5.512,37.399-20.432,72.312-57.832,77.824l0,0C1217.873,897.9,1214.485,898.147,1211.121,898.147z M1211.394,768.811
					c-2.982,0-5.982,0.218-8.986,0.661c-16.053,2.366-30.224,10.842-39.903,23.866c-9.678,13.025-13.706,29.038-11.34,45.092
					c2.366,16.053,10.842,30.223,23.866,39.902c13.024,9.679,29.039,13.706,45.091,11.341c33.139-4.885,56.126-35.818,51.243-68.957
					c-2.366-16.053-10.842-30.224-23.866-39.903C1236.912,772.944,1224.347,768.811,1211.394,768.811z"/>
				
					<linearGradient id="SVGID_00000134937091598276585420000018199968234667866541_" gradientUnits="userSpaceOnUse" x1="1574.8558" y1="-134.6554" x2="1434.8555" y2="237.3462">
					<stop  offset="0" style="stop-color:#FF928E"/>
					<stop  offset="1" style="stop-color:#FEB3B1"/>
				</linearGradient>
				<path style="fill:url(#SVGID_00000134937091598276585420000018199968234667866541_);" d="M1212.514,1006.158
					c-5.967,0-11.977-0.3-18.038-0.914l0,0c-12.614-1.278-25.068-3.889-37.018-7.761c-0.826-0.267-1.351-1.033-1.352-1.856
					c0-0.2,0.031-0.403,0.096-0.604c0.332-1.025,1.433-1.591,2.459-1.256c11.688,3.786,23.869,6.34,36.208,7.589
					c95.336,9.652,180.716-60.034,190.371-155.349c0.602-5.934,0.896-11.83,0.895-17.671
					c-0.015-87.985-66.863-163.646-156.244-172.7c-95.334-9.65-180.716,60.034-190.372,155.348
					c-0.595,5.876-0.891,11.76-0.889,17.628c0.006,25.431,5.575,50.578,16.397,73.615c0.126,0.269,0.186,0.552,0.185,0.831
					c0,0.733-0.415,1.435-1.122,1.768c-0.977,0.458-2.14,0.039-2.599-0.937c-11.066-23.557-16.761-49.271-16.767-75.273
					c-0.002-6,0.299-12.016,0.908-18.024c9.874-97.458,97.199-168.704,194.651-158.843c91.391,9.258,159.742,86.62,159.757,176.583
					c0.001,5.973-0.299,12-0.914,18.068C1379.868,937.799,1302.484,1006.158,1212.514,1006.158z"/>
			</g>
		</g>
		<g>
			
				<linearGradient id="SVGID_00000002364213840819764360000018262240477933166505_" gradientUnits="userSpaceOnUse" x1="1663.6211" y1="476.1956" x2="1674.7358" y2="874.4813">
				<stop  offset="0" style="stop-color:#FE7062"/>
				<stop  offset="1" style="stop-color:#FF928E"/>
			</linearGradient>
			<path style="fill:url(#SVGID_00000002364213840819764360000018262240477933166505_);" d="M1596.451,647.437l19.167-8.831
				c8.26,5.375,17.437,9.473,27.259,11.999l6.443,20.081c0.226,0.705,0.874,1.188,1.614,1.204l25.307,0.547
				c0.74,0.016,1.408-0.439,1.664-1.133l7.304-19.784c9.923-2.1,19.268-5.796,27.752-10.81l18.767,9.651
				c0.658,0.338,1.458,0.222,1.992-0.29l18.282-17.508c0.534-0.512,0.685-1.306,0.375-1.978l-8.83-19.167
				c5.376-8.26,9.473-17.437,11.999-27.26l20.082-6.443c0.704-0.226,1.188-0.874,1.204-1.613l0.547-25.308
				c0.016-0.739-0.439-1.408-1.133-1.664l-19.784-7.304c-2.099-9.923-5.796-19.268-10.81-27.752l9.651-18.768
				c0.338-0.658,0.222-1.458-0.29-1.992l-17.508-18.282c-0.511-0.535-1.306-0.685-1.978-0.376l-19.167,8.831
				c-8.26-5.376-17.437-9.473-27.259-11.999l-6.443-20.082c-0.226-0.704-0.874-1.188-1.613-1.204l-25.308-0.547
				c-0.739-0.016-1.408,0.439-1.664,1.133l-7.304,19.784c-9.923,2.099-19.268,5.796-27.752,10.81l-18.767-9.651
				c-0.658-0.339-1.458-0.222-1.992,0.29l-18.282,17.508c-0.534,0.512-0.685,1.306-0.376,1.978l8.831,19.167
				c-5.376,8.26-9.473,17.437-11.999,27.259l-20.082,6.443c-0.704,0.226-1.188,0.874-1.203,1.613l-0.547,25.307
				c-0.016,0.74,0.439,1.408,1.133,1.664l19.784,7.304c2.099,9.922,5.796,19.267,10.81,27.752l-9.65,18.768
				c-0.339,0.658-0.222,1.458,0.29,1.992l17.508,18.282C1594.985,647.596,1595.779,647.747,1596.451,647.437z"/>
			
				<linearGradient id="SVGID_00000142172025479089009260000003130389473803465871_" gradientUnits="userSpaceOnUse" x1="1992.825" y1="-736.6796" x2="1856.8251" y2="-196.6812">
				<stop  offset="0" style="stop-color:#FF928E"/>
				<stop  offset="1" style="stop-color:#FEB3B1"/>
			</linearGradient>
			<path style="fill:url(#SVGID_00000142172025479089009260000003130389473803465871_);" d="M1665.943,585.486
				c-4.535,0-8.987-1.27-12.925-3.737c-5.53-3.465-9.379-8.876-10.839-15.235c-1.46-6.36-0.357-12.907,3.109-18.438
				c3.464-5.529,8.875-9.379,15.235-10.839c13.136-3.017,26.263,5.217,29.277,18.345c1.46,6.36,0.356,12.907-3.109,18.438
				c-3.464,5.529-8.875,9.378-15.235,10.838l0,0C1669.624,585.278,1667.776,585.486,1665.943,585.486z M1665.99,540.522
				c-1.516,0-3.055,0.17-4.594,0.523c-5.343,1.227-9.888,4.461-12.8,9.106c-2.911,4.646-3.837,10.147-2.611,15.49
				s4.46,9.888,9.106,12.8c4.645,2.91,10.149,3.837,15.49,2.611l0,0c5.343-1.226,9.888-4.46,12.799-9.105
				c2.911-4.645,3.838-10.147,2.612-15.49C1683.813,546.965,1675.34,540.522,1665.99,540.522z"/>
			<g>
				<g style="opacity:0.64;">
					
						<linearGradient id="SVGID_00000036934769481071688680000012105335331701210278_" gradientUnits="userSpaceOnUse" x1="1477.8615" y1="503.9941" x2="1665.8615" y2="835.9937">
						<stop  offset="0" style="stop-color:#FE7062"/>
						<stop  offset="1" style="stop-color:#FF928E"/>
					</linearGradient>
					<path style="fill:url(#SVGID_00000036934769481071688680000012105335331701210278_);" d="M1552.466,640.333
						c-1.591,0-3.151-0.777-4.088-2.207c-1.469-2.24-2.894-4.559-4.237-6.893c-1.346-2.336-0.542-5.322,1.796-6.667
						c2.339-1.346,5.323-0.541,6.667,1.796c1.25,2.171,2.576,4.328,3.941,6.41c1.478,2.255,0.849,5.282-1.407,6.76
						C1554.313,640.074,1553.384,640.333,1552.466,640.333z"/>
					
						<linearGradient id="SVGID_00000178176905264708263340000016151224047037421184_" gradientUnits="userSpaceOnUse" x1="1570.0751" y1="451.7767" x2="1758.0753" y2="783.7765">
						<stop  offset="0" style="stop-color:#FE7062"/>
						<stop  offset="1" style="stop-color:#FF928E"/>
					</linearGradient>
					<path style="fill:url(#SVGID_00000178176905264708263340000016151224047037421184_);" d="M1537.683,610.143
						c-2.028,0-3.923-1.273-4.618-3.299c-1.604-4.676-2.981-9.5-4.092-14.341l-0.343-1.533c-0.578-2.634,1.089-5.237,3.724-5.814
						c2.632-0.58,5.237,1.09,5.814,3.724l0.322,1.44c1.036,4.508,2.318,9.001,3.812,13.355c0.875,2.551-0.484,5.328-3.033,6.203
						C1538.742,610.058,1538.208,610.143,1537.683,610.143z M1530.3,569.148c-2.641,0-4.813-2.107-4.879-4.761
						c-0.029-1.155-0.043-2.309-0.043-3.46c0-4.334,0.205-8.719,0.609-13.03c0.252-2.685,2.633-4.655,5.318-4.406
						c2.685,0.253,4.657,2.633,4.406,5.318c-0.377,4.01-0.568,8.088-0.568,12.119c0,1.071,0.012,2.143,0.039,3.218
						c0.068,2.696-2.064,4.935-4.76,5.002C1530.382,569.147,1530.34,569.148,1530.3,569.148z M1535.72,527.852
						c-0.455,0-0.917-0.064-1.376-0.198c-2.588-0.759-4.07-3.472-3.311-6.059c1.543-5.259,3.415-10.483,5.563-15.528
						c1.058-2.481,3.928-3.632,6.406-2.58c2.481,1.057,3.636,3.924,2.579,6.406c-2,4.695-3.741,9.557-5.177,14.45
						C1539.779,526.471,1537.832,527.852,1535.72,527.852z M1553.416,490.152c-0.937,0-1.884-0.27-2.721-0.832
						c-2.237-1.505-2.831-4.539-1.326-6.777c3.059-4.547,6.419-8.96,9.985-13.118c1.757-2.046,4.839-2.28,6.885-0.526
						c2.046,1.756,2.282,4.839,0.526,6.885c-3.32,3.87-6.448,7.978-9.295,12.21C1556.529,489.395,1554.986,490.152,1553.416,490.152
						z M1581.674,459.566c-1.438,0-2.863-0.632-3.827-1.847c-1.677-2.111-1.324-5.183,0.789-6.859
						c4.289-3.405,8.828-6.59,13.488-9.469c2.298-1.416,5.303-0.705,6.72,1.59c1.416,2.295,0.705,5.303-1.59,6.72
						c-4.336,2.676-8.558,5.64-12.548,8.807C1583.809,459.22,1582.738,459.566,1581.674,459.566z M1617.88,439.029
						c-1.973,0-3.831-1.203-4.569-3.159c-0.953-2.522,0.32-5.34,2.843-6.293c5.114-1.931,10.409-3.585,15.737-4.914
						c2.614-0.65,5.266,0.939,5.919,3.556c0.652,2.616-0.939,5.266-3.556,5.919c-4.961,1.238-9.889,2.777-14.65,4.575
						C1619.036,438.927,1618.453,439.029,1617.88,439.029z M1674.553,430.467c-0.103,0-0.206-0.003-0.311-0.01
						c-2.692-0.169-5.428-0.255-8.132-0.255c-2.404,0.042-4.817,0.066-7.211,0.199c-2.672,0.135-4.996-1.911-5.146-4.604
						c-0.15-2.692,1.911-4.996,4.604-5.146c2.575-0.143,5.177-0.248,7.755-0.215c2.905,0,5.846,0.092,8.742,0.274
						c2.691,0.169,4.736,2.487,4.567,5.179C1679.259,428.478,1677.109,430.467,1674.553,430.467z"/>
					
						<linearGradient id="SVGID_00000000921859862125209710000012228163652050106046_" gradientUnits="userSpaceOnUse" x1="1680.4126" y1="389.2964" x2="1868.4128" y2="721.2963">
						<stop  offset="0" style="stop-color:#FE7062"/>
						<stop  offset="1" style="stop-color:#FF928E"/>
					</linearGradient>
					<path style="fill:url(#SVGID_00000000921859862125209710000012228163652050106046_);" d="M1707.655,436.766
						c-0.498,0-1.004-0.076-1.504-0.238c-2.371-0.767-4.801-1.476-7.225-2.109c-2.609-0.682-4.171-3.349-3.49-5.958
						c0.682-2.609,3.347-4.169,5.958-3.49c2.604,0.681,5.215,1.443,7.763,2.268c2.566,0.83,3.973,3.583,3.142,6.148
						C1711.631,435.451,1709.716,436.766,1707.655,436.766z"/>
				</g>
				<g style="opacity:0.64;">
					
						<linearGradient id="SVGID_00000177476902741702628040000017985740792257748911_" gradientUnits="userSpaceOnUse" x1="1713.7684" y1="370.4079" x2="1901.7692" y2="702.4086">
						<stop  offset="0" style="stop-color:#FE7062"/>
						<stop  offset="1" style="stop-color:#FF928E"/>
					</linearGradient>
					<path style="fill:url(#SVGID_00000177476902741702628040000017985740792257748911_);" d="M1788.907,508.366
						c-1.838,0-3.598-1.042-4.427-2.818c-1.054-2.257-2.193-4.519-3.382-6.723c-1.282-2.373-0.397-5.335,1.977-6.615
						c2.373-1.28,5.336-0.396,6.615,1.977c1.28,2.369,2.503,4.802,3.637,7.23c1.141,2.443,0.085,5.349-2.358,6.49
						C1790.302,508.218,1789.599,508.366,1788.907,508.366z"/>
					
						<linearGradient id="SVGID_00000121976641837349361650000004730415348959423118_" gradientUnits="userSpaceOnUse" x1="1618.1368" y1="424.5608" x2="1806.1367" y2="756.5602">
						<stop  offset="0" style="stop-color:#FE7062"/>
						<stop  offset="1" style="stop-color:#FF928E"/>
					</linearGradient>
					<path style="fill:url(#SVGID_00000121976641837349361650000004730415348959423118_);" d="M1665.867,701.659
						c-5.219,0-10.497-0.298-15.687-0.884c-2.68-0.303-4.606-2.721-4.304-5.401c0.303-2.681,2.726-4.603,5.4-4.304
						c4.828,0.546,9.737,0.823,14.59,0.823l0.473-0.001c0.01,0,0.019,0,0.029,0c2.683,0,4.866,2.168,4.882,4.855
						c0.015,2.696-2.158,4.895-4.855,4.91L1665.867,701.659z M1691.668,699.178c-2.293,0-4.339-1.624-4.789-3.96
						c-0.51-2.648,1.224-5.209,3.871-5.719c1.503-0.289,3.007-0.608,4.51-0.953c3.407-0.783,6.817-1.709,10.131-2.751
						c2.577-0.811,5.314,0.622,6.122,3.193c0.809,2.573-0.621,5.314-3.193,6.122c-3.559,1.12-7.217,2.112-10.873,2.953
						c-1.617,0.372-3.234,0.713-4.849,1.025C1692.286,699.15,1691.974,699.178,1691.668,699.178z M1730.287,685.471
						c-1.74,0-3.424-0.933-4.306-2.573c-1.276-2.377-0.384-5.337,1.991-6.613c4.416-2.372,8.742-5.03,12.857-7.902
						c2.209-1.54,5.253-1.002,6.798,1.21c1.543,2.211,1.001,5.255-1.21,6.798c-4.424,3.087-9.076,5.946-13.824,8.497
						C1731.858,685.284,1731.067,685.471,1730.287,685.471z M1763.005,660.831c-1.23,0-2.461-0.462-3.411-1.39
						c-1.929-1.884-1.966-4.975-0.082-6.904c3.5-3.584,6.833-7.415,9.905-11.388c1.649-2.133,4.714-2.524,6.85-0.875
						c2.132,1.65,2.524,4.717,0.874,6.85c-3.302,4.268-6.883,8.384-10.643,12.235
						C1765.542,660.339,1764.273,660.831,1763.005,660.831z M1786.889,627.55c-0.747,0-1.505-0.172-2.215-0.535
						c-2.402-1.225-3.356-4.166-2.129-6.568c2.282-4.472,4.328-9.122,6.08-13.824c0.942-2.526,3.753-3.811,6.281-2.868
						c2.526,0.941,3.811,3.753,2.869,6.281c-1.883,5.049-4.081,10.047-6.532,14.85
						C1790.378,626.577,1788.665,627.55,1786.889,627.55z M1799.811,588.661c-0.272,0-0.547-0.023-0.825-0.071
						c-2.658-0.452-4.447-2.973-3.994-5.632c0.842-4.952,1.402-10.003,1.664-15.008c0.141-2.694,2.425-4.787,5.13-4.621
						c2.693,0.141,4.762,2.438,4.621,5.13c-0.281,5.383-0.884,10.812-1.79,16.137
						C1804.214,586.978,1802.148,588.661,1799.811,588.661z M1800.458,547.685c-2.403,0-4.497-1.775-4.832-4.223
						c-0.532-3.894-1.251-7.826-2.137-11.686c-0.242-1.052-0.496-2.1-0.762-3.142c-0.665-2.613,0.914-5.271,3.527-5.936
						c2.612-0.668,5.271,0.914,5.936,3.528c0.283,1.115,0.556,2.237,0.815,3.365c0.951,4.144,1.723,8.366,2.295,12.55
						c0.365,2.671-1.505,5.133-4.176,5.499C1800.9,547.67,1800.677,547.685,1800.458,547.685z"/>
					
						<linearGradient id="SVGID_00000014592273899048760400000012103622955983636671_" gradientUnits="userSpaceOnUse" x1="1507.5614" y1="487.1755" x2="1695.5618" y2="819.1756">
						<stop  offset="0" style="stop-color:#FE7062"/>
						<stop  offset="1" style="stop-color:#FF928E"/>
					</linearGradient>
					<path style="fill:url(#SVGID_00000014592273899048760400000012103622955983636671_);" d="M1625.772,695.556
						c-0.481,0-0.97-0.071-1.453-0.221c-2.551-0.794-5.124-1.677-7.648-2.625c-2.525-0.947-3.803-3.762-2.855-6.286
						c0.947-2.524,3.765-3.805,6.286-2.855c2.351,0.882,4.746,1.704,7.12,2.442c2.574,0.802,4.012,3.539,3.211,6.114
						C1629.781,694.216,1627.853,695.556,1625.772,695.556z"/>
				</g>
			</g>
			
				<linearGradient id="SVGID_00000096766501176114803030000002828334926923778178_" gradientUnits="userSpaceOnUse" x1="1992.8339" y1="-736.6837" x2="1856.8336" y2="-196.6844">
				<stop  offset="0" style="stop-color:#FF928E"/>
				<stop  offset="1" style="stop-color:#FEB3B1"/>
			</linearGradient>
			<path style="fill:url(#SVGID_00000096766501176114803030000002828334926923778178_);" d="M1666.026,624.081
				c-0.466,0-0.932-0.005-1.399-0.014c-4.149-0.09-8.287-0.586-12.316-1.475c-0.332-0.073-0.664-0.15-0.994-0.229
				c-0.898-0.214-1.502-1.016-1.501-1.9c0-0.149,0.017-0.3,0.053-0.452c0.25-1.05,1.31-1.696,2.352-1.448
				c4.072,0.97,8.275,1.507,12.49,1.597l0,0c0.432,0.01,0.868,0.014,1.297,0.014c31.077,0.003,56.846-24.203,58.968-55.04
				c0.064-0.932,0.106-1.866,0.126-2.809c0.009-0.43,0.014-0.858,0.014-1.286c0.005-32.018-25.684-58.409-57.849-59.104
				c-32.603-0.703-59.687,25.239-60.391,57.835c-0.01,0.429-0.014,0.858-0.014,1.286c0,10.273,2.663,20.36,7.735,29.248
				c0.175,0.306,0.257,0.638,0.257,0.967c0,0.678-0.354,1.337-0.985,1.697c-0.937,0.535-2.13,0.207-2.665-0.728
				c-5.408-9.478-8.248-20.231-8.248-31.183c0-0.457,0.005-0.915,0.014-1.371c0.752-34.749,29.619-62.411,64.38-61.657
				c34.291,0.742,61.677,28.876,61.671,63.009c0,0.457-0.005,0.914-0.014,1.371c-0.364,16.833-7.262,32.517-19.422,44.162
				C1697.764,617.893,1682.342,624.081,1666.026,624.081z"/>
		</g>
		<g>
			<g style="opacity:0.64;">
				
					<linearGradient id="SVGID_00000073683502457884214530000014632707157302800316_" gradientUnits="userSpaceOnUse" x1="574.5574" y1="1109.6034" x2="579.7682" y2="1109.6034">
					<stop  offset="0" style="stop-color:#FE7062"/>
					<stop  offset="1" style="stop-color:#FF928E"/>
				</linearGradient>
				<path style="fill:url(#SVGID_00000073683502457884214530000014632707157302800316_);" d="M577.814,1113.909
					c-0.844,0-1.623-0.552-1.873-1.404c-0.463-1.577-0.903-3.164-1.32-4.76c-0.272-1.044,0.354-2.11,1.397-2.383
					c1.042-0.274,2.11,0.354,2.383,1.397c0.405,1.557,0.835,3.106,1.287,4.645c0.304,1.035-0.289,2.12-1.324,2.424
					C578.182,1113.883,577.996,1113.909,577.814,1113.909z"/>
				
					<linearGradient id="SVGID_00000101792389410189055730000018086100922851538321_" gradientUnits="userSpaceOnUse" x1="569.3345" y1="1000.4709" x2="816.9247" y2="1000.4709">
					<stop  offset="0" style="stop-color:#FE7062"/>
					<stop  offset="1" style="stop-color:#FF928E"/>
				</linearGradient>
				<path style="fill:url(#SVGID_00000101792389410189055730000018086100922851538321_);" d="M574.37,1099.896
					c-0.913,0-1.729-0.643-1.914-1.573c-0.625-3.143-1.165-6.351-1.605-9.535c-0.148-1.068,0.599-2.054,1.668-2.202
					c1.053-0.143,2.053,0.598,2.202,1.668c0.429,3.108,0.956,6.24,1.567,9.307c0.21,1.059-0.477,2.087-1.534,2.297
					C574.625,1099.884,574.496,1099.896,574.37,1099.896z M571.755,1080.976c-1.01,0-1.864-0.777-1.945-1.8
					c-0.251-3.198-0.41-6.446-0.475-9.656c-0.021-1.078,0.835-1.97,1.914-1.992c1.09,0.008,1.97,0.835,1.992,1.914
					c0.062,3.135,0.218,6.306,0.464,9.429c0.084,1.075-0.719,2.015-1.795,2.1C571.858,1080.974,571.807,1080.976,571.755,1080.976z
					 M571.377,1061.88c-0.025,0-0.05,0-0.075-0.001c-1.078-0.041-1.918-0.948-1.878-2.026c0.066-1.728,0.158-3.461,0.279-5.197
					c0.103-1.488,0.226-2.97,0.366-4.446c0.102-1.073,1.041-1.858,2.13-1.759c1.074,0.103,1.86,1.057,1.758,2.13
					c-0.138,1.442-0.258,2.89-0.359,4.344c-0.116,1.696-0.207,3.388-0.271,5.076C573.288,1061.053,572.422,1061.88,571.377,1061.88z
					 M573.202,1042.872c-0.1,0-0.2-0.008-0.302-0.023c-1.065-0.165-1.796-1.163-1.631-2.229c0.492-3.175,1.083-6.372,1.758-9.503
					c0.227-1.056,1.263-1.723,2.32-1.498c1.055,0.227,1.725,1.265,1.498,2.32c-0.658,3.056-1.235,6.179-1.716,9.28
					C574.979,1042.182,574.148,1042.872,573.202,1042.872z M577.22,1024.206c-0.173,0-0.349-0.024-0.524-0.073
					c-1.039-0.288-1.648-1.365-1.359-2.404c0.857-3.089,1.82-6.196,2.859-9.233c0.349-1.021,1.463-1.564,2.48-1.216
					c1.02,0.35,1.565,1.46,1.216,2.48c-1.016,2.966-1.955,5.998-2.792,9.014C578.861,1023.639,578.075,1024.206,577.22,1024.206z
					 M583.402,1006.141c-0.246,0-0.497-0.048-0.74-0.147c-0.997-0.409-1.475-1.55-1.066-2.548c1.22-2.976,2.543-5.953,3.935-8.847
					c0.469-0.973,1.638-1.378,2.606-0.914c0.973,0.467,1.382,1.635,0.915,2.606c-1.358,2.825-2.65,5.73-3.841,8.637
					C584.9,1005.683,584.172,1006.141,583.402,1006.141z M591.684,988.903c-0.321,0-0.647-0.079-0.947-0.246
					c-0.942-0.523-1.283-1.713-0.758-2.656c1.558-2.804,3.222-5.603,4.946-8.318c0.577-0.911,1.785-1.18,2.696-0.602
					c0.911,0.579,1.18,1.785,0.602,2.696c-1.684,2.651-3.309,5.383-4.83,8.121C593.036,988.541,592.371,988.903,591.684,988.903z
					 M601.933,972.767c-0.396,0-0.794-0.119-1.14-0.369c-0.875-0.63-1.074-1.851-0.442-2.725c1.88-2.609,3.859-5.193,5.884-7.679
					c0.683-0.836,1.913-0.961,2.747-0.281c0.836,0.681,0.962,1.911,0.281,2.747c-1.976,2.427-3.909,4.949-5.745,7.496
					C603.137,972.486,602.539,972.767,601.933,972.767z M613.995,957.948c-0.471,0-0.943-0.17-1.318-0.513
					c-0.795-0.728-0.85-1.964-0.121-2.759c2.168-2.367,4.434-4.701,6.736-6.937c0.773-0.753,2.011-0.732,2.762,0.04
					c0.752,0.774,0.733,2.01-0.04,2.762c-2.248,2.183-4.461,4.462-6.578,6.773C615.05,957.734,614.524,957.948,613.995,957.948z
					 M627.695,944.638c-0.547,0-1.092-0.229-1.479-0.676c-0.705-0.816-0.615-2.049,0.201-2.755c2.429-2.099,4.95-4.153,7.494-6.104
					c0.856-0.655,2.082-0.495,2.739,0.361c0.656,0.856,0.495,2.082-0.36,2.739c-2.484,1.905-4.946,3.911-7.318,5.961
					C628.602,944.482,628.147,944.638,627.695,944.638z M642.845,933.016c-0.626,0-1.241-0.299-1.618-0.856
					c-0.606-0.893-0.373-2.107,0.52-2.713c2.662-1.806,5.404-3.552,8.151-5.19c0.927-0.552,2.127-0.25,2.678,0.677
					c0.552,0.927,0.249,2.126-0.677,2.678c-2.682,1.598-5.359,3.303-7.958,5.068C643.604,932.907,643.222,933.016,642.845,933.016z
					 M814.969,926.276c-0.328,0-0.661-0.083-0.966-0.257c-2.712-1.548-5.515-3.039-8.333-4.432c-0.967-0.479-1.363-1.65-0.885-2.617
					c0.477-0.966,1.646-1.364,2.617-0.885c2.887,1.428,5.759,2.955,8.537,4.541c0.937,0.535,1.263,1.728,0.729,2.664
					C816.307,925.922,815.648,926.276,814.969,926.276z M659.236,923.24c-0.706,0-1.388-0.383-1.735-1.053
					c-0.498-0.957-0.125-2.136,0.833-2.633c2.845-1.478,5.77-2.891,8.695-4.201c0.984-0.443,2.14,0,2.581,0.984
					c0.441,0.985,0,2.14-0.984,2.581c-2.857,1.279-5.713,2.659-8.491,4.102C659.847,923.169,659.539,923.24,659.236,923.24z
					 M797.85,917.811c-0.254,0-0.511-0.051-0.76-0.155c-2.882-1.219-5.842-2.37-8.798-3.42c-1.016-0.361-1.547-1.478-1.186-2.495
					c0.36-1.018,1.479-1.548,2.495-1.186c3.027,1.076,6.059,2.254,9.012,3.504c0.994,0.42,1.458,1.566,1.037,2.56
					C799.335,917.362,798.611,917.811,797.85,917.811z M676.646,915.449c-0.788,0-1.531-0.482-1.826-1.263
					c-0.382-1.009,0.126-2.136,1.135-2.518c2.998-1.136,6.068-2.195,9.123-3.151c1.024-0.317,2.125,0.253,2.447,1.282
					c0.321,1.03-0.252,2.125-1.282,2.447c-2.983,0.932-5.978,1.966-8.906,3.075C677.11,915.408,676.876,915.449,676.646,915.449z
					 M779.853,911.419c-0.18,0-0.363-0.026-0.546-0.078c-2.999-0.871-6.074-1.665-9.139-2.361c-1.052-0.238-1.712-1.285-1.472-2.336
					c0.239-1.053,1.289-1.715,2.336-1.472c3.14,0.712,6.29,1.527,9.364,2.418c1.036,0.301,1.632,1.385,1.331,2.42
					C781.48,910.863,780.7,911.419,779.853,911.419z M694.855,909.755c-0.875,0-1.672-0.593-1.893-1.481
					c-0.261-1.047,0.377-2.107,1.423-2.367c3.12-0.777,6.298-1.47,9.446-2.058c1.062-0.2,2.08,0.501,2.278,1.561
					c0.198,1.059-0.501,2.08-1.561,2.278c-3.072,0.575-6.174,1.25-9.219,2.008C695.17,909.737,695.011,909.755,694.855,909.755z
					 M761.227,907.186c-0.106,0-0.214-0.009-0.321-0.027c-3.094-0.513-6.241-0.943-9.356-1.277c-1.073-0.115-1.849-1.077-1.734-2.15
					c0.113-1.072,1.06-1.86,2.149-1.734c3.19,0.341,6.413,0.781,9.579,1.307c1.064,0.176,1.784,1.182,1.607,2.246
					C762.994,906.509,762.166,907.186,761.227,907.186z M713.622,906.243c-0.969,0-1.81-0.721-1.935-1.707
					c-0.135-1.071,0.622-2.047,1.692-2.184c3.182-0.403,6.42-0.717,9.622-0.932c1.058-0.101,2.007,0.741,2.079,1.818
					c0.073,1.076-0.741,2.007-1.818,2.079c-3.125,0.211-6.285,0.517-9.391,0.911C713.787,906.238,713.704,906.243,713.622,906.243z
					 M742.231,905.151c-0.032,0-0.065-0.001-0.098-0.002c-2.654-0.132-5.346-0.197-8.003-0.197l-1.438,0.006
					c-1.133-0.025-1.96-0.859-1.968-1.938s0.859-1.96,1.938-1.968l1.469-0.006c2.721,0,5.478,0.068,8.195,0.201
					c1.077,0.053,1.907,0.97,1.855,2.047C744.129,904.339,743.265,905.151,742.231,905.151z"/>
				
					<linearGradient id="SVGID_00000166656473429742656900000010362561576308442517_" gradientUnits="userSpaceOnUse" x1="821.2737" y1="930.7245" x2="829.2263" y2="930.7245">
					<stop  offset="0" style="stop-color:#FE7062"/>
					<stop  offset="1" style="stop-color:#FF928E"/>
				</linearGradient>
				<path style="fill:url(#SVGID_00000166656473429742656900000010362561576308442517_);" d="M827.271,934.04
					c-0.384,0-0.773-0.113-1.113-0.35c-1.319-0.917-2.65-1.814-3.998-2.692c-0.904-0.589-1.159-1.799-0.57-2.703
					c0.589-0.904,1.8-1.159,2.703-0.57c1.38,0.899,2.745,1.819,4.095,2.759c0.886,0.615,1.104,1.833,0.488,2.718
					C828.497,933.749,827.889,934.04,827.271,934.04z"/>
			</g>
			<g style="opacity:0.64;">
				
					<linearGradient id="SVGID_00000055701364008413248930000009539248688623524017_" gradientUnits="userSpaceOnUse" x1="892.1399" y1="1035.9093" x2="896.9456" y2="1035.9093">
					<stop  offset="0" style="stop-color:#FE7062"/>
					<stop  offset="1" style="stop-color:#FF928E"/>
				</linearGradient>
				<path style="fill:url(#SVGID_00000055701364008413248930000009539248688623524017_);" d="M894.991,1040.262
					c-0.934,0-1.76-0.67-1.923-1.622c-0.274-1.587-0.569-3.167-0.889-4.74c-0.215-1.058,0.468-2.089,1.525-2.303
					c1.061-0.216,2.089,0.468,2.303,1.525c0.327,1.611,0.63,3.229,0.91,4.856c0.183,1.062-0.53,2.072-1.593,2.255
					C895.212,1040.253,895.1,1040.262,894.991,1040.262z"/>
				
					<linearGradient id="SVGID_00000045594607289422920690000005383451324717801657_" gradientUnits="userSpaceOnUse" x1="645.458" y1="1138.576" x2="899.2783" y2="1138.576">
					<stop  offset="0" style="stop-color:#FE7062"/>
					<stop  offset="1" style="stop-color:#FF928E"/>
				</linearGradient>
				<path style="fill:url(#SVGID_00000045594607289422920690000005383451324717801657_);" d="M731.655,1231.01
					c-0.011,0-0.023,0-0.034,0c-2.895-0.05-5.827-0.176-8.711-0.377l-1.282-0.094c-1.076-0.083-1.881-1.021-1.798-2.097
					c0.082-1.075,1.031-1.891,2.097-1.798l1.254,0.092c2.816,0.195,5.679,0.319,8.506,0.367c1.079,0.019,1.938,0.908,1.92,1.986
					C733.589,1230.157,732.718,1231.01,731.655,1231.01z M741.534,1230.881c-1.039,0-1.904-0.82-1.949-1.869
					c-0.047-1.078,0.79-1.988,1.867-2.035c3.235-0.14,6.51-0.382,9.737-0.717c1.084-0.107,2.033,0.668,2.145,1.74
					c0.112,1.073-0.668,2.033-1.74,2.145c-3.303,0.344-6.659,0.591-9.973,0.734C741.591,1230.88,741.563,1230.881,741.534,1230.881z
					 M711.949,1229.495c-0.089,0-0.178-0.006-0.269-0.018c-3.3-0.453-6.62-1.012-9.866-1.66c-1.057-0.211-1.744-1.24-1.533-2.297
					c0.211-1.058,1.24-1.745,2.297-1.532c3.169,0.632,6.41,1.178,9.634,1.62c1.068,0.147,1.816,1.132,1.669,2.201
					C713.746,1228.786,712.909,1229.495,711.949,1229.495z M761.182,1228.833c-0.938,0-1.766-0.677-1.924-1.633
					c-0.177-1.064,0.542-2.07,1.606-2.247c3.201-0.533,6.424-1.17,9.576-1.895c1.057-0.236,2.1,0.415,2.341,1.466
					c0.241,1.052-0.415,2.1-1.466,2.341c-3.23,0.742-6.53,1.395-9.81,1.941C761.395,1228.824,761.288,1228.833,761.182,1228.833z
					 M692.566,1225.628c-0.164,0-0.332-0.022-0.499-0.066c-3.221-0.849-6.448-1.806-9.592-2.844
					c-1.024-0.339-1.58-1.443-1.243-2.467c0.339-1.025,1.443-1.579,2.467-1.243c3.068,1.014,6.218,1.947,9.363,2.777
					c1.043,0.275,1.666,1.343,1.39,2.386C694.222,1225.048,693.432,1225.628,692.566,1225.628z M780.435,1224.41
					c-0.843,0-1.621-0.551-1.872-1.401c-0.305-1.035,0.285-2.121,1.32-2.426c3.1-0.916,6.216-1.939,9.261-3.043
					c1.014-0.366,2.134,0.156,2.501,1.17c0.368,1.014-0.156,2.134-1.17,2.501c-3.118,1.131-6.31,2.18-9.486,3.117
					C780.804,1224.383,780.618,1224.41,780.435,1224.41z M673.798,1219.437c-0.24,0-0.485-0.046-0.723-0.14
					c-3.076-1.227-6.162-2.57-9.174-3.991c-0.976-0.46-1.393-1.624-0.933-2.6c0.46-0.976,1.624-1.393,2.6-0.933
					c2.94,1.387,5.953,2.698,8.955,3.896c1.002,0.4,1.49,1.536,1.09,2.538C675.307,1218.971,674.574,1219.437,673.798,1219.437z
					 M798.983,1217.685c-0.755,0-1.474-0.441-1.793-1.178c-0.429-0.99,0.026-2.14,1.016-2.568c2.972-1.288,5.943-2.682,8.828-4.146
					c0.963-0.49,2.137-0.103,2.625,0.857c0.488,0.962,0.104,2.138-0.857,2.625c-2.956,1.5-5.998,2.929-9.043,4.248
					C799.505,1217.632,799.242,1217.685,798.983,1217.685z M655.926,1211.002c-0.318,0-0.64-0.077-0.937-0.241
					c-2.915-1.599-5.815-3.308-8.619-5.078c-0.913-0.576-1.185-1.782-0.609-2.694c0.577-0.913,1.782-1.184,2.694-0.609
					c2.738,1.728,5.568,3.396,8.413,4.958c0.946,0.519,1.292,1.706,0.772,2.651C657.285,1210.635,656.616,1211.002,655.926,1211.002
					z M816.587,1208.755c-0.67,0-1.324-0.345-1.687-0.966c-0.545-0.93-0.233-2.127,0.698-2.672c2.797-1.639,5.58-3.385,8.268-5.185
					c0.893-0.602,2.107-0.362,2.709,0.535c0.601,0.896,0.362,2.109-0.535,2.709c-2.754,1.845-5.602,3.632-8.468,5.311
					C817.262,1208.669,816.922,1208.755,816.587,1208.755z M832.993,1197.762c-0.589,0-1.172-0.265-1.556-0.771
					c-0.653-0.858-0.486-2.084,0.372-2.737c2.578-1.962,5.129-4.029,7.586-6.145c0.818-0.705,2.051-0.611,2.755,0.205
					c0.704,0.817,0.612,2.051-0.205,2.755c-2.517,2.167-5.131,4.285-7.771,6.294
					C833.821,1197.633,833.405,1197.762,832.993,1197.762z M847.962,1184.871c-0.509,0-1.018-0.198-1.401-0.592
					c-0.751-0.773-0.733-2.01,0.04-2.762c2.321-2.255,4.607-4.616,6.796-7.015c0.727-0.795,1.962-0.854,2.759-0.127
					c0.797,0.727,0.853,1.962,0.127,2.759c-2.24,2.458-4.582,4.874-6.96,7.185C848.943,1184.687,848.452,1184.871,847.962,1184.871z
					 M861.277,1170.269c-0.431,0-0.864-0.142-1.225-0.433c-0.839-0.677-0.971-1.907-0.294-2.746c2.034-2.52,4.02-5.14,5.902-7.786
					c0.627-0.879,1.844-1.085,2.724-0.46c0.879,0.626,1.084,1.845,0.46,2.724c-1.928,2.71-3.962,5.394-6.045,7.975
					C862.412,1170.021,861.847,1170.269,861.277,1170.269z M872.736,1154.16c-0.353,0-0.71-0.095-1.031-0.296
					c-0.915-0.57-1.195-1.776-0.625-2.69c1.719-2.758,3.373-5.601,4.916-8.448c0.514-0.948,1.697-1.302,2.648-0.787
					c0.948,0.514,1.3,1.699,0.787,2.648c-1.581,2.917-3.276,5.828-5.036,8.652C874.025,1153.833,873.388,1154.16,872.736,1154.16z
					 M882.16,1136.77c-0.277,0-0.556-0.058-0.823-0.182c-0.977-0.455-1.402-1.616-0.947-2.595c1.368-2.941,2.664-5.965,3.853-8.988
					c0.395-1.004,1.527-1.5,2.532-1.103c1.004,0.395,1.498,1.529,1.103,2.532c-1.217,3.096-2.545,6.194-3.946,9.207
					C883.601,1136.352,882.897,1136.77,882.16,1136.77z M889.391,1118.371c-0.199,0-0.402-0.031-0.603-0.096
					c-1.026-0.333-1.588-1.434-1.255-2.46c0.997-3.077,1.914-6.231,2.724-9.373c0.269-1.044,1.337-1.675,2.378-1.404
					c1.044,0.269,1.673,1.334,1.404,2.378c-0.83,3.219-1.769,6.451-2.791,9.604C890.981,1117.845,890.215,1118.371,889.391,1118.371
					z M894.327,1099.243c-0.123,0-0.248-0.011-0.374-0.035c-1.059-0.206-1.751-1.231-1.546-2.29c0.616-3.174,1.144-6.416,1.57-9.635
					c0.141-1.069,1.135-1.82,2.191-1.68c1.069,0.141,1.821,1.122,1.68,2.191c-0.435,3.298-0.976,6.617-1.606,9.868
					C896.062,1098.595,895.243,1099.243,894.327,1099.243z M896.913,1079.661c-0.05,0-0.098-0.002-0.149-0.006
					c-1.076-0.081-1.881-1.018-1.8-2.094l0.029-0.404c0.216-3.096,0.343-6.24,0.38-9.347c0.012-1.071,0.885-1.93,1.952-1.93
					c0.009,0,0.016,0,0.024,0c1.079,0.013,1.943,0.897,1.93,1.976c-0.038,3.182-0.169,6.402-0.389,9.57l-0.03,0.429
					C898.781,1078.88,897.925,1079.661,896.913,1079.661z M897.143,1059.902c-1.036,0-1.899-0.813-1.949-1.86
					c-0.156-3.234-0.414-6.509-0.768-9.734c-0.117-1.072,0.656-2.036,1.729-2.154c1.045-0.118,2.036,0.656,2.154,1.729
					c0.362,3.303,0.627,6.658,0.787,9.972c0.052,1.077-0.78,1.992-1.858,2.045C897.207,1059.901,897.175,1059.902,897.143,1059.902z
					"/>
				
					<linearGradient id="SVGID_00000093899758927367105370000014154627270614475904_" gradientUnits="userSpaceOnUse" x1="633.2623" y1="1196.9908" x2="641.0853" y2="1196.9908">
					<stop  offset="0" style="stop-color:#FE7062"/>
					<stop  offset="1" style="stop-color:#FF928E"/>
				</linearGradient>
				<path style="fill:url(#SVGID_00000093899758927367105370000014154627270614475904_);" d="M639.13,1200.398
					c-0.395,0-0.793-0.119-1.14-0.368c-1.336-0.962-2.658-1.943-3.963-2.945c-0.856-0.656-1.018-1.882-0.361-2.738
					c0.657-0.855,1.883-1.017,2.738-0.361c1.275,0.977,2.564,1.935,3.87,2.874c0.875,0.63,1.074,1.851,0.443,2.725
					C640.336,1200.116,639.738,1200.398,639.13,1200.398z"/>
			</g>
			<g>
				
					<linearGradient id="SVGID_00000137853519019663825940000013993298589321522340_" gradientUnits="userSpaceOnUse" x1="876.5135" y1="827.5057" x2="663.8829" y2="1182.4905">
					<stop  offset="0" style="stop-color:#FE7062"/>
					<stop  offset="1" style="stop-color:#FF928E"/>
				</linearGradient>
				<path style="fill:url(#SVGID_00000137853519019663825940000013993298589321522340_);" d="M646.257,1155.123
					c0.528,0.647,1.408,0.888,2.191,0.599l22.352-8.22c8.812,6.786,18.769,12.217,29.593,15.937l5.452,23.167
					c0.191,0.813,0.877,1.414,1.708,1.499l28.421,2.879c0.831,0.084,1.623-0.368,1.973-1.125l9.987-21.604
					c11.351-1.474,22.194-4.797,32.188-9.679l20.25,12.535c0.71,0.439,1.62,0.38,2.267-0.148l22.133-18.061
					c0.647-0.528,0.888-1.408,0.599-2.191l-8.22-22.352c6.786-8.812,12.217-18.769,15.937-29.593l23.168-5.452
					c0.813-0.191,1.414-0.877,1.499-1.707l2.879-28.422c0.084-0.831-0.368-1.623-1.126-1.973l-21.604-9.987
					c-1.474-11.351-4.797-22.194-9.679-32.188l12.536-20.25c0.439-0.709,0.38-1.62-0.148-2.267l-18.061-22.133
					c-0.528-0.647-1.408-0.887-2.191-0.599l-22.353,8.22c-8.811-6.787-18.769-12.217-29.593-15.937l-5.452-23.168
					c-0.191-0.813-0.877-1.414-1.707-1.499l-28.422-2.879c-0.83-0.084-1.623,0.368-1.973,1.126l-9.987,21.604
					c-11.351,1.474-22.195,4.797-32.188,9.678l-20.25-12.535c-0.71-0.44-1.621-0.38-2.267,0.148l-22.133,18.061
					c-0.647,0.528-0.888,1.408-0.6,2.191l8.22,22.352c-6.787,8.812-12.217,18.769-15.937,29.593l-23.168,5.452
					c-0.812,0.191-1.414,0.877-1.498,1.707l-2.879,28.421c-0.084,0.831,0.368,1.623,1.125,1.974l21.604,9.987
					c1.474,11.35,4.797,22.194,9.679,32.188l-12.535,20.25c-0.44,0.71-0.38,1.62,0.147,2.267L646.257,1155.123z"/>
				
					<linearGradient id="SVGID_00000011752668515901148970000013092819756495840447_" gradientUnits="userSpaceOnUse" x1="862.6314" y1="368.6687" x2="778.6312" y2="824.6689">
					<stop  offset="0" style="stop-color:#FF928E"/>
					<stop  offset="1" style="stop-color:#FEB3B1"/>
				</linearGradient>
				<path style="fill:url(#SVGID_00000011752668515901148970000013092819756495840447_);" d="M734.347,1092.079
					c-5.826,0-11.475-1.859-16.237-5.397c-5.856-4.352-9.668-10.725-10.732-17.944c-1.064-7.219,0.747-14.421,5.099-20.278
					c4.352-5.856,10.725-9.668,17.944-10.732c7.22-1.063,14.421,0.747,20.278,5.099c5.856,4.352,9.668,10.725,10.732,17.944
					c1.064,7.219-0.747,14.421-5.099,20.278c-4.352,5.856-10.726,9.668-17.944,10.732l0,0
					C737.037,1091.981,735.687,1092.079,734.347,1092.079z M734.454,1041.337c-1.149,0-2.305,0.084-3.463,0.255
					c-6.187,0.911-11.65,4.179-15.379,9.198c-3.731,5.02-5.282,11.192-4.37,17.378c0.912,6.187,4.179,11.649,9.198,15.379
					c5.02,3.731,11.192,5.283,17.378,4.37l0,0c6.187-0.912,11.649-4.179,15.379-9.198c3.731-5.02,5.282-11.192,4.37-17.378
					c-0.912-6.187-4.179-11.65-9.198-15.379C744.289,1042.93,739.447,1041.337,734.454,1041.337z"/>
				
					<linearGradient id="SVGID_00000179613706796147200270000001662639555077343622_" gradientUnits="userSpaceOnUse" x1="862.9777" y1="368.733" x2="778.9775" y2="824.7328">
					<stop  offset="0" style="stop-color:#FF928E"/>
					<stop  offset="1" style="stop-color:#FEB3B1"/>
				</linearGradient>
				<path style="fill:url(#SVGID_00000179613706796147200270000001662639555077343622_);" d="M734.895,1135.221
					c-2.38,0-4.778-0.12-7.196-0.364c-1.532-0.155-3.058-0.36-4.575-0.613c-2.943-0.491-5.849-1.164-8.69-2.015
					c-0.066-0.02-0.133-0.04-0.199-0.06c-0.437-0.132-0.872-0.268-1.306-0.409c-0.826-0.267-1.351-1.033-1.352-1.856
					c0-0.2,0.031-0.403,0.096-0.604c0.333-1.025,1.432-1.586,2.459-1.256c4.506,1.459,9.203,2.443,13.96,2.926
					c0.377,0.038,0.754,0.073,1.131,0.106c0.008,0,0.013,0.001,0.027,0.002c11.319,0.957,22.472-0.938,32.618-5.429
					c0.008-0.003,0.015-0.007,0.023-0.01c0.052-0.023,0.107-0.047,0.159-0.071c4.985-2.224,9.722-5.075,14.119-8.526
					c0.141-0.111,0.279-0.22,0.42-0.332c0.064-0.05,0.129-0.102,0.192-0.153c0.136-0.11,0.273-0.219,0.408-0.33
					c13.861-11.311,22.488-27.344,24.29-45.142c0.234-2.304,0.349-4.6,0.349-6.884c-0.002-15.368-5.245-30.145-15.092-42.213
					c-11.311-13.861-27.344-22.488-45.142-24.29c-36.753-3.724-69.667,23.144-73.388,59.886c-0.23,2.266-0.343,4.533-0.343,6.796
					c0.002,9.803,2.149,19.497,6.321,28.377c0.126,0.269,0.186,0.552,0.185,0.831c0,0.733-0.415,1.435-1.122,1.768
					c-0.976,0.458-2.14,0.039-2.599-0.937c-4.416-9.401-6.689-19.662-6.691-30.036c-0.001-2.395,0.12-4.795,0.362-7.191
					c1.908-18.838,11.038-35.805,25.708-47.776c14.671-11.97,33.134-17.506,51.96-15.604c18.838,1.908,35.804,11.038,47.775,25.708
					c10.422,12.771,15.971,28.411,15.972,44.674c0.001,2.418-0.121,4.848-0.368,7.286
					C801.671,1107.945,770.794,1135.221,734.895,1135.221z"/>
			</g>
		</g>
		<g>
			<g>
				
					<linearGradient id="SVGID_00000075855363263351904850000008501063664346781850_" gradientUnits="userSpaceOnUse" x1="554.0944" y1="632.0761" x2="610.2924" y2="781.001" gradientTransform="matrix(-1 0 0 1 1301.24 0)">
					<stop  offset="0" style="stop-color:#FF928E"/>
					<stop  offset="1" style="stop-color:#FEB3B1"/>
				</linearGradient>
				<path style="fill:url(#SVGID_00000075855363263351904850000008501063664346781850_);" d="M761.767,657.868l-11.042,10.889
					c-15.675-1.507-27.755-6.383-37.032-12.569c5.583-13.885,11.254-22.121,15.709-26.947
					C743.995,649.764,761.767,657.868,761.767,657.868z"/>
				
					<linearGradient id="SVGID_00000138547390208874462710000000115681261203239322_" gradientUnits="userSpaceOnUse" x1="557.7778" y1="680.7556" x2="585.1744" y2="631.231" gradientTransform="matrix(-1 0 0 1 1301.24 0)">
					<stop  offset="0" style="stop-color:#53D8FF"/>
					<stop  offset="1" style="stop-color:#3840F7"/>
				</linearGradient>
				<path style="fill:url(#SVGID_00000138547390208874462710000000115681261203239322_);" d="M684.909,617.124l26.06-40.744
					c1.709,22.982,9.473,40.258,18.433,52.86c-4.455,4.826-10.126,13.062-15.709,26.947
					C690.54,640.75,684.909,617.124,684.909,617.124z"/>
			</g>
			
				<linearGradient id="SVGID_00000066499997835795689680000014552936073678056110_" gradientUnits="userSpaceOnUse" x1="7132.4214" y1="927.892" x2="7188.2153" y2="927.892" gradientTransform="matrix(1 0 0 1 -6496.2026 0)">
				<stop  offset="0" style="stop-color:#09005D"/>
				<stop  offset="1" style="stop-color:#1A0F91"/>
			</linearGradient>
			<path style="fill:url(#SVGID_00000066499997835795689680000014552936073678056110_);" d="M657.195,939.141
				c12.992,0.598,25.568,0.222,33.965-0.209c-7.645-5.442-25.258-17.281-39.996-21.994l-10.117-0.605c0,0-3.428,5.214-4.651,17.145
				C638.072,935.57,642.973,938.487,657.195,939.141z"/>
			
				<linearGradient id="SVGID_00000013900291706281835330000009986111244046067856_" gradientUnits="userSpaceOnUse" x1="7147.1748" y1="1217.4673" x2="7154.6753" y2="1057.9672" gradientTransform="matrix(1 0 0 1 -6496.2026 0)">
				<stop  offset="0" style="stop-color:#09005D"/>
				<stop  offset="1" style="stop-color:#1A0F91"/>
			</linearGradient>
			<path style="fill:url(#SVGID_00000013900291706281835330000009986111244046067856_);" d="M691.264,939.006
				c-0.033-0.024-0.071-0.05-0.105-0.074c-8.396,0.432-20.972,0.807-33.965,0.209c-14.222-0.654-19.123-3.571-20.8-5.664
				c-0.056,0.55-0.114,1.096-0.161,1.674c-0.21,2.618,1.733,4.917,4.352,5.115c10.64,0.804,37.023,2.626,49.745,1.959
				C692.01,942.138,692.633,939.981,691.264,939.006z"/>
			
				<linearGradient id="SVGID_00000018212106989724105140000014107713062937676459_" gradientUnits="userSpaceOnUse" x1="7034.4097" y1="928.0312" x2="7060.5347" y2="928.0312" gradientTransform="matrix(1 0 0 1 -6496.2026 0)">
				<stop  offset="0" style="stop-color:#09005D"/>
				<stop  offset="1" style="stop-color:#1A0F91"/>
			</linearGradient>
			<path style="fill:url(#SVGID_00000018212106989724105140000014107713062937676459_);" d="M564.271,935.664
				c-0.951-6.099-2.477-14.917-3.656-17.171c-1.849-3.536-8.18,0-8.18,0s-4.444,2.073-6.49,5.527
				c-1.304,2.202-4.91,8.467-7.353,12.72c-0.281,0.489-0.398,1.01-0.383,1.514l25.349,0.887
				C564.178,938.147,564.469,936.934,564.271,935.664z"/>
			
				<linearGradient id="SVGID_00000156559867940121535070000018108021882574444725_" gradientUnits="userSpaceOnUse" x1="7034.2266" y1="1212.1611" x2="7041.7266" y2="1052.6584" gradientTransform="matrix(1 0 0 1 -6496.2026 0)">
				<stop  offset="0" style="stop-color:#09005D"/>
				<stop  offset="1" style="stop-color:#1A0F91"/>
			</linearGradient>
			<path style="fill:url(#SVGID_00000156559867940121535070000018108021882574444725_);" d="M538.208,938.254
				c0.042,1.448,1.19,2.761,2.809,2.806l18.06,0.497c1.908,0.053,3.56-0.939,4.48-2.416L538.208,938.254z"/>
			
				<linearGradient id="SVGID_00000098213685270467351050000013897697580974368906_" gradientUnits="userSpaceOnUse" x1="7045.4585" y1="910.0209" x2="7062.4097" y2="910.0209" gradientTransform="matrix(1 0 0 1 -6496.2026 0)">
				<stop  offset="0" style="stop-color:#FF928E"/>
				<stop  offset="1" style="stop-color:#FEB3B1"/>
			</linearGradient>
			<path style="fill:url(#SVGID_00000098213685270467351050000013897697580974368906_);" d="M566.207,898.221
				c-0.219,0.732-3.494,16.611-4.928,23.58c-0.396,1.926-2.131,3.279-4.096,3.18c-1.073-0.054-2.321-0.15-3.629-0.319
				c-2.322-0.301-4.09-2.24-4.179-4.579c-0.232-6.105-0.347-17.826,1.895-22.367C554.362,891.45,566.207,898.221,566.207,898.221z"
				/>
			
				<linearGradient id="SVGID_00000142872777809951446880000008254611930526054540_" gradientUnits="userSpaceOnUse" x1="7135.2593" y1="908.9113" x2="7149.3877" y2="908.9113" gradientTransform="matrix(1 0 0 1 -6496.2026 0)">
				<stop  offset="0" style="stop-color:#FF928E"/>
				<stop  offset="1" style="stop-color:#FEB3B1"/>
			</linearGradient>
			<path style="fill:url(#SVGID_00000142872777809951446880000008254611930526054540_);" d="M639.057,902.767
				c1.405-0.045-0.561,7.254,1.565,14.427c0.479,1.618,1.689,2.888,3.377,2.909c1.094,0.014,2.389-0.007,3.705-0.112
				c1.979-0.159,3.569-1.694,3.752-3.671l1.729-18.606L639.057,902.767z"/>
			
				<linearGradient id="SVGID_00000060012666042184125940000013473778666083746990_" gradientUnits="userSpaceOnUse" x1="777.5159" y1="722.5688" x2="732.0159" y2="747.5688">
				<stop  offset="0" style="stop-color:#09005D"/>
				<stop  offset="1" style="stop-color:#1A0F91"/>
			</linearGradient>
			<path style="fill:url(#SVGID_00000060012666042184125940000013473778666083746990_);" d="M678.354,704.983
				c-0.627,3.053-22.76,132.149-24.103,198.95c-0.022,1.12-0.847,2.059-1.956,2.214c-2.81,0.392-8.282,0.895-13.587-0.089
				c-0.726-0.135-1.274-0.733-1.32-1.47c-0.773-12.449-6.994-117.701,0.624-167.248c0,0-62.931,132.447-72.47,168.968
				c-0.232,0.888-1.048,1.486-1.965,1.438c-2.695-0.142-8.3-0.627-12.751-2.265c-1.595-0.587-2.504-2.264-2.101-3.915
				c5.33-21.856,42.681-172.438,68.041-205.616L678.354,704.983z"/>
			
				<linearGradient id="SVGID_00000080908832047732977220000013276277682283011227_" gradientUnits="userSpaceOnUse" x1="7170.3911" y1="691.7057" x2="7112.5669" y2="766.4643" gradientTransform="matrix(1 0 0 1 -6496.2026 0)">
				<stop  offset="0" style="stop-color:#09005D"/>
				<stop  offset="1" style="stop-color:#1A0F91"/>
			</linearGradient>
			<path style="fill:url(#SVGID_00000080908832047732977220000013276277682283011227_);" d="M638.011,738.166
				c-0.208,0-0.417-0.078-0.578-0.236c-0.326-0.319-0.332-0.842-0.013-1.168l8.427-8.617c0.319-0.327,0.842-0.332,1.168-0.013
				c0.326,0.319,0.332,0.842,0.013,1.168l-8.427,8.617C638.44,738.083,638.226,738.166,638.011,738.166z"/>
			
				<linearGradient id="SVGID_00000066474020110269509500000015303869007183193480_" gradientUnits="userSpaceOnUse" x1="-1869.016" y1="2333.2009" x2="-2097.0154" y2="2489.2002" gradientTransform="matrix(-1 0 0 1 1301.24 0)">
				<stop  offset="0" style="stop-color:#FE7062"/>
				<stop  offset="1" style="stop-color:#FF928E"/>
			</linearGradient>
			<path style="fill:url(#SVGID_00000066474020110269509500000015303869007183193480_);" d="M714.326,543.355
				c-16.165-4.234-45.982-10.866-69.719-9.45c-5.451,0.325-9.82,4.635-10.13,10.088c-3.586,63.218-8.486,119.316-17.713,151.956
				c20.741,8.208,41.303,12.015,61.588,9.034c15.197-32.551,28.484-70.13,39.837-112.807c0,0,6.66-34.039,0.193-45.384
				C717.374,545.023,716.047,543.806,714.326,543.355z"/>
			
				<linearGradient id="SVGID_00000152961885803510839460000014980511476963217066_" gradientUnits="userSpaceOnUse" x1="686.8324" y1="490.2847" x2="683.3325" y2="574.2847">
				<stop  offset="0" style="stop-color:#FF928E"/>
				<stop  offset="1" style="stop-color:#FEB3B1"/>
			</linearGradient>
			<path style="fill:url(#SVGID_00000152961885803510839460000014980511476963217066_);" d="M675.445,499.071
				c0,0-4.082,24.352-5.299,35.614c-0.198,1.83,0.76,3.56,2.396,4.403c4.461,2.297,13.985,5.996,24.363,2.601
				c1.709-0.559,2.83-2.213,2.79-4.01l-0.712-32.51L675.445,499.071z"/>
			<g>
				
					<linearGradient id="SVGID_00000039847019648884177230000000802368979604108722_" gradientUnits="userSpaceOnUse" x1="6426.0679" y1="-1619.3322" x2="6450.5679" y2="-1551.3322" gradientTransform="matrix(1 0 0 1 -6496.2026 0)">
					<stop  offset="0" style="stop-color:#FF928E"/>
					<stop  offset="1" style="stop-color:#FEB3B1"/>
				</linearGradient>
				<path style="fill:url(#SVGID_00000039847019648884177230000000802368979604108722_);" d="M702.067,472.09
					c0,0,7.876,18.092,8.404,27.588c0.529,9.496,2.575,15.658-8.404,17.57c-10.98,1.912-20.229-3.557-25.24-13.016
					c0,0-7.851-14.575-6.09-20.544C672.498,477.717,702.067,472.09,702.067,472.09z"/>
				
					<linearGradient id="SVGID_00000059304079272591881090000014656223611551003564_" gradientUnits="userSpaceOnUse" x1="7168.2896" y1="460.8201" x2="7209.0586" y2="513.31" gradientTransform="matrix(1 0 0 1 -6496.2026 0)">
					<stop  offset="0" style="stop-color:#09005D"/>
					<stop  offset="1" style="stop-color:#1A0F91"/>
				</linearGradient>
				<path style="fill:url(#SVGID_00000059304079272591881090000014656223611551003564_);" d="M680.579,497.43h1.388
					c0,0-5.719-11.73-0.694-13.792c5.025-2.061,24.93-6.12,29.225-13.183c4.14-6.809,0.448-15.604-5.076-18.066
					c-0.349-0.156-0.761,0.009-0.94,0.347l-0.458,0.866c-0.313,0.593-1.189,0.503-1.375-0.141l0,0
					c-0.177-0.611-1.001-0.744-1.337-0.204c-1.315,2.112-4.874,5.547-14.422,7.309c-13.547,2.5-22.504,7.983-22.724,17.346
					c-0.014,0.593-0.648,0.92-1.155,0.611c-1-0.61-2.6-0.896-4.739,0.903c-3.72,3.128-2.198,11.242,5.957,17.916
					c0.387,0.317,0.384,0.922-0.035,1.195c-1.479,0.962-3.682,3.252,2.028,6.305c5.841,3.122,9.298,2.782,10.603,2.448
					c0.351-0.09,0.587-0.41,0.565-0.771l-0.513-8.297c-0.026-0.429,0.314-0.792,0.744-0.792H680.579z"/>
				
					<linearGradient id="SVGID_00000055685572347984242170000002991255060718343593_" gradientUnits="userSpaceOnUse" x1="6411.5669" y1="-1614.1045" x2="6436.0669" y2="-1546.1047" gradientTransform="matrix(1 0 0 1 -6496.2026 0)">
					<stop  offset="0" style="stop-color:#FF928E"/>
					<stop  offset="1" style="stop-color:#FEB3B1"/>
				</linearGradient>
				<path style="fill:url(#SVGID_00000055685572347984242170000002991255060718343593_);" d="M680.92,499.166
					c0,0-3.005-11.557-8.186-8.316c-5.181,3.24,2.689,12.949,6.854,13.381L680.92,499.166z"/>
			</g>
			<g>
				<g>
					<path style="fill:#7D97F4;" d="M512.795,687.191l-10.637,2.689c-18.252,4.614-30.527,18.33-27.416,30.636l3.698,14.631
						c3.111,12.307,20.428,18.543,38.681,13.93l10.637-2.689c0.704-0.178,1.405-0.371,2.101-0.579l311.893-93.321l-8.057-31.875
						l-318.776,66.091C514.207,686.851,513.499,687.013,512.795,687.191z M517.375,701.794c13.742-3.474,26.555,0.33,28.619,8.495
						c2.064,8.165-7.403,17.601-21.144,21.074c-13.742,3.473-26.555-0.33-28.619-8.496
						C494.166,714.702,503.633,705.268,517.375,701.794z"/>
				</g>
				<path style="fill:#7D97F4;" d="M937.395,577.301l-61.718,15.6c-4.395,1.111-8.024,4.198-9.826,8.357l-9.234,21.321
					c-2.636,6.085-0.842,13.183,4.369,17.285l18.256,14.372c3.561,2.803,8.222,3.795,12.617,2.685l61.718-15.6
					c9.309-2.353,17.219,7.363,12.823,15.9c-10.515,20.423-29.807,36.577-54.364,42.784c-44.384,11.219-83.664-15.672-94.455-58.364
					c-10.791-42.692,10.993-85.018,55.377-96.237c24.557-6.207,49.208-1.161,68.164,11.813
					C949.047,562.641,946.704,574.948,937.395,577.301z"/>
				<path style="fill:#BDD0FB;" d="M938.865,583.118l-61.718,15.6c-4.394,1.111-8.024,4.198-9.826,8.357l-9.234,21.32
					c-2.636,6.086-0.842,13.183,4.369,17.285l18.256,14.371c3.561,2.804,8.222,3.796,12.617,2.685l61.718-15.6
					c9.309-2.353,17.219,7.363,12.823,15.9c-10.515,20.423-29.807,36.577-54.364,42.784c-44.384,11.219-83.664-15.672-94.455-58.364
					c-10.791-42.692,10.993-85.018,55.377-96.237c24.557-6.207,49.208-1.161,68.164,11.813
					C950.517,568.458,948.174,580.765,938.865,583.118z"/>
				<g>
					<path style="fill:#BDD0FB;" d="M513.968,691.831l-10.637,2.689c-18.252,4.614-30.527,18.33-27.416,30.637l3.698,14.631
						c3.111,12.307,20.428,18.543,38.681,13.93l10.637-2.689c0.704-0.178,1.405-0.371,2.101-0.579l311.893-93.321l-8.057-31.875
						l-318.776,66.091C515.38,691.49,514.672,691.653,513.968,691.831z M518.548,706.434c13.742-3.473,26.555,0.33,28.619,8.495
						c2.064,8.165-7.403,17.601-21.145,21.074c-13.742,3.473-26.555-0.33-28.619-8.496
						C495.339,719.342,504.806,709.907,518.548,706.434z"/>
				</g>
			</g>
			<g>
				
					<linearGradient id="SVGID_00000004524575362988062400000008152314811429552544_" gradientUnits="userSpaceOnUse" x1="-604.8204" y1="2514.3599" x2="-565.8204" y2="2459.3599" gradientTransform="matrix(-1 0 0 1 1301.24 0)">
					<stop  offset="0" style="stop-color:#FF928E"/>
					<stop  offset="1" style="stop-color:#FEB3B1"/>
				</linearGradient>
				<path style="fill:url(#SVGID_00000004524575362988062400000008152314811429552544_);" d="M592.648,627.552
					c-7.994,22.428-3.492,46.473-3.492,46.473l-10.537,2.81c0,0-13.613-16.191-10.499-52.119
					C577.846,623.232,586.956,625.511,592.648,627.552z"/>
				
					<linearGradient id="SVGID_00000106839063390564178480000013498435782281768374_" gradientUnits="userSpaceOnUse" x1="-1868.0548" y1="2334.6064" x2="-2096.0544" y2="2490.606" gradientTransform="matrix(-1 0 0 1 1301.24 0)">
					<stop  offset="0" style="stop-color:#FE7062"/>
					<stop  offset="1" style="stop-color:#FF928E"/>
				</linearGradient>
				<path style="fill:url(#SVGID_00000106839063390564178480000013498435782281768374_);" d="M568.12,624.716
					c0.35-4.04,0.901-8.316,1.717-12.86c7.12-39.625,57.919-70.105,69.873-76.78c1.112-0.621,2.464,0.217,2.424,1.489l-1.698,53.865
					c-28.292,3.803-41.682,19.991-47.789,37.122C586.956,625.511,577.846,623.232,568.12,624.716z"/>
			</g>
			
				<linearGradient id="SVGID_00000139260914696200694020000005898495829119353524_" gradientUnits="userSpaceOnUse" x1="514.5688" y1="646.9913" x2="570.767" y2="795.9168" gradientTransform="matrix(-1 0 0 1 1301.24 0)">
				<stop  offset="0" style="stop-color:#FF928E"/>
				<stop  offset="1" style="stop-color:#FEB3B1"/>
			</linearGradient>
			<path style="fill:url(#SVGID_00000139260914696200694020000005898495829119353524_);" d="M783.994,677.63
				c1.974-0.545,3.58-1.95,4.415-3.82c1.617-3.625,3.44-9.432-0.451-11.201c-5.795-2.634-16.333,8.166-16.333,8.166l-5.149,8.344
				l-4.708,2.29C766.081,682.597,774.398,680.619,783.994,677.63z"/>
			
				<linearGradient id="SVGID_00000124857907180891078830000013009894188405818520_" gradientUnits="userSpaceOnUse" x1="-594.162" y1="2521.9219" x2="-555.162" y2="2466.9219" gradientTransform="matrix(-1 0 0 1 1301.24 0)">
				<stop  offset="0" style="stop-color:#FF928E"/>
				<stop  offset="1" style="stop-color:#FEB3B1"/>
			</linearGradient>
			<path style="fill:url(#SVGID_00000124857907180891078830000013009894188405818520_);" d="M588.453,668.756h13.028
				c0,0-10.568,6.338-10.92,13.004c-0.351,6.665,4.196,20.472,6.322,24.231c2.326,4.11-29.5-6.121-18.264-37.235H588.453z"/>
		</g>
		<g>
			
				<linearGradient id="SVGID_00000035519000406070378460000010007765334799265471_" gradientUnits="userSpaceOnUse" x1="2023.2695" y1="1038.5245" x2="1945.2617" y2="1161.5369">
				<stop  offset="0" style="stop-color:#FF928E"/>
				<stop  offset="1" style="stop-color:#FEB3B1"/>
			</linearGradient>
			<path style="fill:url(#SVGID_00000035519000406070378460000010007765334799265471_);" d="M1742.098,1323.232
				c0,0,46.85,102.111,71.431,144.406c0,0,4.882,26.612,0,34.981l-4.161,1.849l19.418-0.578c0,0,1.725-35.796,0.378-37.796
				c-1.347-2-4.041-1.869-4.041-1.869s-8.326-65.964-32.439-80.043l-23.369-80.488L1742.098,1323.232z"/>
			
				<linearGradient id="SVGID_00000164478284428968306680000012733884027389411738_" gradientUnits="userSpaceOnUse" x1="358.3708" y1="1215.6682" x2="351.0376" y2="1430.3346" gradientTransform="matrix(1 0 0 1 1470.101 0)">
				<stop  offset="0" style="stop-color:#09005D"/>
				<stop  offset="1" style="stop-color:#1A0F91"/>
			</linearGradient>
			<path style="fill:url(#SVGID_00000164478284428968306680000012733884027389411738_);" d="M1801.075,1509.481
				c-0.029,0.468,15.163,0.254,23.415,0.103c3.047-0.056,5.644-2.197,6.294-5.175l6.232-32.741c0.592-3.112-1.384-6.134-4.471-6.84
				l-3.478-0.795c0,0-4.963,6.807-3.401,13.216c1.562,6.409,2.952,23.011-0.995,24.945c-3.948,1.935-15.303,2.273-15.303,2.273
				S1801.334,1505.264,1801.075,1509.481z"/>
			
				<linearGradient id="SVGID_00000167381667447966761870000007850984746031057832_" gradientUnits="userSpaceOnUse" x1="262.1253" y1="1212.3802" x2="254.7921" y2="1427.0469" gradientTransform="matrix(1 0 0 1 1470.101 0)">
				<stop  offset="0" style="stop-color:#09005D"/>
				<stop  offset="1" style="stop-color:#1A0F91"/>
			</linearGradient>
			<path style="fill:url(#SVGID_00000167381667447966761870000007850984746031057832_);" d="M1697.691,1510.075
				c-1.536,0.875-0.902,3.221,0.866,3.204c13.81-0.139,44.755-0.576,47.505-1.719c3.55-1.476-1.294-14.233-6.392-18.551
				l-28.148,9.187L1697.691,1510.075z"/>
			
				<linearGradient id="SVGID_00000055683126651103873450000010344364879214662578_" gradientUnits="userSpaceOnUse" x1="1885.7905" y1="1013.8941" x2="1810.7827" y2="1184.9119">
				<stop  offset="0" style="stop-color:#FF928E"/>
				<stop  offset="1" style="stop-color:#FEB3B1"/>
			</linearGradient>
			<path style="fill:url(#SVGID_00000055683126651103873450000010344364879214662578_);" d="M1688.955,1316.72
				c0,0,30.276,146.463,38.84,175.033l-20.261,12.715c0,0,10.153-1.727,17.682-2.273c7.529-0.545,14.454-9.187,14.454-9.187
				l-2.427-3.871c0,0-7.593-145.666-5.744-162.207L1688.955,1316.72z"/>
			
				<linearGradient id="SVGID_00000122685327698512266610000002042296982277984923_" gradientUnits="userSpaceOnUse" x1="1705.2462" y1="1116.7854" x2="1771.624" y2="1259.4978">
				<stop  offset="0" style="stop-color:#FE7062"/>
				<stop  offset="1" style="stop-color:#FF928E"/>
			</linearGradient>
			<path style="fill:url(#SVGID_00000122685327698512266610000002042296982277984923_);" d="M1676.574,1084.505
				c11.605,3.218,50.92,13.561,75.464,13.138l-15.069,85.038l1.199,13.87l-49.132-0.22c0,0-13.831-32.121-24.743-48.136
				c-3.152-4.625-0.806-10.142,0.98-15.446l-2.454-1.635c-2.498-1.662-3.581-4.786-2.648-7.638l11.964-36.607
				C1672.755,1085.026,1674.698,1083.984,1676.574,1084.505z"/>
			
				<linearGradient id="SVGID_00000171684077931988413290000004912053612150640785_" gradientUnits="userSpaceOnUse" x1="1612.2964" y1="1404.7164" x2="1484.2961" y2="1568.7168">
				<stop  offset="0" style="stop-color:#FE7062"/>
				<stop  offset="1" style="stop-color:#FF928E"/>
			</linearGradient>
			<path style="fill:url(#SVGID_00000171684077931988413290000004912053612150640785_);" d="M1685.098,1189.073l0.966,8.403
				c0,0-13.884,41.582,6.943,138.701c0,0,45.107,12.779,82.18-17.799c0,0-10.458-91.666-13.315-95.936
				c-14.227-21.267-23.705-25.891-23.705-25.891l-0.427-9.18C1737.74,1187.371,1698.088,1194.54,1685.098,1189.073z"/>
			
				<linearGradient id="SVGID_00000105412187774862820640000018380514367990769310_" gradientUnits="userSpaceOnUse" x1="234.2281" y1="1078.8342" x2="265.2634" y2="1078.8342" gradientTransform="matrix(1 0 0 1 1470.101 0)">
				<stop  offset="0" style="stop-color:#FF928E"/>
				<stop  offset="1" style="stop-color:#FEB3B1"/>
			</linearGradient>
			<path style="fill:url(#SVGID_00000105412187774862820640000018380514367990769310_);" d="M1704.331,1091.359
				c-0.172-0.228,10.257-31.489,10.257-31.489l14.94,1.355l5.836,35.465C1735.364,1096.689,1711.951,1101.415,1704.331,1091.359z"/>
			
				<linearGradient id="SVGID_00000040568472234440723490000001918891798370732978_" gradientUnits="userSpaceOnUse" x1="1771.7279" y1="925.4381" x2="1754.3947" y2="969.438">
				<stop  offset="0" style="stop-color:#FF928E"/>
				<stop  offset="1" style="stop-color:#FEB3B1"/>
			</linearGradient>
			<path style="fill:url(#SVGID_00000040568472234440723490000001918891798370732978_);" d="M1725.952,1010.57
				c-0.996,0.62-31.924,13.402-25.279,45.511c0.392,1.897,1.659,3.505,3.428,4.295c4.538,2.025,14.309,5.491,25.996,4.303
				c16.202-1.647,26.819-29.92,26.367-38.147C1756.012,1018.305,1735.825,1004.422,1725.952,1010.57z"/>
			
				<linearGradient id="SVGID_00000046308670029924045570000011878649294842228352_" gradientUnits="userSpaceOnUse" x1="1639.3818" y1="909.923" x2="1634.0485" y2="958.5897">
				<stop  offset="0" style="stop-color:#FF928E"/>
				<stop  offset="1" style="stop-color:#FEB3B1"/>
			</linearGradient>
			<path style="fill:url(#SVGID_00000046308670029924045570000011878649294842228352_);" d="M1674.032,1102.313
				c1.61-4.187-1.356-8.693-5.837-8.899c-11.399-0.526-31.215-4.12-47.989-20.895c-10.88-10.88-13.763-50.464-13.763-50.464
				s-2.294-18.351-6.881-18.351c-4.588,0,0,11.469,0,11.469s-11.469,6.882-22.938-2.294c-11.469-9.175,2.294,13.763,13.763,18.35
				c0,0-4.408,90.367,71.037,91.777c2.763,0.052,5.278-1.635,6.27-4.214L1674.032,1102.313z"/>
			
				<linearGradient id="SVGID_00000032615575475472058930000007545048821085973641_" gradientUnits="userSpaceOnUse" x1="-350.9348" y1="1017.3506" x2="-458.254" y2="1225.698" gradientTransform="matrix(-1 0 0 1 1366.1713 0)">
				<stop  offset="0" style="stop-color:#09005D"/>
				<stop  offset="1" style="stop-color:#1A0F91"/>
			</linearGradient>
			<path style="fill:url(#SVGID_00000032615575475472058930000007545048821085973641_);" d="M1715.457,1075.4
				c0-6.044,1.265-11.791,3.542-16.994c2.566-5.864,2.039-12.714-2.066-17.625c-6.719-8.039-9.157-18.231-5.454-27.155
				c5.782-13.934,24.32-19.481,41.406-12.391c12.112,5.026,20.23,15.052,21.871,25.427c0.943,5.962,4.135,11.282,8.933,14.945
				c6.803,5.194,11.986,12.398,14.673,20.726c1.816,5.629,5.466,10.473,10.603,13.403c11.599,6.617,21.268,16.835,27.125,29.946
				c14.688,32.886-0.152,71.49-33.145,86.227s-71.647,0.023-86.335-32.862c-8.161-18.27-7.196-38.3,0.925-55.025
				c2.038-4.198,2.464-9.031,0.776-13.381C1716.475,1085.913,1715.457,1080.779,1715.457,1075.4z"/>
		</g>
		<g>
			<path style="fill:#BDD0FB;" d="M1067.516,1312.32c-11.035-41.438-34.56-75.191-63.336-95.771
				c-25.724-18.397-43.587-45.953-49.222-77.042c-0.592-3.268-1.325-6.552-2.201-9.842c-13.271-49.837-54.565-82.106-92.233-72.076
				c-37.668,10.03-57.446,58.562-44.175,108.399c2.714,10.191,6.6,19.644,11.387,28.151c15.278,27.149,20.26,59.052,12.752,89.3
				c-6.71,27.031-6.677,57.842,1.596,88.91c12.339,46.335,40.294,83.063,73.746,102.509c12.653,7.356,23.923,16.963,33.095,28.353
				c15.242,18.927,37.519,28.571,58.667,22.94c22.814-6.075,37.927-28.226,40.187-54.829c1.279-15.055,5.505-29.663,11.92-43.355
				C1074.841,1395.643,1078.673,1354.216,1067.516,1312.32z"/>
			<path style="fill:#91B3FA;" d="M887.832,1107.094c13.691,31.627,26.356,63.668,38.685,95.841
				c3.086,8.042,6.042,16.132,9.024,24.213l4.472,12.122l4.37,12.159c2.882,8.118,5.876,16.196,8.666,24.346l8.372,24.45
				c5.373,16.371,10.885,32.696,15.953,49.167c2.546,8.231,5.251,16.411,7.63,24.695l7.249,24.812
				c9.331,33.178,17.832,66.606,24.625,100.399l-1.454,0.307l-6.045-25.09l-1.497-6.273l-1.654-6.236l-3.331-12.465l-3.307-12.469
				c-1.095-4.158-2.344-8.276-3.508-12.415c-2.384-8.264-4.703-16.546-7.14-24.794c-9.964-32.931-20.366-65.73-31.443-98.31
				c-5.663-16.248-11.186-32.542-16.962-48.752l-4.299-12.168l-4.401-12.133c-2.929-8.09-5.858-16.18-8.869-24.241
				c-5.884-16.172-11.883-32.304-18.015-48.385c-6.047-16.113-12.247-32.174-18.495-48.209L887.832,1107.094z"/>
		</g>
		<g>
			<path style="fill:#91B3FA;" d="M939.625,1363.18c-21.413-22.613-48.111-36.007-73.581-39.186
				c-22.768-2.842-43.71-14.241-58.091-32.12c-1.512-1.879-3.118-3.72-4.818-5.516c-25.753-27.196-63.251-33.503-83.756-14.087
				c-20.505,19.416-16.251,57.203,9.501,84.399c5.266,5.561,11.022,10.247,17.024,14.018c19.155,12.033,33.402,30.657,39.122,52.543
				c5.111,19.558,15.828,39.196,31.882,56.15c23.943,25.285,54.496,39.045,82.549,39.885c10.611,0.318,21.123,2.549,30.918,6.643
				c16.277,6.802,33.811,5.252,45.324-5.648c12.419-11.76,14.353-31.11,6.556-48.857c-4.412-10.043-6.792-20.821-7.461-31.769
				C973.216,1413.788,961.274,1386.043,939.625,1363.18z"/>
			<path style="fill:#7D97F4;" d="M753.954,1294.404c19.698,15.437,38.887,31.494,57.907,47.751
				c4.757,4.062,9.448,8.2,14.153,12.323l7.056,6.185l7.004,6.244c4.653,4.181,9.364,8.297,13.971,12.531l13.819,12.699
				c9.105,8.583,18.283,17.089,27.228,25.842c4.478,4.369,9.042,8.651,13.432,13.112l13.23,13.318
				c17.46,17.934,34.478,36.314,50.536,55.518l-0.819,0.698l-12.56-13.911l-3.132-3.483l-3.218-3.406l-6.448-6.798l-6.435-6.809
				c-2.141-2.274-4.366-4.468-6.544-6.705c-4.388-4.446-8.739-8.927-13.155-13.344c-17.778-17.558-35.788-34.88-54.152-51.829
				c-9.247-8.405-18.421-16.887-27.727-25.229l-6.962-6.275l-7.014-6.216c-4.674-4.147-9.348-8.294-14.063-12.394
				c-9.361-8.28-18.782-16.494-28.27-24.631c-9.445-8.186-18.969-16.286-28.514-24.352L753.954,1294.404z"/>
		</g>
	</g>
</g>
</svg>
